<svg height="1100" version="1.1" width="700" xmlns="http://www.w3.org/2000/svg" style="overflow: hidden; position: relative;"><desc style="-webkit-tap-highlight-color: rgba(0, 0, 0, 0);">Created with Raphaël 2.1.2</desc><defs style="-webkit-tap-highlight-color: rgba(0, 0, 0, 0);"></defs><path fill="#ffffff" stroke="#000000" d="M419.137,446.783C420.029,445.862,421.671,445.46000000000004,422.622,446.526C430.293,454.264,438.01,461.962,445.72700000000003,469.65700000000004C446.88100000000003,470.79900000000004,447.821,472.22100000000006,448.04900000000004,473.86C450.47,489.906,452.95900000000006,505.947,455.39900000000006,521.992C456.2950000000001,526.3109999999999,458.05600000000004,530.3829999999999,459.41600000000005,534.5649999999999C461.48600000000005,540.9799999999999,463.69900000000007,547.3489999999999,465.82000000000005,553.7479999999999C466.72600000000006,557.0529999999999,469.84900000000005,558.914,471.94700000000006,561.411C475.01200000000006,564.0619999999999,477.40000000000003,567.6469999999999,481.22400000000005,569.294C490.891,574.081,500.5210000000001,578.946,510.184,583.741C511.411,584.331,512.594,585.116,513.299,586.322C518.788,595.08,524.3969999999999,603.763,529.927,612.496C530.7860000000001,613.835,531.546,615.263,532.619,616.453C535.7950000000001,618.444,539.245,619.961,542.461,621.891C542.485,622.2769999999999,542.532,623.05,542.556,623.4359999999999C539.839,625.5239999999999,536.777,627.1039999999999,534.051,629.1769999999999C541.388,643.5829999999999,549.254,657.7249999999999,556.7700000000001,672.0419999999999C557.3110000000001,672.8709999999999,557.0670000000001,673.8589999999999,557.0240000000001,674.7839999999999C551.6970000000001,674.9429999999999,546.4310000000002,673.7969999999999,541.1420000000002,673.3079999999999C545.4830000000002,678.6249999999999,552.1680000000001,681.0259999999998,557.5120000000002,685.1059999999999C558.9190000000002,686.2909999999998,559.4190000000002,688.1399999999999,560.1660000000002,689.7539999999999C563.6820000000001,697.5819999999999,567.2400000000001,705.3909999999998,570.7750000000002,713.2109999999999C571.8540000000002,715.4209999999999,571.0600000000002,717.9119999999999,570.9720000000002,720.2399999999999C570.5910000000002,722.9609999999999,570.6340000000002,725.7549999999999,570.0100000000002,728.435C568.6300000000002,730.67,566.6450000000002,732.4849999999999,564.9410000000003,734.4789999999999C561.1250000000002,738.8829999999999,556.9970000000003,743.0219999999999,553.4000000000002,747.6109999999999C559.9200000000002,751.4029999999999,566.4770000000002,755.1589999999999,573.1620000000003,758.6509999999998C576.0980000000003,752.4589999999998,578.5060000000003,746.0309999999998,581.2610000000003,739.7589999999998C581.7660000000003,738.6049999999998,582.5870000000003,737.1879999999998,584.0770000000003,737.4229999999998C593.5600000000003,737.3979999999998,603.0450000000003,737.4309999999998,612.5290000000003,737.4089999999998C614.4900000000004,737.3789999999998,616.4060000000003,737.8509999999998,618.3210000000004,738.2299999999998C623.3440000000004,739.1179999999998,628.3700000000003,740.0099999999998,633.3830000000004,740.9669999999998C635.2160000000003,741.2779999999998,636.4590000000004,742.7699999999998,637.8560000000003,743.8619999999997C644.0570000000004,749.1689999999998,650.2880000000004,754.4399999999997,656.4940000000004,759.7429999999997C657.3910000000004,760.5659999999997,658.5250000000003,761.3619999999997,658.7620000000004,762.6489999999997C660.0920000000004,769.2989999999996,660.8180000000004,776.0589999999996,662.2560000000004,782.6909999999997C662.5720000000005,785.5459999999997,663.3130000000004,788.4629999999997,662.6490000000005,791.3269999999997C660.7700000000004,799.9949999999997,658.7890000000004,808.6389999999997,656.8650000000005,817.2969999999997C655.6620000000005,821.6089999999997,655.3420000000004,826.2329999999997,653.5650000000005,830.3449999999997C646.9790000000005,837.1839999999997,640.0720000000005,843.7249999999997,633.6090000000005,850.6879999999996C634.9950000000005,851.2539999999997,636.4180000000005,851.7209999999997,637.8190000000005,852.2709999999996C637.6700000000005,853.1619999999996,637.4320000000006,854.0659999999996,636.7000000000005,854.6689999999996C633.7120000000004,857.6259999999996,630.5880000000005,860.4449999999996,627.4970000000005,863.2939999999996C626.1640000000006,864.5489999999996,624.2200000000005,864.4869999999996,622.5210000000005,864.6179999999996C619.6870000000006,864.6729999999995,616.8640000000005,864.9359999999996,614.0340000000006,864.9839999999996C614.5870000000006,866.2499999999995,615.5910000000006,867.4059999999996,615.5400000000005,868.8639999999996C615.5550000000005,872.0299999999996,615.5860000000006,875.1999999999996,615.5220000000005,878.3679999999996C615.4810000000004,880.7459999999996,613.3810000000005,882.2709999999996,612.1700000000005,884.1079999999996C609.9820000000005,886.7599999999996,608.2190000000005,889.8219999999997,605.7030000000005,892.1669999999996C602.0760000000006,893.4639999999996,598.0770000000006,892.8779999999996,594.3510000000006,893.7949999999996C596.7980000000006,894.8969999999996,599.5150000000006,895.1279999999996,602.0340000000006,896.0309999999996C605.5510000000006,897.2409999999996,609.0120000000005,898.6209999999996,612.4560000000006,900.0299999999996C615.6070000000005,901.3489999999996,617.3570000000005,904.7039999999996,620.3980000000006,906.1159999999996C628.9620000000006,904.9459999999997,637.3720000000006,902.6359999999996,645.9080000000006,901.1959999999997C647.0080000000006,900.8679999999997,648.2600000000006,901.5789999999997,648.0840000000006,902.8329999999996C647.4240000000007,905.7109999999997,645.5160000000006,908.2059999999997,645.1400000000007,911.1449999999996C645.7040000000006,916.5709999999997,647.7270000000007,921.7739999999997,648.1730000000007,927.2119999999996C647.2770000000007,928.4559999999997,645.8620000000006,929.1519999999997,644.6050000000007,929.9629999999996C641.1360000000006,932.0389999999996,637.7310000000007,934.2169999999996,634.3040000000007,936.3609999999996C631.5350000000007,938.1949999999996,628.1240000000007,938.3639999999997,625.0490000000007,939.3939999999997C623.8280000000007,939.7079999999996,623.4530000000007,941.0669999999997,622.8820000000006,942.0349999999996C621.9950000000007,943.9849999999997,620.7850000000007,945.8089999999996,620.1930000000007,947.8829999999996C620.1460000000006,950.1649999999996,620.9740000000006,952.4239999999996,620.4990000000007,954.7119999999995C616.1740000000007,954.9859999999995,611.9430000000007,953.6419999999995,607.6470000000007,953.6329999999996C604.0800000000007,955.4309999999996,601.6150000000007,958.9159999999996,597.9930000000007,960.6449999999995C592.7130000000008,962.3379999999995,587.3560000000007,963.7919999999996,582.0660000000007,965.4519999999995C579.9250000000008,966.0269999999996,578.9510000000007,968.2199999999996,577.5760000000007,969.7479999999996C575.8520000000007,971.6609999999996,574.6200000000007,974.1069999999996,572.4270000000007,975.5409999999996C569.3520000000007,975.2419999999996,566.5360000000007,973.7599999999996,563.5660000000007,972.9839999999996C556.6450000000007,970.6439999999996,549.6800000000007,968.4389999999996,542.7510000000007,966.1299999999995C541.4220000000007,965.6679999999996,539.9880000000006,965.7679999999996,538.6370000000006,966.0349999999995C528.8470000000007,968.0009999999995,518.9720000000007,969.5289999999995,509.1860000000006,971.5039999999996C508.3120000000006,973.2539999999996,507.7280000000006,975.1389999999996,506.7910000000006,976.8609999999995C506.3570000000006,977.7489999999996,505.1520000000006,978.2849999999995,504.28300000000064,977.6789999999995C501.2980000000006,976.1519999999995,498.61700000000064,974.0989999999995,495.70400000000063,972.4469999999995C495.1730000000006,972.1139999999996,494.6010000000006,971.9519999999995,493.9860000000006,971.9589999999995C489.1550000000006,971.8579999999995,484.3160000000006,972.2529999999995,479.5030000000006,972.2209999999994C475.9570000000006,970.3009999999995,473.1010000000006,967.3069999999994,469.7380000000006,965.0799999999995C470.08400000000063,967.8699999999994,468.1450000000006,970.1569999999995,466.1420000000006,971.8209999999995C462.6710000000006,973.0939999999995,458.87900000000064,973.2389999999995,455.3980000000006,974.4699999999995C453.9260000000006,975.7539999999995,453.8490000000006,978.1319999999995,452.1070000000006,979.1539999999994C449.4740000000006,979.4059999999994,447.0920000000006,977.7759999999994,444.5170000000006,977.6719999999995C439.7030000000006,979.9019999999995,434.26600000000064,979.7069999999994,429.14400000000063,980.7249999999995C428.5150000000006,983.7839999999994,428.66300000000064,986.9439999999995,428.0250000000006,989.9999999999994C427.8950000000006,990.8549999999994,426.8270000000006,991.1849999999994,426.0750000000006,991.0729999999994C419.0000000000006,990.3029999999994,411.9690000000006,989.1699999999994,404.8990000000006,988.3639999999995C402.17000000000064,988.0789999999995,399.4720000000006,987.3039999999995,396.72000000000065,987.3959999999995C395.28800000000064,989.0489999999995,395.7480000000007,991.7929999999996,394.15500000000065,993.4439999999995C393.1300000000007,993.8319999999995,392.25300000000067,993.0299999999995,391.4210000000007,992.5719999999995C384.73400000000066,988.1379999999996,378.0700000000007,983.6689999999995,371.35700000000065,979.2779999999996C369.90600000000063,978.4099999999995,368.14400000000063,978.4579999999995,366.53000000000065,978.1629999999996C364.55500000000063,977.9669999999995,362.55000000000064,977.2819999999996,360.56900000000064,977.7309999999995C356.8320000000006,978.9419999999996,353.39800000000065,981.0149999999995,349.52800000000065,981.8279999999995C346.84300000000064,982.3949999999995,344.18800000000067,983.0879999999995,341.5120000000006,983.6949999999995C338.1780000000006,984.1079999999995,337.09600000000063,987.8389999999995,334.5610000000006,989.5279999999995C332.5580000000006,990.1269999999995,330.4260000000006,990.0489999999994,328.37000000000063,990.3659999999994C327.07100000000065,993.3359999999994,325.4980000000006,996.1959999999995,324.39600000000064,999.2489999999995C323.80400000000066,1000.7459999999994,325.45400000000063,1001.9879999999995,325.29000000000065,1003.4649999999995C324.34000000000066,1004.9339999999995,322.7260000000006,1005.7689999999994,321.43700000000064,1006.9039999999994C322.51900000000063,1008.1699999999994,323.58600000000064,1009.4509999999995,324.5680000000006,1010.8049999999994C323.6550000000006,1013.4359999999994,323.15600000000063,1016.3929999999993,321.36500000000063,1018.5979999999994C319.32900000000063,1019.7449999999994,316.93600000000066,1020.0069999999994,314.78100000000063,1020.8799999999994C314.59100000000063,1023.7769999999995,315.93000000000063,1026.7209999999993,315.1250000000006,1029.5579999999995C313.90300000000065,1030.4449999999995,312.3420000000006,1029.7579999999996,311.0010000000006,1029.6039999999996C307.1910000000006,1028.7089999999996,303.3210000000006,1028.0709999999997,299.5410000000006,1027.0639999999996C296.7700000000006,1026.0469999999996,296.1730000000006,1022.6269999999996,293.8880000000006,1021.0309999999996C290.2640000000006,1019.9299999999996,286.4080000000006,1019.9149999999996,282.7500000000006,1018.9669999999996C281.7390000000006,1018.6789999999996,281.07600000000065,1017.8169999999997,280.3350000000006,1017.1419999999996C279.1170000000006,1018.2769999999996,277.95900000000063,1019.6109999999996,276.3470000000006,1020.1859999999996C273.1490000000006,1018.5829999999996,271.4920000000006,1015.0189999999996,268.4120000000006,1013.2459999999995C265.7320000000006,1013.0749999999995,263.0250000000006,1013.0749999999995,260.3450000000006,1013.2429999999995C258.0250000000006,1014.0949999999995,256.5260000000006,1016.4689999999995,254.0730000000006,1017.0499999999995C250.52800000000062,1017.2649999999995,247.0180000000006,1016.4949999999995,243.49200000000062,1016.2399999999996C242.7160000000006,1016.2189999999996,241.6690000000006,1015.9279999999995,241.21200000000061,1016.7919999999996C239.10100000000062,1020.2419999999996,238.40400000000062,1024.5319999999995,235.7640000000006,1027.6459999999995C232.8600000000006,1028.7269999999994,229.6200000000006,1028.5319999999995,226.73000000000062,1029.6619999999996C224.66600000000062,1031.4239999999995,224.3590000000006,1034.6069999999995,222.0490000000006,1036.1679999999997C219.7510000000006,1037.2109999999996,217.2610000000006,1037.7499999999998,214.9220000000006,1038.6949999999997C216.56900000000059,1040.3909999999996,218.5010000000006,1041.7939999999996,220.0180000000006,1043.6229999999998C218.9000000000006,1045.5959999999998,216.9480000000006,1046.8169999999998,215.2550000000006,1048.2429999999997C213.2540000000006,1049.7959999999998,211.4040000000006,1051.5459999999998,209.3290000000006,1053.0039999999997C208.3680000000006,1053.8459999999998,207.2130000000006,1052.8669999999997,206.7110000000006,1052.0009999999997C204.35600000000062,1048.1819999999998,202.3400000000006,1044.1639999999998,200.0240000000006,1040.3249999999998C199.5000000000006,1039.3709999999999,198.4340000000006,1038.994,197.5050000000006,1038.5769999999998C195.1540000000006,1037.6119999999999,192.8670000000006,1036.4629999999997,190.3970000000006,1035.8269999999998C188.28100000000057,1038.1329999999998,187.1470000000006,1041.8719999999998,183.68700000000058,1042.4689999999998C181.41200000000057,1043.0169999999998,179.15000000000057,1043.8999999999999,176.7840000000006,1043.8729999999998C175.0000000000006,1042.7369999999999,173.71600000000058,1040.9019999999998,172.6430000000006,1039.1129999999998C172.4700000000006,1037.6369999999997,173.1540000000006,1036.2579999999998,173.5480000000006,1034.8819999999998C174.2820000000006,1032.8439999999998,174.6970000000006,1030.668,175.7690000000006,1028.774C177.9290000000006,1027.1999999999998,180.5370000000006,1026.425,182.9370000000006,1025.3039999999999C185.3340000000006,1024.3629999999998,187.5770000000006,1022.9789999999998,190.11200000000062,1022.4289999999999C191.80300000000062,1022.6319999999998,192.9960000000006,1024.0839999999998,194.43000000000063,1024.8909999999998C202.53300000000064,1017.3139999999999,210.48100000000062,1009.5759999999998,218.59700000000063,1002.0149999999999C219.08800000000065,1001.4209999999998,219.87700000000063,1000.9109999999998,219.93500000000063,1000.0909999999999C220.16800000000063,996.8609999999999,219.70300000000063,993.5979999999998,220.25600000000063,990.3909999999998C223.97800000000063,989.3049999999998,228.00200000000063,989.2969999999998,231.50400000000062,987.4979999999998C233.7290000000006,986.4249999999998,236.16600000000062,985.7339999999998,238.23700000000062,984.3789999999998C239.2230000000006,982.1129999999998,237.96500000000063,979.0359999999998,240.0330000000006,977.2529999999998C244.15400000000062,974.0959999999998,248.48700000000062,971.2249999999998,252.6450000000006,968.1199999999998C253.2680000000006,967.6699999999997,253.7580000000006,966.9949999999998,253.68300000000062,966.1979999999998C253.7400000000006,962.6849999999997,254.03500000000062,959.1799999999997,253.9260000000006,955.6679999999998C253.75600000000063,952.3449999999998,255.29700000000062,949.3049999999997,256.0340000000006,946.1409999999997C256.4230000000006,944.9589999999997,256.5580000000006,943.1149999999998,258.11700000000064,942.9519999999998C262.30200000000065,943.2779999999998,266.23400000000066,945.4649999999998,270.44600000000065,945.4609999999998C272.65600000000063,943.3399999999998,275.02600000000064,941.2959999999998,276.85800000000063,938.8369999999998C276.70600000000064,936.4369999999998,274.8030000000006,934.5959999999998,274.24400000000065,932.3049999999997C274.33000000000067,930.4379999999998,275.23300000000063,928.7209999999998,276.03100000000063,927.0719999999998C276.52800000000065,925.8479999999997,277.9020000000006,925.5309999999997,279.06900000000064,925.3459999999998C287.53000000000065,923.9499999999998,295.99400000000065,922.5829999999997,304.45400000000063,921.1819999999998C308.54900000000066,920.3349999999998,312.4790000000006,922.2219999999998,316.47000000000065,922.7909999999998C318.1420000000007,923.1399999999999,319.68600000000066,921.3909999999998,321.29500000000064,922.2519999999998C324.47300000000064,923.6679999999999,327.44600000000065,925.5169999999998,330.63400000000064,926.9239999999999C331.49900000000065,927.3509999999999,332.49100000000067,927.2539999999999,333.4230000000006,927.1769999999999C340.5360000000006,926.2299999999999,347.63400000000064,925.151,354.76100000000065,924.3039999999999C355.47300000000064,924.1919999999999,356.33800000000065,924.1239999999999,356.71000000000066,923.3929999999999C356.57800000000066,920.2529999999999,355.66700000000066,917.1679999999999,355.8490000000007,914.0169999999999C355.8700000000007,913.262,356.4090000000007,912.6759999999999,356.8440000000007,912.1229999999999C362.28700000000066,906.251,367.63100000000065,900.29,373.0820000000007,894.425C375.80400000000066,891.324,378.79700000000065,888.4639999999999,381.35400000000067,885.2189999999999C380.9520000000007,884.52,380.4010000000007,883.886,380.1990000000007,883.102C379.8090000000007,878.741,379.7800000000007,874.3629999999999,379.6490000000007,869.992C379.62100000000066,867.505,379.77700000000067,864.992,379.2730000000007,862.543C379.1720000000007,861.605,378.2230000000007,861.186,377.5840000000007,860.6560000000001C374.1670000000007,858.321,370.8550000000007,855.8380000000001,367.43800000000067,853.508C365.1710000000007,851.6740000000001,362.9490000000007,855.009,360.52500000000066,854.462C359.99200000000064,853.952,359.59300000000064,853.334,359.25200000000063,852.699C356.4880000000006,847.274,353.6610000000006,841.881,350.9880000000006,836.4119999999999C350.10800000000063,835.0219999999999,350.6900000000006,833.406,351.16300000000064,831.9959999999999C354.0050000000006,823.9359999999999,356.83600000000064,815.8709999999999,359.63900000000064,807.7979999999999C354.9020000000006,805.0599999999998,349.88600000000065,802.8289999999998,345.09500000000065,800.1949999999999C344.01600000000064,799.7669999999999,343.42600000000067,798.227,344.5170000000007,797.472C348.2060000000007,794.576,352.1200000000007,791.967,355.78200000000066,789.031C354.33000000000067,788.116,352.64000000000067,787.646,351.23900000000066,786.6579999999999C350.34100000000063,785.9639999999999,350.8920000000007,784.8519999999999,351.18900000000065,784.0079999999999C353.58000000000067,778.4559999999999,356.18900000000065,772.992,358.47100000000063,767.3979999999999C358.9760000000006,766.4089999999999,358.01800000000065,765.6529999999999,357.3180000000006,765.1419999999999C354.9380000000006,763.434,352.51900000000063,761.78,350.1360000000006,760.079C349.2760000000006,759.449,348.3240000000006,758.7239999999999,348.1800000000006,757.5889999999999C349.2750000000006,754.299,351.31800000000055,751.4359999999999,352.69000000000057,748.265C353.27000000000055,746.763,354.54200000000054,745.5889999999999,356.1940000000006,745.457C360.75500000000056,744.779,365.2580000000006,743.5939999999999,369.88000000000056,743.394C371.2930000000006,745.126,372.19300000000055,747.186,373.3500000000006,749.085C374.3500000000006,748.712,375.3780000000006,748.375,376.2970000000006,747.818C377.0160000000006,746.103,376.3410000000006,744.216,376.08900000000057,742.471C374.15000000000055,741.98,372.14000000000055,741.732,370.27000000000055,741.007C368.88800000000055,740.4879999999999,368.83700000000056,738.7829999999999,368.49100000000055,737.578C367.7520000000006,734.612,367.57200000000057,731.4889999999999,366.4590000000006,728.632C364.89200000000056,726.9849999999999,362.4440000000006,726.4499999999999,360.7970000000006,724.8629999999999C360.2820000000006,724.2209999999999,360.2530000000006,723.097,360.9610000000006,722.574C362.1080000000006,721.424,363.4430000000006,720.4799999999999,364.58200000000056,719.3209999999999C360.9180000000006,716.5009999999999,357.0310000000006,713.987,353.33000000000055,711.2209999999999C351.6750000000006,710.0379999999999,351.29900000000055,707.911,350.61300000000057,706.1289999999999C349.81000000000057,703.5619999999999,348.6600000000006,701.1019999999999,348.01800000000054,698.492C347.69800000000055,697.51,348.48700000000053,696.702,349.31100000000055,696.3259999999999C351.98000000000053,694.9509999999999,354.8290000000005,693.9499999999999,357.4490000000005,692.473C356.6730000000005,689.668,355.5070000000005,687,354.5220000000005,684.27C354.1250000000005,683.052,353.6350000000005,681.635,354.3700000000005,680.443C356.6260000000005,676.173,358.9430000000005,671.933,361.1980000000005,667.662C361.4340000000005,667.066,361.8580000000005,666.4820000000001,361.7930000000005,665.816C360.8340000000005,662.693,357.9310000000005,660.287,357.9400000000005,656.865C357.8930000000005,652.776,358.1230000000005,648.69,358.14100000000053,644.604C358.06800000000055,642.995,359.63500000000056,642.229,360.84000000000054,641.59C363.35200000000054,640.3190000000001,365.8890000000005,639.097,368.34900000000056,637.724C367.6100000000006,634.464,365.5500000000006,631.6930000000001,364.86800000000056,628.417C367.10200000000054,626.793,369.6650000000006,625.686,371.84700000000055,623.986C371.07700000000057,622.188,370.24200000000053,620.389,368.94600000000054,618.905C367.2020000000005,620.106,365.68100000000055,622.678,363.2640000000005,622.04C361.96300000000053,620.664,361.27300000000054,618.861,360.27500000000055,617.278C357.6390000000005,620.447,355.58500000000055,624.046,353.08900000000057,627.32C352.54800000000057,628.307,350.8960000000006,628.618,350.2010000000006,627.6360000000001C348.6200000000006,625.7280000000001,346.8330000000006,623.9100000000001,345.71400000000057,621.681C345.62500000000057,619.4780000000001,346.8650000000006,617.467,347.21700000000055,615.312C345.52700000000056,616.11,343.89100000000053,617.053,342.06500000000057,617.515C340.14700000000056,614.942,338.81000000000057,612.012,337.2590000000006,609.2189999999999C332.6100000000006,600.6779999999999,327.9790000000006,592.126,323.32200000000057,583.592C322.0860000000006,581.478,323.42300000000057,579.165,323.99100000000055,577.072C325.47700000000054,572.752,326.51600000000053,568.281,328.15200000000056,564.016C330.29200000000054,560.0079999999999,333.59500000000054,556.7439999999999,335.79600000000056,552.771C337.30400000000054,549.155,338.4920000000006,545.409,339.93500000000057,541.765C340.3810000000006,540.385,341.84000000000054,539.85,343.00300000000055,539.2189999999999C347.36600000000055,537.088,351.6800000000006,534.8559999999999,356.04800000000057,532.7349999999999C360.9300000000006,531.0829999999999,363.8770000000006,526.5429999999999,367.67900000000054,523.3379999999999C372.09900000000056,518.8129999999999,377.14000000000055,514.8749999999999,381.18300000000056,510.0049999999998C385.35900000000055,507.0609999999998,388.66400000000056,503.0829999999998,392.48700000000053,499.71599999999984C396.20800000000054,496.01399999999984,400.1680000000005,492.56199999999984,403.87300000000056,488.8419999999998C405.80100000000056,486.8739999999998,408.11900000000054,485.2789999999998,409.77800000000053,483.05499999999984C409.5260000000005,480.96999999999986,408.22900000000055,479.18399999999986,407.4610000000005,477.26199999999983C405.5530000000005,472.86899999999986,403.4060000000005,468.58099999999985,401.5140000000005,464.18499999999983C400.8390000000005,462.89399999999983,401.9950000000005,461.84099999999984,402.87600000000054,461.0629999999998C408.286,456.29,413.711,451.536,419.137,446.783Z" stroke-width="0" stroke-opacity="1" style="-webkit-tap-highlight-color: rgba(0, 0, 0, 0); stroke-opacity: 1;"></path><path fill="#cc3300" stroke="#000000" d="M518.329,776.694C518.329,776.694,518.7099999999999,781.39,519.0609999999999,783.135C520.4219999999999,783.2959999999999,521.7969999999999,783.409,523.1669999999999,783.554C523.2989999999999,785.0369999999999,523.3759999999999,786.521,523.4909999999999,788.011C524.8599999999999,788.9549999999999,526.2069999999999,789.934,527.5159999999998,790.9689999999999C527.2529999999998,793.0909999999999,527.1919999999999,795.266,526.5299999999999,797.3169999999999C523.9919999999998,799.5589999999999,520.8639999999998,801.0479999999999,518.3859999999999,803.3669999999998C518.2279999999998,805.4579999999999,519.0269999999998,807.4909999999999,519.3719999999998,809.5389999999999C517.1739999999999,810.1989999999998,516.6529999999998,812.4669999999999,515.9279999999999,814.3599999999999C513.8229999999999,814.1729999999999,511.7529999999999,813.7259999999999,509.6479999999999,813.5769999999999C508.8459999999999,816.3489999999999,507.9039999999999,819.0739999999998,507.0009999999999,821.8149999999998C502.9729999999999,825.1889999999999,498.2679999999999,827.7099999999998,494.2519999999999,831.1199999999998C495.1589999999999,832.7889999999998,496.2749999999999,834.3339999999998,497.2909999999999,835.9409999999998C496.1989999999999,837.3479999999998,495.09699999999987,838.7619999999998,493.8739999999999,840.0599999999998C492.7559999999999,838.4489999999998,492.0659999999999,836.5029999999998,490.5919999999999,835.1709999999998C486.55999999999995,835.9399999999998,482.62999999999994,837.3419999999999,478.8019999999999,838.8169999999998C478.7779999999999,840.2109999999998,478.8049999999999,841.6169999999997,478.8019999999999,843.0169999999998C476.4069999999999,843.9419999999998,474.0349999999999,844.9669999999999,471.5359999999999,845.5829999999999C470.4029999999999,842.4459999999999,469.4219999999999,839.2649999999999,468.2949999999999,836.1289999999999C469.7989999999999,835.4359999999999,471.2999999999999,834.723,472.7249999999999,833.8739999999999C471.4519999999999,831.3349999999999,469.21199999999993,829.4809999999999,467.8359999999999,827.0269999999999C467.2839999999999,824.4789999999999,470.1979999999999,824.3359999999999,471.9549999999999,824.2449999999999C471.89199999999994,822.4619999999999,471.4769999999999,820.7229999999998,471.1039999999999,818.9909999999999C472.1459999999999,818.0589999999999,473.68799999999993,817.3949999999999,474.04799999999994,815.9249999999998C474.5899999999999,813.4749999999998,475.15599999999995,810.8359999999998,474.19699999999995,808.4159999999998C474.82699999999994,807.8949999999999,475.86799999999994,807.0199999999999,476.5009999999999,806.5029999999998C476.5009999999999,806.5029999999998,475.9529999999999,804.6739999999999,474.53399999999993,802.4739999999998C472.3539999999999,799.0309999999998,470.90599999999995,795.1649999999998,468.63199999999995,791.7909999999998C463.49799999999993,787.8039999999999,456.08699999999993,786.5339999999999,452.55999999999995,780.6349999999999C452.62499999999994,778.7329999999998,453.25199999999995,776.8929999999999,453.43799999999993,775.0029999999999C450.1189999999999,772.6479999999999,446.72299999999996,770.4169999999999,443.2009999999999,768.372C445.2129999999999,765.1379999999999,447.9759999999999,762.453,450.1559999999999,759.337C450.6559999999999,758.7139999999999,450.6969999999999,757.905,450.8579999999999,757.163C445.49599999999987,754.885,439.87099999999987,753.2760000000001,434.5839999999999,750.8290000000001C434.76299999999986,747.7850000000001,434.9679999999999,744.7510000000001,435.20499999999987,741.7130000000001C436.4689999999999,740.6990000000001,438.90499999999986,740.152,438.5139999999999,738.094C437.9139999999999,732.975,437.60399999999987,727.7750000000001,436.5289999999999,722.738C434.4439999999999,720.94,431.8259999999999,719.9090000000001,429.50599999999986,718.4570000000001C428.1349999999999,717.5350000000001,426.1639999999999,716.9230000000001,425.7789999999999,715.1080000000001C424.75099999999986,711.2810000000001,423.8719999999999,707.4110000000001,422.94299999999987,703.561C422.01099999999985,700.529,425.15299999999985,697.663,423.4019999999999,694.7280000000001C425.62099999999987,691.354,427.6849999999999,687.879,430.1009999999999,684.639C431.7139999999999,685.468,433.4399999999999,686.347,434.34199999999987,688.015C437.9179999999999,693.878,441.6879999999999,699.6229999999999,445.2139999999999,705.518C445.92399999999986,706.428,446.44299999999987,707.976,447.7529999999999,708.071C452.0219999999999,707.7850000000001,456.2409999999999,707.0350000000001,460.48899999999986,706.518C462.48999999999984,706.335,464.6519999999999,705.5450000000001,466.5529999999999,706.586C468.9139999999999,707.679,470.1609999999999,708.0840000000001,471.8249999999999,708.862C473.12899999999985,709.42,473.17699999999985,708.8829999999999,473.9569999999999,708.0949999999999C474.4469999999999,707.5999999999999,475.0739999999999,706.5299999999999,475.5749999999999,705.7889999999999C477.1829999999999,702.9689999999998,478.9039999999999,700.2069999999999,480.62599999999986,697.4559999999999C481.7329999999999,695.4859999999999,484.65999999999985,696.2609999999999,485.8799999999999,694.4169999999999C486.94299999999987,693.0239999999999,488.0039999999999,691.7339999999999,488.9589999999999,690.1489999999999C489.8749999999999,688.5249999999999,496.7679999999999,692.6669999999999,497.4039999999999,690.2849999999999C498.5069999999999,687.7189999999998,499.9779999999999,685.8089999999999,501.4089999999999,683.7809999999998C502.7529999999999,684.1039999999998,504.5149999999999,684.2659999999998,507.4249999999999,683.9509999999998C509.3879999999999,684.5409999999998,506.7269999999999,687.7749999999997,507.1009999999999,690.0559999999998C511.23399999999987,689.7859999999998,514.1029999999998,688.2929999999998,516.8209999999999,687.5069999999998C519.612,683.7959999999998,522.9639999999999,680.7299999999998,524.4989999999999,679.7699999999999C525.5149999999999,678.2549999999999,527.478,673.5409999999998,528.093,674.0759999999999C531.697,677.7129999999999,533.617,687.6669999999999,537.227,691.3C538.7629999999999,692.872,545.112,680.2389999999999,546.973,681.385C548.073,682.062,549.1659999999999,682.749,550.179,683.545C551.656,684.786,553.475,685.477,555.108,686.476C556.2669999999999,687.167,556.7829999999999,688.475,557.3499999999999,689.636C560.7049999999999,697.1959999999999,564.1239999999999,704.733,567.56,712.2579999999999C568.1469999999999,713.5339999999999,568.8169999999999,714.8699999999999,568.6809999999999,716.323C568.5039999999999,719.506,568.107,722.675,567.8979999999999,725.858C567.9049999999999,727.026,567.2729999999999,728.044,566.5339999999999,728.8969999999999C561.4629999999999,734.592,556.3209999999999,740.2109999999999,551.2729999999999,745.9279999999999C550.3319999999999,746.7329999999998,549.7939999999999,748.5599999999998,551.1379999999999,749.2499999999999C556.0699999999999,752.3769999999998,561.391,754.8789999999999,566.3319999999999,758.0019999999998C564.9529999999999,759.8189999999998,563.7069999999999,761.7719999999998,562.0779999999999,763.3769999999998C559.4009999999998,764.6919999999999,556.3209999999999,764.5269999999998,553.5289999999999,765.4159999999998C551.8969999999999,767.3689999999998,551.9029999999999,770.1799999999998,551.1659999999998,772.5469999999998C548.1429999999998,771.5549999999998,544.9429999999999,771.8499999999998,541.8199999999998,771.8309999999998C538.4759999999998,771.8359999999998,534.4199999999998,772.0679999999998,531.0789999999998,772.0439999999998C528.01,772.163,518.329,776.694,518.329,776.694Z" stroke-width="0" stroke-opacity="1" style="-webkit-tap-highlight-color: rgba(0, 0, 0, 0); stroke-opacity: 1;"></path><path fill="#8b0000" stroke="#000000" d="M542.384,876.763C544.948,875.176,548.072,875.815,550.921,875.816C551.287,877.087,551.1070000000001,878.71,552.234,879.6310000000001C553.846,881.022,555.4630000000001,882.4240000000001,557.202,883.662C557.987,884.364,559.048,883.916,559.955,883.765C563.1,883.002,566.177,881.891,569.421,881.595C570.316,883.823,571.226,886.0500000000001,571.974,888.3380000000001C570.519,890.44,568.557,892.142,567.178,894.296C565.645,899.106,563.728,903.7950000000001,562.049,908.562C561.3489999999999,910.861,559.4359999999999,912.676,557.264,913.589C555.1,913.2610000000001,553.34,911.692,551.293,910.9730000000001C549.67,912.349,548.181,913.869,546.639,915.3340000000001C545.606,914.0390000000001,544.678,912.667,543.765,911.2940000000001C542.497,911.1350000000001,541.228,911.0240000000001,539.966,910.8760000000001C539.461,909.4420000000001,539.041,907.9700000000001,538.338,906.623C536.424,906.514,535.582,908.851,534.262,909.95C534.194,908.5070000000001,534.9799999999999,906.577,533.459,905.6500000000001C529.717,902.9890000000001,525.661,900.7810000000001,521.9599999999999,898.0680000000001C521.694,895.469,523.661,893.1850000000001,523.814,890.613C523.3639999999999,888.6930000000001,522.487,886.912,521.9159999999999,885.033C524.9019999999999,884.397,528.0379999999999,884.568,530.9599999999999,883.6510000000001C534.896,881.584,538.532,878.983,542.384,876.763Z" stroke-width="0" stroke-opacity="1" style="-webkit-tap-highlight-color: rgba(0, 0, 0, 0); stroke-opacity: 1;"></path><path fill="#cc3300" stroke="#000000" d="M442.25,873.787C442.25,873.787,442.131,875.023,442.093,876.166C442.07500000000005,877.3290000000001,442.755,878.9430000000001,442.755,878.9430000000001C446.227,886.3480000000001,449.347,893.9140000000001,453.127,901.1730000000001C452.30400000000003,902.0940000000002,451.473,903.0260000000001,450.669,903.9690000000002C451.71299999999997,908.4340000000002,454.25399999999996,912.5910000000001,454.04499999999996,917.2990000000002C453.991,918.6620000000003,454.186,920.1220000000002,453.64,921.4180000000002C450.425,923.0670000000002,446.846,923.8730000000003,443.64599999999996,925.5640000000002C444.80899999999997,932.8280000000002,445.89899999999994,940.0960000000002,446.96799999999996,947.3750000000002C447.20199999999994,949.2370000000002,448.16599999999994,951.5650000000003,446.18499999999995,952.8310000000002C442.59399999999994,951.1030000000003,439.256,948.9130000000002,435.7049999999999,947.1180000000003C434.0809999999999,946.2050000000003,432.2419999999999,947.0200000000003,430.53399999999993,947.1750000000003C428.49199999999996,947.5620000000002,426.99499999999995,947.7120000000003,426.99499999999995,947.7120000000003C425.667,948.1740000000003,425.4599999999999,948.9290000000003,426.08899999999994,949.9680000000003C427.73599999999993,952.3370000000003,429.18899999999996,954.8310000000004,430.74799999999993,957.2610000000003C431.73299999999995,957.3990000000003,432.7249999999999,957.5390000000003,433.71899999999994,957.6660000000003C433.21599999999995,959.7230000000003,432.70399999999995,961.7860000000003,432.51699999999994,963.9060000000003C433.52199999999993,964.0470000000003,434.52899999999994,964.1830000000003,435.5419999999999,964.3250000000003C436.2759999999999,967.4440000000003,436.8099999999999,970.6200000000002,437.7299999999999,973.6980000000003C438.6319999999999,973.5280000000004,439.5249999999999,973.2870000000004,440.4449999999999,973.1980000000003C441.3549999999999,973.8190000000003,441.93399999999986,974.7810000000003,442.5649999999999,975.6690000000003C437.7249999999999,977.7580000000004,432.18099999999987,976.9720000000003,427.2499999999999,978.6670000000004C425.6779999999999,981.6040000000004,426.3749999999999,985.1870000000004,425.6289999999999,988.3770000000004C416.2779999999999,987.4460000000004,406.9859999999999,985.8940000000005,397.6459999999999,984.8380000000004C396.5969999999999,984.7570000000004,395.4349999999999,984.5960000000005,394.5259999999999,985.2570000000004C393.7449999999999,986.8360000000004,393.3579999999999,988.5740000000004,392.7969999999999,990.2410000000004C385.8519999999999,986.0930000000004,379.29599999999994,981.3290000000004,372.4709999999999,976.9920000000004C369.5399999999999,975.3660000000004,366.0189999999999,975.9190000000004,362.8959999999999,974.9390000000004C362.8959999999999,974.9390000000004,360.7229999999999,974.6690000000004,360.0869999999999,975.0740000000004C355.99899999999985,976.7240000000004,352.03499999999985,978.7830000000004,347.6749999999999,979.6390000000005C344.9939999999999,980.3090000000004,342.2509999999999,980.7740000000005,339.5989999999999,981.5570000000005C336.72199999999987,982.3010000000005,335.6219999999999,985.4440000000004,333.38599999999985,987.1080000000005C331.35699999999986,987.7040000000005,329.13399999999984,987.2500000000006,327.14599999999984,988.0400000000005C326.0389999999998,988.7400000000006,325.6589999999998,990.0920000000006,325.11999999999983,991.2140000000005C324.06899999999985,993.7990000000005,322.72699999999986,996.2600000000006,321.70299999999986,998.8580000000005C321.06099999999986,1000.2190000000005,321.84599999999983,1001.6480000000005,322.12199999999984,1003.0040000000005C320.80999999999983,1004.2710000000005,318.65299999999985,1005.0320000000005,318.13799999999986,1006.8940000000005C318.78199999999987,1008.7230000000004,320.53099999999984,1009.8940000000005,321.72999999999985,1011.3640000000005C321.14599999999984,1013.0490000000004,320.69699999999983,1014.8280000000005,319.7719999999998,1016.3750000000005C317.6839999999998,1017.6980000000004,315.0589999999998,1017.7410000000004,312.88399999999984,1018.8870000000004C312.19299999999987,1019.2310000000004,311.91899999999987,1020.1100000000004,312.00599999999986,1020.8450000000004C312.20099999999985,1022.9540000000004,312.53199999999987,1025.0500000000004,312.57299999999987,1027.1790000000003C308.85699999999986,1026.6220000000003,305.20099999999985,1025.7720000000004,301.5389999999999,1024.9510000000002C297.85199999999986,1024.3740000000003,297.83799999999985,1019.0280000000002,294.1779999999999,1018.3740000000003C290.6589999999999,1017.6760000000003,287.08299999999986,1017.2290000000003,283.5629999999999,1016.5370000000003C283.20299999999986,1015.5700000000003,282.9639999999999,1014.5530000000002,282.42899999999986,1013.6740000000002C281.70299999999986,1013.2240000000002,280.9139999999999,1012.9160000000002,280.1469999999999,1012.5670000000002C279.3789999999999,1012.2180000000002,277.69299999999987,1010.7160000000002,277.9729999999999,1011.7700000000002C278.2519999999999,1012.8240000000002,278.6689999999999,1013.9060000000002,278.4859999999999,1015.0250000000002C277.8869999999999,1015.7680000000003,277.15999999999985,1016.3990000000002,276.4469999999999,1017.0370000000001C274.4269999999999,1015.2600000000001,272.6529999999999,1013.2320000000002,270.6399999999999,1011.4590000000002C269.4709999999999,1010.3850000000002,267.7929999999999,1010.6460000000002,266.34499999999986,1010.5950000000001C264.13299999999987,1010.6430000000001,261.91899999999987,1010.4880000000002,259.7139999999998,1010.7030000000001C256.82099999999986,1011.4110000000001,255.10999999999981,1015.0490000000001,251.85399999999981,1014.5390000000001C247.8989999999998,1014.4610000000001,243.8299999999998,1012.9870000000001,239.9419999999998,1013.9040000000001C237.49699999999982,1017.2890000000001,236.65299999999982,1021.5850000000002,234.44499999999982,1025.1270000000002C231.7099999999998,1026.5680000000002,228.40399999999983,1026.1250000000002,225.53099999999984,1027.1800000000003C223.02199999999985,1028.7250000000004,222.80699999999985,1032.2260000000003,220.51999999999984,1033.9730000000002C217.62699999999984,1035.342,214.32999999999984,1035.7230000000002,211.51199999999983,1037.255C211.29499999999982,1037.5900000000001,210.86399999999983,1038.2710000000002,210.64799999999983,1038.605C212.46799999999982,1040.511,214.80199999999982,1041.865,216.4549999999998,1043.94C213.87999999999982,1046.045,211.4059999999998,1048.298,208.63499999999982,1050.153C206.38099999999983,1046.579,204.45699999999982,1042.81,202.31399999999982,1039.173C200.8829999999998,1036.617,197.7699999999998,1036.076,195.33199999999982,1034.905C193.45699999999982,1034.22,191.67699999999982,1033.036,189.6329999999998,1032.987C187.3469999999998,1034.691,186.43799999999982,1037.662,184.2439999999998,1039.47C182.1479999999998,1040.365,179.8699999999998,1041.036,177.5859999999998,1041.1580000000001C176.4999999999998,1040.198,174.9049999999998,1038.9520000000002,175.49299999999982,1037.3090000000002C176.01899999999983,1035.3170000000002,176.6509999999998,1033.3350000000003,177.39699999999982,1031.4210000000003C177.90399999999983,1030.1250000000002,179.33299999999983,1029.6770000000004,180.47599999999983,1029.1250000000002C183.68999999999983,1027.8060000000003,186.81499999999983,1026.2600000000002,190.0919999999998,1025.1000000000001C191.53299999999982,1026.0290000000002,192.84799999999981,1027.2800000000002,194.53499999999983,1027.747C195.24199999999982,1027.511,195.87799999999982,1027.102,196.42599999999982,1026.613C201.7689999999998,1021.374,207.3399999999998,1016.373,212.6329999999998,1011.0820000000001C215.80099999999982,1007.9220000000001,219.48499999999981,1005.2440000000001,222.2489999999998,1001.7090000000001C222.89499999999978,998.6800000000001,222.25199999999978,995.5020000000001,222.68099999999978,992.431C225.85199999999978,991.803,229.11899999999977,991.4590000000001,232.06699999999978,990.0400000000001C234.73799999999977,988.7610000000001,237.61899999999977,987.8850000000001,240.14299999999977,986.326C242.04599999999976,984.461,240.58699999999976,981.2180000000001,241.88499999999976,979.114C246.14999999999975,975.7370000000001,250.75799999999975,972.797,255.05299999999977,969.4580000000001C256.0379999999998,968.7260000000001,256.3309999999998,967.47,256.30899999999974,966.311C256.33799999999974,962.119,256.36099999999976,957.921,256.60599999999977,953.7370000000001C256.59199999999976,953.5840000000001,257.08999999999975,952.0980000000001,257.24099999999976,951.6170000000001C257.6729999999998,949.614,258.21799999999973,947.647,258.8889999999998,945.715C262.9109999999998,946.235,266.7009999999998,948.01,270.75999999999976,948.267C272.7059999999998,947.4780000000001,273.9009999999998,945.5880000000001,275.43299999999977,944.229C276.96199999999976,942.541,279.0329999999998,941.157,279.8359999999998,938.9480000000001C279.4389999999998,936.378,277.3819999999998,934.4000000000001,276.9999999999998,931.844C277.3339999999998,930.3090000000001,277.69999999999976,927.985,279.6609999999998,927.873C286.9249999999998,926.581,294.2299999999998,925.508,301.4989999999998,924.24C303.14199999999977,923.993,304.8339999999998,923.611,306.5099999999998,923.551C307.5149999999998,923.5150000000001,308.50899999999984,923.6030000000001,309.49499999999983,923.902C310.4809999999998,924.201,310.85699999999986,924.337,312.08799999999985,924.523C314.22499999999985,924.851,316.3779999999999,925.7130000000001,318.55699999999985,925.198C319.4909999999999,925.064,320.5149999999999,924.606,321.40699999999987,925.1569999999999C324.18199999999985,926.4159999999999,326.7959999999999,928.0129999999999,329.5509999999999,929.3169999999999C331.1509999999999,930.0749999999999,332.97499999999985,929.7439999999999,334.66999999999985,929.5869999999999C341.86399999999986,928.6179999999998,349.05199999999985,927.5969999999999,356.25199999999984,926.6699999999998C357.36999999999983,926.4599999999998,358.96499999999986,926.3339999999998,359.2909999999998,924.9949999999999C359.5579999999998,921.6879999999999,358.4039999999998,918.459,358.3589999999998,915.1629999999999C358.2509999999998,914.2769999999999,358.9719999999998,913.6729999999999,359.4799999999998,913.0699999999999C364.6559999999998,907.391,369.8479999999998,901.7189999999999,375.0519999999998,896.0669999999999L376.4969999999998,894.4729999999998L378.4149999999998,892.7439999999998L379.7119999999998,891.1769999999998C382.1659999999998,888.3209999999998,384.54499999999985,885.4029999999998,386.4919999999998,882.1689999999998C387.8229999999998,879.8109999999998,390.1409999999998,877.9609999999998,390.6789999999998,875.2139999999997C390.3059999999998,874.9469999999997,389.5529999999998,874.4139999999998,389.1799999999998,874.1469999999997C386.5599999999998,875.6959999999997,385.14699999999976,878.5549999999997,382.62999999999977,880.2239999999997C382.2349999999998,874.3829999999997,382.24799999999976,868.5139999999997,381.98199999999974,862.6669999999997C385.18099999999976,860.6649999999997,388.43999999999977,858.7629999999997,391.70599999999973,856.8729999999997C392.63299999999975,856.2739999999997,393.66899999999976,855.7649999999998,394.3529999999997,854.8739999999997C394.6559999999997,851.2879999999997,393.9739999999997,847.7069999999997,393.9209999999997,844.1239999999997C396.6019999999997,844.1339999999997,399.3499999999997,843.8639999999997,401.9699999999997,844.5829999999996C403.4579999999997,845.5859999999997,404.6109999999997,847.0049999999997,405.95399999999967,848.1889999999996C409.1769999999997,847.1739999999996,412.15699999999964,845.4889999999996,415.4079999999997,844.5699999999996C422.3259999999997,843.7749999999996,429.35599999999965,844.1909999999996,436.2609999999997,843.3819999999996C436.3549999999997,843.0969999999996,436.5319999999997,842.5189999999996,436.6259999999997,842.2339999999996C435.4409999999997,840.3759999999996,433.9119999999997,838.7759999999996,432.6279999999997,836.9939999999996C434.5659999999997,835.8249999999996,436.62199999999973,834.8689999999996,438.6779999999997,833.9279999999995C440.6499999999997,835.8719999999995,442.5419999999997,837.8959999999995,444.4449999999997,839.9109999999995C446.0549999999997,841.3139999999995,445.3299999999997,843.6479999999995,445.44399999999973,845.5159999999995C444.505,856.137,443.378,863.184,442.25,873.787Z" stroke-width="0" stroke-opacity="1" style="-webkit-tap-highlight-color: rgba(0, 0, 0, 0); stroke-opacity: 1;"></path><path fill="#8b0000" stroke="#000000" d="M520.466,895.46L521.0600000000001,893.826C521.363,892.7660000000001,521.7510000000001,891.721,521.87,890.625C521.304,888.201,519.9350000000001,886.069,519.304,883.67C518.4449999999999,879.568,517.079,875.5889999999999,515.752,871.6229999999999C513.7379999999999,870.996,511.44699999999995,870.943,509.63399999999996,869.867C507.68699999999995,867.299,505.854,864.626,504.16399999999993,861.885C503.0369999999999,860.31,504.99999999999994,859.042,506.27099999999996,858.509C508.30999999999995,857.937,508.71599999999995,861.23,510.68699999999995,861.17C512.241,861.241,513.7909999999999,860.983,515.333,860.7919999999999C515.442,859.8779999999999,515.5459999999999,858.9699999999999,515.644,858.064C512.371,856.706,508.999,855.572,505.866,853.904C506.481,851.185,507.628,848.624,508.378,845.949C508.848,843.237,507.28,840.543,507.79699999999997,837.846C509.227,835.733,511.18499999999995,834.038,512.8209999999999,832.093C511.5469999999999,829.0649999999999,510.1579999999999,826.086,508.6069999999999,823.193C504.6029999999999,825.927,500.57699999999994,828.633,496.69499999999994,831.539C497.52399999999994,833.0169999999999,498.93799999999993,834.311,499.17999999999995,836.036C498.47099999999995,837.833,497.00499999999994,839.1999999999999,495.8709999999999,840.736C495.10099999999994,841.528,494.3039999999999,843.004,492.9939999999999,842.3969999999999C491.8329999999999,840.7289999999999,491.0019999999999,838.877,489.9549999999999,837.1429999999999C486.82699999999994,838.026,483.68499999999995,838.9049999999999,480.6359999999999,840.0329999999999C480.6939999999999,840.829,480.6419999999999,841.632,480.7179999999999,842.4369999999999C480.7139999999999,844.2429999999999,480.4289999999999,844.4329999999999,478.2799999999999,845.2829999999999C476.9509999999999,845.8119999999999,473.7349999999999,847.0539999999999,470.4009999999999,847.9879999999999C469.0499999999999,844.1419999999999,467.4419999999999,839.723,466.3199999999999,835.496C467.0379999999999,834.107,468.82299999999987,833.898,470.0749999999999,833.159C469.0529999999999,831.706,467.9199999999999,830.335,466.7119999999999,829.04C465.91899999999987,830.742,465.1759999999999,832.478,464.3889999999999,834.1859999999999C462.4639999999999,834.0189999999999,460.5979999999999,833.4909999999999,458.7569999999999,832.944C457.3049999999999,836.4799999999999,456.2929999999999,840.18,454.9619999999999,843.762C454.3119999999999,846.1619999999999,451.6439999999999,846.877,449.81599999999986,848.165C448.70899999999983,848.985,446.91799999999984,849.502,446.83099999999985,851.1229999999999C445.86699999999985,858.515,445.13099999999986,865.939,444.1159999999999,873.3259999999999C443.99399999999986,874.8209999999999,443.5989999999999,876.4339999999999,444.31899999999985,877.8499999999999C446.4209999999998,882.4189999999999,448.42399999999986,887.0469999999999,450.5989999999998,891.5849999999999C452.77399999999983,896.1229999999999,451.89599999999984,894.3,451.89599999999984,894.3S454.4259999999998,899.077,455.33999999999986,901.6339999999999C454.48499999999984,902.6049999999999,453.60999999999984,903.5719999999999,452.7599999999999,904.5509999999999C454.20999999999987,906.9619999999999,455.6229999999999,913.9509999999999,455.6229999999999,913.9509999999999C456.12599999999986,917.3489999999999,455.75599999999986,919.2239999999999,455.4199999999999,922.6349999999999C452.3349999999999,924.2679999999999,448.9289999999999,925.1849999999998,445.7499999999999,926.6189999999999C446.7079999999999,933.4479999999999,447.8579999999999,940.2479999999999,448.8019999999999,947.0799999999999C448.9949999999999,948.762,449.5009999999999,950.4499999999999,449.3289999999999,952.1579999999999C448.5719999999999,953.3829999999999,447.2429999999999,954.0659999999999,446.1149999999999,954.8999999999999C442.1819999999999,953.0759999999999,438.6219999999999,950.5489999999999,434.7029999999999,948.7139999999998C432.5329999999999,948.3209999999998,430.3429999999999,949.1529999999998,428.1799999999999,949.3489999999998C429.2469999999999,951.5069999999998,430.5719999999999,953.5189999999998,431.8669999999999,955.5479999999998C433.0929999999999,955.7359999999998,434.5229999999999,955.9919999999997,435.7819999999999,956.2549999999998C435.5919999999999,958.1839999999997,434.8979999999999,960.1509999999997,434.6119999999999,962.2779999999998C435.3139999999999,962.4849999999998,436.4269999999999,962.5719999999998,437.0309999999999,962.9029999999998C437.9029999999999,965.3209999999998,438.4439999999999,968.9719999999998,439.0929999999999,971.4599999999998C440.1099999999999,971.7019999999998,440.6169999999999,970.9959999999998,441.3679999999999,971.6389999999998C442.7479999999999,972.8229999999998,443.89799999999985,974.3609999999998,445.6299999999999,975.0639999999997C447.35199999999986,975.7729999999997,449.2059999999999,976.0979999999997,451.0189999999999,976.5089999999998C451.9139999999999,975.1049999999998,452.4279999999999,973.3089999999997,453.8279999999999,972.3219999999998C457.1149999999999,970.9609999999998,460.73799999999994,970.7769999999998,464.1329999999999,969.7699999999998C465.5089999999999,969.2439999999998,466.25499999999994,967.8589999999998,467.11799999999994,966.7579999999998C466.29499999999996,964.4859999999998,464.70899999999995,962.5369999999998,464.14699999999993,960.1809999999998C464.5469999999999,959.6249999999998,464.97999999999996,959.1009999999998,465.45699999999994,958.6139999999998C470.4989999999999,962.0549999999998,475.0009999999999,966.3019999999998,480.13699999999994,969.5809999999998C484.04499999999996,969.7649999999998,488.00699999999995,969.5029999999998,491.92699999999996,969.2969999999998L493.96599999999995,968.8239999999998C497.85799999999995,970.3479999999998,501.0439999999999,973.1799999999998,504.86499999999995,974.8339999999998C505.74499999999995,972.9589999999998,506.53599999999994,971.0349999999999,507.52599999999995,969.2159999999998C518.0989999999999,967.1159999999998,528.732,965.3929999999998,539.318,963.3549999999998L541.611,962.9009999999998C547.395,965.2649999999999,553.468,966.8829999999998,559.357,968.9779999999998C563.568,970.1589999999999,567.429,971.9859999999999,571.7579999999999,972.6189999999998C574.3179999999999,970.2009999999998,576.1229999999999,967.1269999999998,578.497,964.5429999999998C579.4989999999999,963.4919999999997,580.977,963.1439999999998,582.3059999999999,962.6929999999998C586.7439999999999,961.3999999999997,591.1629999999999,960.0629999999998,595.5949999999999,958.7489999999998C600.665,957.3419999999998,603.2739999999999,951.5469999999998,608.574,950.7129999999999L609.992,949.3349999999998C612.0749999999999,951.3189999999998,615.0129999999999,952.0179999999998,617.812,952.1979999999999C617.799,950.1069999999999,617.126,947.8739999999999,618.15,945.9179999999999C619.081,943.8949999999999,620.127,941.9179999999999,621.108,939.9219999999999C621.688,938.853,622.2689999999999,937.5869999999999,623.512,937.1669999999999C626.56,936.0419999999999,630.006,936.0229999999999,632.8169999999999,934.2629999999999C636.7349999999999,931.8899999999999,640.6009999999999,929.4459999999999,644.4719999999999,926.997C645.6799999999998,926.482,645.2739999999999,925.0219999999999,645.1339999999999,924.026C644.3319999999999,920.193,643.4159999999999,916.394,642.6349999999999,912.56C641.9529999999999,909.553,644.1269999999998,906.9399999999999,644.7689999999999,904.1189999999999C639.9219999999999,904.7029999999999,635.2299999999999,906.1289999999999,630.4129999999999,906.887C626.6839999999999,907.444,623.0109999999999,908.948,619.2169999999999,908.67C615.8549999999999,906.684,613.7239999999998,902.9169999999999,609.8849999999999,901.7009999999999C605.9129999999999,900.3,602.1009999999999,898.4239999999999,597.9599999999999,897.555C594.6059999999999,896.833,591.31,895.8629999999999,587.9519999999999,895.178C587.5369999999999,895.162,587.0089999999999,895.032,586.5339999999999,895.03C586.0589999999999,895.0269999999999,585.6289999999999,895.155,585.4129999999999,895.665C584.358,897.3059999999999,584.0859999999999,899.545,582.3739999999999,900.689C579.9269999999999,900.496,577.6469999999999,899.419,575.2299999999999,899.082C574.05,899.26,573.069,900.074,571.8939999999999,900.284C570.4259999999999,899.582,569.3709999999999,898.294,568.1659999999999,897.245C566.462,901.755,564.9029999999999,906.3100000000001,563.155,910.805C562.271,912.947,558.3879999999999,915.2389999999999,558.3879999999999,915.2389999999999C557.1669999999999,916.0709999999999,555.8879999999999,915.3399999999999,555.521,915.2149999999999C555.521,915.2149999999999,553.156,913.9469999999999,551.418,913.155C550.329,914.2379999999999,549.266,915.353,548.163,916.423C547.492,916.976,546.808,918.022,545.827,917.436C544.533,916.172,543.706,914.527,542.707,913.047C541.36,912.873,540.012,912.734,538.669,912.5880000000001C538.196,911.5390000000001,537.758,910.489,537.305,909.441C535.636,910.9250000000001,534.656,913.537,532.1859999999999,913.7760000000001C532.1199999999999,911.7940000000001,532.4,909.844,532.483,907.874C532.5669999999999,907.081,531.698,906.717,531.1999999999999,906.307C527.959,904.229,524.7429999999999,902.116,521.5029999999999,900.04C519.619,898.862,520.023,897.412,520.466,895.46ZM469.021,974.753C469.599,974.2810000000001,470.269,973.6990000000001,471.079,974.015C473.784,974.764,476.302,976.06,478.94100000000003,977.014C480.824,977.67,482.336,979.011,483.76700000000005,980.357C482.59000000000003,982.454,479.88400000000007,982.389,478.31000000000006,983.9839999999999C477.59600000000006,985.53,477.7060000000001,987.3129999999999,477.11400000000003,988.9079999999999C474.901,990.2269999999999,472.24100000000004,990.531,469.76200000000006,991.0989999999999C468.1000000000001,989.401,466.6050000000001,987.4759999999999,464.54600000000005,986.2359999999999C462.56600000000003,985.0409999999998,460.61000000000007,983.8079999999999,458.612,982.6519999999999C457.242,981.7149999999999,455.52500000000003,982.064,453.976,981.972C454.401,981.4879999999999,454.736,980.8969999999999,455.306,980.573C460.087,979.322,465.269,978.188,469.021,974.753Z" stroke-width="0" stroke-opacity="1" style="-webkit-tap-highlight-color: rgba(0, 0, 0, 0); stroke-opacity: 1;"></path><path fill="gold" stroke="#000000" d="M494.819,624.632C495.172,625.342,497.985,626.012,497.985,626.012C499.869,626.733,501.56100000000004,627.8839999999999,503.266,628.953C500.781,630.976,497.815,632.314,495.374,634.384C494.386,635.255,495.166,636.6560000000001,495.61400000000003,637.61C502.00300000000004,649.544,508.394,661.474,514.7280000000001,673.438C516.4470000000001,676.823,518.5970000000001,680.005,519.889,683.595C516.727,683.419,513.5840000000001,682.9870000000001,510.437,682.6800000000001C509.004,682.538,507.464,682.336,506.401,681.2700000000001C503.12100000000004,678.1630000000001,500.041,674.8430000000001,496.79900000000004,671.6980000000001C495.81500000000005,670.8070000000001,494.59900000000005,669.7310000000001,493.16800000000006,670.0480000000001C490.50900000000007,670.5880000000001,487.99100000000004,671.6690000000001,485.3960000000001,672.4330000000001C480.5110000000001,674.1110000000001,475.4340000000001,675.0220000000002,470.3810000000001,676.0260000000001C468.8860000000001,676.3230000000001,473.2390000000001,677.383,475.96600000000007,678.4100000000001C476.2150000000001,677.8810000000001,478.6430000000001,675.739,480.24500000000006,676.0760000000001C484.0470000000001,675.6590000000001,491.4030000000001,672.7930000000001,490.4200000000001,673.5330000000001C489.9750000000001,673.8790000000001,496.5130000000001,676.5130000000001,497.52600000000007,681.0090000000001C497.7060000000001,681.8080000000001,509.19200000000006,689.0900000000001,510.9030000000001,692.4100000000001C509.04100000000005,693.2950000000001,504.93500000000006,699.1120000000001,502.4310000000001,702.527C501.4220000000001,701.825,498.6670000000001,695.8040000000001,496.1520000000001,689.984C493.9510000000001,684.919,492.2950000000001,683.86,491.5390000000001,683.95C489.0530000000001,683.808,487.1940000000001,689.721,486.4700000000001,690.5490000000001C485.2920000000001,691.32,480.5510000000001,695.6960000000001,477.9630000000001,699.2450000000001C475.1860000000001,700.2160000000001,472.10600000000005,700.7830000000001,470.61000000000007,701.3740000000001C469.6840000000001,701.7400000000001,473.04800000000006,695.9320000000001,469.33200000000005,694.9360000000001C468.3190000000001,695.0720000000001,463.27200000000005,695.1690000000001,461.24100000000004,694.7450000000001C460.028,695.4520000000001,456.84400000000005,700.9500000000002,456.218,701.9790000000002C455.406,703.7350000000001,448.574,700.0090000000001,447.238,701.0530000000001C445.983,703.2200000000001,445.196,704.0810000000001,443.389,706.5950000000001C442.034,708.6550000000001,438.788,707.7820000000002,437.523,709.9860000000001C434.72,714.0740000000001,432.58200000000005,718.5900000000001,429.42100000000005,722.4390000000001C426.725,721.4370000000001,424.225,719.8000000000001,421.39400000000006,719.2280000000001C415.08000000000004,719.735,408.83900000000006,720.922,402.5350000000001,721.5690000000001C397.8710000000001,714.2620000000001,394.1480000000001,709.0810000000001,389.8910000000001,701.5290000000001C389.37500000000006,700.7660000000001,388.38200000000006,698.8360000000001,387.22300000000007,698.2260000000001C384.7750000000001,696.7990000000001,382.02700000000004,695.3830000000002,380.4800000000001,692.8530000000001C377.8540000000001,688.9010000000001,375.1670000000001,685.0000000000001,372.4380000000001,681.1200000000001C371.2750000000001,678.9470000000001,368.5070000000001,679.8240000000001,366.5120000000001,679.4700000000001C365.9300000000001,677.8290000000002,364.8110000000001,676.1140000000001,365.4020000000001,674.3240000000002C366.1350000000001,671.9770000000002,367.0690000000001,669.6980000000002,367.8780000000001,667.3780000000002C368.9280000000001,664.2280000000002,371.6600000000001,662.6340000000001,373.6340000000001,660.1460000000002L372.48400000000015,658.7210000000002C368.42200000000014,654.5280000000002,364.6870000000001,650.0300000000002,360.8120000000001,645.6680000000002C358.63600000000014,642.9680000000002,354.7880000000001,643.3020000000002,351.7500000000001,642.3370000000002C351.4010000000001,640.6030000000002,351.1350000000001,638.8470000000002,350.79000000000013,637.1160000000002C348.42400000000015,636.8370000000002,346.0530000000001,636.8660000000002,343.6780000000001,636.8160000000003C341.7140000000001,633.9630000000003,339.9900000000001,630.9380000000002,338.5320000000001,627.7990000000002C340.5510000000001,624.4000000000002,342.1390000000001,620.7240000000002,344.5030000000001,617.5520000000002C347.1680000000001,616.2940000000002,350.1770000000001,616.0350000000002,352.9200000000001,614.9860000000002C353.9000000000001,614.7710000000002,354.0590000000001,613.7400000000002,354.06000000000006,612.9010000000002C354.02000000000004,608.9910000000002,353.14500000000004,605.0960000000002,353.43000000000006,601.1830000000002C354.0210000000001,599.0680000000002,355.41600000000005,597.3000000000002,356.43100000000004,595.3770000000002C357.35600000000005,593.9520000000002,358.03100000000006,591.9190000000002,359.97200000000004,591.6710000000002C364.18500000000006,590.7250000000001,368.39300000000003,589.7580000000002,372.63500000000005,588.9400000000002C374.814,588.3620000000002,376.1170000000001,591.0850000000002,378.1410000000001,591.1300000000002C380.6670000000001,589.8660000000002,382.62500000000006,587.7260000000002,385.11800000000005,586.4040000000002C386.6410000000001,586.2570000000002,388.15500000000003,586.6840000000002,389.66400000000004,586.8540000000003C390.18500000000006,585.6650000000003,390.54800000000006,584.3880000000003,391.26900000000006,583.2980000000002C394.16100000000006,581.3200000000003,397.9990000000001,581.9550000000003,401.0210000000001,583.3130000000002C402.57500000000005,584.3990000000002,403.44000000000005,586.1850000000002,404.69700000000006,587.5740000000002C406.64700000000005,590.2020000000002,409.5690000000001,590.5100000000002,412.5810000000001,591.1030000000002L425.80000000000007,585.2800000000002L448.85400000000004,586.1210000000002L454.105,578.8880000000003C460.04,581.8090000000003,464.97700000000003,585.2160000000002,470.832,588.2940000000002C472.92199999999997,589.4900000000002,473.86,591.8200000000002,475.138,593.7400000000002C481.638,604.073,488.21,614.366,494.819,624.632Z" stroke-width="0" stroke-opacity="1" transform="matrix(0.9002,0,0,0.9002,85.6568,56.7095)" style="-webkit-tap-highlight-color: rgba(0, 0, 0, 0); stroke-opacity: 1;"></path><path fill="#ff6666" stroke="#000000" d="M408.28,519.309L416.00699999999995,542.3539999999999L417.0199999999999,545.6529999999999C417.0199999999999,545.6529999999999,418.9849999999999,551.819,420.4029999999999,555.1519999999999C421.4149999999999,557.4889999999999,423.4949999999999,559.0939999999999,425.2489999999999,560.853C427.59399999999994,562.952,429.6869999999999,565.3069999999999,431.8499999999999,567.5889999999999L452.34399999999994,577.866C452.34399999999994,577.866,447.90299999999996,583.972,447.90299999999996,583.972L425.443,583.192L412.03,589.223C410.9,588.805,408.38599999999997,588.011,407.364,587.3629999999999C405.46599999999995,585.728,404.41799999999995,583.295,402.443,581.752C400.246,580.6179999999999,397.792,580.084,395.39099999999996,579.577C392.54299999999995,580.206,389.075,581.107,388.21899999999994,584.333C386.8179999999999,584.337,385.2559999999999,583.725,384.00299999999993,584.588C381.94699999999995,585.924,380.0319999999999,587.4699999999999,378.01699999999994,588.8639999999999C376.61799999999994,588.1279999999999,375.40199999999993,586.8839999999999,373.8159999999999,586.6139999999999C370.8019999999999,587.0229999999999,367.88499999999993,588.064,364.8289999999999,588.2189999999999C364.4639999999999,585.7929999999999,364.8169999999999,582.983,363.0589999999999,581.0169999999999C360.3879999999999,577.7049999999999,357.1459999999999,574.9019999999999,354.6119999999999,571.4749999999999C355.3429999999999,570.0669999999999,356.0919999999999,568.6549999999999,356.7569999999999,567.2139999999999C355.2479999999999,565.4979999999999,353.1969999999999,564.135,352.1509999999999,562.083C353.5619999999999,558.583,356.6189999999999,553.552,356.6189999999999,553.552S351.2699999999999,545.861,349.0899999999999,542.999C345.5249999999999,544.094,343.0559999999999,547.113,339.86299999999994,548.895C338.3809999999999,546.341,336.76099999999997,543.834,335.61699999999996,541.108C336.11299999999994,539.048,337.775,537.42,338.768,535.5569999999999C338.31399999999996,533.9709999999999,337.65099999999995,532.4239999999999,337.493,530.771C339.127,527.235,341.701,524.2099999999999,343.464,520.7339999999999C339.626,515.4219999999999,334.955,510.77199999999993,331.161,505.4309999999999C334.535,501.7539999999999,338.396,498.57699999999994,341.948,495.07899999999995C346.87399999999997,490.10499999999996,352.14099999999996,485.4789999999999,357.101,480.54099999999994C359.18,478.49499999999995,361.558,476.68499999999995,363.207,474.25499999999994C363.456,472.3569999999999,362.104,470.6209999999999,361.437,468.89899999999994C359.24,464.24899999999997,357.15000000000003,459.55899999999997,354.94100000000003,454.91599999999994C354.533,453.88999999999993,353.86300000000006,452.8519999999999,353.98100000000005,451.7049999999999C357.4320000000001,448.27699999999993,361.30000000000007,445.2869999999999,364.87300000000005,441.98299999999995C367.45400000000006,439.8589999999999,369.821,437.49499999999995,372.51000000000005,435.50199999999995C381.27000000000004,443.84799999999996,389.68700000000007,452.554,398.225,461.12699999999995C399.346,462.09,399.72900000000004,463.54799999999994,399.935,464.953C402.67,483.081,405.449,501.196,408.28,519.309Z" stroke-width="0" stroke-opacity="1" transform="matrix(0.9002,0,0,0.9002,85.6568,56.7095)" style="-webkit-tap-highlight-color: rgba(0, 0, 0, 0); stroke-opacity: 1;"></path><path fill="#cc3300" stroke="#000000" d="M344.654,615.13C343.304,615.622,342.798,616.03,341.579,618.127C341.579,618.127,337.806,624.375,336.37,627.7679999999999C337.632,631.7109999999999,340.204,635.1999999999999,342.446,638.675C344.557,638.752,346.68100000000004,638.6129999999999,348.77700000000004,638.9599999999999C349.68100000000004,640.482,349.08400000000006,642.607,350.172,643.9709999999999C352.702,644.9799999999999,355.543,644.9489999999998,358.04900000000004,646.0409999999999C359.36300000000006,646.9259999999999,360.324,648.223,361.365,649.4019999999999C364.43600000000004,653.0899999999999,367.867,656.492,370.72700000000003,660.3539999999999C369.009,662.262,366.733,663.8659999999999,366.016,666.4599999999999C365.10900000000004,669.4419999999999,363.589,672.2499999999999,363.03000000000003,675.3269999999999C363.22200000000004,676.9599999999999,364.77700000000004,679.6569999999999,364.96900000000005,681.2759999999998C364.96900000000005,681.2759999999998,368.184,681.4729999999998,368.34100000000007,681.4779999999998L368.84400000000005,681.4829999999998C370.35200000000003,681.4359999999998,371.16200000000003,682.9179999999998,371.95700000000005,683.9689999999998C374.8310000000001,688.1519999999998,377.6650000000001,692.3479999999998,380.5690000000001,696.5119999999998C377.87700000000007,701.0719999999998,374.80500000000006,705.3959999999998,372.06200000000007,709.9249999999998C372.5880000000001,710.8169999999999,373.1360000000001,711.6909999999998,373.6820000000001,712.5809999999998C373.2370000000001,713.4069999999998,372.68000000000006,714.8529999999998,372.68000000000006,714.8529999999998C372.42100000000005,715.8699999999999,372.2750000000001,717.9209999999998,372.4530000000001,718.4909999999999C373.8060000000001,723.7429999999998,375.1730000000001,727.6759999999998,375.69200000000006,733.0909999999999C372.43300000000005,734.68,368.9580000000001,735.9029999999999,365.92500000000007,737.9069999999999C363.1070000000001,740.6569999999999,360.7730000000001,743.8929999999999,357.8380000000001,746.5339999999999C355.0610000000001,748.6359999999999,351.5100000000001,749.5209999999998,348.85100000000006,751.7849999999999C347.88800000000003,753.8199999999998,348.59700000000004,756.4369999999999,347.36600000000004,758.3109999999998C343.78800000000007,760.5659999999998,339.95400000000006,762.4609999999998,336.11400000000003,764.2369999999999C335.196,762.0999999999999,334.15700000000004,760.0279999999999,332.903,758.0709999999998C329.862,758.5399999999998,326.79,760.6309999999997,323.721,759.2709999999998C321.666,758.6029999999998,319.541,758.1709999999998,317.46500000000003,757.5909999999999C316.51800000000003,753.911,315.841,750.1739999999999,315.064,746.459C314.569,743.329,310.97700000000003,742.6709999999999,308.88300000000004,740.8779999999999C310.208,739.6729999999999,311.66900000000004,738.6229999999999,312.90400000000005,737.3219999999999C313.7250000000001,736.6149999999999,313.64700000000005,735.1989999999998,312.67900000000003,734.6659999999999C308.461,731.227,303.665,728.5329999999999,299.55100000000004,724.959L298.09600000000006,723.084C296.7250000000001,719.7439999999999,295.2780000000001,716.391,294.63000000000005,712.8219999999999C297.9750000000001,711.1799999999998,301.56600000000003,709.9579999999999,304.69700000000006,707.9159999999999C304.7800000000001,707.6529999999999,304.94500000000005,707.1289999999999,305.02700000000004,706.866C304.273,702.604,301.831,698.805,301.00600000000003,694.563C303.531,689.4499999999999,306.12800000000004,684.343,309.108,679.47L311.298,679.44C310.458,674.9090000000001,306.436,671.719,305.372,667.2570000000001C305.161,662.5020000000001,305.47700000000003,657.738,305.732,652.989C308.91900000000004,651.226,312.23400000000004,649.692,315.454,647.993C316.498,647.451,317.749,646.412,317.209,645.0820000000001C316.247,642.017,314.319,639.2980000000001,313.713,636.1100000000001C316.004,634.7190000000002,318.463,633.5930000000001,320.644,632.0290000000001C321.586,631.4560000000001,321.24,630.2160000000001,320.854,629.4180000000001C319.743,627.1260000000001,318.419,624.9430000000001,317.433,622.5920000000001L316.533,620.6120000000001C313.803,621.0380000000001,311.926,623.248,309.84200000000004,624.8430000000001C308.40500000000003,623.118,307.62700000000007,620.9530000000001,306.18100000000004,619.2470000000001C305.494,619.041,304.79900000000004,618.892,304.09600000000006,618.782C301.22900000000004,622.706,298.84700000000004,627.0010000000001,295.6790000000001,630.695C293.8160000000001,630.8670000000001,292.6910000000001,628.3810000000001,291.91300000000007,626.9290000000001C292.22600000000006,623.7520000000001,294.0040000000001,620.9300000000001,294.50900000000007,617.7920000000001C294.42100000000005,616.7750000000001,293.8740000000001,616.2050000000002,292.8590000000001,616.0820000000001C290.4550000000001,616.9490000000001,288.3580000000001,618.4610000000001,286.0480000000001,619.5330000000001C284.11200000000014,616.6810000000002,282.6710000000001,613.5380000000001,280.9770000000001,610.5460000000002C276.3990000000001,602.1530000000001,271.8540000000001,593.7340000000002,267.2490000000001,585.3560000000001C266.8140000000001,584.3790000000001,266.0110000000001,583.363,266.4840000000001,582.2500000000001C267.9080000000001,577.4540000000001,269.4460000000001,572.6850000000001,270.8800000000001,567.8920000000002C272.0180000000001,563.2960000000002,275.45600000000013,559.8430000000002,278.0370000000001,556.0240000000001C280.9720000000001,552.6240000000001,281.9310000000001,548.1570000000002,283.5430000000001,544.0810000000001C284.3480000000001,542.2190000000002,284.56600000000014,539.7000000000002,286.6640000000001,538.7850000000001C290.8870000000001,536.643,295.1290000000001,534.542,299.3720000000001,532.4390000000001C300.85700000000014,531.589,302.73200000000014,531.8320000000001,304.1730000000001,530.969C312.5780000000001,523.0070000000001,320.95800000000014,515.019,329.3630000000001,507.05400000000003C333.4970000000001,511.44500000000005,337.1740000000001,516.239,341.0510000000001,520.8570000000001C339.4190000000001,523.7260000000001,337.4640000000001,526.402,335.8150000000001,529.2590000000001C334.5830000000001,531.2270000000001,336.3610000000001,533.3470000000001,336.3700000000001,535.4100000000001C335.5510000000001,537.2510000000001,334.0390000000001,538.6990000000001,333.30900000000014,540.5860000000001C333.3650000000001,541.6370000000002,333.96700000000016,542.5440000000001,334.41900000000015,543.4670000000001C335.9710000000002,546.2260000000001,337.39500000000015,549.0770000000001,339.22000000000014,551.6740000000001C342.53400000000016,550.022,345.21000000000015,547.383,348.35700000000014,545.4630000000001C350.4490000000001,548.046,352.23600000000016,550.854,354.13300000000015,553.58C352.7640000000001,556.649,350.52200000000016,559.441,349.90200000000016,562.777C350.8220000000002,564.764,352.77800000000013,566.0540000000001,354.17800000000017,567.7130000000001C353.6460000000002,569.128,352.1220000000002,570.5110000000001,352.4680000000002,572.0490000000001C355.0730000000002,576.0450000000001,358.98600000000016,578.9850000000001,361.8000000000002,582.8210000000001C362.8500000000002,584.6870000000001,362.5110000000002,586.9410000000001,362.6550000000002,589.0020000000002C360.9210000000002,589.3690000000001,359.1230000000002,589.5960000000002,357.4940000000002,590.3220000000002C355.9290000000002,591.5790000000002,355.2310000000002,593.5660000000003,354.1630000000002,595.2130000000002C353.15900000000016,597.1550000000002,351.65200000000016,598.9300000000002,351.26700000000017,601.1240000000001C351.22700000000015,605.1340000000001,351.8480000000002,609.1200000000001,352.0020000000002,613.1270000000002C349.351,613.933,346.634,614.512,344.654,615.13Z" stroke-width="0" stroke-opacity="1" transform="matrix(0.9002,0,0,0.9002,85.6568,56.7095)" style="-webkit-tap-highlight-color: rgba(0, 0, 0, 0); stroke-opacity: 1;"></path><path fill="#8b0000" stroke="#000000" d="M349.819,758.112C349.432,759.246,348.834,759.923,347.584,760.603C343.379,762.572,339.633,765.1419999999999,335.35,766.952C334.113,764.911,333.09400000000005,762.765,332.09400000000005,760.606C329.95700000000005,760.925,327.85800000000006,761.48,325.82300000000004,762.196C325.81600000000003,764.488,326.62300000000005,766.97,325.718,769.143C323.83000000000004,770.8340000000001,321.326,771.845,318.892,772.474C316.628,770.856,315.87,767.9730000000001,314.346,765.753C310.605,766.22,306.902,766.899,303.184,767.508C301.74,767.794,299.89300000000003,767.94,299.25300000000004,769.518C297.75200000000007,772.4780000000001,296.00600000000003,775.342,294.87200000000007,778.475C298.68800000000005,781.6,302.97100000000006,784.0930000000001,306.74000000000007,787.282C305.9770000000001,790.918,304.0710000000001,794.1510000000001,302.6740000000001,797.5590000000001C301.06200000000007,801.441,299.0810000000001,805.1740000000001,297.7530000000001,809.171C299.9180000000001,810.177,302.1600000000001,810.9620000000001,304.3240000000001,811.9770000000001C304.0960000000001,812.8170000000001,304.3560000000001,813.9730000000001,303.5740000000001,814.5730000000001C299.49600000000015,817.8960000000001,294.8410000000001,820.503,291.0460000000001,824.1750000000001C296.2900000000001,826.9490000000001,302.5500000000001,830.2170000000001,307.9100000000001,832.7650000000001L306.7390000000001,836.1930000000001C303.9870000000001,844.1450000000001,301.2070000000001,852.0910000000001,298.38200000000006,860.0180000000001C297.91100000000006,861.4610000000001,297.27900000000005,862.8850000000001,297.2270000000001,864.4290000000001C297.9140000000001,866.6680000000001,299.1970000000001,868.6730000000001,300.2430000000001,870.7600000000001C302.43900000000014,874.8190000000001,304.2840000000001,879.0680000000001,306.6040000000001,883.0630000000001C308.3860000000001,882.4830000000001,310.0930000000001,881.5810000000001,311.9750000000001,881.368C313.5400000000001,881.8320000000001,314.8130000000001,882.921,316.1460000000001,883.8290000000001C320.34400000000005,886.9350000000001,324.69200000000006,889.8430000000001,328.8690000000001,892.9810000000001C332.9340000000001,890.7200000000001,336.91300000000007,888.3020000000001,340.88700000000006,885.8850000000001C341.15500000000003,881.5020000000001,340.17500000000007,877.1450000000001,340.5570000000001,872.7720000000002C343.19200000000006,872.5670000000001,345.33400000000006,872.7440000000001,347.97600000000006,872.6430000000001C350.0520000000001,872.4780000000002,352.19900000000007,873.6330000000002,352.19900000000007,873.6330000000002C354.2700000000001,874.9000000000002,354.3520000000001,875.1860000000001,356.0710000000001,876.8830000000002C358.7820000000001,876.0640000000002,361.3350000000001,874.8320000000001,363.9630000000001,873.7920000000001C366.6940000000001,872.5990000000002,369.73300000000006,873.0820000000001,372.62000000000006,872.8020000000001C377.35400000000004,872.3940000000001,382.12000000000006,872.6120000000001,386.8430000000001,872.0520000000001C385.46600000000007,870.1440000000001,383.76000000000005,868.4630000000001,382.6720000000001,866.3660000000001C384.4860000000001,864.1560000000001,387.5520000000001,863.5390000000001,389.9190000000001,862.0450000000001L392.5430000000001,860.7170000000001C392.5430000000001,860.7170000000001,395.2600000000001,863.3290000000001,396.4450000000001,864.8210000000001C398.1130000000001,866.8840000000001,400.4810000000001,868.4260000000002,401.6660000000001,870.8520000000001C401.9760000000001,873.3580000000001,401.7200000000001,875.8910000000001,401.77100000000013,878.4140000000001C403.8480000000001,877.1970000000001,406.1470000000001,876.2260000000001,407.86200000000014,874.498C410.1390000000001,869.8340000000001,410.84000000000015,864.494,413.3530000000001,859.9300000000001C415.3940000000001,860.3860000000001,417.41000000000014,860.9720000000001,419.44400000000013,861.475C421.0550000000001,858.539,421.54500000000013,855.1270000000001,423.3600000000001,852.293C423.96800000000013,850.919,425.7020000000001,851.111,426.9160000000001,850.673C426.5080000000001,849.089,426.1280000000001,847.483,425.8060000000001,845.8870000000001C427.0010000000001,844.9040000000001,428.4510000000001,844.1890000000001,429.4070000000001,842.946C429.98500000000007,841.344,429.9480000000001,839.6080000000001,430.0820000000001,837.9350000000001C428.9120000000001,837.542,426.4000000000001,838.086,426.9010000000001,836.1500000000001C428.25800000000015,834.681,430.0440000000001,833.7030000000001,431.53700000000015,832.3840000000001C429.42400000000015,828.0710000000001,427.0720000000002,823.8780000000002,424.92100000000016,819.5860000000001C423.93800000000016,817.2530000000002,421.31500000000017,816.5370000000001,419.34000000000015,815.3100000000002C414.21800000000013,812.4280000000002,408.00300000000016,810.1620000000001,405.38700000000017,804.4630000000002C405.4630000000002,802.6050000000002,406.03000000000014,800.8080000000002,406.40700000000015,799.0020000000002C405.39700000000016,798.2890000000002,404.37600000000015,797.5870000000002,403.3460000000002,796.9170000000001L401.0960000000002,795.5370000000001C399.0540000000002,794.1120000000002,396.81300000000016,792.9650000000001,394.9150000000002,791.3510000000001C394.5090000000002,790.0640000000001,395.5950000000002,789.0350000000001,396.2650000000002,788.0800000000002C398.58600000000024,785.2870000000001,400.8920000000002,782.4720000000002,403.0610000000002,779.5580000000001C397.4790000000002,776.6810000000002,391.2710000000002,775.2760000000001,385.6120000000002,772.5670000000001C385.6190000000002,768.8000000000001,386.0520000000002,765.0450000000001,386.1970000000002,761.2850000000001C386.1410000000002,759.1490000000001,388.5180000000002,758.4800000000001,389.93300000000016,757.4290000000001C389.60400000000016,752.5860000000001,388.81100000000015,747.7950000000001,388.3580000000002,742.9660000000001C388.39200000000017,740.5230000000001,385.74100000000016,739.8230000000001,384.08200000000016,738.6900000000002C381.68100000000015,737.4600000000002,379.51700000000017,735.6820000000001,376.91000000000014,734.9240000000002C374.71700000000016,735.6430000000003,372.7140000000001,736.8360000000002,370.5790000000001,737.7000000000002C364.92000000000013,739.7020000000001,362.7450000000001,746.0570000000001,357.8410000000001,749.1020000000002C355.42000000000013,750.4050000000002,352.91700000000014,751.5670000000002,350.5340000000001,752.9430000000002C350.274,754.673,350.049,756.538,349.819,758.112Z" stroke-width="0" stroke-opacity="1" transform="matrix(0.9002,0,0,0.9002,85.6568,56.7095)" style="-webkit-tap-highlight-color: rgba(0, 0, 0, 0); stroke-opacity: 1;"></path><path fill="#cc3300" stroke="#000000" d="M636.994,803.5C637.2080000000001,804.81,637.691,807.077,638.274,810.865S637.571,818.338,636.711,821.975C634.428,832.88,631.842,843.7180000000001,629.529,854.6170000000001C629.205,855.9300000000001,628.972,857.3750000000001,627.97,858.3760000000001C623.552,863.0280000000001,618.745,867.2940000000001,614.394,872.0120000000001C613.092,873.649,611.073,875.316,609.508,877.105C607.943,878.894,605.8290000000001,880.309,604.798,882.499C604.549,884.745,607.344,884.754,608.807,885.494C605.857,888.5160000000001,602.9250000000001,891.64,599.518,894.143C594.294,895.3620000000001,588.768,894.44,583.481,895.413C582.6659999999999,895.759,582.307,896.3770000000001,582.406,897.268C583.39,899.413,586.108,900.778,585.784,903.4340000000001C585.712,906.7180000000001,586.0409999999999,910.0470000000001,585.564,913.3070000000001C583.5749999999999,916.6860000000001,580.865,919.5860000000001,578.603,922.7870000000001C577.544,924.1030000000002,576.531,925.8830000000002,574.625,925.9360000000001C569.527,926.4800000000001,564.419,926.9290000000002,559.315,927.4030000000001C557.8320000000001,927.5990000000002,556.216,927.3210000000001,554.8580000000001,928.0500000000002C553.317,930.2980000000002,552.585,932.9860000000002,551.2040000000001,935.3330000000002C548.499,934.9400000000002,545.936,933.9090000000002,543.24,933.5230000000003C542.164,933.7320000000002,541.211,934.2890000000002,540.225,934.7280000000003C539.02,933.6510000000003,537.8140000000001,932.5770000000003,536.696,931.4200000000003C538.4870000000001,929.0120000000003,540.749,926.9750000000003,542.38,924.4510000000002C541.653,920.7480000000003,540.137,917.1120000000002,538.249,913.8310000000002C534.586,914.6070000000002,530.961,915.5420000000003,527.352,916.5290000000002C526.437,916.6720000000003,525.366,917.2340000000003,524.5369999999999,916.5680000000002C522.7739999999999,915.2910000000002,520.992,913.9820000000002,519.5079999999999,912.3910000000002C519.276,911.9250000000002,519.1999999999999,911.0060000000002,519.074,910.1610000000002C518.761,907.8430000000002,518.789,907.7830000000001,516.1619999999999,907.9420000000001C513.477,908.1680000000001,510.7319999999999,907.7450000000001,508.0899999999999,908.2880000000001C503.24299999999994,910.7920000000001,498.8619999999999,914.1420000000002,494.0069999999999,916.6350000000001C490.8599999999999,917.6550000000001,487.4829999999999,917.5810000000001,484.23399999999987,918.0740000000001C482.14299999999986,913.5980000000001,481.5169999999999,908.5960000000001,479.44899999999984,904.1250000000001C477.34499999999986,901.9630000000001,473.14599999999984,903.3390000000002,471.43199999999985,900.5150000000001C469.80399999999986,898.0260000000001,466.05499999999984,893.7160000000001,467.14899999999983,893.0810000000001C467.89299999999986,892.2730000000001,469.2049999999998,894.7160000000001,470.3999999999998,895.6120000000001C473.2039999999998,896.09,476.27399999999983,895.2520000000001,479.0899999999998,895.1150000000001L479.6749999999998,888.8310000000001C476.2779999999998,887.3250000000002,472.64199999999977,886.0160000000001,469.2499999999998,884.5040000000001C469.9969999999998,881.7290000000002,471.2329999999998,879.1010000000001,471.83199999999977,876.2900000000001C471.8599999999998,873.969,471.09999999999974,871.7330000000001,470.9589999999998,869.431C470.70999999999975,868.087,472.0189999999998,867.291,472.75099999999975,866.379C474.11399999999975,864.784,475.98599999999976,863.482,476.72999999999973,861.458C475.38099999999974,857.062,472.62799999999976,853.2389999999999,471.20299999999975,848.8729999999999C471.14499999999975,846.858,472.08199999999977,844.954,472.47399999999976,842.9989999999999C474.65899999999976,843.391,477.00999999999976,843.7119999999999,479.22699999999975,843.9219999999999C479.83299999999974,842.252,480.92099999999976,839.401,481.5909999999997,838.9759999999999C482.2809999999997,838.0759999999999,483.6229999999997,837.7689999999999,483.6229999999997,837.7689999999999C484.3989999999997,837.2899999999998,484.22999999999973,836.4029999999999,483.8979999999997,834.7959999999999C483.5539999999997,833.4659999999999,483.0679999999997,831.809,482.8129999999997,830.289C485.6619999999997,828.066,488.8979999999997,826.343,491.5929999999997,823.935C492.73599999999965,820.9639999999999,492.6499999999997,817.625,492.8959999999997,814.4739999999999C491.3589999999997,813.366,489.80799999999965,812.2819999999999,488.2869999999997,811.1619999999999C488.1259999999997,809.338,488.0439999999997,807.5099999999999,487.9279999999997,805.689C486.35499999999973,805.4879999999999,484.7799999999997,805.352,483.2119999999997,805.163C482.9819999999997,803.64,482.8269999999997,802.375,482.7319999999997,800.844C487.3279999999997,799.1310000000001,491.9669999999997,796.048,497.0519999999997,796.316C502.0059999999997,796.383,506.7409999999997,796.1410000000001,511.69699999999966,796.222C514.0489999999996,796.24,517.6919999999997,797.164,518.3569999999996,797.962C519.3699999999997,795.04,519.9249999999996,791.987,520.9189999999996,789.062C522.9369999999997,788.6610000000001,525.2919999999997,788.244,527.2159999999997,787.96C530.7429999999997,787.235,531.3649999999997,785.817,531.7889999999996,785.4200000000001C534.0989999999996,782.8530000000001,533.6309999999996,782.8080000000001,535.9029999999997,780.2080000000001C537.9769999999996,781.0780000000001,539.8389999999997,782.4380000000001,541.9989999999997,783.1060000000001C543.5379999999997,783.2510000000001,543.8909999999997,781.4430000000001,544.5219999999997,780.4050000000001C547.2689999999997,774.0210000000001,549.9229999999997,767.5960000000001,552.6039999999997,761.1850000000001C553.0449999999997,760.168,553.6409999999997,758.797,555.0109999999997,759.042C563.8609999999998,758.9830000000001,572.7139999999997,759.0600000000001,581.5659999999997,759.0160000000001C588.3509999999997,758.6850000000001,594.9059999999997,760.782,601.5609999999997,761.7500000000001C604.5539999999997,762.4950000000001,608.0709999999997,762.2410000000001,610.4389999999997,764.5390000000001C617.1499999999997,770.1840000000001,623.7739999999998,775.9330000000001,630.4899999999998,781.575C631.9719999999998,782.9010000000001,633.9449999999998,784.139,634.1929999999998,786.3050000000001C635.139,792.034,636.121,797.758,636.994,803.5Z" stroke-width="0" stroke-opacity="1" transform="matrix(0.9002,0,0,0.9002,85.6568,56.7095)" style="-webkit-tap-highlight-color: rgba(0, 0, 0, 0); stroke-opacity: 1;"></path></svg>