<?xml version="1.0" standalone="no"?>
<!DOCTYPE svg PUBLIC "-//W3C//DTD SVG 1.1//EN" "http://www.w3.org/Graphics/SVG/1.1/DTD/svg11.dtd" >
<svg xmlns="http://www.w3.org/2000/svg" xmlns:xlink="http://www.w3.org/1999/xlink" version="1.1">
<metadata>
Created by FontForge 20161013 at Fri Mar 18 16:19:28 2016
 By ,,,
Copyright (c) 2016 Premier League. All rights reserved.
</metadata>
<defs>
<font id="PremierLeague-Regular" horiz-adv-x="0" >
  <font-face 
    font-family="Premier League"
    font-weight="400"
    font-stretch="normal"
    units-per-em="1000"
    panose-1="2 11 5 4 2 2 3 2 2 4"
    ascent="775"
    descent="-225"
    x-height="509"
    cap-height="690"
    bbox="-397 -236 1224 888"
    underline-thickness="50"
    underline-position="-200"
    unicode-range="U+000D-FEFF"
  />
<missing-glyph horiz-adv-x="489" 
d="M0 760h489v-760h-489v760zM56 55h377v650h-377v-650z" />
    <glyph glyph-name="uniFB00" unicode="ff" horiz-adv-x="682" 
d="M317 679q-32 15 -58 15q-75 0 -75 -88v-97h137v-69h-137v-440h-75v440h-89v69h89v104q0 72 38.5 112.5t107.5 40.5q46 0 90 -21zM658 679q-32 15 -58 15q-75 0 -75 -88v-97h137v-69h-137v-440h-75v440h-89v69h89v104q0 72 38.5 112.5t107.5 40.5q46 0 90 -21z" />
    <glyph glyph-name="fi" unicode="fi" horiz-adv-x="590" 
d="M317 679q-32 15 -58 15q-75 0 -75 -88v-97h137v-69h-137v-440h-75v440h-89v69h89v104q0 72 38.5 112.5t107.5 40.5q46 0 90 -21zM465 634q-23 0 -38.5 15.5t-15.5 38.5t15.5 38.5t38.5 15.5q24 0 39 -15.5t15 -38.5t-15 -38.5t-39 -15.5zM428 509h75v-509h-75v509z" />
    <glyph glyph-name="fl" unicode="fl" horiz-adv-x="590" 
d="M317 679q-32 15 -58 15q-75 0 -75 -88v-97h137v-69h-137v-440h-75v440h-89v69h89v104q0 72 38.5 112.5t107.5 40.5q46 0 90 -21zM503 0h-75v760h75v-760z" />
    <glyph glyph-name="uniFB03" unicode="ffi" horiz-adv-x="931" 
d="M317 679q-32 15 -58 15q-75 0 -75 -88v-97h137v-69h-137v-440h-75v440h-89v69h89v104q0 72 38.5 112.5t107.5 40.5q46 0 90 -21zM658 679q-32 15 -58 15q-75 0 -75 -88v-97h137v-69h-137v-440h-75v440h-89v69h89v104q0 72 38.5 112.5t107.5 40.5q46 0 90 -21zM806 634
q-23 0 -38.5 15.5t-15.5 38.5t15.5 38.5t38.5 15.5q24 0 39 -15.5t15 -38.5t-15 -38.5t-39 -15.5zM769 509h75v-509h-75v509z" />
    <glyph glyph-name="uniFB04" unicode="ffl" horiz-adv-x="931" 
d="M317 679q-32 15 -58 15q-75 0 -75 -88v-97h137v-69h-137v-440h-75v440h-89v69h89v104q0 72 38.5 112.5t107.5 40.5q46 0 90 -21zM658 679q-32 15 -58 15q-75 0 -75 -88v-97h137v-69h-137v-440h-75v440h-89v69h89v104q0 72 38.5 112.5t107.5 40.5q46 0 90 -21zM844 0h-75
v760h75v-760z" />
    <glyph glyph-name=".notdef" horiz-adv-x="489" 
d="M0 760h489v-760h-489v760zM56 55h377v650h-377v-650z" />
    <glyph glyph-name=".null" 
 />
    <glyph glyph-name="nonmarkingreturn" horiz-adv-x="333" 
 />
    <glyph glyph-name="NULL" 
 />
    <glyph glyph-name="NULL" 
 />
    <glyph glyph-name="CR" unicode="&#xd;" horiz-adv-x="240" 
 />
    <glyph glyph-name="space" unicode=" " horiz-adv-x="240" 
 />
    <glyph glyph-name="exclam" unicode="!" horiz-adv-x="249" 
d="M76 690h97l-18 -486h-61zM124 -10q-26 0 -43 17t-17 44q0 26 17 43t43 17q27 0 44 -17t17 -43q0 -27 -17 -44t-44 -17z" />
    <glyph glyph-name="quotedbl" unicode="&#x22;" horiz-adv-x="343" 
d="M57 690h83l-15 -250h-53zM203 690h83l-15 -250h-53z" />
    <glyph glyph-name="numbersign" unicode="#" horiz-adv-x="741" 
d="M688 447h-131l-42 -204h131l-14 -68h-131l-36 -175h-73l36 175h-186l-36 -175h-73l36 175h-130l13 68h131l43 204h-131l13 68h132l36 175h72l-36 -175h187l36 175h72l-36 -175h131zM442 243l43 204h-187l-42 -204h186z" />
    <glyph glyph-name="dollar" unicode="$" horiz-adv-x="540" 
d="M489 191q0 -70 -49 -118t-134 -60v-83h-70v81q-110 5 -188 63l43 64q62 -47 145 -53v238q-40 14 -66 26t-54 32.5t-42 50.5t-14 70q0 71 47.5 117.5t128.5 56.5v84h70v-83q102 -9 176 -70l-46 -62q-62 49 -130 58v-223q41 -14 67.5 -26.5t56.5 -34.5t44.5 -54t14.5 -74z
M138 504q0 -36 25 -58.5t73 -41.5v198q-46 -8 -72 -34.5t-26 -63.5zM306 88q51 8 78 34.5t27 66.5t-27.5 65t-77.5 44v-210z" />
    <glyph glyph-name="percent" unicode="%" horiz-adv-x="915" 
d="M263 -31l-53 31l442 721l52 -31zM224 360q-71 0 -120.5 49.5t-49.5 120.5q0 70 49.5 120t120.5 50q69 0 119.5 -50t50.5 -120q0 -71 -50 -120.5t-120 -49.5zM224 417q42 0 73.5 33t31.5 80q0 46 -31.5 79.5t-73.5 33.5q-43 0 -74 -33.5t-31 -79.5q0 -47 30.5 -80
t74.5 -33zM691 -10q-69 0 -119.5 50t-50.5 120q0 71 50 120.5t120 49.5q71 0 120.5 -49.5t49.5 -120.5q0 -70 -49.5 -120t-120.5 -50zM691 47q43 0 74 33.5t31 79.5q0 47 -30.5 80t-74.5 33q-43 0 -74 -33t-31 -80q0 -46 31 -79.5t74 -33.5z" />
    <glyph glyph-name="ampersand" unicode="&#x26;" horiz-adv-x="659" 
d="M649 47l-48 -58l-90 85q-96 -86 -237 -86q-112 0 -175.5 50t-63.5 137q0 64 37 110.5t125 86.5q-49 53 -68 89t-19 75q0 67 51 116.5t134 49.5q85 0 135.5 -45.5t50.5 -115.5q0 -55 -37 -100t-128 -87l190 -175q45 70 45 170h73q0 -126 -65 -219zM295 630q-47 0 -78 -27
t-31 -69q0 -30 17.5 -59.5t62.5 -73.5q79 33 108 64t29 74q0 37 -28 64t-80 27zM275 60q112 0 183 63l-214 201q-133 -60 -133 -147q0 -55 44.5 -86t119.5 -31z" />
    <glyph glyph-name="quotesingle" unicode="'" horiz-adv-x="197" 
d="M57 690h83l-15 -250h-53z" />
    <glyph glyph-name="parenleft" unicode="(" horiz-adv-x="393" 
d="M353 -210q-196 195 -196 485t196 485h-81q-185 -194 -185 -485t185 -485h81z" />
    <glyph glyph-name="parenright" unicode=")" horiz-adv-x="393" 
d="M40 -210h82q185 195 185 485t-185 485h-82q196 -195 196 -485t-196 -485z" />
    <glyph glyph-name="asterisk" unicode="*" horiz-adv-x="393" 
d="M343 606l18 -57l-135 -31l91 -106l-49 -35l-72 119l-71 -119l-48 35l90 106l-135 31l20 57l126 -54l-11 138h60l-12 -138z" />
    <glyph glyph-name="plus" unicode="+" horiz-adv-x="540" 
d="M479 338v-60h-177v-179h-63v179h-177v60h177v178h63v-178h177z" />
    <glyph glyph-name="comma" unicode="," horiz-adv-x="210" 
d="M78 116h90l-110 -266h-55z" />
    <glyph glyph-name="hyphen" unicode="-" horiz-adv-x="423" 
d="M376 255h-328v74h328v-74z" />
    <glyph glyph-name="period" unicode="." horiz-adv-x="232" 
d="M116 -10q-27 0 -44.5 17.5t-17.5 44.5q0 28 17.5 45t44.5 17t44.5 -17t17.5 -45q0 -27 -17.5 -44.5t-44.5 -17.5z" />
    <glyph glyph-name="slash" unicode="/" horiz-adv-x="451" 
d="M-11 -210l392 970h81l-392 -970h-81z" />
    <glyph glyph-name="zero" unicode="0" horiz-adv-x="540" 
d="M494 284q0 -143 -57.5 -218.5t-166.5 -75.5t-166.5 75.5t-57.5 218.5v122q0 143 57.5 218.5t166.5 75.5t166.5 -75.5t57.5 -218.5v-122zM418 405q0 109 -37.5 166t-110.5 57t-110.5 -57t-37.5 -166v-120q0 -109 37.5 -165.5t110.5 -56.5t110.5 56.5t37.5 165.5v120z" />
    <glyph glyph-name="one" unicode="1" horiz-adv-x="540" 
d="M314 73h166v-73h-420v73h179v523l-179 -67v76l254 95v-627z" />
    <glyph glyph-name="two" unicode="2" horiz-adv-x="540" 
d="M142 72h343v-72h-429v30q0 46 19 86.5t49 71t66 58.5t72.5 55t66.5 55t49 64t19 76q0 62 -37.5 97t-102.5 35q-111 0 -143 -122l-74 17q22 86 77.5 132t139.5 46q97 0 157 -56.5t60 -148.5q0 -64 -30.5 -117t-76 -90t-92 -69t-85 -70t-48.5 -78z" />
    <glyph glyph-name="three" unicode="3" horiz-adv-x="540" 
d="M288 425q88 -14 141 -73.5t53 -145.5q0 -98 -65 -157.5t-171 -59.5q-79 0 -136.5 37.5t-78.5 101.5l68 29q16 -46 54 -70t93 -24q74 0 116.5 38t42.5 105q0 68 -47.5 109.5t-126.5 41.5q-26 0 -46 -4v55l166 210h-291v72h392v-58z" />
    <glyph glyph-name="four" unicode="4" horiz-adv-x="540" 
d="M530 271v-72h-111v-199h-77v199h-332v83l323 408h86v-419h111zM86 271h256v323z" />
    <glyph glyph-name="five" unicode="5" horiz-adv-x="540" 
d="M253 439q100 0 165 -62.5t65 -157.5q0 -99 -66.5 -164t-169.5 -65q-64 0 -118.5 28.5t-85.5 77.5l65 40q43 -73 139 -73q71 0 115 42.5t44 112.5q0 67 -42 107.5t-111 40.5q-66 0 -126 -38l-45 24l29 338h344v-72h-273l-17 -196q43 17 88 17z" />
    <glyph glyph-name="six" unicode="6" horiz-adv-x="540" 
d="M270 449q99 0 167.5 -66.5t68.5 -161.5q0 -97 -68.5 -164t-167.5 -67q-97 0 -164.5 68.5t-67.5 167.5q0 71 29 134t108 166l128 164h89l-198 -255q36 14 76 14zM270 62q66 0 112 46t46 113q0 65 -46 110t-112 45q-64 0 -109 -44t-45 -107q0 -68 45 -115.5t109 -47.5z" />
    <glyph glyph-name="seven" unicode="7" horiz-adv-x="540" 
d="M38 690h454v-68l-324 -622h-83l318 618h-365v72z" />
    <glyph glyph-name="eight" unicode="8" horiz-adv-x="540" 
d="M388 362q53 -23 82.5 -68.5t29.5 -105.5q0 -90 -62.5 -144t-167.5 -54t-167.5 54t-62.5 144q0 60 29.5 105.5t82.5 68.5q-87 49 -87 155q0 83 55.5 133t149.5 50t149.5 -50t55.5 -133q0 -106 -87 -155zM270 628q-58 0 -93 -31.5t-35 -84.5t35 -85t93 -32t93 32t35 85
t-35 84.5t-93 31.5zM270 62q69 0 110.5 36t41.5 97q0 59 -41.5 94.5t-110.5 35.5t-110.5 -35.5t-41.5 -94.5q0 -61 41.5 -97t110.5 -36z" />
    <glyph glyph-name="nine" unicode="9" horiz-adv-x="540" 
d="M270 700q97 0 164.5 -68.5t67.5 -167.5q0 -71 -29 -134t-108 -166l-128 -164h-89l198 255q-36 -14 -76 -14q-98 0 -167 66.5t-69 161.5q0 97 69 164t167 67zM270 314q64 0 109 44t45 107q0 68 -45 115.5t-109 47.5q-66 0 -112 -46t-46 -112q0 -65 46 -110.5t112 -45.5z
" />
    <glyph glyph-name="colon" unicode=":" horiz-adv-x="232" 
d="M116 386q-27 0 -44.5 17.5t-17.5 44.5t17.5 44.5t44.5 17.5t44.5 -17.5t17.5 -44.5t-17.5 -44.5t-44.5 -17.5zM116 -10q-27 0 -44.5 17.5t-17.5 44.5q0 28 17.5 45t44.5 17t44.5 -17t17.5 -45q0 -27 -17.5 -44.5t-44.5 -17.5z" />
    <glyph glyph-name="uni003B" unicode=";" horiz-adv-x="232" 
d="M116 386q-27 0 -44.5 17.5t-17.5 44.5t17.5 44.5t44.5 17.5t44.5 -17.5t17.5 -44.5t-17.5 -44.5t-44.5 -17.5zM78 116h90l-110 -266h-55z" />
    <glyph glyph-name="less" unicode="&#x3c;" horiz-adv-x="540" 
d="M132 308v-1l347 -151v-64l-417 178v75l417 178v-64z" />
    <glyph glyph-name="equal" unicode="=" horiz-adv-x="540" 
d="M62 355v57h417v-57h-417zM62 202v58h417v-58h-417z" />
    <glyph glyph-name="greater" unicode="&#x3e;" horiz-adv-x="540" 
d="M479 270l-417 -178v64l347 151v1l-347 151v64l417 -178v-75z" />
    <glyph glyph-name="question" unicode="?" horiz-adv-x="512" 
d="M250 701q102 0 163.5 -56.5t61.5 -147.5q0 -32 -9 -62t-30 -61.5t-62.5 -54t-99.5 -31.5l-3 -84h-60l-5 132q192 26 192 161q0 61 -39.5 96t-108.5 35q-127 0 -166 -118l-74 20q58 171 240 171zM241 111q27 0 43.5 -17t16.5 -43q0 -27 -17 -44t-43 -17q-27 0 -44 17
t-17 44q0 26 17 43t44 17z" />
    <glyph glyph-name="at" unicode="@" horiz-adv-x="854" 
d="M629 500l-37 -289q-5 -36 11 -57.5t48 -21.5q45 0 75 49t30 141q0 143 -88 229t-234 86q-153 0 -245 -104.5t-92 -258.5q0 -155 88 -241t238 -86q119 0 207 57l23 -43q-104 -63 -230 -63q-172 0 -273.5 99.5t-101.5 276.5q0 174 106.5 293.5t279.5 119.5
q167 0 269.5 -100.5t102.5 -264.5q0 -120 -48 -184t-117 -64q-40 0 -66.5 23t-33.5 59q-53 -82 -146 -82q-77 0 -124.5 53.5t-47.5 141.5q0 103 53 171t141 68q95 0 140 -86l10 78h62zM401 136q61 0 99.5 48t38.5 118q0 64 -33.5 104t-88.5 40q-61 0 -95.5 -49t-34.5 -124
q0 -63 31.5 -100t82.5 -37z" />
    <glyph glyph-name="A" unicode="A" horiz-adv-x="668" 
d="M574 0l-84 216h-312l-85 -216h-83l275 690h97l276 -690h-84zM206 289h255l-127 327z" />
    <glyph glyph-name="B" unicode="B" horiz-adv-x="658" 
d="M456 357q65 -16 100.5 -59.5t35.5 -109.5q0 -86 -58 -137t-156 -51h-283v690h238q97 0 153.5 -49.5t56.5 -134.5q0 -105 -87 -149zM173 617v-232h152q67 0 103.5 30t36.5 86t-36 86t-104 30h-152zM370 73q70 0 107 30.5t37 88.5q0 59 -37 90t-107 31h-197v-240h197z" />
    <glyph glyph-name="C" unicode="C" horiz-adv-x="699" 
d="M412 -11q-157 0 -258 100t-101 256t101 256t258 100q155 0 252 -104l-55 -54q-82 83 -197 83q-123 0 -202 -78t-79 -203t79 -203t202 -78q116 0 197 82l55 -53q-97 -104 -252 -104z" />
    <glyph glyph-name="D" unicode="D" horiz-adv-x="718" 
d="M301 690q172 0 268 -95t96 -250t-96 -250t-268 -95h-206v690h206zM301 74q138 0 212 74.5t74 196.5t-74 196.5t-212 74.5h-128v-542h128z" />
    <glyph glyph-name="E" unicode="E" horiz-adv-x="601" 
d="M552 617h-379v-227h342v-73h-342v-244h379v-73h-457v690h457v-73z" />
    <glyph glyph-name="F" unicode="F" horiz-adv-x="565" 
d="M542 616h-369v-236h332v-74h-332v-306h-78v690h447v-74z" />
    <glyph glyph-name="G" unicode="G" horiz-adv-x="810" 
d="M762 373q1 -10 1 -29q0 -157 -100 -256t-253 -99q-156 0 -256.5 100t-100.5 256t101.5 256t259.5 100q154 0 251 -104l-54 -53q-81 84 -198 84q-123 0 -201.5 -78.5t-78.5 -204.5t77.5 -204.5t199.5 -78.5q109 0 183 64.5t87 172.5h-275v74h357z" />
    <glyph glyph-name="H" unicode="H" horiz-adv-x="743" 
d="M570 690h78v-690h-78v314h-397v-314h-78v690h78v-302h397v302z" />
    <glyph glyph-name="I" unicode="I" horiz-adv-x="268" 
d="M173 0h-78v690h78v-690z" />
    <glyph glyph-name="J" unicode="J" horiz-adv-x="426" 
d="M35 89q35 -23 78 -23q140 0 140 171v453h78v-458q0 -112 -57 -176t-158 -64q-71 0 -119 34z" />
    <glyph glyph-name="K" unicode="K" horiz-adv-x="630" 
d="M533 0l-289 313h-71v-313h-78v690h78v-302h71l277 302h103l-312 -338l328 -352h-107z" />
    <glyph glyph-name="L" unicode="L" horiz-adv-x="526" 
d="M95 0v690h78v-616h343v-74h-421z" />
    <glyph glyph-name="M" unicode="M" horiz-adv-x="876" 
d="M697 690h84v-690h-77v574l-263 -348h-6l-262 348v-574h-78v690h85l259 -342z" />
    <glyph glyph-name="N" unicode="N" horiz-adv-x="773" 
d="M600 690h78v-690h-91l-414 577v-577h-78v690h90l415 -578v578z" />
    <glyph glyph-name="O" unicode="O" horiz-adv-x="815" 
d="M408 -10q-155 0 -255 100t-100 255t100 254.5t255 99.5t254.5 -99.5t99.5 -254.5t-99.5 -255t-254.5 -100zM408 64q120 0 198 79t78 202t-78 201.5t-198 78.5t-198.5 -78.5t-78.5 -201.5t78.5 -202t198.5 -79z" />
    <glyph glyph-name="P" unicode="P" horiz-adv-x="621" 
d="M95 0v690h249q111 0 175.5 -57.5t64.5 -156.5t-64.5 -157t-175.5 -58h-171v-261h-78zM173 335h170q78 0 121 37t43 104t-42.5 103.5t-121.5 36.5h-170v-281z" />
    <glyph glyph-name="Q" unicode="Q" horiz-adv-x="815" 
d="M790 19l-47 -53l-108 99q-94 -75 -227 -75q-155 0 -255 100t-100 255t100 254.5t255 99.5t254.5 -99.5t99.5 -254.5q0 -136 -77 -230zM408 64q98 0 169 54l-147 134l47 53l150 -137q57 74 57 177q0 123 -78 201.5t-198 78.5t-198.5 -78.5t-78.5 -201.5t78.5 -202
t198.5 -79z" />
    <glyph glyph-name="R" unicode="R" horiz-adv-x="634" 
d="M599 0h-95l-196 275h-135v-275h-78v690h245q110 0 174 -56t64 -152q0 -81 -47.5 -134.5t-131.5 -67.5zM173 617v-271h166q78 0 119.5 35.5t41.5 100.5q0 66 -41 100.5t-120 34.5h-166z" />
    <glyph glyph-name="S" unicode="S" horiz-adv-x="594" 
d="M47 57l39 67q86 -60 193 -60q85 0 130.5 33t45.5 89q0 41 -29.5 68.5t-73 39.5t-95 27.5t-95 33t-73 56t-29.5 94.5q0 87 66 141t173 54q129 0 227 -76l-43 -66q-86 68 -185 68q-74 0 -116.5 -33t-42.5 -84q0 -46 40.5 -72.5t98.5 -41.5t116 -33t98.5 -60.5t40.5 -111.5
q0 -89 -70.5 -145t-185.5 -56q-136 0 -230 68z" />
    <glyph glyph-name="T" unicode="T" horiz-adv-x="607" 
d="M597 690v-73h-254v-617h-79v617h-254v73h587z" />
    <glyph glyph-name="U" unicode="U" horiz-adv-x="722" 
d="M360 -10q-123 0 -198 78t-75 208v414h78v-408q0 -104 52.5 -161.5t142.5 -57.5q91 0 144 57.5t53 161.5v408h78v-414q0 -130 -75 -208t-200 -78z" />
    <glyph glyph-name="V" unicode="V" horiz-adv-x="675" 
d="M581 690h84l-279 -690h-97l-279 690h84l244 -618z" />
    <glyph glyph-name="W" unicode="W" horiz-adv-x="986" 
d="M893 690h83l-214 -690h-88l-181 578l-181 -578h-88l-214 690h83l177 -581l181 581h84l181 -581z" />
    <glyph glyph-name="X" unicode="X" horiz-adv-x="649" 
d="M637 0h-98l-214 296l-215 -296h-98l264 353l-252 337h98l203 -279l202 279h98l-251 -337z" />
    <glyph glyph-name="Y" unicode="Y" horiz-adv-x="616" 
d="M269 0v285l-259 405h92l206 -326l206 326h92l-259 -405v-285h-78z" />
    <glyph glyph-name="Z" unicode="Z" horiz-adv-x="641" 
d="M570 690v-79l-417 -535h429v-76h-525v79l416 535h-404v76h501z" />
    <glyph glyph-name="bracketleft" unicode="[" horiz-adv-x="376" 
d="M336 699h-179v-848h179v-61h-249v970h249v-61z" />
    <glyph glyph-name="backslash" unicode="\" horiz-adv-x="451" 
d="M462 -210h-81l-392 970h81z" />
    <glyph glyph-name="bracketright" unicode="]" horiz-adv-x="376" 
d="M40 699v61h249v-970h-249v61h178v848h-178z" />
    <glyph glyph-name="asciicircum" unicode="^" horiz-adv-x="427" 
d="M344 360l-130 269h-2l-129 -269h-72l161 331h83l161 -331h-72z" />
    <glyph glyph-name="underscore" unicode="_" horiz-adv-x="500" 
d="M0 -92h500v-70h-500v70z" />
    <glyph glyph-name="grave" unicode="`" horiz-adv-x="271" 
d="M241 596h-78l-133 153h98z" />
    <glyph glyph-name="a" unicode="a" horiz-adv-x="649" 
d="M497 509h65v-509h-65l-9 79q-71 -87 -188 -87q-111 0 -181.5 73.5t-70.5 189.5q0 115 70.5 188.5t181.5 73.5q117 0 188 -87zM306 63q74 0 127.5 50t53.5 135v13q0 85 -53.5 135.5t-127.5 50.5q-81 0 -132 -53.5t-51 -138.5t51 -138.5t132 -53.5z" />
    <glyph glyph-name="b" unicode="b" horiz-adv-x="649" 
d="M349 517q111 0 181.5 -73.5t70.5 -188.5q0 -116 -70.5 -189.5t-181.5 -73.5q-60 0 -109 26t-78 71l-10 -89h-65v760h75v-338q30 44 79 69.5t108 25.5zM343 63q81 0 132 53.5t51 138.5t-51 138.5t-132 53.5q-74 0 -127.5 -50.5t-53.5 -135.5v-13q0 -85 53.5 -135
t127.5 -50z" />
    <glyph glyph-name="c" unicode="c" horiz-adv-x="516" 
d="M313 -8q-116 0 -190.5 74t-74.5 189t74.5 188.5t190.5 73.5t187 -78l-52 -51q-54 58 -135 58q-83 0 -136.5 -53t-53.5 -138q0 -86 53.5 -139t136.5 -53q81 0 135 58l52 -51q-71 -78 -187 -78z" />
    <glyph glyph-name="d" unicode="d" horiz-adv-x="649" 
d="M487 760h75v-760h-65l-10 89q-29 -45 -78 -71t-109 -26q-111 0 -181.5 73.5t-70.5 189.5q0 115 70.5 188.5t181.5 73.5q59 0 108 -25.5t79 -69.5v338zM306 63q74 0 127.5 50t53.5 135v13q0 85 -53.5 135.5t-127.5 50.5q-81 0 -132 -53.5t-51 -138.5t51 -138.5t132 -53.5z
" />
    <glyph glyph-name="e" unicode="e" horiz-adv-x="586" 
d="M537 265q0 -25 -2 -37h-411q9 -77 60.5 -123t128.5 -46q84 0 149 59l42 -56q-79 -70 -191 -70q-116 0 -190.5 74t-74.5 189q0 116 69.5 189t177.5 73q106 0 174 -70.5t68 -181.5zM295 450q-67 0 -113.5 -43.5t-57.5 -114.5h338q-10 72 -55 115t-112 43z" />
    <glyph glyph-name="f" unicode="f" horiz-adv-x="341" 
d="M317 679q-32 15 -58 15q-75 0 -75 -88v-97h137v-69h-137v-440h-75v440h-89v69h89v104q0 72 38.5 112.5t107.5 40.5q46 0 90 -21z" />
    <glyph glyph-name="g" unicode="g" horiz-adv-x="646" 
d="M494 509h65v-469q0 -122 -70 -190t-196 -68q-104 0 -193 48l31 67q84 -44 162 -44q92 0 141.5 48.5t49.5 138.5v44q-69 -87 -186 -87q-110 0 -180 73t-70 188q0 113 70 186t180 73q118 0 187 -87zM306 68q73 0 125.5 49.5t52.5 133.5v13q0 84 -52.5 133.5t-125.5 49.5
q-79 0 -131 -54t-52 -135t52 -135.5t131 -54.5z" />
    <glyph glyph-name="h" unicode="h" horiz-adv-x="601" 
d="M321 517q93 0 148 -58.5t55 -157.5v-301h-75v294q0 75 -35 113.5t-98 38.5q-71 0 -112.5 -46.5t-41.5 -136.5v-263h-75v760h75v-316q56 73 159 73z" />
    <glyph glyph-name="i" unicode="i" horiz-adv-x="249" 
d="M124 634q-23 0 -38.5 15.5t-15.5 38.5t15.5 38.5t38.5 15.5q24 0 39 -15.5t15 -38.5t-15 -38.5t-39 -15.5zM87 509h75v-509h-75v509z" />
    <glyph glyph-name="j" unicode="j" horiz-adv-x="249" 
d="M124 634q-23 0 -38.5 15.5t-15.5 38.5t15.5 38.5t38.5 15.5q24 0 39 -15.5t15 -38.5t-15 -38.5t-39 -15.5zM-42 -140q18 -7 41 -7q88 0 88 99v557h75v-559q0 -78 -42.5 -123t-117.5 -45q-35 0 -67 12z" />
    <glyph glyph-name="k" unicode="k" horiz-adv-x="531" 
d="M437 0l-218 224h-57v-224h-75v760h75v-467h53l204 216h102l-237 -248l257 -261h-104z" />
    <glyph glyph-name="l" unicode="l" horiz-adv-x="249" 
d="M162 0h-75v760h75v-760z" />
    <glyph glyph-name="m" unicode="m" horiz-adv-x="922" 
d="M652 517q89 0 141 -56t52 -150v-311h-75v304q0 70 -32 106t-91 36q-66 0 -104.5 -45.5t-38.5 -133.5v-267h-75v304q0 70 -32.5 106t-91.5 36q-66 0 -104.5 -45.5t-38.5 -133.5v-267h-75v509h65l8 -66q54 74 152 74q123 0 170 -101q56 101 170 101z" />
    <glyph glyph-name="n" unicode="n" horiz-adv-x="601" 
d="M321 517q93 0 148 -58.5t55 -157.5v-301h-75v294q0 75 -35 113.5t-98 38.5q-71 0 -112.5 -46.5t-41.5 -136.5v-263h-75v509h65l8 -67q57 75 161 75z" />
    <glyph glyph-name="o" unicode="o" horiz-adv-x="622" 
d="M311 -8q-115 0 -189 74t-74 189q0 116 73.5 189t189.5 73t189.5 -73.5t73.5 -188.5q0 -116 -73.5 -189.5t-189.5 -73.5zM311 63q82 0 135 54t53 138t-53 137.5t-135 53.5q-83 0 -135.5 -53.5t-52.5 -137.5q0 -85 52.5 -138.5t135.5 -53.5z" />
    <glyph glyph-name="p" unicode="p" horiz-adv-x="649" 
d="M349 517q111 0 181.5 -73.5t70.5 -188.5q0 -116 -70.5 -189.5t-181.5 -73.5q-59 0 -108 25.5t-79 69.5v-297h-75v719h65l10 -88q29 44 78 70t109 26zM343 63q81 0 132 53.5t51 138.5t-51 138.5t-132 53.5q-74 0 -127.5 -50.5t-53.5 -135.5v-13q0 -85 53.5 -135t127.5 -50
z" />
    <glyph glyph-name="q" unicode="q" horiz-adv-x="649" 
d="M497 509h65v-719h-75v297q-30 -44 -79 -69.5t-108 -25.5q-111 0 -181.5 73.5t-70.5 189.5q0 115 70.5 188.5t181.5 73.5q60 0 109 -26t78 -70zM306 63q74 0 127.5 50t53.5 135v13q0 85 -53.5 135.5t-127.5 50.5q-81 0 -132 -53.5t-51 -138.5t51 -138.5t132 -53.5z" />
    <glyph glyph-name="r" unicode="r" horiz-adv-x="376" 
d="M301 517q28 0 55 -6v-79q-30 10 -62 10q-60 0 -96 -36t-36 -106v-300h-75v509h65l8 -60q54 68 141 68z" />
    <glyph glyph-name="s" unicode="s" horiz-adv-x="458" 
d="M41 41l36 63q61 -45 137 -45q57 0 87.5 21.5t30.5 57.5q0 32 -29 51.5t-70 31t-82.5 25t-70.5 45t-29 80.5q0 65 50 105.5t131 40.5q97 0 170 -56l-39 -59q-63 48 -134 48q-48 0 -75.5 -21t-27.5 -54q0 -30 29 -48.5t70 -29t82.5 -25t70.5 -46.5t29 -83q0 -67 -53 -109
t-141 -42q-99 0 -172 49z" />
    <glyph glyph-name="t" unicode="t" horiz-adv-x="408" 
d="M370 90l27 -64q-60 -34 -127 -34q-74 0 -116.5 44.5t-42.5 122.5v281h-91v69h91v147h75v-147h196v-69h-196v-273q0 -104 91 -104q48 0 93 27z" />
    <glyph glyph-name="u" unicode="u" horiz-adv-x="587" 
d="M293 -8q-98 0 -157 60t-59 161v296h75v-288q0 -75 38 -116.5t103 -41.5q66 0 104 41t38 117v288h75v-296q0 -101 -59 -161t-158 -60z" />
    <glyph glyph-name="v" unicode="v" horiz-adv-x="526" 
d="M435 509h81l-203 -509h-100l-203 509h81l172 -442z" />
    <glyph glyph-name="w" unicode="w" horiz-adv-x="832" 
d="M742 509h80l-178 -509h-89l-139 413l-139 -413h-90l-177 509h80l143 -422l143 422h81l142 -422z" />
    <glyph glyph-name="x" unicode="x" horiz-adv-x="528" 
d="M517 0h-95l-158 205l-158 -205h-96l208 261l-197 248h95l148 -192l147 192h96l-196 -248z" />
    <glyph glyph-name="y" unicode="y" horiz-adv-x="528" 
d="M437 509h81l-213 -544q-39 -100 -90 -140.5t-132 -40.5q-22 0 -40 5l11 74q12 -3 28 -3q56 0 88.5 26.5t61.5 99.5l4 11l-226 512h83l183 -424z" />
    <glyph glyph-name="z" unicode="z" horiz-adv-x="524" 
d="M457 509v-71l-308 -369h318v-69h-411v72l308 368h-297v69h390z" />
    <glyph glyph-name="braceleft" unicode="{" horiz-adv-x="409" 
d="M210 437q0 -60 -24.5 -102.5t-68.5 -59.5q44 -17 68.5 -59.5t24.5 -102.5v-105q0 -73 36 -115t98 -42h25v-61h-25q-94 0 -149 59t-55 159v106q0 59 -30.5 93.5t-82.5 34.5v66q52 0 82.5 34.5t30.5 93.5v106q0 100 55 159t149 59h25v-61h-25q-62 0 -98 -42t-36 -115v-105z
" />
    <glyph glyph-name="bar" unicode="|" horiz-adv-x="232" 
d="M77 760h78v-970h-78v970z" />
    <glyph glyph-name="braceright" unicode="}" horiz-adv-x="409" 
d="M269 436q0 -59 30.5 -93.5t82.5 -34.5v-66q-52 0 -82.5 -34.5t-30.5 -93.5v-106q0 -100 -55 -159t-149 -59h-25v61h25q62 0 98 42t36 115v105q0 60 24.5 102.5t68.5 59.5q-44 17 -68.5 59.5t-24.5 102.5v105q0 73 -36 115t-98 42h-25v61h25q94 0 149 -59t55 -159v-106z
" />
    <glyph glyph-name="asciitilde" unicode="~" horiz-adv-x="563" 
d="M401 281q38 0 61.5 28.5t23.5 74.5h53q0 -74 -38.5 -119t-101.5 -45q-36 0 -69.5 18t-55.5 39t-52.5 39t-59.5 18q-39 0 -62 -28t-23 -75h-53q0 73 39 118t101 45q36 0 69.5 -17.5t55.5 -39t52.5 -39t59.5 -17.5z" />
    <glyph glyph-name="uni00A0" unicode="&#xa0;" horiz-adv-x="240" 
 />
    <glyph glyph-name="exclamdown" unicode="&#xa1;" horiz-adv-x="249" 
d="M124 510q27 0 44 -17t17 -44q0 -26 -17 -43t-44 -17q-26 0 -43 17t-17 43q0 27 17 44t43 17zM173 -190h-97l18 486h61z" />
    <glyph glyph-name="cent" unicode="&#xa2;" horiz-adv-x="540" 
d="M337 164q65 6 113 57l52 -51q-62 -71 -165 -77v-93h-70v96q-97 15 -156.5 86t-59.5 173t59.5 172.5t156.5 85.5v77h70v-74q103 -6 165 -77l-52 -51q-48 51 -113 57v-381zM126 355q0 -72 38.5 -122t102.5 -65v373q-64 -15 -102.5 -65t-38.5 -121z" />
    <glyph glyph-name="sterling" unicode="&#xa3;" horiz-adv-x="540" 
d="M153 73h350v-73h-481v71q111 25 111 173v65h-92v72h92v105q0 99 52 156.5t143 57.5q112 0 172 -78l-58 -48q-46 54 -114 54q-58 0 -88 -36.5t-30 -105.5v-105h193v-72h-193v-65q0 -117 -57 -171z" />
    <glyph glyph-name="currency" unicode="&#xa4;" horiz-adv-x="616" 
d="M538 262q0 -79 -40 -136l71 -70l-53 -55l-71 71q-61 -40 -137 -40q-79 0 -137 40l-70 -71l-54 55l71 70q-40 57 -40 136t41 137l-72 72l54 54l72 -72q58 39 135 39t135 -39l73 72l53 -54l-71 -72q40 -59 40 -137zM143 262q0 -72 46.5 -118t118.5 -46t118 46.5t46 117.5
q0 72 -46 118.5t-118 46.5q-73 0 -119 -46.5t-46 -118.5z" />
    <glyph glyph-name="yen" unicode="&#xa5;" horiz-adv-x="540" 
d="M523 690l-185 -290h141v-66h-170v-94h170v-66h-170v-174h-78v174h-170v66h170v94h-170v66h141l-185 290h92l161 -256l161 256h92z" />
    <glyph glyph-name="brokenbar" unicode="&#xa6;" horiz-adv-x="232" 
d="M77 410v350h78v-350h-78zM155 140v-350h-78v350h78z" />
    <glyph glyph-name="section" unicode="&#xa7;" horiz-adv-x="496" 
d="M324 165q91 -43 91 -125q0 -66 -52.5 -107t-138.5 -41q-100 0 -169 49l35 62q62 -44 135 -44q55 0 85 21t30 56q0 30 -31 50.5t-75 34t-87.5 29.5t-74.5 50t-31 84q0 95 126 148q-96 43 -96 125q0 64 49.5 104t128.5 40q96 0 167 -56l-39 -59q-61 48 -130 48
q-47 0 -74 -20.5t-27 -52.5q0 -29 31 -48.5t75 -33.5t87.5 -31t74.5 -51t31 -84q0 -49 -32.5 -87.5t-88.5 -60.5zM116 291q0 -25 19.5 -44t41 -28t63.5 -23q60 15 95 44t35 65q0 16 -8.5 29.5t-17.5 22t-31.5 19t-34 15t-40.5 14.5q-122 -40 -122 -114z" />
    <glyph glyph-name="dieresis" unicode="&#xa8;" horiz-adv-x="369" 
d="M81 637q-23 0 -37 14.5t-14 36.5t14 36.5t37 14.5t37 -14.5t14 -36.5t-14 -36.5t-37 -14.5zM287 637q-22 0 -36.5 14.5t-14.5 36.5t14.5 36.5t36.5 14.5q23 0 37.5 -14.5t14.5 -36.5t-14.5 -36.5t-37.5 -14.5z" />
    <glyph glyph-name="copyright" unicode="&#xa9;" horiz-adv-x="816" 
d="M408 -10q-156 0 -255.5 99.5t-99.5 255.5t99.5 255.5t255.5 99.5t255.5 -99.5t99.5 -255.5t-99.5 -255.5t-255.5 -99.5zM408 48q130 0 213.5 83t83.5 214t-83.5 214.5t-213.5 83.5t-214 -83.5t-84 -214.5q0 -130 83.5 -213.5t214.5 -83.5zM414 131q-94 0 -154.5 60
t-60.5 154t60.5 154t154.5 60t153 -65l-51 -50q-41 45 -102 45q-62 0 -101.5 -40t-39.5 -104t39.5 -103.5t101.5 -39.5t103 44l50 -50q-59 -65 -153 -65z" />
    <glyph glyph-name="ordfeminine" unicode="&#xaa;" horiz-adv-x="468" 
d="M337 690h61v-350h-61l-7 49q-45 -55 -121 -55q-75 0 -122.5 50.5t-47.5 129.5v2q0 79 47.5 129.5t122.5 50.5q76 0 121 -55zM219 398q46 0 78.5 30.5t32.5 82.5v8q0 52 -32.5 82.5t-78.5 30.5q-49 0 -81 -33t-32 -83v-2q0 -50 32 -83t81 -33z" />
    <glyph glyph-name="guillemotleft" unicode="&#xab;" horiz-adv-x="580" 
d="M311 489l-160 -197l160 -197h-94l-160 197l160 197h94zM513 489l-160 -197l160 -197h-94l-160 197l160 197h94z" />
    <glyph glyph-name="logicalnot" unicode="&#xac;" horiz-adv-x="540" 
d="M418 141v233h-356v61h417v-294h-61z" />
    <glyph glyph-name="uni00AD" unicode="&#xad;" horiz-adv-x="423" 
d="M376 255h-328v74h328v-74z" />
    <glyph glyph-name="registered" unicode="&#xae;" horiz-adv-x="600" 
d="M283 700q101 0 165.5 -64.5t64.5 -165.5t-64.5 -165.5t-165.5 -64.5t-165.5 64.5t-64.5 165.5t64.5 165.5t165.5 64.5zM283 287q80 0 131.5 51.5t51.5 131.5t-51.5 131.5t-131.5 51.5t-131.5 -51.5t-51.5 -131.5t51.5 -131.5t131.5 -51.5zM383 510q0 -62 -55 -78l61 -83
h-62l-58 78h-30v-78h-52v244h109q40 0 63.5 -22.5t23.5 -60.5zM239 546v-74h52q19 0 30 10t11 27q0 37 -41 37h-52z" />
    <glyph glyph-name="macron" unicode="&#xaf;" horiz-adv-x="338" 
d="M30 701h278v-67h-278v67z" />
    <glyph glyph-name="degree" unicode="&#xb0;" horiz-adv-x="360" 
d="M180 424q-57 0 -97.5 40.5t-40.5 97.5q0 56 40.5 97t97.5 41t97.5 -41t40.5 -97q0 -57 -40.5 -97.5t-97.5 -40.5zM180 477q36 0 60.5 25t24.5 60t-24.5 60t-60.5 25q-35 0 -60 -25t-25 -60t25 -60t60 -25z" />
    <glyph glyph-name="plusminus" unicode="&#xb1;" horiz-adv-x="540" 
d="M479 354v-60h-178v-170h-61v170h-178v60h178v170h61v-170h178zM62 0v60h417v-60h-417z" />
    <glyph glyph-name="uni00B2" unicode="&#xb2;" horiz-adv-x="349" 
d="M114 504h188v-55h-258v17q0 37 20 67.5t48 51t56 39.5t48 43t20 52q0 29 -18.5 45t-50.5 16q-59 0 -74 -62l-58 15q14 49 48 76t84 27q57 0 93 -32.5t36 -84.5q0 -42 -24 -75.5t-54 -52t-61.5 -42.5t-42.5 -45z" />
    <glyph glyph-name="uni00B3" unicode="&#xb3;" horiz-adv-x="350" 
d="M200 687q46 -11 72.5 -43.5t26.5 -77.5q0 -55 -38 -89t-100 -34q-46 0 -79.5 21t-45.5 57l53 22q16 -44 72 -44q36 0 57 17.5t21 49.5q0 33 -24 51.5t-66 18.5q-18 0 -27 -2v41l80 98h-149v56h229v-41z" />
    <glyph glyph-name="acute" unicode="&#xb4;" horiz-adv-x="271" 
d="M30 596l113 153h98l-133 -153h-78z" />
    <glyph glyph-name="uni00B5" unicode="&#xb5;" horiz-adv-x="604" 
d="M442 500h75v-500h-65l-9 73q-54 -81 -156 -81q-79 0 -125 51v-253h-75v710h75v-288q0 -73 34 -111t96 -38q69 0 109.5 46t40.5 134v257z" />
    <glyph glyph-name="paragraph" unicode="&#xb6;" horiz-adv-x="616" 
d="M528 624v-740h-71v740h-83v-740h-70v377h-40q-95 0 -161 59t-66 155t66 156t161 60h342v-67h-78z" />
    <glyph glyph-name="periodcentered" unicode="&#xb7;" horiz-adv-x="232" 
d="M116 254q-27 0 -44.5 17.5t-17.5 45.5q0 27 17.5 44.5t44.5 17.5t44.5 -17.5t17.5 -44.5q0 -28 -17.5 -45.5t-44.5 -17.5z" />
    <glyph glyph-name="cedilla" unicode="&#xb8;" horiz-adv-x="187" 
d="M73 -50h84l-68 -150h-59z" />
    <glyph glyph-name="uni00B9" unicode="&#xb9;" horiz-adv-x="351" 
d="M206 504h92v-55h-245v55h95v251l-95 -34v58l153 55v-330z" />
    <glyph glyph-name="ordmasculine" unicode="&#xba;" horiz-adv-x="439" 
d="M219 334q-79 0 -129.5 50.5t-50.5 129.5v2q0 79 50.5 129.5t129.5 50.5t130 -50.5t51 -129.5v-2q0 -79 -51 -129.5t-130 -50.5zM219 398q50 0 81.5 32.5t31.5 83.5v2q0 51 -31.5 83.5t-81.5 32.5t-81.5 -32.5t-31.5 -83.5v-2q0 -51 31.5 -83.5t81.5 -32.5z" />
    <glyph glyph-name="guillemotright" unicode="&#xbb;" horiz-adv-x="580" 
d="M67 489h94l160 -197l-160 -197h-94l160 197zM269 489h94l160 -197l-160 -197h-94l160 197z" />
    <glyph glyph-name="onequarter" unicode="&#xbc;" horiz-adv-x="892" 
d="M643 721l52 -31l-441 -721l-53 31zM298 311h-245v55h95v251l-95 -34v58l153 55v-330h92v-55zM839 153v-55h-56v-98h-59v98h-183v62l177 220h65v-227h56zM597 153h127v157z" />
    <glyph glyph-name="onehalf" unicode="&#xbd;" horiz-adv-x="916" 
d="M643 721l52 -31l-441 -721l-53 31zM298 311h-245v55h95v251l-95 -34v58l153 55v-330h92v-55zM676 55h187v-55h-257v17q0 37 20 67.5t48 51t56 39.5t48 43t20 52q0 29 -18.5 45t-51.5 16q-58 0 -73 -62l-58 15q13 49 47 76t84 27q58 0 93.5 -32.5t35.5 -84.5
q0 -42 -24 -75.5t-53.5 -52t-61 -42.5t-42.5 -45z" />
    <glyph glyph-name="threequarters" unicode="&#xbe;" horiz-adv-x="874" 
d="M662 721l52 -31l-441 -721l-53 31zM299 428q0 -55 -38 -89t-100 -34q-46 0 -79.5 21t-45.5 57l53 22q16 -44 72 -44q36 0 57 17.5t21 49.5q0 33 -24 51.5t-66 18.5q-18 0 -27 -2v41l80 98h-149v56h229v-41l-82 -101q46 -11 72.5 -43.5t26.5 -77.5zM848 153v-55h-56v-98
h-59v98h-183v62l177 220h65v-227h56zM606 153h127v157z" />
    <glyph glyph-name="questiondown" unicode="&#xbf;" horiz-adv-x="512" 
d="M272 389q-27 0 -44 17t-17 43q0 27 17 44t44 17q26 0 43 -17t17 -44q0 -26 -17 -43t-43 -17zM429 -10l73 -20q-58 -171 -239 -171q-102 0 -164 56.5t-62 147.5q0 32 9 62t30 61.5t62.5 54t99.5 31.5l3 84h61l5 -131q-193 -26 -193 -162q0 -61 39.5 -96t109.5 -35
q126 0 166 118z" />
    <glyph glyph-name="Agrave" unicode="&#xc0;" horiz-adv-x="668" 
d="M410 727h-85l-133 119h105zM574 0l-84 216h-312l-85 -216h-83l275 690h97l276 -690h-84zM206 289h255l-127 327z" />
    <glyph glyph-name="Aacute" unicode="&#xc1;" horiz-adv-x="668" 
d="M477 846l-133 -119h-85l113 119h105zM574 0l-84 216h-312l-85 -216h-83l275 690h97l276 -690h-84zM206 289h255l-127 327z" />
    <glyph glyph-name="Acircumflex" unicode="&#xc2;" horiz-adv-x="668" 
d="M334 808l-79 -81h-88l116 119h101l117 -119h-88zM574 0l-84 216h-312l-85 -216h-83l275 690h97l276 -690h-84zM206 289h255l-127 327z" />
    <glyph glyph-name="Atilde" unicode="&#xc3;" horiz-adv-x="668" 
d="M262 781q-51 0 -51 -59h-59q0 57 29.5 91.5t76.5 34.5q37 0 80.5 -29.5t67.5 -29.5q51 0 51 59h59q0 -57 -29.5 -91.5t-76.5 -34.5q-37 0 -80.5 29.5t-67.5 29.5zM574 0l-84 216h-312l-85 -216h-83l275 690h97l276 -690h-84zM206 289h255l-127 327z" />
    <glyph glyph-name="Adieresis" unicode="&#xc4;" horiz-adv-x="668" 
d="M231 733q-23 0 -37 14.5t-14 36.5t14 36.5t37 14.5t37 -14.5t14 -36.5t-14 -36.5t-37 -14.5zM437 733q-22 0 -36.5 14.5t-14.5 36.5t14.5 36.5t36.5 14.5q23 0 37.5 -14.5t14.5 -36.5t-14.5 -36.5t-37.5 -14.5zM574 0l-84 216h-312l-85 -216h-83l275 690h97l276 -690h-84
zM206 289h255l-127 327z" />
    <glyph glyph-name="Aring" unicode="&#xc5;" horiz-adv-x="668" 
d="M574 0l-84 216h-312l-85 -216h-83l272 682q-53 28 -53 87q0 42 31 72t74 30t73.5 -30t30.5 -72q0 -58 -53 -88l273 -681h-84zM334 823q-24 0 -40.5 -16t-16.5 -38t16.5 -37.5t40.5 -15.5q23 0 40 15.5t17 37.5t-17 38t-40 16zM206 289h255l-127 327z" />
    <glyph glyph-name="AE" unicode="&#xc6;" horiz-adv-x="903" 
d="M854 617h-329v-227h292v-73h-292v-244h329v-73h-407v216h-265l-108 -216h-84l351 690h513v-73zM218 289h229v328h-65z" />
    <glyph glyph-name="Ccedilla" unicode="&#xc7;" horiz-adv-x="699" 
d="M412 -11q-157 0 -258 100t-101 256t101 256t258 100q155 0 252 -104l-55 -54q-82 83 -197 83q-123 0 -202 -78t-79 -203t79 -203t202 -78q116 0 197 82l55 -53q-97 -104 -252 -104zM371 -50h84l-68 -150h-59z" />
    <glyph glyph-name="Egrave" unicode="&#xc8;" horiz-adv-x="601" 
d="M400 727h-85l-133 119h105zM552 617h-379v-227h342v-73h-342v-244h379v-73h-457v690h457v-73z" />
    <glyph glyph-name="Eacute" unicode="&#xc9;" horiz-adv-x="601" 
d="M248 727l113 119h105l-133 -119h-85zM552 617h-379v-227h342v-73h-342v-244h379v-73h-457v690h457v-73z" />
    <glyph glyph-name="Ecircumflex" unicode="&#xca;" horiz-adv-x="601" 
d="M324 808l-79 -81h-88l116 119h101l117 -119h-88zM552 617h-379v-227h342v-73h-342v-244h379v-73h-457v690h457v-73z" />
    <glyph glyph-name="Edieresis" unicode="&#xcb;" horiz-adv-x="601" 
d="M221 733q-23 0 -37 14.5t-14 36.5t14 36.5t37 14.5t37 -14.5t14 -36.5t-14 -36.5t-37 -14.5zM427 733q-22 0 -36.5 14.5t-14.5 36.5t14.5 36.5t36.5 14.5q23 0 37.5 -14.5t14.5 -36.5t-14.5 -36.5t-37.5 -14.5zM552 617h-379v-227h342v-73h-342v-244h379v-73h-457v690
h457v-73z" />
    <glyph glyph-name="Igrave" unicode="&#xcc;" horiz-adv-x="268" 
d="M210 727h-85l-133 119h105zM173 0h-78v690h78v-690z" />
    <glyph glyph-name="Iacute" unicode="&#xcd;" horiz-adv-x="268" 
d="M59 727l113 119h105l-133 -119h-85zM173 0h-78v690h78v-690z" />
    <glyph glyph-name="Icircumflex" unicode="&#xce;" horiz-adv-x="268" 
d="M184 846l117 -119h-88l-79 81l-79 -81h-88l116 119h101zM95 0v690h78v-690h-78z" />
    <glyph glyph-name="Idieresis" unicode="&#xcf;" horiz-adv-x="268" 
d="M31 733q-23 0 -37 14.5t-14 36.5t14 36.5t37 14.5t37 -14.5t14 -36.5t-14 -36.5t-37 -14.5zM237 733q-22 0 -36.5 14.5t-14.5 36.5t14.5 36.5t36.5 14.5q23 0 37.5 -14.5t14.5 -36.5t-14.5 -36.5t-37.5 -14.5zM173 0h-78v690h78v-690z" />
    <glyph glyph-name="Eth" unicode="&#xd0;" horiz-adv-x="718" 
d="M301 690q172 0 268 -95t96 -250t-96 -250t-268 -95h-206v312h-95v67h95v311h206zM301 74q138 0 212 74.5t74 196.5t-74 196.5t-212 74.5h-128v-237h163v-67h-163v-238h128z" />
    <glyph glyph-name="Ntilde" unicode="&#xd1;" horiz-adv-x="773" 
d="M314 781q-51 0 -51 -59h-59q0 57 29.5 91.5t76.5 34.5q37 0 80.5 -29.5t67.5 -29.5q51 0 51 59h59q0 -57 -29.5 -91.5t-76.5 -34.5q-37 0 -80.5 29.5t-67.5 29.5zM600 690h78v-690h-91l-414 577v-577h-78v690h90l415 -578v578z" />
    <glyph glyph-name="Ograve" unicode="&#xd2;" horiz-adv-x="815" 
d="M484 737h-85l-133 109h105zM408 -10q-155 0 -255 100t-100 255t100 254.5t255 99.5t254.5 -99.5t99.5 -254.5t-99.5 -255t-254.5 -100zM408 64q120 0 198 79t78 202t-78 201.5t-198 78.5t-198.5 -78.5t-78.5 -201.5t78.5 -202t198.5 -79z" />
    <glyph glyph-name="Oacute" unicode="&#xd3;" horiz-adv-x="815" 
d="M333 737l113 109h105l-133 -109h-85zM408 -10q-155 0 -255 100t-100 255t100 254.5t255 99.5t254.5 -99.5t99.5 -254.5t-99.5 -255t-254.5 -100zM408 64q120 0 198 79t78 202t-78 201.5t-198 78.5t-198.5 -78.5t-78.5 -201.5t78.5 -202t198.5 -79z" />
    <glyph glyph-name="Ocircumflex" unicode="&#xd4;" horiz-adv-x="815" 
d="M408 808l-79 -81h-88l116 119h101l117 -119h-88zM408 699q155 0 254.5 -99.5t99.5 -254.5t-99.5 -255t-254.5 -100t-255 100t-100 255t100 254.5t255 99.5zM408 64q120 0 198 79t78 202t-78 201.5t-198 78.5t-198.5 -78.5t-78.5 -201.5t78.5 -202t198.5 -79z" />
    <glyph glyph-name="Otilde" unicode="&#xd5;" horiz-adv-x="815" 
d="M336 781q-51 0 -51 -59h-59q0 57 29.5 91.5t76.5 34.5q37 0 80.5 -29.5t67.5 -29.5q51 0 51 59h59q0 -57 -29.5 -91.5t-76.5 -34.5q-37 0 -80.5 29.5t-67.5 29.5zM408 -10q-155 0 -255 100t-100 255t100 254.5t255 99.5t254.5 -99.5t99.5 -254.5t-99.5 -255t-254.5 -100z
M408 64q120 0 198 79t78 202t-78 201.5t-198 78.5t-198.5 -78.5t-78.5 -201.5t78.5 -202t198.5 -79z" />
    <glyph glyph-name="Odieresis" unicode="&#xd6;" horiz-adv-x="815" 
d="M305 733q-23 0 -37 14.5t-14 36.5t14 36.5t37 14.5t37 -14.5t14 -36.5t-14 -36.5t-37 -14.5zM511 733q-22 0 -36.5 14.5t-14.5 36.5t14.5 36.5t36.5 14.5q23 0 37.5 -14.5t14.5 -36.5t-14.5 -36.5t-37.5 -14.5zM408 -10q-155 0 -255 100t-100 255t100 254.5t255 99.5
t254.5 -99.5t99.5 -254.5t-99.5 -255t-254.5 -100zM408 64q120 0 198 79t78 202t-78 201.5t-198 78.5t-198.5 -78.5t-78.5 -201.5t78.5 -202t198.5 -79z" />
    <glyph glyph-name="multiply" unicode="&#xd7;" horiz-adv-x="540" 
d="M313 301l189 -189l-42 -43l-189 188l-188 -187l-43 43l188 188l-188 188l43 43l188 -189l189 189l42 -42z" />
    <glyph glyph-name="Oslash" unicode="&#xd8;" horiz-adv-x="815" 
d="M763 648l-76 -76q75 -94 75 -227q0 -155 -99.5 -255t-254.5 -100q-133 0 -228 75l-75 -75l-52 52l75 75q-75 95 -75 228q0 155 100 254.5t255 99.5q133 0 227 -75l76 76zM131 345q0 -100 53 -172l396 396q-72 56 -172 56q-120 0 -198.5 -78.5t-78.5 -201.5zM684 345
q0 99 -53 171l-396 -396q73 -56 173 -56q120 0 198 79t78 202z" />
    <glyph glyph-name="Ugrave" unicode="&#xd9;" horiz-adv-x="722" 
d="M437 727h-85l-133 119h105zM360 -10q-123 0 -198 78t-75 208v414h78v-408q0 -104 52.5 -161.5t142.5 -57.5q91 0 144 57.5t53 161.5v408h78v-414q0 -130 -75 -208t-200 -78z" />
    <glyph glyph-name="Uacute" unicode="&#xda;" horiz-adv-x="722" 
d="M286 727l113 119h105l-133 -119h-85zM360 -10q-123 0 -198 78t-75 208v414h78v-408q0 -104 52.5 -161.5t142.5 -57.5q91 0 144 57.5t53 161.5v408h78v-414q0 -130 -75 -208t-200 -78z" />
    <glyph glyph-name="Ucircumflex" unicode="&#xdb;" horiz-adv-x="722" 
d="M361 808l-79 -81h-88l116 119h101l117 -119h-88zM557 690h78v-414q0 -130 -75 -208t-200 -78q-123 0 -198 78t-75 208v414h78v-408q0 -104 52.5 -161.5t142.5 -57.5q91 0 144 57.5t53 161.5v408z" />
    <glyph glyph-name="Udieresis" unicode="&#xdc;" horiz-adv-x="722" 
d="M258 733q-22 0 -36.5 14.5t-14.5 36.5t14.5 36.5t36.5 14.5t36.5 -14.5t14.5 -36.5t-14.5 -36.5t-36.5 -14.5zM464 733q-22 0 -36.5 14.5t-14.5 36.5t14.5 36.5t36.5 14.5q23 0 37.5 -14.5t14.5 -36.5t-14.5 -36.5t-37.5 -14.5zM360 -10q-123 0 -198 78t-75 208v414h78
v-408q0 -104 52.5 -161.5t142.5 -57.5q91 0 144 57.5t53 161.5v408h78v-414q0 -130 -75 -208t-200 -78z" />
    <glyph glyph-name="Yacute" unicode="&#xdd;" horiz-adv-x="616" 
d="M233 727l113 119h105l-133 -119h-85zM269 0v285l-259 405h92l206 -326l206 326h92l-259 -405v-285h-78z" />
    <glyph glyph-name="Thorn" unicode="&#xde;" horiz-adv-x="621" 
d="M95 0v690h78v-125h171q111 0 175.5 -58t64.5 -156q0 -99 -64.5 -157.5t-175.5 -58.5h-171v-135h-78zM173 210h170q79 0 121.5 36.5t42.5 104.5q0 67 -42.5 103t-121.5 36h-170v-280z" />
    <glyph glyph-name="germandbls" unicode="&#xdf;" horiz-adv-x="632" 
d="M391 407q87 -19 138 -75.5t51 -137.5q0 -88 -53.5 -145t-136.5 -57q-89 0 -156 49l35 62q58 -40 121 -40q51 0 83 35.5t32 93.5q0 66 -49.5 109t-148.5 56v70q67 29 96 63t29 86q0 51 -36 85.5t-97 34.5q-62 0 -99.5 -40t-37.5 -120v-536h-75v539q0 109 60 168t151 59
q97 0 153 -54t56 -133q0 -114 -116 -172z" />
    <glyph glyph-name="agrave" unicode="&#xe0;" horiz-adv-x="649" 
d="M380 596h-78l-133 153h98zM497 509h65v-509h-65l-9 79q-71 -87 -188 -87q-111 0 -181.5 73.5t-70.5 189.5q0 115 70.5 188.5t181.5 73.5q117 0 188 -87zM306 63q74 0 127.5 50t53.5 135v13q0 85 -53.5 135.5t-127.5 50.5q-81 0 -132 -53.5t-51 -138.5t51 -138.5
t132 -53.5z" />
    <glyph glyph-name="aacute" unicode="&#xe1;" horiz-adv-x="649" 
d="M440 749l-133 -153h-78l113 153h98zM497 509h65v-509h-65l-9 79q-71 -87 -188 -87q-111 0 -181.5 73.5t-70.5 189.5q0 115 70.5 188.5t181.5 73.5q117 0 188 -87zM306 63q74 0 127.5 50t53.5 135v13q0 85 -53.5 135.5t-127.5 50.5q-81 0 -132 -53.5t-51 -138.5t51 -138.5
t132 -53.5z" />
    <glyph glyph-name="acircumflex" unicode="&#xe2;" horiz-adv-x="649" 
d="M305 703l-79 -107h-81l113 153h94l113 -153h-81zM497 509h65v-509h-65l-9 79q-71 -87 -188 -87q-111 0 -181.5 73.5t-70.5 189.5q0 115 70.5 188.5t181.5 73.5q117 0 188 -87zM306 63q74 0 127.5 50t53.5 135v13q0 85 -53.5 135.5t-127.5 50.5q-81 0 -132 -53.5
t-51 -138.5t51 -138.5t132 -53.5z" />
    <glyph glyph-name="atilde" unicode="&#xe3;" horiz-adv-x="649" 
d="M233 671q-51 0 -51 -69h-59q0 61 29.5 98.5t76.5 37.5q37 0 80.5 -34.5t67.5 -34.5q51 0 51 69h59q0 -61 -29.5 -98.5t-76.5 -37.5q-30 0 -55.5 17t-48 34.5t-44.5 17.5zM497 509h65v-509h-65l-9 79q-71 -87 -188 -87q-111 0 -181.5 73.5t-70.5 189.5q0 115 70.5 188.5
t181.5 73.5q117 0 188 -87zM306 63q74 0 127.5 50t53.5 135v13q0 85 -53.5 135.5t-127.5 50.5q-81 0 -132 -53.5t-51 -138.5t51 -138.5t132 -53.5z" />
    <glyph glyph-name="adieresis" unicode="&#xe4;" horiz-adv-x="649" 
d="M202 637q-23 0 -37.5 14.5t-14.5 36.5t14.5 36.5t37.5 14.5q22 0 36.5 -14.5t14.5 -36.5t-14.5 -36.5t-36.5 -14.5zM408 637q-22 0 -36.5 14.5t-14.5 36.5t14.5 36.5t36.5 14.5t36.5 -14.5t14.5 -36.5t-14.5 -36.5t-36.5 -14.5zM497 509h65v-509h-65l-9 79
q-71 -87 -188 -87q-111 0 -181.5 73.5t-70.5 189.5q0 115 70.5 188.5t181.5 73.5q117 0 188 -87zM306 63q74 0 127.5 50t53.5 135v13q0 85 -53.5 135.5t-127.5 50.5q-81 0 -132 -53.5t-51 -138.5t51 -138.5t132 -53.5z" />
    <glyph glyph-name="aring" unicode="&#xe5;" horiz-adv-x="649" 
d="M305 561q-45 0 -76.5 31.5t-31.5 76.5t31.5 76.5t76.5 31.5q44 0 76 -31.5t32 -76.5t-32 -76.5t-76 -31.5zM305 730q-25 0 -42.5 -18t-17.5 -43t17.5 -42.5t42.5 -17.5t42.5 17.5t17.5 42.5t-17.5 43t-42.5 18zM497 509h65v-509h-65l-9 79q-71 -87 -188 -87
q-111 0 -181.5 73.5t-70.5 189.5q0 115 70.5 188.5t181.5 73.5q117 0 188 -87zM306 63q74 0 127.5 50t53.5 135v13q0 85 -53.5 135.5t-127.5 50.5q-81 0 -132 -53.5t-51 -138.5t51 -138.5t132 -53.5z" />
    <glyph glyph-name="ae" unicode="&#xe6;" horiz-adv-x="875" 
d="M827 265q0 -19 -3 -37h-376q7 -76 54.5 -121.5t117.5 -45.5q76 0 131 57l42 -56q-73 -70 -173 -70q-64 0 -115 29.5t-82 81.5q-20 -54 -70 -84t-120 -30q-90 0 -141 44.5t-51 117.5q0 74 52.5 117t138.5 43q93 0 140 -50v52q0 62 -34 99t-99 37q-76 0 -135 -63l-50 49
q76 85 188 85q65 0 110.5 -29.5t66.5 -84.5q29 52 76.5 81.5t106.5 29.5q98 0 161.5 -70.5t63.5 -181.5zM602 449q-60 0 -102.5 -43.5t-51.5 -113.5h303q-8 71 -48.5 114t-100.5 43zM244 56q58 0 93 26.5t35 70.5q0 43 -35 69.5t-93 26.5t-92 -26t-34 -70t34 -70.5t92 -26.5
z" />
    <glyph glyph-name="ccedilla" unicode="&#xe7;" horiz-adv-x="516" 
d="M313 -8q-116 0 -190.5 74t-74.5 189t74.5 188.5t190.5 73.5t187 -78l-52 -51q-54 58 -135 58q-83 0 -136.5 -53t-53.5 -138q0 -86 53.5 -139t136.5 -53q81 0 135 58l52 -51q-71 -78 -187 -78zM270 -50h84l-68 -150h-59z" />
    <glyph glyph-name="egrave" unicode="&#xe8;" horiz-adv-x="586" 
d="M369 596h-78l-133 153h98zM537 265q0 -25 -2 -37h-411q9 -77 60.5 -123t128.5 -46q84 0 149 59l42 -56q-79 -70 -191 -70q-116 0 -190.5 74t-74.5 189q0 116 69.5 189t177.5 73q106 0 174 -70.5t68 -181.5zM295 450q-67 0 -113.5 -43.5t-57.5 -114.5h338q-10 72 -55 115
t-112 43z" />
    <glyph glyph-name="eacute" unicode="&#xe9;" horiz-adv-x="586" 
d="M429 749l-133 -153h-78l113 153h98zM537 265q0 -25 -2 -37h-411q9 -77 60.5 -123t128.5 -46q84 0 149 59l42 -56q-79 -70 -191 -70q-116 0 -190.5 74t-74.5 189q0 116 69.5 189t177.5 73q106 0 174 -70.5t68 -181.5zM295 450q-67 0 -113.5 -43.5t-57.5 -114.5h338
q-10 72 -55 115t-112 43z" />
    <glyph glyph-name="ecircumflex" unicode="&#xea;" horiz-adv-x="586" 
d="M293 703l-79 -107h-81l113 153h94l113 -153h-81zM537 265q0 -25 -2 -37h-411q9 -77 60.5 -123t128.5 -46q84 0 149 59l42 -56q-79 -70 -191 -70q-116 0 -190.5 74t-74.5 189q0 116 69.5 189t177.5 73q106 0 174 -70.5t68 -181.5zM295 450q-67 0 -113.5 -43.5
t-57.5 -114.5h338q-10 72 -55 115t-112 43z" />
    <glyph glyph-name="edieresis" unicode="&#xeb;" horiz-adv-x="586" 
d="M191 637q-23 0 -37.5 14.5t-14.5 36.5t14.5 36.5t37.5 14.5q22 0 36.5 -14.5t14.5 -36.5t-14.5 -36.5t-36.5 -14.5zM397 637q-23 0 -37 14.5t-14 36.5t14 36.5t37 14.5t37 -14.5t14 -36.5t-14 -36.5t-37 -14.5zM537 265q0 -25 -2 -37h-411q9 -77 60.5 -123t128.5 -46
q84 0 149 59l42 -56q-79 -70 -191 -70q-116 0 -190.5 74t-74.5 189q0 116 69.5 189t177.5 73q106 0 174 -70.5t68 -181.5zM295 450q-67 0 -113.5 -43.5t-57.5 -114.5h338q-10 72 -55 115t-112 43z" />
    <glyph glyph-name="igrave" unicode="&#xec;" horiz-adv-x="249" 
d="M200 596h-78l-133 153h98zM87 509h75v-509h-75v509z" />
    <glyph glyph-name="iacute" unicode="&#xed;" horiz-adv-x="249" 
d="M49 596l113 153h98l-133 -153h-78zM87 509h75v-509h-75v509z" />
    <glyph glyph-name="icircumflex" unicode="&#xee;" horiz-adv-x="249" 
d="M164 749l92 -153h-70l-62 103l-63 -103h-70l92 153h81zM87 0v509h75v-509h-75z" />
    <glyph glyph-name="idieresis" unicode="&#xef;" horiz-adv-x="249" 
d="M49 638q-22 0 -36 14t-14 36q0 21 14 35t36 14q21 0 35 -14t14 -35q0 -22 -14 -36t-35 -14zM201 638q-22 0 -35.5 14t-13.5 36q0 21 13.5 35t35.5 14t36 -14t14 -35q0 -22 -14 -36t-36 -14zM87 509h75v-509h-75v509z" />
    <glyph glyph-name="eth" unicode="&#xf0;" horiz-adv-x="599" 
d="M355 656q193 -235 193 -416q0 -110 -70 -179.5t-179 -69.5t-180 70.5t-71 177.5t69.5 177t174.5 70q72 0 126 -43q-45 81 -127 175l-132 -78l-31 53l122 71q-32 34 -49 51l54 52q23 -24 60 -65l107 63l30 -52zM299 63q75 0 124.5 49.5t49.5 127.5q0 77 -49 126t-125 49
t-126 -49.5t-50 -126.5t50 -126.5t126 -49.5z" />
    <glyph glyph-name="ntilde" unicode="&#xf1;" horiz-adv-x="601" 
d="M228 671q-51 0 -51 -69h-59q0 61 29.5 98.5t76.5 37.5q37 0 80.5 -34.5t67.5 -34.5q51 0 51 69h59q0 -61 -29.5 -98.5t-76.5 -37.5q-30 0 -55.5 17t-48 34.5t-44.5 17.5zM321 517q93 0 148 -58.5t55 -157.5v-301h-75v294q0 75 -35 113.5t-98 38.5q-71 0 -112.5 -46.5
t-41.5 -136.5v-263h-75v509h65l8 -67q57 75 161 75z" />
    <glyph glyph-name="ograve" unicode="&#xf2;" horiz-adv-x="622" 
d="M387 596h-78l-133 153h98zM311 -8q-115 0 -189 74t-74 189q0 116 73.5 189t189.5 73t189.5 -73.5t73.5 -188.5q0 -116 -73.5 -189.5t-189.5 -73.5zM311 63q82 0 135 54t53 138t-53 137.5t-135 53.5q-83 0 -135.5 -53.5t-52.5 -137.5q0 -85 52.5 -138.5t135.5 -53.5z" />
    <glyph glyph-name="oacute" unicode="&#xf3;" horiz-adv-x="622" 
d="M236 596l113 153h98l-133 -153h-78zM311 -8q-115 0 -189 74t-74 189q0 116 73.5 189t189.5 73t189.5 -73.5t73.5 -188.5q0 -116 -73.5 -189.5t-189.5 -73.5zM311 63q82 0 135 54t53 138t-53 137.5t-135 53.5q-83 0 -135.5 -53.5t-52.5 -137.5q0 -85 52.5 -138.5
t135.5 -53.5z" />
    <glyph glyph-name="ocircumflex" unicode="&#xf4;" horiz-adv-x="622" 
d="M311 703l-79 -107h-81l113 153h94l113 -153h-81zM311 517q116 0 189.5 -73.5t73.5 -188.5q0 -116 -73.5 -189.5t-189.5 -73.5q-115 0 -189 74t-74 189q0 116 73.5 189t189.5 73zM311 63q82 0 135 54t53 138t-53 137.5t-135 53.5q-83 0 -135.5 -53.5t-52.5 -137.5
q0 -85 52.5 -138.5t135.5 -53.5z" />
    <glyph glyph-name="otilde" unicode="&#xf5;" horiz-adv-x="622" 
d="M239 671q-51 0 -51 -69h-59q0 61 29.5 98.5t76.5 37.5q37 0 80.5 -34.5t67.5 -34.5q51 0 51 69h59q0 -61 -29.5 -98.5t-76.5 -37.5q-30 0 -55.5 17t-48 34.5t-44.5 17.5zM311 -8q-115 0 -189 74t-74 189q0 116 73.5 189t189.5 73t189.5 -73.5t73.5 -188.5
q0 -116 -73.5 -189.5t-189.5 -73.5zM311 63q82 0 135 54t53 138t-53 137.5t-135 53.5q-83 0 -135.5 -53.5t-52.5 -137.5q0 -85 52.5 -138.5t135.5 -53.5z" />
    <glyph glyph-name="odieresis" unicode="&#xf6;" horiz-adv-x="622" 
d="M209 637q-23 0 -37.5 14.5t-14.5 36.5t14.5 36.5t37.5 14.5q22 0 36.5 -14.5t14.5 -36.5t-14.5 -36.5t-36.5 -14.5zM415 637q-23 0 -37 14.5t-14 36.5t14 36.5t37 14.5t37 -14.5t14 -36.5t-14 -36.5t-37 -14.5zM311 -8q-115 0 -189 74t-74 189q0 116 73.5 189t189.5 73
t189.5 -73.5t73.5 -188.5q0 -116 -73.5 -189.5t-189.5 -73.5zM311 63q82 0 135 54t53 138t-53 137.5t-135 53.5q-83 0 -135.5 -53.5t-52.5 -137.5q0 -85 52.5 -138.5t135.5 -53.5z" />
    <glyph glyph-name="divide" unicode="&#xf7;" horiz-adv-x="540" 
d="M270 427q-21 0 -34.5 13t-13.5 34t13.5 34.5t34.5 13.5t34.5 -13.5t13.5 -34.5t-13.5 -34t-34.5 -13zM62 278v60h417v-60h-417zM270 95q-21 0 -34.5 13t-13.5 34t13.5 34.5t34.5 13.5t34.5 -13.5t13.5 -34.5t-13.5 -34t-34.5 -13z" />
    <glyph glyph-name="oslash" unicode="&#xf8;" horiz-adv-x="622" 
d="M522 420q52 -69 52 -165q0 -116 -73.5 -189.5t-189.5 -73.5q-96 0 -165 52l-47 -47l-46 46l47 47q-52 69 -52 165q0 116 73.5 189t189.5 73q95 0 164 -52l48 48l46 -46zM123 255q0 -65 31 -111l268 268q-46 34 -111 34q-83 0 -135.5 -53.5t-52.5 -137.5zM311 63
q82 0 135 54t53 138q0 63 -31 111l-269 -269q46 -34 112 -34z" />
    <glyph glyph-name="ugrave" unicode="&#xf9;" horiz-adv-x="587" 
d="M369 596h-78l-133 153h98zM293 -8q-98 0 -157 60t-59 161v296h75v-288q0 -75 38 -116.5t103 -41.5q66 0 104 41t38 117v288h75v-296q0 -101 -59 -161t-158 -60z" />
    <glyph glyph-name="uacute" unicode="&#xfa;" horiz-adv-x="587" 
d="M218 596l113 153h98l-133 -153h-78zM293 -8q-98 0 -157 60t-59 161v296h75v-288q0 -75 38 -116.5t103 -41.5q66 0 104 41t38 117v288h75v-296q0 -101 -59 -161t-158 -60z" />
    <glyph glyph-name="ucircumflex" unicode="&#xfb;" horiz-adv-x="587" 
d="M293 703l-79 -107h-81l113 153h94l113 -153h-81zM435 509h75v-296q0 -101 -59 -161t-158 -60q-98 0 -157 60t-59 161v296h75v-288q0 -75 38 -116.5t103 -41.5q66 0 104 41t38 117v288z" />
    <glyph glyph-name="udieresis" unicode="&#xfc;" horiz-adv-x="587" 
d="M191 637q-23 0 -37.5 14.5t-14.5 36.5t14.5 36.5t37.5 14.5q22 0 36.5 -14.5t14.5 -36.5t-14.5 -36.5t-36.5 -14.5zM397 637q-23 0 -37 14.5t-14 36.5t14 36.5t37 14.5t37 -14.5t14 -36.5t-14 -36.5t-37 -14.5zM293 -8q-98 0 -157 60t-59 161v296h75v-288
q0 -75 38 -116.5t103 -41.5q66 0 104 41t38 117v288h75v-296q0 -101 -59 -161t-158 -60z" />
    <glyph glyph-name="yacute" unicode="&#xfd;" horiz-adv-x="528" 
d="M400 749l-133 -153h-78l113 153h98zM437 509h81l-213 -544q-39 -100 -90 -140.5t-132 -40.5q-22 0 -40 5l11 74q12 -3 28 -3q56 0 88.5 26.5t61.5 99.5l4 11l-226 512h83l183 -424z" />
    <glyph glyph-name="thorn" unicode="&#xfe;" horiz-adv-x="649" 
d="M349 517q111 0 181.5 -73.5t70.5 -188.5q0 -116 -70.5 -189.5t-181.5 -73.5q-59 0 -108 25.5t-79 69.5v-297h-75v970h75v-339q29 44 78 70t109 26zM343 63q81 0 132 53.5t51 138.5t-51 138.5t-132 53.5q-74 0 -127.5 -50.5t-53.5 -135.5v-13q0 -85 53.5 -135t127.5 -50z
" />
    <glyph glyph-name="ydieresis" unicode="&#xff;" horiz-adv-x="528" 
d="M161 637q-23 0 -37.5 14.5t-14.5 36.5t14.5 36.5t37.5 14.5q22 0 36.5 -14.5t14.5 -36.5t-14.5 -36.5t-36.5 -14.5zM367 637q-23 0 -37 14.5t-14 36.5t14 36.5t37 14.5t37 -14.5t14 -36.5t-14 -36.5t-37 -14.5zM437 509h81l-213 -544q-39 -100 -90 -140.5t-132 -40.5
q-22 0 -40 5l11 74q12 -3 28 -3q56 0 88.5 26.5t61.5 99.5l4 11l-226 512h83l183 -424z" />
    <glyph glyph-name="Amacron" unicode="&#x100;" horiz-adv-x="668" 
d="M473 818v-67h-278v67h278zM574 0l-84 216h-312l-85 -216h-83l275 690h97l276 -690h-84zM206 289h255l-127 327z" />
    <glyph glyph-name="amacron" unicode="&#x101;" horiz-adv-x="649" 
d="M444 701v-67h-278v67h278zM497 509h65v-509h-65l-9 79q-71 -87 -188 -87q-111 0 -181.5 73.5t-70.5 189.5q0 115 70.5 188.5t181.5 73.5q117 0 188 -87zM306 63q74 0 127.5 50t53.5 135v13q0 85 -53.5 135.5t-127.5 50.5q-81 0 -132 -53.5t-51 -138.5t51 -138.5
t132 -53.5z" />
    <glyph glyph-name="Abreve" unicode="&#x102;" horiz-adv-x="668" 
d="M334 722q-63 0 -103 35t-40 89h61q0 -28 22 -44t60 -16q37 0 59.5 16.5t22.5 43.5h61q0 -54 -40.5 -89t-102.5 -35zM574 0l-84 216h-312l-85 -216h-83l275 690h97l276 -690h-84zM206 289h255l-127 327z" />
    <glyph glyph-name="abreve" unicode="&#x103;" horiz-adv-x="649" 
d="M305 593q-63 0 -103 44t-40 112h61q0 -43 22 -68t60 -25q37 0 59.5 25.5t22.5 67.5h61q0 -68 -40.5 -112t-102.5 -44zM497 509h65v-509h-65l-9 79q-71 -87 -188 -87q-111 0 -181.5 73.5t-70.5 189.5q0 115 70.5 188.5t181.5 73.5q117 0 188 -87zM306 63q74 0 127.5 50
t53.5 135v13q0 85 -53.5 135.5t-127.5 50.5q-81 0 -132 -53.5t-51 -138.5t51 -138.5t132 -53.5z" />
    <glyph glyph-name="Aogonek" unicode="&#x104;" horiz-adv-x="668" 
d="M652 0q-48 -39 -66.5 -65t-18.5 -52q0 -37 38 -37q26 0 46 14v-64q-25 -13 -63 -13q-47 0 -73 22t-26 64q0 34 19.5 63.5t65.5 67.5l-84 216h-312l-85 -216h-83l275 690h97l276 -690h-6zM206 289h255l-127 327z" />
    <glyph glyph-name="aogonek" unicode="&#x105;" horiz-adv-x="649" 
d="M562 0q-48 -39 -66.5 -65t-18.5 -52q0 -37 38 -37q26 0 46 14v-64q-23 -13 -62 -13q-47 0 -73.5 22t-26.5 64q0 35 22 64.5t76 66.5l-10 85q-30 -43 -79 -68t-108 -25q-111 0 -181.5 73.5t-70.5 189.5q0 115 70.5 188.5t181.5 73.5q59 0 108 -25t79 -68l10 85h65v-509z
M306 63q74 0 127.5 50t53.5 135v13q0 85 -53.5 135.5t-127.5 50.5q-81 0 -132 -53.5t-51 -138.5t51 -138.5t132 -53.5z" />
    <glyph glyph-name="Cacute" unicode="&#x106;" horiz-adv-x="699" 
d="M314 727l113 119h105l-133 -119h-85zM412 -11q-157 0 -258 100t-101 256t101 256t258 100q155 0 252 -104l-55 -54q-82 83 -197 83q-123 0 -202 -78t-79 -203t79 -203t202 -78q116 0 197 82l55 -53q-97 -104 -252 -104z" />
    <glyph glyph-name="cacute" unicode="&#x107;" horiz-adv-x="516" 
d="M213 596l113 153h98l-133 -153h-78zM313 -8q-116 0 -190.5 74t-74.5 189t74.5 188.5t190.5 73.5t187 -78l-52 -51q-54 58 -135 58q-83 0 -136.5 -53t-53.5 -138q0 -86 53.5 -139t136.5 -53q81 0 135 58l52 -51q-71 -78 -187 -78z" />
    <glyph glyph-name="Ccircumflex" unicode="&#x108;" horiz-adv-x="699" 
d="M390 808l-79 -81h-88l116 119h101l117 -119h-88zM412 64q116 0 197 82l55 -53q-97 -104 -252 -104q-157 0 -258 100t-101 256t101 256t258 100q155 0 252 -104l-55 -54q-82 83 -197 83q-123 0 -202 -78t-79 -203t79 -203t202 -78z" />
    <glyph glyph-name="ccircumflex" unicode="&#x109;" horiz-adv-x="516" 
d="M289 703l-79 -107h-81l113 153h94l113 -153h-81zM313 63q81 0 135 58l52 -51q-71 -78 -187 -78t-190.5 74t-74.5 189t74.5 188.5t190.5 73.5t187 -78l-52 -51q-54 58 -135 58q-83 0 -136.5 -53t-53.5 -138q0 -86 53.5 -139t136.5 -53z" />
    <glyph glyph-name="Cdotaccent" unicode="&#x10a;" horiz-adv-x="699" 
d="M390 736q-23 0 -38.5 14.5t-15.5 36.5t15.5 36.5t38.5 14.5q24 0 39 -14t15 -37q0 -22 -15 -36.5t-39 -14.5zM412 -11q-157 0 -258 100t-101 256t101 256t258 100q155 0 252 -104l-55 -54q-82 83 -197 83q-123 0 -202 -78t-79 -203t79 -203t202 -78q116 0 197 82l55 -53
q-97 -104 -252 -104z" />
    <glyph glyph-name="cdotaccent" unicode="&#x10b;" horiz-adv-x="516" 
d="M289 634q-23 0 -38.5 15.5t-15.5 38.5t15.5 38.5t38.5 15.5q24 0 39 -15.5t15 -38.5t-15 -38.5t-39 -15.5zM313 -8q-116 0 -190.5 74t-74.5 189t74.5 188.5t190.5 73.5t187 -78l-52 -51q-54 58 -135 58q-83 0 -136.5 -53t-53.5 -138q0 -86 53.5 -139t136.5 -53
q81 0 135 58l52 -51q-71 -78 -187 -78z" />
    <glyph glyph-name="Ccaron" unicode="&#x10c;" horiz-adv-x="699" 
d="M339 727l-116 119h88l79 -81l79 81h88l-117 -119h-101zM412 64q116 0 197 82l55 -53q-97 -104 -252 -104q-157 0 -258 100t-101 256t101 256t258 100q155 0 252 -104l-55 -54q-82 83 -197 83q-123 0 -202 -78t-79 -203t79 -203t202 -78z" />
    <glyph glyph-name="ccaron" unicode="&#x10d;" horiz-adv-x="516" 
d="M242 596l-113 153h81l79 -107l79 107h81l-113 -153h-94zM313 63q81 0 135 58l52 -51q-71 -78 -187 -78t-190.5 74t-74.5 189t74.5 188.5t190.5 73.5t187 -78l-52 -51q-54 58 -135 58q-83 0 -136.5 -53t-53.5 -138q0 -86 53.5 -139t136.5 -53z" />
    <glyph glyph-name="Dcaron" unicode="&#x10e;" horiz-adv-x="718" 
d="M309 727l-116 119h88l79 -81l79 81h88l-117 -119h-101zM301 690q172 0 268 -95t96 -250t-96 -250t-268 -95h-206v690h206zM301 74q138 0 212 74.5t74 196.5t-74 196.5t-212 74.5h-128v-542h128z" />
    <glyph glyph-name="dcaron" unicode="&#x10f;" horiz-adv-x="649" 
d="M487 760h75v-760h-65l-10 89q-29 -45 -78 -71t-109 -26q-111 0 -181.5 73.5t-70.5 189.5q0 115 70.5 188.5t181.5 73.5q59 0 108 -25.5t79 -69.5v338zM659 760h80l-75 -196h-58zM306 63q74 0 127.5 50t53.5 135v13q0 85 -53.5 135.5t-127.5 50.5q-81 0 -132 -53.5
t-51 -138.5t51 -138.5t132 -53.5z" />
    <glyph glyph-name="Dcroat" unicode="&#x110;" horiz-adv-x="718" 
d="M301 690q172 0 268 -95t96 -250t-96 -250t-268 -95h-206v312h-95v67h95v311h206zM301 74q138 0 212 74.5t74 196.5t-74 196.5t-212 74.5h-128v-237h163v-67h-163v-238h128z" />
    <glyph glyph-name="dcroat" unicode="&#x111;" horiz-adv-x="649" 
d="M633 681v-64h-71v-617h-65l-10 85q-30 -43 -79 -68t-108 -25q-111 0 -181.5 73.5t-70.5 189.5q0 115 70.5 188.5t181.5 73.5q59 0 108 -25t79 -68v193h-183v64h183v79h75v-79h71zM306 63q74 0 127.5 50t53.5 135v13q0 85 -53.5 135.5t-127.5 50.5q-81 0 -132 -53.5
t-51 -138.5t51 -138.5t132 -53.5z" />
    <glyph glyph-name="Emacron" unicode="&#x112;" horiz-adv-x="601" 
d="M185 818h278v-67h-278v67zM552 617h-379v-227h342v-73h-342v-244h379v-73h-457v690h457v-73z" />
    <glyph glyph-name="emacron" unicode="&#x113;" horiz-adv-x="586" 
d="M432 701v-67h-278v67h278zM537 265q0 -25 -2 -37h-411q9 -77 60.5 -123t128.5 -46q84 0 149 59l42 -56q-79 -70 -191 -70q-116 0 -190.5 74t-74.5 189q0 116 69.5 189t177.5 73q106 0 174 -70.5t68 -181.5zM295 450q-67 0 -113.5 -43.5t-57.5 -114.5h338q-10 72 -55 115
t-112 43z" />
    <glyph glyph-name="Ebreve" unicode="&#x114;" horiz-adv-x="601" 
d="M324 722q-63 0 -103 35t-40 89h61q0 -28 22 -44t60 -16q37 0 59.5 16.5t22.5 43.5h61q0 -54 -40.5 -89t-102.5 -35zM552 617h-379v-227h342v-73h-342v-244h379v-73h-457v690h457v-73z" />
    <glyph glyph-name="ebreve" unicode="&#x115;" horiz-adv-x="586" 
d="M293 593q-63 0 -103 44t-40 112h61q0 -43 22 -68t60 -25q37 0 59.5 25.5t22.5 67.5h61q0 -68 -40.5 -112t-102.5 -44zM537 265q0 -25 -2 -37h-411q9 -77 60.5 -123t128.5 -46q84 0 149 59l42 -56q-79 -70 -191 -70q-116 0 -190.5 74t-74.5 189q0 116 69.5 189t177.5 73
q106 0 174 -70.5t68 -181.5zM295 450q-67 0 -113.5 -43.5t-57.5 -114.5h338q-10 72 -55 115t-112 43z" />
    <glyph glyph-name="Edotaccent" unicode="&#x116;" horiz-adv-x="601" 
d="M324 730q-23 0 -38.5 15.5t-15.5 38.5q0 24 15.5 39t38.5 15q24 0 39 -15t15 -39q0 -23 -15 -38.5t-39 -15.5zM552 617h-379v-227h342v-73h-342v-244h379v-73h-457v690h457v-73z" />
    <glyph glyph-name="edotaccent" unicode="&#x117;" horiz-adv-x="586" 
d="M293 634q-23 0 -38.5 15.5t-15.5 38.5t15.5 38.5t38.5 15.5q24 0 39 -15.5t15 -38.5t-15 -38.5t-39 -15.5zM537 265q0 -25 -2 -37h-411q9 -77 60.5 -123t128.5 -46q84 0 149 59l42 -56q-79 -70 -191 -70q-116 0 -190.5 74t-74.5 189q0 116 69.5 189t177.5 73
q106 0 174 -70.5t68 -181.5zM295 450q-67 0 -113.5 -43.5t-57.5 -114.5h338q-10 72 -55 115t-112 43z" />
    <glyph glyph-name="Eogonek" unicode="&#x118;" horiz-adv-x="601" 
d="M468 -117q0 -37 38 -37q26 0 46 14v-64q-25 -13 -63 -13q-47 0 -73 22t-26 64q0 34 19.5 63.5t65.5 67.5h-380v690h457v-73h-379v-227h342v-73h-342v-244h379v-73h1q-48 -39 -66.5 -65t-18.5 -52z" />
    <glyph glyph-name="eogonek" unicode="&#x119;" horiz-adv-x="586" 
d="M537 265q0 -25 -2 -37h-411q9 -77 60.5 -123t128.5 -46q84 0 149 59l42 -56q-9 -8 -29 -22q-103 -86 -103 -155q0 -39 38 -39q26 0 46 14v-64q-25 -13 -63 -13q-47 0 -73 22t-26 64q0 63 72 128q-28 -5 -53 -5q-116 0 -190.5 74t-74.5 189q0 116 69.5 189t177.5 73
q106 0 174 -70.5t68 -181.5zM295 450q-67 0 -113.5 -43.5t-57.5 -114.5h338q-10 72 -55 115t-112 43z" />
    <glyph glyph-name="Ecaron" unicode="&#x11a;" horiz-adv-x="601" 
d="M273 727l-116 119h88l79 -81l79 81h88l-117 -119h-101zM552 617h-379v-227h342v-73h-342v-244h379v-73h-457v690h457v-73z" />
    <glyph glyph-name="ecaron" unicode="&#x11b;" horiz-adv-x="586" 
d="M246 596l-113 153h81l79 -107l79 107h81l-113 -153h-94zM537 265q0 -25 -2 -37h-411q9 -77 60.5 -123t128.5 -46q84 0 149 59l42 -56q-79 -70 -191 -70q-116 0 -190.5 74t-74.5 189q0 116 69.5 189t177.5 73q106 0 174 -70.5t68 -181.5zM295 450q-67 0 -113.5 -43.5
t-57.5 -114.5h338q-10 72 -55 115t-112 43z" />
    <glyph glyph-name="Gcircumflex" unicode="&#x11c;" horiz-adv-x="810" 
d="M406 808l-79 -81h-88l116 119h101l117 -119h-88zM762 373q1 -10 1 -29q0 -157 -100 -256t-253 -99q-156 0 -256.5 100t-100.5 256t101.5 256t259.5 100q154 0 251 -104l-54 -53q-81 84 -198 84q-123 0 -201.5 -78.5t-78.5 -204.5t77.5 -204.5t199.5 -78.5q109 0 183 64.5
t87 172.5h-275v74h357z" />
    <glyph glyph-name="gcircumflex" unicode="&#x11d;" horiz-adv-x="646" 
d="M323 703l-79 -107h-81l113 153h94l113 -153h-81zM494 509h65v-469q0 -122 -70 -190t-196 -68q-104 0 -193 48l31 67q84 -44 162 -44q92 0 141.5 48.5t49.5 138.5v44q-69 -87 -186 -87q-110 0 -180 73t-70 188q0 113 70 186t180 73q118 0 187 -87zM306 68q73 0 125.5 49.5
t52.5 133.5v13q0 84 -52.5 133.5t-125.5 49.5q-79 0 -131 -54t-52 -135t52 -135.5t131 -54.5z" />
    <glyph glyph-name="Gbreve" unicode="&#x11e;" horiz-adv-x="810" 
d="M406 732q-63 0 -103 32t-40 82h61q0 -23 22 -36.5t60 -13.5q37 0 59.5 13.5t22.5 36.5h61q0 -50 -40.5 -82t-102.5 -32zM762 373q1 -10 1 -29q0 -157 -100 -256t-253 -99q-156 0 -256.5 100t-100.5 256t101.5 256t259.5 100q154 0 251 -104l-54 -53q-81 84 -198 84
q-123 0 -201.5 -78.5t-78.5 -204.5t77.5 -204.5t199.5 -78.5q109 0 183 64.5t87 172.5h-275v74h357z" />
    <glyph glyph-name="gbreve" unicode="&#x11f;" horiz-adv-x="646" 
d="M324 593q-63 0 -103 44t-40 112h61q0 -43 22 -68t60 -25q37 0 59.5 25.5t22.5 67.5h61q0 -68 -40.5 -112t-102.5 -44zM494 509h65v-469q0 -122 -70 -190t-196 -68q-104 0 -193 48l31 67q84 -44 162 -44q92 0 141.5 48.5t49.5 138.5v44q-69 -87 -186 -87q-110 0 -180 73
t-70 188q0 113 70 186t180 73q118 0 187 -87zM306 68q73 0 125.5 49.5t52.5 133.5v13q0 84 -52.5 133.5t-125.5 49.5q-79 0 -131 -54t-52 -135t52 -135.5t131 -54.5z" />
    <glyph glyph-name="Gdotaccent" unicode="&#x120;" horiz-adv-x="810" 
d="M406 736q-23 0 -38.5 14.5t-15.5 36.5t15.5 36.5t38.5 14.5q24 0 39 -14t15 -37q0 -22 -15 -36.5t-39 -14.5zM762 373q1 -10 1 -29q0 -157 -100 -256t-253 -99q-156 0 -256.5 100t-100.5 256t101.5 256t259.5 100q154 0 251 -104l-54 -53q-81 84 -198 84
q-123 0 -201.5 -78.5t-78.5 -204.5t77.5 -204.5t199.5 -78.5q109 0 183 64.5t87 172.5h-275v74h357z" />
    <glyph glyph-name="gdotaccent" unicode="&#x121;" horiz-adv-x="646" 
d="M323 634q-23 0 -38.5 15.5t-15.5 38.5t15.5 38.5t38.5 15.5q24 0 39 -15.5t15 -38.5t-15 -38.5t-39 -15.5zM494 509h65v-469q0 -122 -70 -190t-196 -68q-104 0 -193 48l31 67q84 -44 162 -44q92 0 141.5 48.5t49.5 138.5v44q-69 -87 -186 -87q-110 0 -180 73t-70 188
q0 113 70 186t180 73q118 0 187 -87zM306 68q73 0 125.5 49.5t52.5 133.5v13q0 84 -52.5 133.5t-125.5 49.5q-79 0 -131 -54t-52 -135t52 -135.5t131 -54.5z" />
    <glyph glyph-name="uni0122" unicode="&#x122;" horiz-adv-x="810" 
d="M762 373q1 -10 1 -29q0 -157 -100 -256t-253 -99q-156 0 -256.5 100t-100.5 256t101.5 256t259.5 100q154 0 251 -104l-54 -53q-81 84 -198 84q-123 0 -201.5 -78.5t-78.5 -204.5t77.5 -204.5t199.5 -78.5q109 0 183 64.5t87 172.5h-275v74h357zM344 -200l43 150h84
l-68 -150h-59z" />
    <glyph glyph-name="uni0123" unicode="&#x123;" horiz-adv-x="646" 
d="M387 749l-44 -150h-83l70 150h57zM494 509h65v-469q0 -122 -70 -190t-196 -68q-104 0 -193 48l31 67q84 -44 162 -44q92 0 141.5 48.5t49.5 138.5v44q-69 -87 -186 -87q-110 0 -180 73t-70 188q0 113 70 186t180 73q118 0 187 -87zM306 68q73 0 125.5 49.5t52.5 133.5v13
q0 84 -52.5 133.5t-125.5 49.5q-79 0 -131 -54t-52 -135t52 -135.5t131 -54.5z" />
    <glyph glyph-name="Hcircumflex" unicode="&#x124;" horiz-adv-x="743" 
d="M371 808l-79 -81h-88l116 119h101l117 -119h-88zM570 690h78v-690h-78v314h-397v-314h-78v690h78v-302h397v302z" />
    <glyph glyph-name="hcircumflex" unicode="&#x125;" horiz-adv-x="601" 
d="M296 808l-79 -81h-88l116 119h101l117 -119h-88zM321 517q93 0 148 -58.5t55 -157.5v-301h-75v294q0 75 -35 113.5t-98 38.5q-71 0 -112.5 -46.5t-41.5 -136.5v-263h-75v690h75v-246q56 73 159 73z" />
    <glyph glyph-name="Hbar" unicode="&#x126;" horiz-adv-x="810" 
d="M745 618v-55h-64v-563h-78v314h-396v-314h-78v563h-64v55h64v72h78v-72h396v72h78v-72h64zM603 388v175h-396v-175h396z" />
    <glyph glyph-name="hbar" unicode="&#x127;" horiz-adv-x="601" 
d="M321 517q93 0 148 -58.5t55 -157.5v-301h-75v294q0 75 -35 113.5t-98 38.5q-71 0 -112.5 -46.5t-41.5 -136.5v-263h-75v617h-74v64h74v79h75v-79h181v-64h-181v-173q56 73 159 73z" />
    <glyph glyph-name="Itilde" unicode="&#x128;" horiz-adv-x="268" 
d="M62 781q-51 0 -51 -59h-59q0 57 29.5 91.5t76.5 34.5q37 0 80.5 -29.5t67.5 -29.5q51 0 51 59h59q0 -57 -29.5 -91.5t-76.5 -34.5q-37 0 -80.5 29.5t-67.5 29.5zM173 0h-78v690h78v-690z" />
    <glyph glyph-name="itilde" unicode="&#x129;" horiz-adv-x="249" 
d="M70 660q-36 0 -36 -58h-55q0 56 23.5 90.5t61.5 34.5q29 0 64.5 -29.5t51.5 -29.5q35 0 35 59h55q0 -56 -23.5 -90.5t-61.5 -34.5q-29 0 -64.5 29t-50.5 29zM87 509h75v-509h-75v509z" />
    <glyph glyph-name="Imacron" unicode="&#x12a;" horiz-adv-x="268" 
d="M-5 818h278v-67h-278v67zM173 0h-78v690h78v-690z" />
    <glyph glyph-name="imacron" unicode="&#x12b;" horiz-adv-x="249" 
d="M8 700h231v-66h-231v66zM87 509h75v-509h-75v509z" />
    <glyph glyph-name="Ibreve" unicode="&#x12c;" horiz-adv-x="268" 
d="M134 722q-63 0 -103 35t-40 89h61q0 -28 22 -44t60 -16q37 0 59.5 16.5t22.5 43.5h61q0 -54 -40.5 -89t-102.5 -35zM173 0h-78v690h78v-690z" />
    <glyph glyph-name="ibreve" unicode="&#x12d;" horiz-adv-x="249" 
d="M125 592q-56 0 -89.5 40.5t-33.5 116.5h61q0 -93 62 -93t62 93h61q0 -76 -34 -116.5t-89 -40.5zM87 509h75v-509h-75v509z" />
    <glyph glyph-name="Iogonek" unicode="&#x12e;" horiz-adv-x="268" 
d="M146 -154q26 0 46 14v-64q-25 -13 -62 -13q-47 0 -73.5 22t-26.5 64q0 34 14.5 63.5t50.5 67.5v690h78v-690q-65 -70 -65 -117q0 -37 38 -37z" />
    <glyph glyph-name="iogonek" unicode="&#x12f;" horiz-adv-x="249" 
d="M123 634q-24 0 -39 15.5t-15 38.5t15 38.5t39 15.5q23 0 38.5 -15.5t15.5 -38.5t-15.5 -38.5t-38.5 -15.5zM135 -154q26 0 46 14v-64q-23 -13 -62 -13q-47 0 -73.5 22t-26.5 64q0 34 15.5 63.5t52.5 67.5v509h75v-509q-65 -70 -65 -117q0 -37 38 -37z" />
    <glyph glyph-name="Idotaccent" unicode="&#x130;" horiz-adv-x="268" 
d="M134 730q-23 0 -38.5 15.5t-15.5 38.5q0 24 15.5 39t38.5 15q24 0 39 -15t15 -39q0 -23 -15 -38.5t-39 -15.5zM173 0h-78v690h78v-690z" />
    <glyph glyph-name="dotlessi" unicode="&#x131;" horiz-adv-x="249" 
d="M87 509h75v-509h-75v509z" />
    <glyph glyph-name="IJ" unicode="&#x132;" horiz-adv-x="694" 
d="M173 0h-78v690h78v-690zM303 89q35 -23 78 -23q140 0 140 171v453h78v-458q0 -112 -57 -176t-158 -64q-71 0 -119 34z" />
    <glyph glyph-name="ij" unicode="&#x133;" horiz-adv-x="498" 
d="M124 634q-23 0 -38.5 15.5t-15.5 38.5t15.5 38.5t38.5 15.5q24 0 39 -15.5t15 -38.5t-15 -38.5t-39 -15.5zM373 634q-23 0 -38.5 15.5t-15.5 38.5t15.5 38.5t38.5 15.5q24 0 39 -15.5t15 -38.5t-15 -38.5t-39 -15.5zM87 509h75v-509h-75v509zM207 -140q18 -7 41 -7
q88 0 88 99v557h75v-559q0 -78 -42.5 -123t-117.5 -45q-35 0 -67 12z" />
    <glyph glyph-name="Jcircumflex" unicode="&#x134;" horiz-adv-x="426" 
d="M342 846l117 -119h-88l-79 81l-79 -81h-88l116 119h101zM253 237v453h78v-458q0 -112 -57 -176t-158 -64q-71 0 -119 34l38 63q35 -23 78 -23q140 0 140 171z" />
    <glyph glyph-name="jcircumflex" unicode="&#x135;" horiz-adv-x="249" 
d="M164 749l92 -153h-70l-62 103l-63 -103h-70l92 153h81zM87 -48v557h75v-559q0 -78 -42.5 -123t-117.5 -45q-35 0 -67 12l23 66q18 -7 41 -7q88 0 88 99z" />
    <glyph glyph-name="uni0136" unicode="&#x136;" horiz-adv-x="630" 
d="M312 352l328 -352h-107l-289 313h-71v-313h-78v690h78v-302h71l277 302h103zM268 -200l43 150h84l-68 -150h-59z" />
    <glyph glyph-name="uni0137" unicode="&#x137;" horiz-adv-x="531" 
d="M284 261l257 -261h-104l-218 224h-57v-224h-75v760h75v-467h53l204 216h102zM204 -200l43 150h84l-68 -150h-59z" />
    <glyph glyph-name="kgreenlandic" unicode="&#x138;" horiz-adv-x="531" 
d="M437 0l-218 224h-57v-224h-75v509h75v-216h53l204 216h102l-237 -248l257 -261h-104z" />
    <glyph glyph-name="Lacute" unicode="&#x139;" horiz-adv-x="526" 
d="M121 727l113 119h105l-133 -119h-85zM95 0v690h78v-616h343v-74h-421z" />
    <glyph glyph-name="lacute" unicode="&#x13a;" horiz-adv-x="249" 
d="M49 727l113 119h105l-133 -119h-85zM162 0h-75v690h75v-690z" />
    <glyph glyph-name="uni013B" unicode="&#x13b;" horiz-adv-x="526" 
d="M95 0v690h78v-616h343v-74h-421zM287 -50h84l-68 -150h-59z" />
    <glyph glyph-name="uni013C" unicode="&#x13c;" horiz-adv-x="249" 
d="M162 0h-75v760h75v-760zM106 -50h84l-68 -150h-59z" />
    <glyph glyph-name="Lcaron" unicode="&#x13d;" horiz-adv-x="526" 
d="M95 0v690h78v-616h343v-74h-421zM290 690h80l-75 -196h-58z" />
    <glyph glyph-name="lcaron" unicode="&#x13e;" horiz-adv-x="249" 
d="M162 0h-75v760h75v-760zM259 760h80l-75 -196h-58z" />
    <glyph glyph-name="Ldot" unicode="&#x13f;" horiz-adv-x="526" 
d="M95 0v690h78v-616h343v-74h-421zM397 348q-27 0 -44.5 17t-17.5 45q0 27 17.5 44.5t44.5 17.5t44.5 -17.5t17.5 -44.5q0 -28 -17.5 -45t-44.5 -17z" />
    <glyph glyph-name="ldot" unicode="&#x140;" horiz-adv-x="363" 
d="M162 0h-75v760h75v-760zM306 274q-27 0 -44.5 17.5t-17.5 45.5q0 27 17.5 44.5t44.5 17.5t44.5 -17.5t17.5 -44.5q0 -28 -17.5 -45.5t-44.5 -17.5z" />
    <glyph glyph-name="Lslash" unicode="&#x141;" horiz-adv-x="526" 
d="M173 74h343v-74h-421v284l-98 -65v85l98 65v321h78v-281l167 112v-85l-167 -112v-250z" />
    <glyph glyph-name="lslash" unicode="&#x142;" horiz-adv-x="292" 
d="M284 508v-85l-100 -66v-357h-75v319l-101 -67v85l101 67v356h75v-318z" />
    <glyph glyph-name="Nacute" unicode="&#x143;" horiz-adv-x="773" 
d="M529 846l-133 -119h-85l113 119h105zM600 690h78v-690h-91l-414 577v-577h-78v690h90l415 -578v578z" />
    <glyph glyph-name="nacute" unicode="&#x144;" horiz-adv-x="601" 
d="M436 749l-133 -153h-78l113 153h98zM321 517q93 0 148 -58.5t55 -157.5v-301h-75v294q0 75 -35 113.5t-98 38.5q-71 0 -112.5 -46.5t-41.5 -136.5v-263h-75v509h65l8 -67q57 75 161 75z" />
    <glyph glyph-name="uni0145" unicode="&#x145;" horiz-adv-x="773" 
d="M600 690h78v-690h-91l-414 577v-577h-78v690h90l415 -578v578zM325 -200l43 150h84l-68 -150h-59z" />
    <glyph glyph-name="uni0146" unicode="&#x146;" horiz-adv-x="601" 
d="M321 517q93 0 148 -58.5t55 -157.5v-301h-75v294q0 75 -35 113.5t-98 38.5q-71 0 -112.5 -46.5t-41.5 -136.5v-263h-75v509h65l8 -67q57 75 161 75zM239 -200l43 150h84l-68 -150h-59z" />
    <glyph glyph-name="Ncaron" unicode="&#x147;" horiz-adv-x="773" 
d="M335 727l-116 119h88l79 -81l79 81h88l-117 -119h-101zM600 690h78v-690h-91l-414 577v-577h-78v690h90l415 -578v578z" />
    <glyph glyph-name="ncaron" unicode="&#x148;" horiz-adv-x="601" 
d="M253 596l-113 153h81l79 -107l79 107h81l-113 -153h-94zM321 517q93 0 148 -58.5t55 -157.5v-301h-75v294q0 75 -35 113.5t-98 38.5q-71 0 -112.5 -46.5t-41.5 -136.5v-263h-75v509h65l8 -67q57 75 161 75z" />
    <glyph glyph-name="napostrophe" unicode="&#x149;" horiz-adv-x="601" 
d="M-159 440l73 250h86l-104 -250h-55zM321 517q93 0 148 -58.5t55 -157.5v-301h-75v294q0 75 -35 113.5t-98 38.5q-71 0 -112.5 -46.5t-41.5 -136.5v-263h-75v509h65l8 -67q57 75 161 75z" />
    <glyph glyph-name="Eng" unicode="&#x14a;" horiz-adv-x="773" 
d="M600 690h78v-690q-2 -103 -57 -161t-153 -58q-56 0 -93 22l31 66q25 -14 59 -14q130 0 135 145l-427 577v-577h-78v690h90l415 -561v561z" />
    <glyph glyph-name="eng" unicode="&#x14b;" horiz-adv-x="601" 
d="M321 517q93 0 148 -58.5t55 -157.5v-353q0 -78 -41.5 -122t-115.5 -44q-37 0 -67 12l23 66q18 -7 40 -7q86 0 86 96v345q0 75 -35 113.5t-98 38.5q-71 0 -112.5 -46.5t-41.5 -136.5v-263h-75v509h65l8 -67q57 75 161 75z" />
    <glyph glyph-name="Omacron" unicode="&#x14c;" horiz-adv-x="815" 
d="M269 818h278v-67h-278v67zM408 -10q-155 0 -255 100t-100 255t100 254.5t255 99.5t254.5 -99.5t99.5 -254.5t-99.5 -255t-254.5 -100zM408 64q120 0 198 79t78 202t-78 201.5t-198 78.5t-198.5 -78.5t-78.5 -201.5t78.5 -202t198.5 -79z" />
    <glyph glyph-name="omacron" unicode="&#x14d;" horiz-adv-x="622" 
d="M172 701h278v-67h-278v67zM311 -8q-115 0 -189 74t-74 189q0 116 73.5 189t189.5 73t189.5 -73.5t73.5 -188.5q0 -116 -73.5 -189.5t-189.5 -73.5zM311 63q82 0 135 54t53 138t-53 137.5t-135 53.5q-83 0 -135.5 -53.5t-52.5 -137.5q0 -85 52.5 -138.5t135.5 -53.5z" />
    <glyph glyph-name="Obreve" unicode="&#x14e;" horiz-adv-x="815" 
d="M408 732q-63 0 -103 32t-40 82h61q0 -23 22 -36.5t60 -13.5q37 0 59.5 13.5t22.5 36.5h61q0 -50 -40.5 -82t-102.5 -32zM408 -10q-155 0 -255 100t-100 255t100 254.5t255 99.5t254.5 -99.5t99.5 -254.5t-99.5 -255t-254.5 -100zM408 64q120 0 198 79t78 202t-78 201.5
t-198 78.5t-198.5 -78.5t-78.5 -201.5t78.5 -202t198.5 -79z" />
    <glyph glyph-name="obreve" unicode="&#x14f;" horiz-adv-x="622" 
d="M311 593q-63 0 -103 44t-40 112h61q0 -43 22 -68t60 -25q37 0 59.5 25.5t22.5 67.5h61q0 -68 -40.5 -112t-102.5 -44zM311 -8q-115 0 -189 74t-74 189q0 116 73.5 189t189.5 73t189.5 -73.5t73.5 -188.5q0 -116 -73.5 -189.5t-189.5 -73.5zM311 63q82 0 135 54t53 138
t-53 137.5t-135 53.5q-83 0 -135.5 -53.5t-52.5 -137.5q0 -85 52.5 -138.5t135.5 -53.5z" />
    <glyph glyph-name="Ohungarumlaut" unicode="&#x150;" horiz-adv-x="815" 
d="M319 737l113 109h136l-133 -109h-116zM408 699q155 0 254.5 -99.5t99.5 -254.5t-99.5 -255t-254.5 -100t-255 100t-100 255t100 254.5t255 99.5zM408 64q120 0 198 79t78 202t-78 201.5t-198 78.5t-198.5 -78.5t-78.5 -201.5t78.5 -202t198.5 -79z" />
    <glyph glyph-name="ohungarumlaut" unicode="&#x151;" horiz-adv-x="622" 
d="M176 596l113 153h91l-133 -153h-71zM322 596l113 153h91l-133 -153h-71zM311 -8q-115 0 -189 74t-74 189q0 116 73.5 189t189.5 73t189.5 -73.5t73.5 -188.5q0 -116 -73.5 -189.5t-189.5 -73.5zM311 63q82 0 135 54t53 138t-53 137.5t-135 53.5q-83 0 -135.5 -53.5
t-52.5 -137.5q0 -85 52.5 -138.5t135.5 -53.5z" />
    <glyph glyph-name="OE" unicode="&#x152;" horiz-adv-x="1093" 
d="M1044 617h-329v-227h292v-73h-292v-244h329v-73h-407v130q-40 -66 -106.5 -103t-152.5 -37q-141 0 -233 100t-92 255t92 254.5t233 99.5q173 0 259 -139v130h407v-73zM384 64q114 0 183.5 78.5t69.5 202.5t-69.5 202t-183.5 78q-110 0 -181.5 -78.5t-71.5 -201.5
t71.5 -202t181.5 -79z" />
    <glyph glyph-name="oe" unicode="&#x153;" horiz-adv-x="968" 
d="M920 265q0 -19 -3 -37h-376q7 -76 54.5 -121.5t117.5 -45.5q74 0 131 57l42 -56q-73 -70 -173 -70q-71 0 -126.5 36t-84.5 99q-28 -63 -82.5 -99t-125.5 -36q-108 0 -177 74t-69 189q0 116 69 189t177 73q70 0 124 -35t83 -97q27 61 77.5 96.5t115.5 35.5
q99 0 162.5 -70.5t63.5 -181.5zM694 449q-60 0 -102 -43.5t-51 -113.5h303q-9 72 -49.5 114.5t-100.5 42.5zM294 63q74 0 122 53.5t48 138.5q0 84 -48 137.5t-122 53.5t-122.5 -53.5t-48.5 -137.5t48 -138t123 -54z" />
    <glyph glyph-name="Racute" unicode="&#x154;" horiz-adv-x="634" 
d="M459 846l-133 -119h-85l113 119h105zM599 0h-95l-196 275h-135v-275h-78v690h245q110 0 174 -56t64 -152q0 -81 -47.5 -134.5t-131.5 -67.5zM173 617v-271h166q78 0 119.5 35.5t41.5 100.5q0 66 -41 100.5t-120 34.5h-166z" />
    <glyph glyph-name="racute" unicode="&#x155;" horiz-adv-x="376" 
d="M358 749l-133 -153h-78l113 153h98zM160 449q54 68 141 68q28 0 55 -6v-79q-30 10 -62 10q-60 0 -96 -36t-36 -106v-300h-75v509h65z" />
    <glyph glyph-name="uni0156" unicode="&#x156;" horiz-adv-x="634" 
d="M399 280l200 -280h-95l-196 275h-135v-275h-78v690h245q110 0 174 -56t64 -152q0 -81 -47.5 -134.5t-131.5 -67.5zM173 617v-271h166q78 0 119.5 35.5t41.5 100.5q0 66 -41 100.5t-120 34.5h-166zM255 -200l43 150h84l-68 -150h-59z" />
    <glyph glyph-name="uni0157" unicode="&#x157;" horiz-adv-x="376" 
d="M301 517q28 0 55 -6v-79q-30 10 -62 10q-60 0 -96 -36t-36 -106v-300h-75v509h65l8 -60q54 68 141 68zM63 -200l43 150h84l-68 -150h-59z" />
    <glyph glyph-name="Rcaron" unicode="&#x158;" horiz-adv-x="634" 
d="M266 727l-116 119h88l79 -81l79 81h88l-117 -119h-101zM599 0h-95l-196 275h-135v-275h-78v690h245q110 0 174 -56t64 -152q0 -81 -47.5 -134.5t-131.5 -67.5zM173 617v-271h166q78 0 119.5 35.5t41.5 100.5q0 66 -41 100.5t-120 34.5h-166z" />
    <glyph glyph-name="rcaron" unicode="&#x159;" horiz-adv-x="376" 
d="M175 596l-113 153h81l79 -107l79 107h81l-113 -153h-94zM160 449q54 68 141 68q28 0 55 -6v-79q-30 10 -62 10q-60 0 -96 -36t-36 -106v-300h-75v509h65z" />
    <glyph glyph-name="Sacute" unicode="&#x15a;" horiz-adv-x="594" 
d="M222 727l113 119h105l-133 -119h-85zM47 57l39 67q86 -60 193 -60q85 0 130.5 33t45.5 89q0 41 -29.5 68.5t-73 39.5t-95 27.5t-95 33t-73 56t-29.5 94.5q0 87 66 141t173 54q129 0 227 -76l-43 -66q-86 68 -185 68q-74 0 -116.5 -33t-42.5 -84q0 -46 40.5 -72.5
t98.5 -41.5t116 -33t98.5 -60.5t40.5 -111.5q0 -89 -70.5 -145t-185.5 -56q-136 0 -230 68z" />
    <glyph glyph-name="sacute" unicode="&#x15b;" horiz-adv-x="458" 
d="M154 596l113 153h98l-133 -153h-78zM41 41l36 63q61 -45 137 -45q57 0 87.5 21.5t30.5 57.5q0 32 -29 51.5t-70 31t-82.5 25t-70.5 45t-29 80.5q0 65 50 105.5t131 40.5q97 0 170 -56l-39 -59q-63 48 -134 48q-48 0 -75.5 -21t-27.5 -54q0 -30 29 -48.5t70 -29t82.5 -25
t70.5 -46.5t29 -83q0 -67 -53 -109t-141 -42q-99 0 -172 49z" />
    <glyph glyph-name="Scircumflex" unicode="&#x15c;" horiz-adv-x="594" 
d="M297 808l-79 -81h-88l116 119h101l117 -119h-88zM139 509q0 -46 40.5 -72.5t98.5 -41.5t116 -33t98.5 -60.5t40.5 -111.5q0 -89 -70.5 -145t-185.5 -56q-136 0 -230 68l39 67q86 -60 193 -60q85 0 130.5 33t45.5 89q0 41 -29.5 68.5t-73 39.5t-95 27.5t-95 33t-73 56
t-29.5 94.5q0 87 66 141t173 54q129 0 227 -76l-43 -66q-86 68 -185 68q-74 0 -116.5 -33t-42.5 -84z" />
    <glyph glyph-name="scircumflex" unicode="&#x15d;" horiz-adv-x="458" 
d="M229 703l-79 -107h-81l113 153h94l113 -153h-81zM126 375q0 -30 29 -48.5t70 -29t82.5 -25t70.5 -46.5t29 -83q0 -67 -53 -109t-141 -42q-99 0 -172 49l36 63q61 -45 137 -45q57 0 87.5 21.5t30.5 57.5q0 32 -29 51.5t-70 31t-82.5 25t-70.5 45t-29 80.5q0 65 50 105.5
t131 40.5q97 0 170 -56l-39 -59q-63 48 -134 48q-48 0 -75.5 -21t-27.5 -54z" />
    <glyph glyph-name="Scedilla" unicode="&#x15e;" horiz-adv-x="594" 
d="M47 57l39 67q86 -60 193 -60q85 0 130.5 33t45.5 89q0 41 -29.5 68.5t-73 39.5t-95 27.5t-95 33t-73 56t-29.5 94.5q0 87 66 141t173 54q129 0 227 -76l-43 -66q-86 68 -185 68q-74 0 -116.5 -33t-42.5 -84q0 -46 40.5 -72.5t98.5 -41.5t116 -33t98.5 -60.5t40.5 -111.5
q0 -89 -70.5 -145t-185.5 -56q-136 0 -230 68zM278 -50h84l-68 -150h-59z" />
    <glyph glyph-name="scedilla" unicode="&#x15f;" horiz-adv-x="458" 
d="M41 41l36 63q61 -45 137 -45q57 0 87.5 21.5t30.5 57.5q0 32 -29 51.5t-70 31t-82.5 25t-70.5 45t-29 80.5q0 65 50 105.5t131 40.5q97 0 170 -56l-39 -59q-63 48 -134 48q-48 0 -75.5 -21t-27.5 -54q0 -30 29 -48.5t70 -29t82.5 -25t70.5 -46.5t29 -83q0 -67 -53 -109
t-141 -42q-99 0 -172 49zM210 -50h84l-68 -150h-59z" />
    <glyph glyph-name="Scaron" unicode="&#x160;" horiz-adv-x="594" 
d="M246 727l-116 119h88l79 -81l79 81h88l-117 -119h-101zM139 509q0 -46 40.5 -72.5t98.5 -41.5t116 -33t98.5 -60.5t40.5 -111.5q0 -89 -70.5 -145t-185.5 -56q-136 0 -230 68l39 67q86 -60 193 -60q85 0 130.5 33t45.5 89q0 41 -29.5 68.5t-73 39.5t-95 27.5t-95 33
t-73 56t-29.5 94.5q0 87 66 141t173 54q129 0 227 -76l-43 -66q-86 68 -185 68q-74 0 -116.5 -33t-42.5 -84z" />
    <glyph glyph-name="scaron" unicode="&#x161;" horiz-adv-x="458" 
d="M182 596l-113 153h81l79 -107l79 107h81l-113 -153h-94zM126 375q0 -30 29 -48.5t70 -29t82.5 -25t70.5 -46.5t29 -83q0 -67 -53 -109t-141 -42q-99 0 -172 49l36 63q61 -45 137 -45q57 0 87.5 21.5t30.5 57.5q0 32 -29 51.5t-70 31t-82.5 25t-70.5 45t-29 80.5
q0 65 50 105.5t131 40.5q97 0 170 -56l-39 -59q-63 48 -134 48q-48 0 -75.5 -21t-27.5 -54z" />
    <glyph glyph-name="uni0162" unicode="&#x162;" horiz-adv-x="607" 
d="M597 690v-73h-254v-617h-79v617h-254v73h587zM285 -50h84l-68 -150h-59z" />
    <glyph glyph-name="uni0163" unicode="&#x163;" horiz-adv-x="408" 
d="M370 90l27 -64q-60 -34 -127 -34q-74 0 -116.5 44.5t-42.5 122.5v281h-91v69h91v147h75v-147h196v-69h-196v-273q0 -104 91 -104q48 0 93 27zM235 -50h84l-68 -150h-59z" />
    <glyph glyph-name="Tcaron" unicode="&#x164;" horiz-adv-x="607" 
d="M253 727l-116 119h88l79 -81l79 81h88l-117 -119h-101zM10 690h587v-73h-254v-617h-79v617h-254v73z" />
    <glyph glyph-name="tcaron" unicode="&#x165;" horiz-adv-x="408" 
d="M290 760h80l-75 -196h-58zM370 90l27 -64q-60 -34 -127 -34q-74 0 -116.5 44.5t-42.5 122.5v281h-91v69h91v147h75v-147h196v-69h-196v-273q0 -104 91 -104q48 0 93 27z" />
    <glyph glyph-name="Tbar" unicode="&#x166;" horiz-adv-x="607" 
d="M597 617h-254v-251h128v-67h-128v-299h-79v299h-129v67h129v251h-254v73h587v-73z" />
    <glyph glyph-name="tbar" unicode="&#x167;" horiz-adv-x="408" 
d="M370 90l27 -64q-60 -34 -127 -34q-74 0 -116.5 44.5t-42.5 122.5v74h-80v64h80v143h-91v69h91v147h75v-147h196v-69h-196v-143h175v-64h-175v-66q0 -104 91 -104q48 0 93 27z" />
    <glyph glyph-name="Utilde" unicode="&#x168;" horiz-adv-x="722" 
d="M289 781q-51 0 -51 -59h-59q0 57 29.5 91.5t76.5 34.5q37 0 80.5 -29.5t67.5 -29.5q51 0 51 59h59q0 -57 -29.5 -91.5t-76.5 -34.5q-37 0 -80.5 29.5t-67.5 29.5zM360 -10q-123 0 -198 78t-75 208v414h78v-408q0 -104 52.5 -161.5t142.5 -57.5q91 0 144 57.5t53 161.5
v408h78v-414q0 -130 -75 -208t-200 -78z" />
    <glyph glyph-name="utilde" unicode="&#x169;" horiz-adv-x="587" 
d="M221 671q-51 0 -51 -69h-59q0 61 29.5 98.5t76.5 37.5q37 0 80.5 -34.5t67.5 -34.5q51 0 51 69h59q0 -61 -29.5 -98.5t-76.5 -37.5q-30 0 -55.5 17t-48 34.5t-44.5 17.5zM293 -8q-98 0 -157 60t-59 161v296h75v-288q0 -75 38 -116.5t103 -41.5q66 0 104 41t38 117v288h75
v-296q0 -101 -59 -161t-158 -60z" />
    <glyph glyph-name="Umacron" unicode="&#x16a;" horiz-adv-x="722" 
d="M222 818h278v-67h-278v67zM360 -10q-123 0 -198 78t-75 208v414h78v-408q0 -104 52.5 -161.5t142.5 -57.5q91 0 144 57.5t53 161.5v408h78v-414q0 -130 -75 -208t-200 -78z" />
    <glyph glyph-name="umacron" unicode="&#x16b;" horiz-adv-x="587" 
d="M154 701h278v-67h-278v67zM293 -8q-98 0 -157 60t-59 161v296h75v-288q0 -75 38 -116.5t103 -41.5q66 0 104 41t38 117v288h75v-296q0 -101 -59 -161t-158 -60z" />
    <glyph glyph-name="Ubreve" unicode="&#x16c;" horiz-adv-x="722" 
d="M362 722q-63 0 -103 35t-40 89h61q0 -28 22 -44t60 -16q37 0 59.5 16.5t22.5 43.5h61q0 -54 -40.5 -89t-102.5 -35zM360 -10q-123 0 -198 78t-75 208v414h78v-408q0 -104 52.5 -161.5t142.5 -57.5q91 0 144 57.5t53 161.5v408h78v-414q0 -130 -75 -208t-200 -78z" />
    <glyph glyph-name="ubreve" unicode="&#x16d;" horiz-adv-x="587" 
d="M294 593q-63 0 -103 44t-40 112h61q0 -43 22 -68t60 -25q37 0 59.5 25.5t22.5 67.5h61q0 -68 -40.5 -112t-102.5 -44zM293 -8q-98 0 -157 60t-59 161v296h75v-288q0 -75 38 -116.5t103 -41.5q66 0 104 41t38 117v288h75v-296q0 -101 -59 -161t-158 -60z" />
    <glyph glyph-name="Uring" unicode="&#x16e;" horiz-adv-x="722" 
d="M362 668q-43 0 -74 30t-31 71q0 42 31 72t74 30t73.5 -30t30.5 -72q0 -41 -30.5 -71t-73.5 -30zM362 716q23 0 40 15.5t17 37.5t-17 38t-40 16q-24 0 -40.5 -16t-16.5 -38t16.5 -37.5t40.5 -15.5zM360 -10q-123 0 -198 78t-75 208v414h78v-408q0 -104 52.5 -161.5
t142.5 -57.5q91 0 144 57.5t53 161.5v408h78v-414q0 -130 -75 -208t-200 -78z" />
    <glyph glyph-name="uring" unicode="&#x16f;" horiz-adv-x="587" 
d="M294 561q-45 0 -76.5 31.5t-31.5 76.5t31.5 76.5t76.5 31.5q44 0 76 -31.5t32 -76.5t-32 -76.5t-76 -31.5zM294 609q25 0 42.5 17.5t17.5 42.5t-17.5 43t-42.5 18t-42.5 -18t-17.5 -43t17.5 -42.5t42.5 -17.5zM293 -8q-98 0 -157 60t-59 161v296h75v-288q0 -75 38 -116.5
t103 -41.5q66 0 104 41t38 117v288h75v-296q0 -101 -59 -161t-158 -60z" />
    <glyph glyph-name="Uhungarumlaut" unicode="&#x170;" horiz-adv-x="722" 
d="M213 727l113 119h98l-133 -119h-78zM369 727l113 119h98l-133 -119h-78zM360 -10q-123 0 -198 78t-75 208v414h78v-408q0 -104 52.5 -161.5t142.5 -57.5q91 0 144 57.5t53 161.5v408h78v-414q0 -130 -75 -208t-200 -78z" />
    <glyph glyph-name="uhungarumlaut" unicode="&#x171;" horiz-adv-x="587" 
d="M158 596l113 153h91l-133 -153h-71zM304 596l113 153h91l-133 -153h-71zM293 -8q-98 0 -157 60t-59 161v296h75v-288q0 -75 38 -116.5t103 -41.5q66 0 104 41t38 117v288h75v-296q0 -101 -59 -161t-158 -60z" />
    <glyph glyph-name="Uogonek" unicode="&#x172;" horiz-adv-x="722" 
d="M557 690h78v-414q0 -150 -97 -228q-92 -97 -92 -165q0 -37 38 -37q26 0 46 14v-64q-25 -13 -63 -13q-47 0 -73 22t-26 64q0 61 70 130q-36 -9 -78 -9q-123 0 -198 78t-75 208v414h78v-408q0 -104 52.5 -161.5t142.5 -57.5q91 0 144 57.5t53 161.5v408z" />
    <glyph glyph-name="uogonek" unicode="&#x173;" horiz-adv-x="587" 
d="M435 509h75v-296q0 -112 -72 -173q-97 -93 -97 -155q0 -39 38 -39q24 0 46 14v-64q-25 -13 -63 -13q-47 0 -73 22t-26 64q0 60 66 125q-24 -2 -36 -2q-98 0 -157 60t-59 161v296h75v-288q0 -75 38 -116.5t103 -41.5q66 0 104 41t38 117v288z" />
    <glyph glyph-name="Wcircumflex" unicode="&#x174;" horiz-adv-x="986" 
d="M493 808l-79 -81h-88l116 119h101l117 -119h-88zM893 690h83l-214 -690h-88l-181 578l-181 -578h-88l-214 690h83l177 -581l181 581h84l181 -581z" />
    <glyph glyph-name="wcircumflex" unicode="&#x175;" horiz-adv-x="832" 
d="M416 703l-79 -107h-81l113 153h94l113 -153h-81zM742 509h80l-178 -509h-89l-139 413l-139 -413h-90l-177 509h80l143 -422l143 422h81l142 -422z" />
    <glyph glyph-name="Ycircumflex" unicode="&#x176;" horiz-adv-x="616" 
d="M308 808l-79 -81h-88l116 119h101l117 -119h-88zM514 690h92l-259 -405v-285h-78v285l-259 405h92l206 -326z" />
    <glyph glyph-name="ycircumflex" unicode="&#x177;" horiz-adv-x="528" 
d="M264 703l-79 -107h-81l113 153h94l113 -153h-81zM437 509h81l-213 -544q-39 -100 -90 -140.5t-132 -40.5q-22 0 -40 5l11 74q12 -3 28 -3q56 0 88.5 26.5t61.5 99.5l4 11l-226 512h83l183 -424z" />
    <glyph glyph-name="Ydieresis" unicode="&#x178;" horiz-adv-x="616" 
d="M205 733q-23 0 -37 14.5t-14 36.5t14 36.5t37 14.5t37 -14.5t14 -36.5t-14 -36.5t-37 -14.5zM411 733q-22 0 -36.5 14.5t-14.5 36.5t14.5 36.5t36.5 14.5q23 0 37.5 -14.5t14.5 -36.5t-14.5 -36.5t-37.5 -14.5zM269 0v285l-259 405h92l206 -326l206 326h92l-259 -405
v-285h-78z" />
    <glyph glyph-name="Zacute" unicode="&#x179;" horiz-adv-x="641" 
d="M244 727l113 119h105l-133 -119h-85zM570 690v-79l-417 -535h429v-76h-525v79l416 535h-404v76h501z" />
    <glyph glyph-name="zacute" unicode="&#x17a;" horiz-adv-x="524" 
d="M187 596l113 153h98l-133 -153h-78zM457 509v-71l-308 -369h318v-69h-411v72l308 368h-297v69h390z" />
    <glyph glyph-name="Zdotaccent" unicode="&#x17b;" horiz-adv-x="641" 
d="M320 730q-23 0 -38.5 15.5t-15.5 38.5q0 24 15.5 39t38.5 15q24 0 39 -15t15 -39q0 -23 -15 -38.5t-39 -15.5zM570 690v-79l-417 -535h429v-76h-525v79l416 535h-404v76h501z" />
    <glyph glyph-name="zdotaccent" unicode="&#x17c;" horiz-adv-x="524" 
d="M262 634q-23 0 -38.5 15.5t-15.5 38.5t15.5 38.5t38.5 15.5q24 0 39 -15.5t15 -38.5t-15 -38.5t-39 -15.5zM457 509v-71l-308 -369h318v-69h-411v72l308 368h-297v69h390z" />
    <glyph glyph-name="Zcaron" unicode="&#x17d;" horiz-adv-x="641" 
d="M269 727l-116 119h88l79 -81l79 81h88l-117 -119h-101zM153 76h429v-76h-525v79l416 535h-404v76h501v-79z" />
    <glyph glyph-name="zcaron" unicode="&#x17e;" horiz-adv-x="524" 
d="M216 596l-113 153h81l79 -107l79 107h81l-113 -153h-94zM149 69h318v-69h-411v72l308 368h-297v69h390v-71z" />
    <glyph glyph-name="florin" unicode="&#x192;" horiz-adv-x="540" 
d="M425 629q-74 0 -89 -93l-13 -84h118v-72h-130l-70 -442q-12 -80 -53 -118.5t-104 -38.5q-44 0 -86 17l30 67q28 -12 52 -12q69 0 85 99l68 428h-93v72h104l16 98q12 74 55.5 112.5t105.5 38.5q43 0 86 -17l-29 -67q-29 12 -53 12z" />
    <glyph glyph-name="uni0218" unicode="&#x218;" horiz-adv-x="594" 
d="M47 57l39 67q86 -60 193 -60q85 0 130.5 33t45.5 89q0 41 -29.5 68.5t-73 39.5t-95 27.5t-95 33t-73 56t-29.5 94.5q0 87 66 141t173 54q129 0 227 -76l-43 -66q-86 68 -185 68q-74 0 -116.5 -33t-42.5 -84q0 -46 40.5 -72.5t98.5 -41.5t116 -33t98.5 -60.5t40.5 -111.5
q0 -89 -70.5 -145t-185.5 -56q-136 0 -230 68zM278 -50h84l-68 -150h-59z" />
    <glyph glyph-name="uni0219" unicode="&#x219;" horiz-adv-x="458" 
d="M41 41l36 63q61 -45 137 -45q57 0 87.5 21.5t30.5 57.5q0 32 -29 51.5t-70 31t-82.5 25t-70.5 45t-29 80.5q0 65 50 105.5t131 40.5q97 0 170 -56l-39 -59q-63 48 -134 48q-48 0 -75.5 -21t-27.5 -54q0 -30 29 -48.5t70 -29t82.5 -25t70.5 -46.5t29 -83q0 -67 -53 -109
t-141 -42q-99 0 -172 49zM210 -50h84l-68 -150h-59z" />
    <glyph glyph-name="uni021A" unicode="&#x21a;" horiz-adv-x="607" 
d="M597 690v-73h-254v-617h-79v617h-254v73h587zM285 -50h84l-68 -150h-59z" />
    <glyph glyph-name="uni021B" unicode="&#x21b;" horiz-adv-x="408" 
d="M370 90l27 -64q-60 -34 -127 -34q-74 0 -116.5 44.5t-42.5 122.5v281h-91v69h91v147h75v-147h196v-69h-196v-273q0 -104 91 -104q48 0 93 27zM235 -50h84l-68 -150h-59z" />
    <glyph glyph-name="uni0237" unicode="&#x237;" horiz-adv-x="249" 
d="M-42 -140q18 -7 41 -7q88 0 88 99v557h75v-559q0 -78 -42.5 -123t-117.5 -45q-35 0 -67 12z" />
    <glyph glyph-name="circumflex" unicode="&#x2c6;" horiz-adv-x="380" 
d="M350 596h-81l-79 107l-79 -107h-81l113 153h94z" />
    <glyph glyph-name="caron" unicode="&#x2c7;" horiz-adv-x="380" 
d="M269 749h81l-113 -153h-94l-113 153h81l79 -107z" />
    <glyph glyph-name="uni02C9" unicode="&#x2c9;" horiz-adv-x="338" 
d="M30 701h278v-67h-278v67z" />
    <glyph glyph-name="breve" unicode="&#x2d8;" horiz-adv-x="346" 
d="M173 593q-63 0 -103 44t-40 112h61q0 -43 22 -68t60 -25q37 0 59.5 25.5t22.5 67.5h61q0 -68 -40.5 -112t-102.5 -44z" />
    <glyph glyph-name="dotaccent" unicode="&#x2d9;" horiz-adv-x="168" 
d="M84 634q-23 0 -38.5 15.5t-15.5 38.5t15.5 38.5t38.5 15.5q24 0 39 -15.5t15 -38.5t-15 -38.5t-39 -15.5z" />
    <glyph glyph-name="ring" unicode="&#x2da;" horiz-adv-x="276" 
d="M138 561q-45 0 -76.5 31.5t-31.5 76.5t31.5 76.5t76.5 31.5t76.5 -31.5t31.5 -76.5t-31.5 -76.5t-76.5 -31.5zM138 609q25 0 42.5 17.5t17.5 42.5t-17.5 43t-42.5 18t-42.5 -18t-17.5 -43t17.5 -42.5t42.5 -17.5z" />
    <glyph glyph-name="ogonek" unicode="&#x2db;" horiz-adv-x="223" 
d="M192 -140v-64q-25 -13 -63 -13q-47 0 -73 22t-26 64q0 35 22 64.5t76 66.5h65q-48 -39 -66.5 -65t-18.5 -52q0 -37 38 -37q26 0 46 14z" />
    <glyph glyph-name="tilde" unicode="&#x2dc;" horiz-adv-x="424" 
d="M140 671q-51 0 -51 -69h-59q0 61 29.5 98.5t76.5 37.5q37 0 80.5 -34.5t67.5 -34.5q51 0 51 69h59q0 -61 -29.5 -98.5t-76.5 -37.5q-30 0 -55.5 17t-48 34.5t-44.5 17.5z" />
    <glyph glyph-name="hungarumlaut" unicode="&#x2dd;" horiz-adv-x="410" 
d="M30 596l113 153h91l-133 -153h-71zM176 596l113 153h91l-133 -153h-71z" />
    <glyph glyph-name="gravecomb" unicode="&#x300;" 
d="M-30 596h-78l-133 153h98z" />
    <glyph glyph-name="acutecomb" unicode="&#x301;" 
d="M-234 596l113 153h98l-133 -153h-78z" />
    <glyph glyph-name="uni0302" unicode="&#x302;" 
d="M-30 596h-81l-79 107l-79 -107h-81l113 153h94z" />
    <glyph glyph-name="tildecomb" unicode="&#x303;" 
d="M-284 671q-51 0 -51 -69h-59q0 61 29.5 98.5t76.5 37.5q37 0 80.5 -34.5t67.5 -34.5q51 0 51 69h59q0 -61 -29.5 -98.5t-76.5 -37.5q-30 0 -55.5 17t-48 34.5t-44.5 17.5z" />
    <glyph glyph-name="uni0304" unicode="&#x304;" 
d="M-308 701h278v-67h-278v67z" />
    <glyph glyph-name="uni0306" unicode="&#x306;" 
d="M-173 593q-63 0 -103 44t-40 112h61q0 -43 22 -68t60 -25q37 0 59.5 25.5t22.5 67.5h61q0 -68 -40.5 -112t-102.5 -44z" />
    <glyph glyph-name="uni0307" unicode="&#x307;" 
d="M-84 634q-23 0 -38.5 15.5t-15.5 38.5t15.5 38.5t38.5 15.5q24 0 39 -15.5t15 -38.5t-15 -38.5t-39 -15.5z" />
    <glyph glyph-name="uni0308" unicode="&#x308;" 
d="M-288 637q-23 0 -37.5 14.5t-14.5 36.5t14.5 36.5t37.5 14.5q22 0 36.5 -14.5t14.5 -36.5t-14.5 -36.5t-36.5 -14.5zM-82 637q-22 0 -36.5 14.5t-14.5 36.5t14.5 36.5t36.5 14.5t36.5 -14.5t14.5 -36.5t-14.5 -36.5t-36.5 -14.5z" />
    <glyph glyph-name="uni030A" unicode="&#x30a;" 
d="M-142 561q-45 0 -76.5 31.5t-31.5 76.5t31.5 76.5t76.5 31.5q44 0 76 -31.5t32 -76.5t-32 -76.5t-76 -31.5zM-142 609q25 0 42.5 17.5t17.5 42.5t-17.5 43t-42.5 18t-42.5 -18t-17.5 -43t17.5 -42.5t42.5 -17.5z" />
    <glyph glyph-name="uni030B" unicode="&#x30b;" 
d="M-380 596l113 153h91l-133 -153h-71zM-234 596l113 153h91l-133 -153h-71z" />
    <glyph glyph-name="uni030C" unicode="&#x30c;" 
d="M-111 749h81l-113 -153h-94l-113 153h81l79 -107z" />
    <glyph glyph-name="uni0312" unicode="&#x312;" 
d="M-72 599h-83l70 150h57z" />
    <glyph glyph-name="uni0326" unicode="&#x326;" 
d="M-110 -50h84l-68 -150h-59z" />
    <glyph glyph-name="uni0327" unicode="&#x327;" 
d="M-114 -50h84l-68 -150h-59z" />
    <glyph glyph-name="uni0328" unicode="&#x328;" 
d="M-31 -140v-64q-25 -13 -63 -13q-47 0 -73 22t-26 64q0 35 22 64.5t76 66.5h65q-48 -39 -66.5 -65t-18.5 -52q0 -37 38 -37q26 0 46 14z" />
    <glyph glyph-name="uni0335" unicode="&#x335;" 
d="M-360 680h330v-64h-330v64z" />
    <glyph glyph-name="uni0394" unicode="&#x394;" horiz-adv-x="668" 
d="M382 690l276 -690h-648l275 690h97zM122 73h424l-212 543z" />
    <glyph glyph-name="uni03A9" unicode="&#x3a9;" horiz-adv-x="812" 
d="M406 625q-113 0 -185 -67.5t-72 -187.5q0 -93 46.5 -163t132.5 -133v-74h-262v74h153q-148 128 -148 296q0 153 93 241t242 88t242 -88t93 -241q0 -167 -148 -296h153v-74h-262v74q86 63 132.5 133t46.5 163q0 119 -72.5 187t-184.5 68z" />
    <glyph glyph-name="uni03BC" unicode="&#x3bc;" horiz-adv-x="604" 
d="M442 500h75v-500h-65l-9 73q-54 -81 -156 -81q-79 0 -125 51v-253h-75v710h75v-288q0 -73 34 -111t96 -38q69 0 109.5 46t40.5 134v257z" />
    <glyph glyph-name="Wgrave" unicode="&#x1e80;" horiz-adv-x="986" 
d="M569 727h-85l-133 119h105zM893 690h83l-214 -690h-88l-181 578l-181 -578h-88l-214 690h83l177 -581l181 581h84l181 -581z" />
    <glyph glyph-name="wgrave" unicode="&#x1e81;" horiz-adv-x="832" 
d="M491 596h-78l-133 153h98zM742 509h80l-178 -509h-89l-139 413l-139 -413h-90l-177 509h80l143 -422l143 422h81l142 -422z" />
    <glyph glyph-name="Wacute" unicode="&#x1e82;" horiz-adv-x="986" 
d="M635 846l-133 -119h-85l113 119h105zM893 690h83l-214 -690h-88l-181 578l-181 -578h-88l-214 690h83l177 -581l181 581h84l181 -581z" />
    <glyph glyph-name="wacute" unicode="&#x1e83;" horiz-adv-x="832" 
d="M551 749l-133 -153h-78l113 153h98zM742 509h80l-178 -509h-89l-139 413l-139 -413h-90l-177 509h80l143 -422l143 422h81l142 -422z" />
    <glyph glyph-name="Wdieresis" unicode="&#x1e84;" horiz-adv-x="986" 
d="M390 733q-22 0 -36.5 14.5t-14.5 36.5t14.5 36.5t36.5 14.5t36.5 -14.5t14.5 -36.5t-14.5 -36.5t-36.5 -14.5zM596 733q-22 0 -36.5 14.5t-14.5 36.5t14.5 36.5t36.5 14.5q23 0 37.5 -14.5t14.5 -36.5t-14.5 -36.5t-37.5 -14.5zM893 690h83l-214 -690h-88l-181 578
l-181 -578h-88l-214 690h83l177 -581l181 581h84l181 -581z" />
    <glyph glyph-name="wdieresis" unicode="&#x1e85;" horiz-adv-x="832" 
d="M313 637q-23 0 -37.5 14.5t-14.5 36.5t14.5 36.5t37.5 14.5q22 0 36.5 -14.5t14.5 -36.5t-14.5 -36.5t-36.5 -14.5zM519 637q-23 0 -37 14.5t-14 36.5t14 36.5t37 14.5t37 -14.5t14 -36.5t-14 -36.5t-37 -14.5zM742 509h80l-178 -509h-89l-139 413l-139 -413h-90
l-177 509h80l143 -422l143 422h81l142 -422z" />
    <glyph glyph-name="uni1E9E" unicode="&#x1e9e;" horiz-adv-x="732" 
d="M454 390q105 -10 161 -62t56 -133q0 -93 -63.5 -149.5t-169.5 -56.5q-119 0 -201 68l40 65q73 -58 163 -58q69 0 111 36t42 91q0 60 -45.5 96.5t-141.5 36.5q-22 0 -48 -3v61l145 169q-60 73 -166 73q-86 0 -135 -55.5t-49 -154.5v-414h-78v419q0 127 71.5 203t189.5 76
q88 0 156 -38.5t109 -105.5z" />
    <glyph glyph-name="Ygrave" unicode="&#x1ef2;" horiz-adv-x="616" 
d="M384 727h-85l-133 119h105zM269 0v285l-259 405h92l206 -326l206 326h92l-259 -405v-285h-78z" />
    <glyph glyph-name="ygrave" unicode="&#x1ef3;" horiz-adv-x="528" 
d="M340 596h-78l-133 153h98zM437 509h81l-213 -544q-39 -100 -90 -140.5t-132 -40.5q-22 0 -40 5l11 74q12 -3 28 -3q56 0 88.5 26.5t61.5 99.5l4 11l-226 512h83l183 -424z" />
    <glyph glyph-name="endash" unicode="&#x2013;" horiz-adv-x="500" 
d="M475 265h-450v55h450v-55z" />
    <glyph glyph-name="emdash" unicode="&#x2014;" horiz-adv-x="1000" 
d="M975 265h-950v55h950v-55z" />
    <glyph glyph-name="quoteleft" unicode="&#x2018;" horiz-adv-x="233" 
d="M123 440h-86l104 250h55z" />
    <glyph glyph-name="quoteright" unicode="&#x2019;" horiz-adv-x="233" 
d="M110 690h86l-104 -250h-55z" />
    <glyph glyph-name="quotesinglbase" unicode="&#x201a;" horiz-adv-x="204" 
d="M76 106h86l-104 -250h-55z" />
    <glyph glyph-name="quotedblleft" unicode="&#x201c;" horiz-adv-x="388" 
d="M123 440h-86l104 250h55zM279 440h-86l103 250h56z" />
    <glyph glyph-name="quotedblright" unicode="&#x201d;" horiz-adv-x="388" 
d="M110 690h86l-104 -250h-55zM265 690h87l-104 -250h-55z" />
    <glyph glyph-name="quotedblbase" unicode="&#x201e;" horiz-adv-x="360" 
d="M76 106h86l-104 -250h-55zM231 106h87l-104 -250h-55z" />
    <glyph glyph-name="dagger" unicode="&#x2020;" horiz-adv-x="525" 
d="M476 502v-66h-175v-552h-76v552h-176v66h176v189h76v-189h175z" />
    <glyph glyph-name="daggerdbl" unicode="&#x2021;" horiz-adv-x="525" 
d="M476 502v-64h-175v-249h175v-64h-175v-241h-76v241h-176v64h176v249h-176v64h176v189h76v-189h175z" />
    <glyph glyph-name="bullet" unicode="&#x2022;" horiz-adv-x="440" 
d="M220 180q-62 0 -101 39t-39 101t39 101t101 39t101 -39t39 -101t-39 -101t-101 -39z" />
    <glyph glyph-name="ellipsis" unicode="&#x2026;" horiz-adv-x="694" 
d="M116 -10q-27 0 -44.5 17.5t-17.5 44.5q0 28 17.5 45t44.5 17t44.5 -17t17.5 -45q0 -27 -17.5 -44.5t-44.5 -17.5zM347 -10q-27 0 -44.5 17.5t-17.5 44.5q0 28 17.5 45t44.5 17q28 0 45 -17t17 -45q0 -27 -17 -44.5t-45 -17.5zM578 -10q-27 0 -44.5 17.5t-17.5 44.5
q0 28 17.5 45t44.5 17q28 0 45.5 -17t17.5 -45q0 -27 -17.5 -44.5t-45.5 -17.5z" />
    <glyph glyph-name="perthousand" unicode="&#x2030;" horiz-adv-x="1278" 
d="M246 -31l-53 31l442 721l53 -31zM224 360q-71 0 -120.5 49.5t-49.5 120.5q0 70 49.5 120t120.5 50q69 0 119.5 -50t50.5 -120q0 -71 -50 -120.5t-120 -49.5zM224 417q42 0 73.5 33t31.5 80q0 46 -31.5 79.5t-73.5 33.5q-43 0 -74 -33.5t-31 -79.5q0 -47 30.5 -80
t74.5 -33zM657 -10q-69 0 -119.5 50t-50.5 120q0 71 50 120.5t120 49.5q71 0 120.5 -49.5t49.5 -120.5q0 -70 -49.5 -120t-120.5 -50zM1054 -10q-69 0 -119.5 50t-50.5 120q0 71 50 120.5t120 49.5q71 0 120.5 -49.5t49.5 -120.5q0 -70 -49.5 -120t-120.5 -50zM657 47
q43 0 74 33.5t31 79.5q0 47 -30.5 80t-74.5 33q-42 0 -73.5 -33t-31.5 -80q0 -46 31.5 -79.5t73.5 -33.5zM1054 47q43 0 74 33.5t31 79.5q0 47 -30.5 80t-74.5 33q-43 0 -74 -33t-31 -80q0 -46 31 -79.5t74 -33.5z" />
    <glyph glyph-name="guilsinglleft" unicode="&#x2039;" horiz-adv-x="378" 
d="M311 489l-160 -197l160 -197h-94l-160 197l160 197h94z" />
    <glyph glyph-name="guilsinglright" unicode="&#x203a;" horiz-adv-x="378" 
d="M67 489h94l160 -197l-160 -197h-94l160 197z" />
    <glyph glyph-name="fraction" unicode="&#x2044;" horiz-adv-x="234" 
d="M-77 -31l-53 31l442 721l52 -31z" />
    <glyph glyph-name="uni2070" unicode="&#x2070;" horiz-adv-x="350" 
d="M307 605q0 -79 -34 -120.5t-99 -41.5q-64 0 -98 41.5t-34 120.5v67q0 79 34 120.5t98 41.5q65 0 99 -41.5t34 -120.5v-67zM249 670q0 109 -75 109q-73 0 -73 -109v-63q0 -108 73 -108q75 0 75 108v63z" />
    <glyph glyph-name="uni2074" unicode="&#x2074;" horiz-adv-x="350" 
d="M324 602v-55h-56v-98h-59v98h-183v62l177 220h65v-227h56zM82 602h127v157z" />
    <glyph glyph-name="uni2075" unicode="&#x2075;" horiz-adv-x="350" 
d="M163 698q59 0 98 -35.5t39 -88.5q0 -55 -39 -93t-99 -38q-38 0 -70.5 17t-49.5 46l50 29q21 -36 70 -36q35 0 56.5 20t21.5 54q0 31 -21 50.5t-56 19.5q-37 0 -67 -20l-34 16l17 190h204v-55h-150l-7 -81q20 5 37 5z" />
    <glyph glyph-name="uni2076" unicode="&#x2076;" horiz-adv-x="350" 
d="M174 700q58 0 98.5 -37t40.5 -90q0 -54 -40.5 -92t-98.5 -38q-56 0 -95.5 38.5t-39.5 93.5q0 40 16.5 75.5t62.5 91.5l69 87h67l-106 -132q12 3 26 3zM175 498q32 0 54.5 21.5t22.5 52.5t-22.5 52t-54.5 21q-31 0 -53 -20.5t-22 -50.5q0 -31 22 -53.5t53 -22.5z" />
    <glyph glyph-name="uni2077" unicode="&#x2077;" horiz-adv-x="350" 
d="M42 829h260v-51l-180 -329h-65l176 324h-191v56z" />
    <glyph glyph-name="uni2078" unicode="&#x2078;" horiz-adv-x="350" 
d="M251 649q58 -30 58 -94q0 -50 -36.5 -81t-97.5 -31t-97.5 30.5t-36.5 81.5q0 66 58 94q-43 28 -43 82q0 47 32 75t87 28t87.5 -28t32.5 -75q0 -55 -44 -82zM175 779q-28 0 -44 -14t-16 -38t16 -38.5t44 -14.5t44 14.5t16 38.5t-16 38t-44 14zM175 498q33 0 53.5 17
t20.5 45t-20.5 44t-53.5 16t-53 -16t-20 -44t20 -45t53 -17z" />
    <glyph glyph-name="uni2079" unicode="&#x2079;" horiz-adv-x="350" 
d="M175 834q56 0 96 -38.5t40 -93.5q0 -39 -16.5 -74.5t-62.5 -92.5l-69 -86h-67l106 132q-13 -3 -27 -3q-58 0 -98 37t-40 90q0 54 40 91.5t98 37.5zM98 705q0 -30 22.5 -51t54.5 -21q31 0 53 20.5t22 49.5q0 32 -22 54.5t-53 22.5q-32 0 -54.5 -22t-22.5 -53z" />
    <glyph glyph-name="uni207A" unicode="&#x207a;" horiz-adv-x="356" 
d="M300 666v-54h-95v-91h-56v91h-94v54h94v92h56v-92h95z" />
    <glyph glyph-name="uni207B" unicode="&#x207b;" horiz-adv-x="356" 
d="M55 612v54h245v-54h-245z" />
    <glyph glyph-name="uni207C" unicode="&#x207c;" horiz-adv-x="356" 
d="M55 662v51h245v-51h-245zM55 565v50h245v-50h-245z" />
    <glyph glyph-name="uni207D" unicode="&#x207d;" horiz-adv-x="278" 
d="M246 354q-113 109 -113 267q0 160 113 267h-70q-106 -107 -106 -267q0 -158 106 -267h70z" />
    <glyph glyph-name="uni207E" unicode="&#x207e;" horiz-adv-x="278" 
d="M32 888q113 -109 113 -267q0 -160 -113 -267h70q106 107 106 267q0 158 -106 267h-70z" />
    <glyph glyph-name="uni2080" unicode="&#x2080;" horiz-adv-x="350" 
d="M307 17q0 -79 -34 -120.5t-99 -41.5q-64 0 -98 41.5t-34 120.5v67q0 79 34 120.5t98 41.5q65 0 99 -41.5t34 -120.5v-67zM249 82q0 109 -75 109q-73 0 -73 -109v-63q0 -108 73 -108q75 0 75 108v63z" />
    <glyph glyph-name="uni2081" unicode="&#x2081;" horiz-adv-x="351" 
d="M206 -84h92v-55h-245v55h95v251l-95 -34v58l153 55v-330z" />
    <glyph glyph-name="uni2082" unicode="&#x2082;" horiz-adv-x="349" 
d="M114 -84h188v-55h-258v17q0 37 20 67.5t48 51t56 39.5t48 43t20 52q0 29 -18.5 45t-50.5 16q-59 0 -74 -62l-58 15q14 49 48 76t84 27q57 0 93 -32.5t36 -84.5q0 -42 -24 -75.5t-54 -52t-61.5 -42.5t-42.5 -45z" />
    <glyph glyph-name="uni2083" unicode="&#x2083;" horiz-adv-x="350" 
d="M200 99q46 -11 72.5 -43.5t26.5 -78.5q0 -55 -38 -88.5t-100 -33.5q-46 0 -79.5 21t-45.5 57l53 22q16 -44 72 -44q36 0 57 17.5t21 48.5q0 34 -24 52.5t-66 18.5q-18 0 -27 -2v41l80 98h-149v56h229v-41z" />
    <glyph glyph-name="uni2084" unicode="&#x2084;" horiz-adv-x="350" 
d="M324 14v-55h-56v-98h-59v98h-183v62l177 220h65v-227h56zM82 14h127v157z" />
    <glyph glyph-name="uni2085" unicode="&#x2085;" horiz-adv-x="350" 
d="M163 110q59 0 98 -35.5t39 -88.5q0 -55 -39 -93t-99 -38q-38 0 -70.5 16.5t-49.5 45.5l50 30q21 -36 70 -36q35 0 56.5 20t21.5 53q0 32 -21 51.5t-56 19.5q-37 0 -67 -20l-34 16l17 190h204v-55h-150l-7 -81q20 5 37 5z" />
    <glyph glyph-name="uni2086" unicode="&#x2086;" horiz-adv-x="350" 
d="M174 112q58 0 98.5 -37t40.5 -90q0 -54 -40.5 -92t-98.5 -38q-56 0 -95.5 38.5t-39.5 93.5q0 40 16.5 75.5t62.5 91.5l69 87h67l-106 -132q12 3 26 3zM175 -90q32 0 54.5 21.5t22.5 52.5t-22.5 52t-54.5 21q-31 0 -53 -20.5t-22 -50.5q0 -31 22 -53.5t53 -22.5z" />
    <glyph glyph-name="uni2087" unicode="&#x2087;" horiz-adv-x="350" 
d="M42 241h260v-51l-180 -329h-65l176 324h-191v56z" />
    <glyph glyph-name="uni2088" unicode="&#x2088;" horiz-adv-x="350" 
d="M251 61q58 -30 58 -94q0 -50 -36.5 -81t-97.5 -31t-97.5 30.5t-36.5 81.5q0 66 58 94q-43 28 -43 82q0 47 32 75t87 28t87.5 -28t32.5 -75q0 -55 -44 -82zM175 191q-28 0 -44 -14t-16 -38t16 -38.5t44 -14.5t44 14.5t16 38.5t-16 38t-44 14zM175 -90q33 0 53.5 17
t20.5 45t-20.5 44t-53.5 16t-53 -16t-20 -44t20 -45t53 -17z" />
    <glyph glyph-name="uni2089" unicode="&#x2089;" horiz-adv-x="350" 
d="M175 246q56 0 96 -38.5t40 -93.5q0 -39 -16.5 -74.5t-62.5 -92.5l-69 -86h-67l106 132q-14 -3 -27 -3q-58 0 -98 37t-40 90q0 54 40 91.5t98 37.5zM98 117q0 -30 22.5 -51t54.5 -21q31 0 53 20.5t22 49.5q0 32 -22 54.5t-53 22.5q-32 0 -54.5 -22t-22.5 -53z" />
    <glyph glyph-name="uni208A" unicode="&#x208a;" horiz-adv-x="356" 
d="M300 76v-54h-95v-91h-56v91h-94v54h94v92h56v-92h95z" />
    <glyph glyph-name="uni208B" unicode="&#x208b;" horiz-adv-x="356" 
d="M55 22v54h245v-54h-245z" />
    <glyph glyph-name="uni208C" unicode="&#x208c;" horiz-adv-x="356" 
d="M55 72v51h245v-51h-245zM55 -26v51h245v-51h-245z" />
    <glyph glyph-name="uni208D" unicode="&#x208d;" horiz-adv-x="278" 
d="M246 -236q-113 109 -113 267q0 160 113 267h-70q-106 -107 -106 -267q0 -158 106 -267h70z" />
    <glyph glyph-name="uni208E" unicode="&#x208e;" horiz-adv-x="278" 
d="M32 -236h70q106 109 106 267q0 160 -106 267h-70q113 -107 113 -267q0 -158 -113 -267z" />
    <glyph glyph-name="Euro" unicode="&#x20ac;" horiz-adv-x="540" 
d="M374 64q72 0 135 30l25 -70q-74 -35 -160 -35q-125 0 -207.5 67t-108.5 187h-40v64h31q-1 12 -1 38t1 39h-31v64h40q26 119 108.5 186t206.5 67q95 0 161 -36l-31 -69q-60 30 -130 30q-89 0 -150 -47t-84 -131h275l-13 -64h-273q-2 -26 -2 -39q0 -14 2 -38h263l-14 -64
h-238q23 -85 84.5 -132t150.5 -47z" />
    <glyph glyph-name="uni20B9" unicode="&#x20b9;" horiz-adv-x="540" 
d="M492 690v-64h-173q48 -37 61 -98h112v-64h-108q-5 -73 -52 -121t-126 -62l200 -281h-95l-200 282l29 64h8q142 0 158 118h-257v64h253q-24 98 -158 98h-95v64h443z" />
    <glyph glyph-name="uni20BA" unicode="&#x20ba;" horiz-adv-x="540" 
d="M436 286l74 -20q-30 -135 -111.5 -200.5t-201.5 -65.5h-102v262l-75 -38v69l75 39v86l-75 -39v69l75 39v203h78v-163l179 92v-69l-179 -92v-86l179 93v-71l-179 -92v-228h24q89 0 152 51t87 161z" />
    <glyph glyph-name="uni2113" unicode="&#x2113;" horiz-adv-x="600" 
d="M429 125l62 -28q-43 -112 -140 -112q-63 0 -102 40.5t-58 128.5q-36 -16 -56 -23l-22 64q34 13 67 30q-7 62 -7 154q0 200 39 293.5t126 93.5q64 0 100 -52.5t36 -139.5q0 -118 -55 -217t-161 -166q22 -137 95 -137q51 0 76 71zM247 379q0 -61 3 -109q150 116 150 304
q0 126 -62 126q-46 0 -68.5 -76t-22.5 -245z" />
    <glyph glyph-name="published" unicode="&#x2117;" horiz-adv-x="816" 
d="M408 -10q-156 0 -255.5 99.5t-99.5 255.5t99.5 255.5t255.5 99.5t255.5 -99.5t99.5 -255.5t-99.5 -255.5t-255.5 -99.5zM408 48q130 0 213.5 83t83.5 214t-83.5 214.5t-213.5 83.5t-214 -83.5t-84 -214.5q0 -130 83.5 -213.5t214.5 -83.5zM272 138v414h163
q71 0 112.5 -38t41.5 -103t-41.5 -102.5t-112.5 -37.5h-89v-133h-74zM346 340h86q39 0 61 19t22 52q0 71 -83 71h-86v-142z" />
    <glyph glyph-name="trademark" unicode="&#x2122;" horiz-adv-x="991" 
d="M36 631v59h362v-59h-149v-321h-64v321h-149zM814 690h94v-380h-63v297l-137 -297h-51l-137 297v-297h-63v380h94l132 -286z" />
    <glyph glyph-name="uni2126" unicode="&#x2126;" horiz-adv-x="812" 
d="M406 625q-113 0 -185 -67.5t-72 -187.5q0 -93 46.5 -163t132.5 -133v-74h-262v74h153q-148 128 -148 296q0 153 93 241t242 88t242 -88t93 -241q0 -167 -148 -296h153v-74h-262v74q86 63 132.5 133t46.5 163q0 119 -72.5 187t-184.5 68z" />
    <glyph glyph-name="estimated" unicode="&#x212e;" horiz-adv-x="876" 
d="M438 700q179 0 284 -106.5t105 -260.5h-621q-14 0 -14 -13v-169q0 -30 16 -45q95 -93 230 -93q73 0 137.5 30.5t105.5 80.5h70q-40 -56 -119.5 -96t-193.5 -40q-175 0 -282.5 99.5t-107.5 254.5t106 256.5t284 101.5zM438 673q-137 0 -230 -95q-16 -14 -16 -41v-170
q0 -12 14 -12h463q13 0 13 12v170q0 27 -15 41q-96 95 -229 95z" />
    <glyph glyph-name="partialdiff" unicode="&#x2202;" horiz-adv-x="569" 
d="M259 702q267 0 267 -376q0 -165 -69.5 -249.5t-188.5 -84.5q-99 0 -159.5 61t-60.5 163q0 114 71 190.5t180 76.5q104 0 154 -77q-9 117 -60.5 176t-135.5 59q-66 0 -117 -39l-37 53q64 47 156 47zM272 63q81 0 128 57t47 136q0 70 -39 113.5t-104 43.5q-87 0 -133.5 -53
t-46.5 -140q0 -72 39 -114.5t109 -42.5z" />
    <glyph glyph-name="uni2206" unicode="&#x2206;" horiz-adv-x="668" 
d="M382 690l276 -690h-648l275 690h97zM122 73h424l-212 543z" />
    <glyph glyph-name="product" unicode="&#x220f;" horiz-adv-x="743" 
d="M648 690v-900h-78v826h-397v-826h-78v900h553z" />
    <glyph glyph-name="summation" unicode="&#x2211;" horiz-adv-x="464" 
d="M118 622l202 -385l-201 -379h311v-68h-396v68l203 379l-203 385v68h396v-68h-312z" />
    <glyph glyph-name="minus" unicode="&#x2212;" horiz-adv-x="540" 
d="M62 278v60h417v-60h-417z" />
    <glyph glyph-name="uni2215" unicode="&#x2215;" horiz-adv-x="426" 
d="M29 -86l288 809h60l-289 -809h-59z" />
    <glyph glyph-name="uni2219" unicode="&#x2219;" horiz-adv-x="540" 
d="M270 254q-27 0 -44.5 17.5t-17.5 45.5q0 27 17.5 44.5t44.5 17.5t44.5 -17.5t17.5 -44.5q0 -28 -17.5 -45.5t-44.5 -17.5z" />
    <glyph glyph-name="radical" unicode="&#x221a;" horiz-adv-x="546" 
d="M198 -116l-94 399h-80v63h130l93 -388h2l209 732h68l-231 -806h-97z" />
    <glyph glyph-name="infinity" unicode="&#x221e;" horiz-adv-x="700" 
d="M682 308q0 -74 -41.5 -119.5t-109.5 -45.5q-59 0 -99 30t-82 87q-42 -57 -82.5 -87t-99.5 -30q-68 0 -109 45.5t-41 119.5t41 119t109 45q59 0 99.5 -30.5t82.5 -87.5q42 57 82 87.5t99 30.5q68 0 109.5 -45t41.5 -119zM316 308q-24 34 -40 52.5t-43.5 35t-57.5 16.5
q-43 0 -70 -28.5t-27 -75.5t26.5 -75.5t70.5 -28.5t75 26.5t66 77.5zM621 308q0 47 -26 75.5t-71 28.5q-43 0 -74 -26.5t-67 -77.5q35 -51 66.5 -77.5t74.5 -26.5q45 0 71 28.5t26 75.5z" />
    <glyph glyph-name="integral" unicode="&#x222b;" horiz-adv-x="300" 
d="M289 691v-55q-9 3 -25 3q-77 0 -77 -90v-595q0 -138 -129 -138q-25 0 -47 5v54q9 -3 24 -3q78 0 78 90v595q0 139 129 139q14 0 47 -5z" />
    <glyph glyph-name="approxequal" unicode="&#x2248;" horiz-adv-x="540" 
d="M363 379q32 0 50.5 22t18.5 58h47q0 -61 -31 -98.5t-83 -37.5q-35 0 -67.5 23.5t-62 46.5t-57.5 23q-32 0 -51 -22t-19 -58h-46q0 61 31 98t83 37q28 0 55 -14.5t44.5 -31.5t41 -31.5t46.5 -14.5zM363 200q32 0 50.5 21.5t18.5 57.5h47q0 -61 -31 -98t-83 -37
q-28 0 -54.5 14.5t-44 31.5t-41.5 31.5t-47 14.5q-32 0 -51 -22t-19 -58h-46q0 61 31 98.5t83 37.5q28 0 55 -14.5t44.5 -31.5t41 -31.5t46.5 -14.5z" />
    <glyph glyph-name="notequal" unicode="&#x2260;" horiz-adv-x="540" 
d="M266 260h213v-58h-244l-87 -130l-39 26l68 104h-115v58h149l63 95h-212v57h244l87 131l40 -26l-71 -105h117v-57h-148z" />
    <glyph glyph-name="lessequal" unicode="&#x2264;" horiz-adv-x="540" 
d="M132 325v-1l347 -144v-58l-417 168v69l417 168v-58zM479 0h-417v55h417v-55z" />
    <glyph glyph-name="greaterequal" unicode="&#x2265;" horiz-adv-x="540" 
d="M479 290l-417 -168v58l347 144v1l-347 144v58l417 -168v-69zM62 0v55h417v-55h-417z" />
    <glyph glyph-name="lozenge" unicode="&#x25ca;" horiz-adv-x="594" 
d="M352 690l210 -450l-210 -450h-111l-209 450l209 450h111zM297 -155l181 395l-181 395l-181 -395z" />
    <glyph glyph-name="uniF8FF" unicode="&#xf8ff;" horiz-adv-x="489" 
d="M0 760h489v-760h-489v760zM56 55h377v650h-377v-650z" />
    <glyph glyph-name="uniFEFF" unicode="&#xfeff;" 
 />
    <glyph glyph-name="a.ss01" horiz-adv-x="524" 
d="M242 520q97 0 151 -55.5t54 -152.5v-312h-65l-8 48q-51 -59 -148 -59q-85 0 -135 44.5t-50 117.5q0 74 52.5 117t138.5 43q93 0 140 -50v52q0 62 -34 99t-99 37q-76 0 -135 -63l-50 49q76 85 188 85zM244 56q58 0 93 26.5t35 70.5q0 43 -35 69.5t-93 26.5t-92 -26
t-34 -70t34 -70.5t92 -26.5z" />
    <glyph glyph-name="aacute.ss01" horiz-adv-x="524" 
d="M398 749l-133 -153h-78l113 153h98zM242 520q97 0 151 -55.5t54 -152.5v-312h-65l-8 48q-51 -59 -148 -59q-85 0 -135 44.5t-50 117.5q0 74 52.5 117t138.5 43q93 0 140 -50v52q0 62 -34 99t-99 37q-76 0 -135 -63l-50 49q76 85 188 85zM244 56q58 0 93 26.5t35 70.5
q0 43 -35 69.5t-93 26.5t-92 -26t-34 -70t34 -70.5t92 -26.5z" />
    <glyph glyph-name="abreve.ss01" horiz-adv-x="524" 
d="M262 593q-63 0 -103 44t-40 112h61q0 -43 22 -68t60 -25q37 0 59.5 25.5t22.5 67.5h61q0 -68 -40.5 -112t-102.5 -44zM242 520q97 0 151 -55.5t54 -152.5v-312h-65l-8 48q-51 -59 -148 -59q-85 0 -135 44.5t-50 117.5q0 74 52.5 117t138.5 43q93 0 140 -50v52
q0 62 -34 99t-99 37q-76 0 -135 -63l-50 49q76 85 188 85zM244 56q58 0 93 26.5t35 70.5q0 43 -35 69.5t-93 26.5t-92 -26t-34 -70t34 -70.5t92 -26.5z" />
    <glyph glyph-name="acircumflex.ss01" horiz-adv-x="524" 
d="M262 703l-79 -107h-81l113 153h94l113 -153h-81zM242 520q97 0 151 -55.5t54 -152.5v-312h-65l-8 48q-51 -59 -148 -59q-85 0 -135 44.5t-50 117.5q0 74 52.5 117t138.5 43q93 0 140 -50v52q0 62 -34 99t-99 37q-76 0 -135 -63l-50 49q76 85 188 85zM244 56q58 0 93 26.5
t35 70.5q0 43 -35 69.5t-93 26.5t-92 -26t-34 -70t34 -70.5t92 -26.5z" />
    <glyph glyph-name="adieresis.ss01" horiz-adv-x="524" 
d="M160 637q-23 0 -37.5 14.5t-14.5 36.5t14.5 36.5t37.5 14.5q22 0 36.5 -14.5t14.5 -36.5t-14.5 -36.5t-36.5 -14.5zM366 637q-22 0 -36.5 14.5t-14.5 36.5t14.5 36.5t36.5 14.5t36.5 -14.5t14.5 -36.5t-14.5 -36.5t-36.5 -14.5zM242 520q97 0 151 -55.5t54 -152.5v-312
h-65l-8 48q-51 -59 -148 -59q-85 0 -135 44.5t-50 117.5q0 74 52.5 117t138.5 43q93 0 140 -50v52q0 62 -34 99t-99 37q-76 0 -135 -63l-50 49q76 85 188 85zM244 56q58 0 93 26.5t35 70.5q0 43 -35 69.5t-93 26.5t-92 -26t-34 -70t34 -70.5t92 -26.5z" />
    <glyph glyph-name="agrave.ss01" horiz-adv-x="524" 
d="M338 596h-78l-133 153h98zM242 520q97 0 151 -55.5t54 -152.5v-312h-65l-8 48q-51 -59 -148 -59q-85 0 -135 44.5t-50 117.5q0 74 52.5 117t138.5 43q93 0 140 -50v52q0 62 -34 99t-99 37q-76 0 -135 -63l-50 49q76 85 188 85zM244 56q58 0 93 26.5t35 70.5
q0 43 -35 69.5t-93 26.5t-92 -26t-34 -70t34 -70.5t92 -26.5z" />
    <glyph glyph-name="amacron.ss01" horiz-adv-x="524" 
d="M401 701v-67h-278v67h278zM242 520q97 0 151 -55.5t54 -152.5v-312h-65l-8 48q-51 -59 -148 -59q-85 0 -135 44.5t-50 117.5q0 74 52.5 117t138.5 43q93 0 140 -50v52q0 62 -34 99t-99 37q-76 0 -135 -63l-50 49q76 85 188 85zM244 56q58 0 93 26.5t35 70.5
q0 43 -35 69.5t-93 26.5t-92 -26t-34 -70t34 -70.5t92 -26.5z" />
    <glyph glyph-name="aogonek.ss01" horiz-adv-x="524" 
d="M447 0q-48 -39 -66.5 -65t-18.5 -52q0 -37 38 -37q26 0 46 14v-64q-23 -13 -62 -13q-47 0 -73.5 22t-26.5 64q0 35 22 64.5t76 66.5l-8 48q-51 -59 -148 -59q-85 0 -135 44.5t-50 117.5q0 74 52.5 117t138.5 43q93 0 140 -50v52q0 62 -34 99t-99 37q-76 0 -135 -63
l-50 49q76 85 188 85q97 0 151 -55.5t54 -152.5v-312zM244 56q58 0 93 26.5t35 70.5q0 43 -35 69.5t-93 26.5t-92 -26t-34 -70t34 -70.5t92 -26.5z" />
    <glyph glyph-name="aring.ss01" horiz-adv-x="524" 
d="M262 561q-45 0 -76.5 31.5t-31.5 76.5t31.5 76.5t76.5 31.5q44 0 76 -31.5t32 -76.5t-32 -76.5t-76 -31.5zM262 730q-25 0 -42.5 -18t-17.5 -43t17.5 -42.5t42.5 -17.5t42.5 17.5t17.5 42.5t-17.5 43t-42.5 18zM242 520q97 0 151 -55.5t54 -152.5v-312h-65l-8 48
q-51 -59 -148 -59q-85 0 -135 44.5t-50 117.5q0 74 52.5 117t138.5 43q93 0 140 -50v52q0 62 -34 99t-99 37q-76 0 -135 -63l-50 49q76 85 188 85zM244 56q58 0 93 26.5t35 70.5q0 43 -35 69.5t-93 26.5t-92 -26t-34 -70t34 -70.5t92 -26.5z" />
    <glyph glyph-name="atilde.ss01" horiz-adv-x="524" 
d="M190 671q-51 0 -51 -69h-59q0 61 29.5 98.5t76.5 37.5q37 0 80.5 -34.5t67.5 -34.5q51 0 51 69h59q0 -61 -29.5 -98.5t-76.5 -37.5q-30 0 -55.5 17t-48 34.5t-44.5 17.5zM242 520q97 0 151 -55.5t54 -152.5v-312h-65l-8 48q-51 -59 -148 -59q-85 0 -135 44.5t-50 117.5
q0 74 52.5 117t138.5 43q93 0 140 -50v52q0 62 -34 99t-99 37q-76 0 -135 -63l-50 49q76 85 188 85zM244 56q58 0 93 26.5t35 70.5q0 43 -35 69.5t-93 26.5t-92 -26t-34 -70t34 -70.5t92 -26.5z" />
    <glyph glyph-name="l.ss02" horiz-adv-x="293" 
d="M162 152q0 -87 77 -87q18 0 34 4l10 -69q-24 -6 -53 -6q-67 0 -105 40.5t-38 111.5v614h75v-608z" />
    <glyph glyph-name="lacute.ss02" horiz-adv-x="288" 
d="M44 727l113 119h105l-133 -119h-85zM157 152q0 -87 77 -87q18 0 34 4l10 -69q-24 -6 -53 -6q-67 0 -105 40.5t-38 111.5v544h75v-538z" />
    <glyph glyph-name="lcaron.ss02" horiz-adv-x="293" 
d="M162 152q0 -87 77 -87q18 0 34 4l10 -69q-24 -6 -53 -6q-67 0 -105 40.5t-38 111.5v614h75v-608zM259 760h80l-75 -196h-58z" />
    <glyph glyph-name="uni013C.ss02" horiz-adv-x="293" 
d="M162 152q0 -87 77 -87q18 0 34 4l10 -69q-24 -6 -53 -6q-67 0 -105 40.5t-38 111.5v614h75v-608zM165 -50h84l-68 -150h-59z" />
    <glyph glyph-name="ldot.ss02" horiz-adv-x="365" 
d="M162 152q0 -87 77 -87q18 0 34 4l10 -69q-24 -6 -53 -6q-67 0 -105 40.5t-38 111.5v614h75v-608zM306 274q-27 0 -44.5 17.5t-17.5 45.5q0 27 17.5 44.5t44.5 17.5t44.5 -17.5t17.5 -44.5q0 -28 -17.5 -45.5t-44.5 -17.5z" />
    <glyph glyph-name="lslash.ss02" horiz-adv-x="293" 
d="M273 69l10 -69q-24 -6 -53 -6q-67 0 -105 40.5t-38 111.5v172l-100 -66v85l100 66v357h75v-318l100 66v-85l-100 -66v-205q0 -87 77 -87q18 0 34 4z" />
    <glyph glyph-name="f_i" horiz-adv-x="590" 
d="M317 679q-32 15 -58 15q-75 0 -75 -88v-97h137v-69h-137v-440h-75v440h-89v69h89v104q0 72 38.5 112.5t107.5 40.5q46 0 90 -21zM465 634q-23 0 -38.5 15.5t-15.5 38.5t15.5 38.5t38.5 15.5q24 0 39 -15.5t15 -38.5t-15 -38.5t-39 -15.5zM428 509h75v-509h-75v509z" />
    <glyph glyph-name="f_l" horiz-adv-x="590" 
d="M317 679q-32 15 -58 15q-75 0 -75 -88v-97h137v-69h-137v-440h-75v440h-89v69h89v104q0 72 38.5 112.5t107.5 40.5q46 0 90 -21zM503 0h-75v760h75v-760z" />
    <glyph glyph-name="zero.lf" horiz-adv-x="555" 
d="M502 284q0 -143 -57.5 -218.5t-167.5 -75.5q-109 0 -166.5 75.5t-57.5 218.5v122q0 143 57.5 218.5t166.5 75.5q110 0 167.5 -75.5t57.5 -218.5v-122zM425 405q0 223 -148 223q-72 0 -109.5 -57t-37.5 -166v-120q0 -222 147 -222q148 0 148 222v120z" />
    <glyph glyph-name="one.lf" horiz-adv-x="490" 
d="M314 73h166v-73h-420v73h179v523l-179 -67v76l254 95v-627z" />
    <glyph glyph-name="two.lf" horiz-adv-x="536" 
d="M144 72h343v-72h-429v30q0 46 19 86.5t49 71t66 58.5t72.5 55t66.5 55t49 64t19 76q0 62 -37 97t-102 35q-112 0 -144 -122l-74 17q22 86 78 132t140 46q97 0 156.5 -56.5t59.5 -148.5q0 -64 -30.5 -117t-76 -90t-92 -69t-85 -70t-48.5 -78z" />
    <glyph glyph-name="three.lf" horiz-adv-x="531" 
d="M289 425q88 -14 141 -73.5t53 -145.5q0 -98 -65 -157.5t-171 -59.5q-79 0 -136.5 37.5t-78.5 101.5l68 29q16 -46 54 -70t93 -24q74 0 116.5 38t42.5 105q0 68 -47.5 109.5t-126.5 41.5q-26 0 -46 -4v55l166 210h-291v72h392v-58z" />
    <glyph glyph-name="four.lf" horiz-adv-x="572" 
d="M550 271v-72h-111v-199h-77v199h-332v83l323 408h86v-419h111zM106 271h256v323z" />
    <glyph glyph-name="five.lf" horiz-adv-x="533" 
d="M252 439q100 0 164.5 -62.5t64.5 -157.5q0 -99 -66 -164t-169 -65q-65 0 -119.5 28.5t-84.5 77.5l65 40q43 -73 139 -73q71 0 114.5 42.5t43.5 112.5q0 67 -42 107.5t-110 40.5t-126 -38l-46 24l30 338h343v-72h-273l-17 -196q45 17 89 17z" />
    <glyph glyph-name="six.lf" horiz-adv-x="556" 
d="M278 449q99 0 168 -66.5t69 -161.5q0 -97 -69 -164t-168 -67q-96 0 -163.5 68.5t-67.5 167.5q0 71 28.5 134t108.5 166l127 164h89l-198 -256q35 15 76 15zM279 62q66 0 112 46t46 113q0 65 -46 110t-112 45q-65 0 -109.5 -43.5t-44.5 -107.5q0 -68 45 -115.5t109 -47.5z
" />
    <glyph glyph-name="seven.lf" horiz-adv-x="522" 
d="M38 690h454v-68l-324 -622h-83l318 618h-365v72z" />
    <glyph glyph-name="eight.lf" horiz-adv-x="592" 
d="M414 362q53 -23 82.5 -68.5t29.5 -105.5q0 -90 -62.5 -144t-167.5 -54t-167.5 54t-62.5 144q0 60 29.5 105.5t82.5 68.5q-87 49 -87 155q0 83 55.5 133t149.5 50t149.5 -50t55.5 -133q0 -106 -87 -155zM296 628q-58 0 -93 -31.5t-35 -84.5t35 -85t93 -32t93 32t35 85
t-35 84.5t-93 31.5zM296 62q69 0 110.5 36t41.5 97q0 59 -41.5 94.5t-110.5 35.5t-110.5 -35.5t-41.5 -94.5q0 -61 41.5 -97t110.5 -36z" />
    <glyph glyph-name="nine.lf" horiz-adv-x="556" 
d="M277 700q97 0 164.5 -68.5t67.5 -167.5q0 -71 -29 -134t-108 -166l-128 -164h-89l198 255q-36 -14 -76 -14q-98 0 -167 66.5t-69 161.5q0 97 69 164t167 67zM277 314q64 0 109 44t45 107q0 68 -45 115.5t-109 47.5q-66 0 -112 -46t-46 -112q0 -65 46 -110.5t112 -45.5z
" />
    <glyph glyph-name="zero.dnom" horiz-adv-x="350" 
d="M307 156q0 -79 -34 -120.5t-99 -41.5q-64 0 -98 41.5t-34 120.5v67q0 79 34 120.5t98 41.5q65 0 99 -41.5t34 -120.5v-67zM249 221q0 109 -75 109q-73 0 -73 -109v-63q0 -108 73 -108q75 0 75 108v63z" />
    <glyph glyph-name="one.dnom" horiz-adv-x="351" 
d="M206 55h92v-55h-245v55h95v251l-95 -34v58l153 55v-330z" />
    <glyph glyph-name="two.dnom" horiz-adv-x="349" 
d="M114 55h188v-55h-258v17q0 37 20 67.5t48 51t56 39.5t48 43t20 52q0 29 -18.5 45t-50.5 16q-59 0 -74 -62l-58 15q14 49 48 76t84 27q57 0 93 -32.5t36 -84.5q0 -42 -24 -75.5t-54 -52t-61.5 -42.5t-42.5 -45z" />
    <glyph glyph-name="three.dnom" horiz-adv-x="350" 
d="M200 238q46 -11 72.5 -43.5t26.5 -77.5q0 -55 -38 -89t-100 -34q-46 0 -79.5 21t-45.5 57l53 22q16 -44 72 -44q36 0 57 17.5t21 49.5q0 33 -24 51.5t-66 18.5q-18 0 -27 -2v41l80 98h-149v56h229v-41z" />
    <glyph glyph-name="four.dnom" horiz-adv-x="350" 
d="M324 153v-55h-56v-98h-59v98h-183v62l177 220h65v-227h56zM82 153h127v157z" />
    <glyph glyph-name="five.dnom" horiz-adv-x="350" 
d="M163 249q59 0 98 -35.5t39 -88.5q0 -55 -39 -93t-99 -38q-38 0 -70.5 17t-49.5 46l50 29q21 -36 70 -36q35 0 56.5 20t21.5 54q0 31 -21 50.5t-56 19.5q-37 0 -67 -20l-34 16l17 190h204v-55h-150l-7 -81q20 5 37 5z" />
    <glyph glyph-name="six.dnom" horiz-adv-x="350" 
d="M174 251q58 0 98.5 -37t40.5 -90q0 -54 -40.5 -92t-98.5 -38q-56 0 -95.5 38.5t-39.5 93.5q0 40 16.5 75.5t62.5 91.5l69 87h67l-106 -132q12 3 26 3zM175 49q32 0 54.5 21.5t22.5 52.5t-22.5 52t-54.5 21q-31 0 -53 -20.5t-22 -50.5q0 -31 22 -53.5t53 -22.5z" />
    <glyph glyph-name="seven.dnom" horiz-adv-x="350" 
d="M42 380h260v-51l-180 -329h-65l176 324h-191v56z" />
    <glyph glyph-name="eight.dnom" horiz-adv-x="350" 
d="M251 200q58 -30 58 -94q0 -50 -36.5 -81t-97.5 -31t-97.5 30.5t-36.5 81.5q0 66 58 94q-43 28 -43 82q0 47 32 75t87 28t87.5 -28t32.5 -75q0 -55 -44 -82zM175 330q-28 0 -44 -14t-16 -38t16 -38.5t44 -14.5t44 14.5t16 38.5t-16 38t-44 14zM175 49q33 0 53.5 17
t20.5 45t-20.5 44t-53.5 16t-53 -16t-20 -44t20 -45t53 -17z" />
    <glyph glyph-name="nine.dnom" horiz-adv-x="350" 
d="M175 385q56 0 96 -38.5t40 -93.5q0 -39 -16.5 -74.5t-62.5 -92.5l-69 -86h-67l106 132q-14 -3 -27 -3q-58 0 -98 37t-40 90q0 54 40 91.5t98 37.5zM98 256q0 -30 22.5 -51t54.5 -21q31 0 53 20.5t22 49.5q0 32 -22 54.5t-53 22.5q-32 0 -54.5 -22t-22.5 -53z" />
    <glyph glyph-name="zero.numr" horiz-adv-x="350" 
d="M307 467q0 -79 -34 -120.5t-99 -41.5q-64 0 -98 41.5t-34 120.5v67q0 79 34 120.5t98 41.5q65 0 99 -41.5t34 -120.5v-67zM249 532q0 109 -75 109q-73 0 -73 -109v-63q0 -108 73 -108q75 0 75 108v63z" />
    <glyph glyph-name="one.numr" horiz-adv-x="351" 
d="M206 366h92v-55h-245v55h95v251l-95 -34v58l153 55v-330z" />
    <glyph glyph-name="two.numr" horiz-adv-x="349" 
d="M114 366h188v-55h-258v17q0 37 20 67.5t48 51t56 39.5t48 43t20 52q0 29 -18.5 45t-50.5 16q-59 0 -74 -62l-58 15q14 49 48 76t84 27q57 0 93 -32.5t36 -84.5q0 -42 -24 -75.5t-54 -52t-61.5 -42.5t-42.5 -45z" />
    <glyph glyph-name="three.numr" horiz-adv-x="350" 
d="M200 549q46 -11 72.5 -43.5t26.5 -77.5q0 -55 -38 -89t-100 -34q-46 0 -79.5 21t-45.5 57l53 22q16 -44 72 -44q36 0 57 17.5t21 49.5q0 33 -24 51.5t-66 18.5q-18 0 -27 -2v41l80 98h-149v56h229v-41z" />
    <glyph glyph-name="four.numr" horiz-adv-x="350" 
d="M324 464v-55h-56v-98h-59v98h-183v62l177 220h65v-227h56zM82 464h127v157z" />
    <glyph glyph-name="five.numr" horiz-adv-x="350" 
d="M163 560q59 0 98 -35.5t39 -88.5q0 -55 -39 -93t-99 -38q-38 0 -70.5 17t-49.5 46l50 29q21 -36 70 -36q35 0 56.5 20t21.5 54q0 31 -21 50.5t-56 19.5q-37 0 -67 -20l-34 16l17 190h204v-55h-150l-7 -81q20 5 37 5z" />
    <glyph glyph-name="six.numr" horiz-adv-x="350" 
d="M174 562q58 0 98.5 -37t40.5 -90q0 -54 -40.5 -92t-98.5 -38q-56 0 -95.5 38.5t-39.5 93.5q0 40 16.5 75.5t62.5 91.5l69 87h67l-106 -132q12 3 26 3zM175 360q32 0 54.5 21.5t22.5 52.5t-22.5 52t-54.5 21q-31 0 -53 -20.5t-22 -50.5q0 -31 22 -53.5t53 -22.5z" />
    <glyph glyph-name="seven.numr" horiz-adv-x="350" 
d="M42 691h260v-51l-180 -329h-65l176 324h-191v56z" />
    <glyph glyph-name="eight.numr" horiz-adv-x="350" 
d="M251 511q58 -30 58 -94q0 -50 -36.5 -81t-97.5 -31t-97.5 30.5t-36.5 81.5q0 66 58 94q-43 28 -43 82q0 47 32 75t87 28t87.5 -28t32.5 -75q0 -55 -44 -82zM175 641q-28 0 -44 -14t-16 -38t16 -38.5t44 -14.5t44 14.5t16 38.5t-16 38t-44 14zM175 360q33 0 53.5 17
t20.5 45t-20.5 44t-53.5 16t-53 -16t-20 -44t20 -45t53 -17z" />
    <glyph glyph-name="nine.numr" horiz-adv-x="350" 
d="M175 696q56 0 96 -38.5t40 -93.5q0 -39 -16.5 -74.5t-62.5 -92.5l-69 -86h-67l106 132q-13 -3 -27 -3q-58 0 -98 37t-40 90q0 54 40 91.5t98 37.5zM98 567q0 -30 22.5 -51t54.5 -21q31 0 53 20.5t22 49.5q0 32 -22 54.5t-53 22.5q-32 0 -54.5 -22t-22.5 -53z" />
    <glyph glyph-name="periodcentered.loclCAT.case" 
d="M-129 348q-27 0 -44.5 17t-17.5 45q0 27 17.5 44.5t44.5 17.5t44.5 -17.5t17.5 -44.5q0 -28 -17.5 -45t-44.5 -17z" />
    <glyph glyph-name="periodcentered.loclCAT" horiz-adv-x="114" 
d="M57 274q-27 0 -44.5 17.5t-17.5 45.5q0 27 17.5 44.5t44.5 17.5t44.5 -17.5t17.5 -44.5q0 -28 -17.5 -45.5t-44.5 -17.5z" />
    <glyph glyph-name="caroncomb.alt" 
d="M-100 760h80l-75 -196h-58z" />
    <glyph glyph-name="uni0308.case" 
d="M-288 733q-22 0 -36.5 14.5t-14.5 36.5t14.5 36.5t36.5 14.5t36.5 -14.5t14.5 -36.5t-14.5 -36.5t-36.5 -14.5zM-82 733q-22 0 -36.5 14.5t-14.5 36.5t14.5 36.5t36.5 14.5q23 0 37.5 -14.5t14.5 -36.5t-14.5 -36.5t-37.5 -14.5z" />
    <glyph glyph-name="uni0307.case" 
d="M-84 730q-23 0 -38.5 15.5t-15.5 38.5q0 24 15.5 39t38.5 15q24 0 39 -15t15 -39q0 -23 -15 -38.5t-39 -15.5z" />
    <glyph glyph-name="gravecomb.case" 
d="M-30 727h-85l-133 119h105z" />
    <glyph glyph-name="acutecomb.case" 
d="M-248 727l113 119h105l-133 -119h-85z" />
    <glyph glyph-name="uni030B.case" 
d="M-397 727l113 119h98l-133 -119h-78zM-241 727l113 119h98l-133 -119h-78z" />
    <glyph glyph-name="uni0302.case" 
d="M-30 727h-88l-79 81l-79 -81h-88l116 119h101z" />
    <glyph glyph-name="uni030C.case" 
d="M-118 846h88l-117 -119h-101l-116 119h88l79 -81z" />
    <glyph glyph-name="uni0306.case" 
d="M-173 722q-63 0 -103 35t-40 89h61q0 -28 22 -44t60 -16q37 0 59.5 16.5t22.5 43.5h61q0 -54 -40.5 -89t-102.5 -35z" />
    <glyph glyph-name="uni030A.case" 
d="M-134 668q-43 0 -74 30t-31 71q0 42 31 72t74 30t73.5 -30t30.5 -72q0 -41 -30.5 -71t-73.5 -30zM-134 716q23 0 40 15.5t17 37.5t-17 38t-40 16q-24 0 -40.5 -16t-16.5 -38t16.5 -37.5t40.5 -15.5z" />
    <glyph glyph-name="tildecomb.case" 
d="M-284 781q-51 0 -51 -59h-59q0 57 29.5 91.5t76.5 34.5q37 0 80.5 -29.5t67.5 -29.5q51 0 51 59h59q0 -57 -29.5 -91.5t-76.5 -34.5q-37 0 -80.5 29.5t-67.5 29.5z" />
    <glyph glyph-name="uni0304.case" 
d="M-308 818h278v-67h-278v67z" />
    <glyph glyph-name="uni0335.case" 
d="M-366 366h336v-67h-336v67z" />
    <glyph glyph-name="uni0308.narrow" 
d="M-232 629q-22 0 -36 14t-14 36q0 21 14 35t36 14q21 0 35 -14t14 -35q0 -22 -14 -36t-35 -14zM-80 629q-22 0 -35.5 14t-13.5 36q0 21 13.5 35t35.5 14t36 -14t14 -35q0 -22 -14 -36t-36 -14z" />
    <glyph glyph-name="uni0302.narrow" 
d="M-30 587h-70l-62 103l-63 -103h-70l92 153h81z" />
    <glyph glyph-name="uni0306.narrow" 
d="M-153 583q-56 0 -89.5 40.5t-33.5 116.5h61q0 -93 62 -93t62 93h61q0 -76 -34 -116.5t-89 -40.5z" />
    <glyph glyph-name="tildecomb.narrow" 
d="M-230 651q-36 0 -36 -58h-55q0 56 23.5 90.5t61.5 34.5q29 0 64.5 -29.5t51.5 -29.5q35 0 35 59h55q0 -56 -23.5 -90.5t-61.5 -34.5q-29 0 -64.5 29t-50.5 29z" />
    <glyph glyph-name="uni0304.narrow" 
d="M-261 691h231v-66h-231v66z" />
    <glyph glyph-name="caron.alt" horiz-adv-x="193" 
d="M83 760h80l-75 -196h-58z" />
    <glyph glyph-name="acute.case" horiz-adv-x="278" 
d="M30 727l113 119h105l-133 -119h-85z" />
    <glyph glyph-name="breve.case" horiz-adv-x="346" 
d="M173 722q-63 0 -103 35t-40 89h61q0 -28 22 -44t60 -16q37 0 59.5 16.5t22.5 43.5h61q0 -54 -40.5 -89t-102.5 -35z" />
    <glyph glyph-name="caron.case" horiz-adv-x="394" 
d="M276 846h88l-117 -119h-101l-116 119h88l79 -81z" />
    <glyph glyph-name="circumflex.case" horiz-adv-x="394" 
d="M364 727h-88l-79 81l-79 -81h-88l116 119h101z" />
    <glyph glyph-name="dieresis.case" horiz-adv-x="369" 
d="M81 733q-23 0 -37 14.5t-14 36.5t14 36.5t37 14.5t37 -14.5t14 -36.5t-14 -36.5t-37 -14.5zM287 733q-22 0 -36.5 14.5t-14.5 36.5t14.5 36.5t36.5 14.5q23 0 37.5 -14.5t14.5 -36.5t-14.5 -36.5t-37.5 -14.5z" />
    <glyph glyph-name="dotaccent.case" horiz-adv-x="168" 
d="M84 730q-23 0 -38.5 15.5t-15.5 38.5q0 24 15.5 39t38.5 15q24 0 39 -15t15 -39q0 -23 -15 -38.5t-39 -15.5z" />
    <glyph glyph-name="grave.case" horiz-adv-x="278" 
d="M248 727h-85l-133 119h105z" />
    <glyph glyph-name="hungarumlaut.case" horiz-adv-x="278" 
d="M30 727l113 119h105l-133 -119h-85z" />
    <glyph glyph-name="macron.case" horiz-adv-x="338" 
d="M30 818h278v-67h-278v67z" />
    <glyph glyph-name="ring.case" horiz-adv-x="269" 
d="M135 668q-43 0 -74 30t-31 71q0 42 31 72t74 30t73.5 -30t30.5 -72q0 -41 -30.5 -71t-73.5 -30zM135 716q23 0 40 15.5t17 37.5t-17 38t-40 16q-24 0 -40.5 -16t-16.5 -38t16.5 -37.5t40.5 -15.5z" />
    <glyph glyph-name="tilde.case" horiz-adv-x="424" 
d="M140 781q-51 0 -51 -59h-59q0 57 29.5 91.5t76.5 34.5q37 0 80.5 -29.5t67.5 -29.5q51 0 51 59h59q0 -57 -29.5 -91.5t-76.5 -34.5q-37 0 -80.5 29.5t-67.5 29.5z" />
    </font>
</defs>
</svg>
