<?xml version="1.0" standalone="no"?>
<!DOCTYPE svg PUBLIC "-//W3C//DTD SVG 1.1//EN" "http://www.w3.org/Graphics/SVG/1.1/DTD/svg11.dtd" >
<svg xmlns="http://www.w3.org/2000/svg" xmlns:xlink="http://www.w3.org/1999/xlink" version="1.1">
<metadata></metadata>
<defs>
<font id="st_ryde_regularregular" horiz-adv-x="1009" >
<font-face units-per-em="2048" ascent="1638" descent="-410" />
<missing-glyph horiz-adv-x="491" />
<glyph unicode="&#xfb01;" horiz-adv-x="1230" d="M90 911q0 76 76 76h59v189q0 145 64.5 207.5t187.5 62.5q66 0 109 -6t63.5 -18.5t27.5 -26t7 -33.5q0 -46 -18 -68h-148q-69 0 -102 -30t-33 -109v-168h485q73 0 109.5 -34.5t36.5 -125.5v-647q0 -53 47 -53h59q13 -26 13 -51q0 -76 -138 -76q-66 0 -100.5 32.5 t-34.5 106.5v658q0 57 -51 57h-426v-803q0 -51 -88 -51q-49 0 -70 18v836h-121q-14 24 -14 57zM817 1268q0 102 101 102q100 0 100 -102q0 -99 -100 -99q-101 0 -101 99z" />
<glyph unicode="&#xfb02;" horiz-adv-x="1288" d="M90 911q0 76 76 76h59v189q0 145 64.5 207.5t187.5 62.5q66 0 109 -6t63.5 -18.5t27.5 -26t7 -33.5q0 -46 -18 -68h-148q-69 0 -102 -30t-33 -109v-168h248q14 -21 14 -55q0 -32 -16.5 -55t-53.5 -23h-192v-803q0 -51 -88 -51q-49 0 -70 18v836h-121q-14 24 -14 57z M823 252v1161q30 23 76 23q78 -3 78 -70v-1077q0 -90 30.5 -123t106.5 -33h139q7 -21 7 -47q0 -36 -49 -61t-148 -25q-125 0 -182.5 60t-57.5 192z" />
<glyph horiz-adv-x="0" />
<glyph horiz-adv-x="0" />
<glyph horiz-adv-x="682" />
<glyph unicode="&#xd;" horiz-adv-x="0" />
<glyph unicode=" "  horiz-adv-x="491" />
<glyph unicode="&#x09;" horiz-adv-x="491" />
<glyph unicode="&#xa0;" horiz-adv-x="491" />
<glyph unicode="!" horiz-adv-x="419" d="M117 92q0 96 94 96t94 -96q0 -92 -94 -92t-94 92zM129 387v1030q27 17 76 17q35 0 59.5 -15.5t24.5 -48.5v-1046q-23 -23 -80 -23q-80 0 -80 86z" />
<glyph unicode="&#x22;" horiz-adv-x="600" d="M100 1081v305q0 27 17 38.5t55 11.5q48 0 66 -24.5t18 -90.5q0 -127 -23.5 -193.5t-64.5 -66.5q-45 0 -68 20zM344 1081v305q0 27 17 38.5t55 11.5q48 0 66 -24.5t18 -90.5q0 -127 -23.5 -193.5t-64.5 -66.5q-45 0 -68 20z" />
<glyph unicode="#" horiz-adv-x="1642" d="M37 344q0 44 18.5 65t75.5 21h275l75 434h-336q-1 3 -6 14t-6.5 16t-3.5 15.5t-2 22.5q0 43 18.5 63.5t75.5 20.5h287l76 426q29 16 73 16q37 0 60.5 -15t17.5 -48l-67 -379h432l76 426q26 16 71 16q37 0 60.5 -15t19.5 -48l-67 -379h329q17 -21 17 -60q0 -37 -24 -64.5 t-85 -27.5h-264l-76 -434h342q17 -26 17 -61q0 -37 -24.5 -65t-84.5 -28h-277l-65 -370q-24 -17 -78 -17q-88 0 -72 76l56 311h-432l-66 -370q-20 -17 -78 -17q-85 0 -71 76l55 311h-324q-1 3 -6 14t-6.5 16t-3.5 15.5t-2 22.5zM565 430h430l78 434h-430z" />
<glyph unicode="$" horiz-adv-x="1226" d="M111 197q0 50 28 82q68 -62 182.5 -99.5t243.5 -42.5l2 525q-236 70 -329 159t-93 254q0 77 25 141.5t75.5 116t134 82.5t193.5 37l2 199q25 18 64 18q58 0 55 -55v-164q118 -7 202 -41.5t132 -79.5q33 -33 33 -80q0 -44 -45 -75q-114 97 -324 110l-2 -491 q226 -67 325.5 -159t102.5 -259q0 -172 -109 -275t-325 -118l-2 -205q-18 -15 -59 -15q-30 0 -45.5 15t-14.5 55v150q-218 6 -362 94q-90 59 -90 121zM301 1073q0 -85 59.5 -139t208.5 -107l2 455q-143 -7 -206.5 -64t-63.5 -145zM686 141q142 11 209.5 72.5t67.5 155.5 q0 91 -61 149.5t-214 110.5z" />
<glyph unicode="%" horiz-adv-x="1783" d="M72 1006q0 213 89.5 321.5t233.5 108.5q147 0 233.5 -107.5t86.5 -322.5q0 -220 -87 -323t-235 -103q-147 0 -234 104t-87 322zM190 1001q0 -168 55.5 -244.5t147.5 -76.5q201 0 201 321q0 166 -53.5 248t-145.5 82q-90 0 -147.5 -84t-57.5 -246zM573 80l502 1343 q25 11 64 11q36 0 51.5 -17t5.5 -47l-514 -1362q-28 -12 -64 -12q-78 0 -45 84zM1038 420q0 213 90 321.5t234 108.5q147 0 233 -107.5t86 -322.5q0 -220 -86.5 -323t-234.5 -103q-147 0 -234.5 104t-87.5 322zM1157 416q0 -168 55.5 -245t147.5 -77q201 0 201 322 q0 165 -53.5 247t-145.5 82q-90 0 -147.5 -83.5t-57.5 -245.5z" />
<glyph unicode="&#x26;" horiz-adv-x="1671" d="M109 434q0 329 321 438q-8 55 -8 127q0 221 108 326t326 105q133 0 196.5 -27.5t63.5 -73.5q0 -45 -12 -67h-232q-157 0 -222.5 -63t-65.5 -214q0 -216 96.5 -400t257.5 -296q85 93 139 220t72 259h-277q-16 32 -16 66q0 40 20 60.5t68 20.5h539q18 -22 18 -71 q0 -76 -67 -76h-168q-16 -148 -69.5 -291.5t-141.5 -255.5q130 -59 274 -59h191q16 -29 16 -74q0 -46 -41 -67t-152 -21q-204 0 -397 111q-157 -131 -362 -131q-225 0 -350 122.5t-125 331.5zM252 438q0 -145 91 -232t251 -87q124 0 231 71q-133 105 -229.5 250.5 t-140.5 313.5q-203 -85 -203 -316z" />
<glyph unicode="'" horiz-adv-x="356" d="M100 1081v305q0 27 17 38.5t55 11.5q48 0 66 -24.5t18 -90.5q0 -127 -23.5 -193.5t-64.5 -66.5q-45 0 -68 20z" />
<glyph unicode="(" horiz-adv-x="481" d="M57 623q0 192 26 353.5t67.5 264.5t93 160t104.5 57q33 0 57.5 -18.5t30.5 -53.5q-94 -69 -157.5 -261.5t-63.5 -501.5q0 -303 64 -503t165 -272q-12 -77 -88 -77q-55 0 -108.5 63t-96 172t-68.5 271t-26 346z" />
<glyph unicode=")" horiz-adv-x="481" d="M57 1380q12 78 88 78q55 0 108.5 -63t96 -172t68.5 -271t26 -346q0 -192 -25.5 -353.5t-67.5 -264.5t-93 -160t-104 -57q-33 0 -57.5 18t-30.5 53q94 69 157.5 262t63.5 502q0 303 -64.5 502.5t-165.5 271.5z" />
<glyph unicode="*" horiz-adv-x="1073" d="M137 1034q0 41 17 64.5t63 15.5l229 -20l-167 239q24 32 53 49q82 52 106 -28l101 -219l123 270q32 4 75 -19q11 -7 20.5 -17.5t16.5 -25t4 -32.5t-18 -35l-133 -182l293 20q16 -32 16 -70q0 -33 -20 -59.5t-62 -19.5l-229 20l163 -235q-18 -36 -49 -54 q-11 -7 -25.5 -10.5t-31 -3t-31 12.5t-22.5 34l-94 211l-129 -264q-41 4 -66 18q-83 49 -29 107l138 186l-293 -20q-19 34 -19 67z" />
<glyph unicode="+" horiz-adv-x="1073" d="M111 543q0 34 14.5 56t46.5 22h289v333q20 17 78 17q73 0 73 -76v-274h334q17 -21 17 -74q0 -78 -72 -78h-279v-334q-29 -16 -73 -16q-40 0 -59 18.5t-19 65.5v266h-334q-16 32 -16 74z" />
<glyph unicode="," horiz-adv-x="358" d="M82 92q0 96 94 96q50 0 75 -31.5t25 -109.5q0 -111 -30.5 -176.5t-73.5 -65.5q-45 0 -53 35q26 25 41.5 74.5t15.5 85.5q-45 0 -69.5 23.5t-24.5 68.5z" />
<glyph unicode="-" horiz-adv-x="874" d="M111 543q0 78 82 78h552q17 -20 17 -70q0 -82 -86 -82h-547q-18 36 -18 74z" />
<glyph unicode="." horiz-adv-x="350" d="M82 92q0 96 92 96q94 0 94 -96q0 -92 -94 -92q-92 0 -92 92z" />
<glyph unicode="/" horiz-adv-x="610" d="M76 -35l260 1477q29 16 74 16q37 0 60 -15t17 -48l-262 -1489q-20 -17 -78 -17q-85 0 -71 76z" />
<glyph unicode="0" horiz-adv-x="1212" d="M106 569q0 147 38 259.5t107 182.5t160 105t201 35q231 0 362.5 -145t131.5 -437q0 -154 -36.5 -267t-105 -180t-157.5 -98.5t-201 -31.5t-201.5 32.5t-157.5 100t-104.5 180t-36.5 264.5zM262 563q0 -229 92.5 -332.5t251.5 -103.5q163 0 252.5 101.5t89.5 334.5 q0 227 -89.5 338t-246.5 111q-156 0 -253 -113t-97 -336z" />
<glyph unicode="1" horiz-adv-x="980" d="M96 881q0 30 21 65q271 42 348 180q31 21 74 21q34 0 59 -16t25 -48l-2 -933h290q19 -28 19 -64q0 -39 -17.5 -62.5t-50.5 -23.5h-694q-18 36 -18 70q0 41 18.5 60.5t75.5 19.5h221v755q-71 -43 -155.5 -67.5t-145.5 -24.5q-27 0 -47.5 17t-20.5 51z" />
<glyph unicode="2" horiz-adv-x="1021" d="M55 82q0 65 47 102q21 13 70.5 43t81.5 49.5t84 52.5t87.5 58.5t82 61t78 65.5t65 67t53.5 71t33 71.5t13 73.5q0 202 -287 202q-111 0 -207 -38t-129 -91q-64 24 -64 88q0 66 113.5 129.5t294.5 63.5q219 0 327.5 -88t108.5 -246q0 -334 -641 -686h686q15 -18 15 -59 q0 -72 -60 -72h-837q-15 38 -15 82z" />
<glyph unicode="3" horiz-adv-x="1064" d="M57 -2q0 43 17 65.5t53 30.5q12 -41 35.5 -77.5t64 -71t106 -54.5t148.5 -20q169 0 253.5 73.5t84.5 190.5q0 113 -75.5 176.5t-202.5 63.5h-70q-21 0 -32 18t-11 47q0 38 14 66q162 1 250 68.5t86 177.5q-2 107 -79 172t-220 65q-119 0 -210 -44t-124 -111 q-32 11 -47.5 30.5t-15.5 55.5q0 35 24.5 73.5t71.5 74t128 58.5t181 23q214 0 331.5 -105t117.5 -268q0 -115 -63.5 -205.5t-163.5 -113.5v-4q112 -19 188 -103.5t76 -226.5q0 -82 -28 -152t-84.5 -126t-151.5 -87.5t-220 -31.5q-97 0 -175 19.5t-124.5 48.5t-77.5 67 t-43 71.5t-12 65.5z" />
<glyph unicode="4" horiz-adv-x="1173" d="M63 55q0 23 15 74l307 975q26 16 86 16q34 0 47 -19.5t4 -49.5l-284 -914h512v535q30 20 79 20q72 0 72 -57v-498h195q14 -21 14 -71q0 -66 -53 -66h-156v-281q-21 -12 -84 -12q-65 0 -65 60l-2 233h-674q-13 23 -13 55z" />
<glyph unicode="5" horiz-adv-x="1087" d="M76 8q0 76 74 94q9 -44 33.5 -84.5t66 -79t110.5 -62t156 -23.5q178 0 265 83.5t87 229.5q0 147 -96 217t-266 70q-82 0 -186 -22.5t-134 -22.5q-27 0 -41.5 19t-13.5 54l23 641q34 21 94 21h710q19 -29 19 -68q0 -38 -17.5 -61t-50.5 -23h-612l-21 -454q132 51 273 51 q104 0 188 -24t149 -74t100.5 -134t35.5 -198q0 -195 -127.5 -319t-372.5 -124q-99 0 -179 20.5t-128.5 52.5t-81 72.5t-45 77t-12.5 70.5z" />
<glyph unicode="6" horiz-adv-x="1138" d="M106 682q0 348 132 541.5t395 193.5q162 0 266.5 -53t104.5 -119q0 -28 -13.5 -51.5t-34.5 -34.5q-27 20 -45.5 32.5t-60.5 34t-96.5 33t-116.5 11.5q-352 0 -375 -520q164 84 348 84q79 0 145 -13t124.5 -44t99 -78t63.5 -118t23 -161q0 -91 -25 -167.5t-77 -139 t-141 -98t-208 -35.5q-508 0 -508 702zM260 618q8 -262 90.5 -380.5t259.5 -118.5q156 0 229.5 82t73.5 217q0 147 -85 217t-232 70q-187 0 -336 -87z" />
<glyph unicode="7" horiz-adv-x="976" d="M0 1067q0 30 17.5 52t48.5 22h866q10 -17 10 -56q0 -37 -16 -90l-443 -1253q-28 -14 -82 -14q-38 0 -53 19t-4 48l416 1192h-742q-18 23 -18 80z" />
<glyph unicode="8" horiz-adv-x="1114" d="M84 389q0 133 64.5 222t168.5 134q-180 100 -180 320q0 165 107.5 257.5t304.5 92.5q209 0 318.5 -91.5t109.5 -264.5q0 -109 -55 -194.5t-144 -133.5q250 -96 250 -348q0 -85 -27 -156.5t-82 -127.5t-148 -87.5t-216 -31.5q-236 0 -353.5 111.5t-117.5 297.5zM233 387 q0 -119 82 -193.5t238 -74.5q169 0 248.5 71t79.5 191q0 62 -26 110.5t-75.5 81.5t-105 54.5t-129.5 38.5l-64 14q-109 -24 -178.5 -97t-69.5 -196zM279 1065q0 -59 20.5 -105.5t50 -75.5t79 -51.5t91.5 -34.5t103 -24q96 29 155.5 103.5t59.5 181.5q0 109 -74 170t-205 61 q-126 0 -203 -62t-77 -163z" />
<glyph unicode="9" horiz-adv-x="1128" d="M70 668q0 105 26.5 191t81 152t144.5 102t210 36q126 0 214 -36.5t151.5 -121t94 -228t30.5 -351.5q0 -703 -510 -703q-180 0 -302 63t-122 128q0 49 43 80q31 -24 73 -48t123 -49.5t160 -25.5q199 0 285 119.5t92 390.5q-151 -99 -366 -99q-86 0 -160.5 23t-135.5 69.5 t-96.5 125.5t-35.5 182zM219 680q0 -133 83 -206t210 -73q210 0 352 101q-9 274 -83.5 390t-237.5 116q-164 0 -244 -89.5t-80 -238.5z" />
<glyph unicode=":" horiz-adv-x="350" d="M82 92q0 96 92 96q94 0 94 -96q0 -92 -94 -92q-92 0 -92 92zM82 928q0 96 92 96q94 0 94 -96q0 -92 -94 -92q-92 0 -92 92z" />
<glyph unicode=";" horiz-adv-x="358" d="M82 92q0 96 94 96q50 0 75 -31.5t25 -109.5q0 -111 -30.5 -176.5t-73.5 -65.5q-45 0 -53 35q26 25 41.5 74.5t15.5 85.5q-45 0 -69.5 23.5t-24.5 68.5zM86 928q0 96 92 96q94 0 94 -96q0 -92 -94 -92q-92 0 -92 92z" />
<glyph unicode="&#x3c;" horiz-adv-x="729" d="M78 502q0 29 9 45.5t36 40.5l438 413q18 9 39 9q22 0 39.5 -20t17.5 -44q0 -25 -28 -57l-406 -387l414 -391q12 -16 12 -43q0 -26 -20.5 -46t-40.5 -20q-31 0 -62 31l-424 399q-1 1 -7.5 12.5t-8.5 16t-5 16.5t-3 25z" />
<glyph unicode="=" horiz-adv-x="1073" d="M111 332q0 71 65 71h770q17 -27 17 -73q0 -78 -74 -78h-762q-16 40 -16 80zM111 721q0 32 16 52t49 20h770q17 -27 17 -74q0 -78 -74 -78h-762q-16 40 -16 80z" />
<glyph unicode="&#x3e;" horiz-adv-x="729" d="M72 66q0 25 28 57l406 387l-414 391q-12 16 -12 43q0 26 20.5 46t40.5 20q31 0 62 -31l424 -399q1 -1 7.5 -12.5t8.5 -16t5 -16.5t3 -25q0 -29 -9 -45.5t-36 -40.5l-438 -414q-16 -8 -39 -8q-22 0 -39.5 20t-17.5 44z" />
<glyph unicode="?" d="M68 1184q0 34 24.5 72.5t71.5 74t128 59t181 23.5q208 0 329.5 -111t121.5 -303q0 -96 -31.5 -173.5t-87.5 -129.5t-130 -82.5t-163 -40.5l12 -270q-23 -20 -78 -20q-60 0 -63 63l-8 266q0 45 16 64q70 2 134.5 19t120 50.5t89 90.5t33.5 131q0 147 -81.5 217.5 t-221.5 70.5q-119 0 -210.5 -47t-121.5 -116q-65 23 -65 92zM371 92q0 96 94 96t94 -96q0 -45 -24.5 -68.5t-69.5 -23.5q-94 0 -94 92z" />
<glyph unicode="@" horiz-adv-x="1771" d="M70 467q0 179 59.5 330t166 257t259 165t332.5 59q181 0 333 -58t257.5 -160t164 -245t58.5 -311q0 -231 -113.5 -367.5t-283.5 -136.5q-99 0 -145 41.5t-46 108.5v22q-193 -170 -362 -170q-119 0 -183.5 75.5t-64.5 201.5q0 103 68.5 165.5t199.5 69.5l342 23v73 q0 49 -17.5 84t-49 53t-65.5 25.5t-75 7.5q-89 0 -174 -17t-121 -36q-26 16 -26 66q0 41 56 71.5t128.5 43t144.5 12.5q45 -1 84 -6.5t84.5 -23t78 -45.5t54 -78t21.5 -116v-467q0 -45 19 -60t65 -15q104 0 177 107t73 294q0 136 -49.5 252.5t-137.5 200t-216 131t-279 47.5 q-304 0 -493 -187.5t-189 -488.5q0 -207 90 -361.5t244 -233.5t350 -79q153 0 247.5 19.5t196.5 60.5q39 -20 39 -55q0 -47 -49 -72q-176 -86 -436 -86q-235 0 -419.5 97t-291 282t-106.5 430zM633 274q0 -65 38.5 -106t110.5 -41q77 0 156 37t174 110v160l-336 -28 q-72 -7 -107.5 -42t-35.5 -90z" />
<glyph unicode="A" horiz-adv-x="1310" d="M37 23l528 1384q18 10 25.5 14t26.5 8.5t42 4.5q68 0 91 -62l524 -1335q-17 -37 -78 -37q-71 0 -90 63l-115 285h-674l-112 -297q-10 -28 -31 -39.5t-59 -11.5q-55 0 -78 23zM369 483h569l-289 731z" />
<glyph unicode="B" horiz-adv-x="1361" d="M213 74v1345q24 15 80 15h448q404 0 404 -377q0 -196 -148 -301q108 -42 171 -130.5t63 -226.5q0 -84 -26.5 -152.5t-71 -114t-105 -76t-125 -43.5t-135.5 -13h-475q-38 0 -59 15.5t-21 58.5zM371 133h350q350 0 350 275q0 73 -26.5 125.5t-76.5 82t-114 43t-147 13.5 h-336v-539zM371 801h338q63 2 112 15t89 42t61.5 80t21.5 123q0 133 -71 187.5t-211 54.5h-340v-502z" />
<glyph unicode="C" horiz-adv-x="1312" d="M131 717q0 185 43.5 326.5t123 231t187.5 134.5t242 45q168 0 271 -45t169 -125q45 -39 45 -88q0 -28 -17 -47t-42 -27q-71 90 -172 135.5t-248 45.5q-205 0 -324.5 -148t-119.5 -440q0 -588 454 -588q277 0 422 174q26 2 48 -14.5t22 -50.5q0 -56 -53 -95 q-161 -161 -445 -161q-136 0 -245 42.5t-191 129.5t-126 230.5t-44 334.5z" />
<glyph unicode="D" horiz-adv-x="1425" d="M213 74v1343q27 17 80 17h278q367 0 545 -178.5t178 -555.5q0 -153 -30 -271.5t-85.5 -199t-138.5 -132t-184.5 -74.5t-228.5 -23h-334q-38 0 -59 15.5t-21 58.5zM373 143h248q259 0 386.5 128.5t127.5 424.5q0 301 -135 444.5t-418 143.5h-209v-1141z" />
<glyph unicode="E" horiz-adv-x="1302" d="M213 76v1341q27 17 76 17h889q18 -18 18 -66q0 -40 -16.5 -63t-49.5 -23h-757v-471h684q18 -18 18 -72q0 -80 -63 -80h-639v-507h805q18 -18 18 -66q0 -40 -16.5 -63t-49.5 -23h-845q-32 0 -52 15.5t-20 60.5z" />
<glyph unicode="F" horiz-adv-x="1275" d="M213 76v1341q27 17 76 17h880q17 -21 17 -66q0 -40 -16.5 -63t-49.5 -23h-747v-498h688q16 -20 16 -65q0 -86 -65 -86h-639v-617q-19 -16 -88 -16q-32 0 -52 15.5t-20 60.5z" />
<glyph unicode="G" horiz-adv-x="1437" d="M131 717q0 183 48 326t133 231.5t197 134t245 45.5q109 0 201.5 -22t148 -54.5t86.5 -66.5t31 -62q0 -30 -21 -49.5t-45 -21.5q-68 61 -160.5 96t-238.5 35q-98 0 -183 -37t-151 -109t-103.5 -187t-37.5 -261q0 -156 38 -274.5t104 -187.5t145 -102.5t169 -33.5 q123 0 229.5 61.5t174.5 169.5v256h-385q-15 34 -15 68q0 31 19.5 48t75.5 17h327q65 0 88 -28t23 -101v-592q-27 -18 -74 -18q-29 0 -44 13.5t-15 51.5v134q-166 -217 -416 -217q-96 0 -181.5 26t-161.5 83.5t-131.5 142t-87.5 209t-32 276.5z" />
<glyph unicode="H" horiz-adv-x="1501" d="M213 76v1341q31 17 84 17q76 0 76 -64v-563h753v610q34 17 84 17q78 0 78 -64v-1352q-25 -18 -78 -18q-39 0 -61.5 15.5t-22.5 60.5v583h-753v-639q-20 -20 -88 -20q-32 0 -52 15.5t-20 60.5z" />
<glyph unicode="I" horiz-adv-x="585" d="M213 76v1341q31 17 86 17q74 0 74 -64v-1350q-33 -20 -86 -20q-74 0 -74 76z" />
<glyph unicode="J" horiz-adv-x="790" d="M41 96q0 36 12 60h209q84 0 124 36.5t40 122.5v1102q34 17 80 17q72 0 72 -66v-1089q0 -279 -277 -279q-130 0 -195 26.5t-65 69.5z" />
<glyph unicode="K" horiz-adv-x="1257" d="M213 74v1341q38 19 84 19q74 0 74 -64v-631q172 130 318.5 321t215.5 361q26 13 68 13q23 0 40 -16.5t17 -39.5q0 -38 -31 -98q-155 -297 -389 -512q42 -41 95.5 -123.5t101 -165t97 -161t101 -128t95.5 -49.5h57q14 -18 14 -53q0 -88 -122 -88q-60 0 -120 49t-114 131 t-102.5 168t-105 182.5t-101.5 151.5q-64 -50 -135 -96v-568q-30 -18 -90 -18q-68 0 -68 74z" />
<glyph unicode="L" horiz-adv-x="1105" d="M213 74v1345q30 15 82 15q32 0 55 -15.5t23 -48.5v-1218h678q18 -23 18 -66q0 -86 -92 -86h-692q-72 0 -72 74z" />
<glyph unicode="M" horiz-adv-x="1837" d="M176 14l92 1309q10 111 111 111q41 0 78 -13l454 -1130l389 1057q25 86 109 86q49 0 96 -21l156 -1393q-30 -20 -84 -20q-77 0 -84 57l-98 1098l-375 -991q-14 -53 -40 -69.5t-69 -16.5q-77 0 -104 86l-406 991l-67 -1098q-3 -57 -78 -57q-52 0 -80 14z" />
<glyph unicode="N" horiz-adv-x="1503" d="M213 74v1343q34 17 84 17q47 0 74 -39l768 -1108l-4 1126q28 21 75 21q35 0 59.5 -15.5t24.5 -48.5v-1356q-24 -14 -82 -14q-45 0 -75 41l-772 1087l8 -1110q-22 -18 -90 -18q-20 0 -33.5 4t-25 21.5t-11.5 48.5z" />
<glyph unicode="O" horiz-adv-x="1458" d="M131 717q0 184 44 326t125 231.5t190.5 134.5t244.5 45q273 0 431.5 -186t158.5 -551q0 -194 -42.5 -337.5t-122 -230t-185.5 -128t-240 -41.5q-136 0 -244.5 42.5t-190 129.5t-125.5 230.5t-44 334.5zM287 715q0 -158 33 -274.5t94 -186t141.5 -102.5t181.5 -33 q432 0 432 596q0 294 -116.5 445t-317.5 151q-208 0 -328 -151.5t-120 -444.5z" />
<glyph unicode="P" horiz-adv-x="1271" d="M213 74v1345q30 15 80 15h448q86 0 158.5 -25.5t128 -76t86.5 -132.5t31 -188q0 -101 -26 -179.5t-69 -127t-103 -80t-122.5 -44t-134.5 -12.5h-317v-553q-26 -16 -88 -16q-72 0 -72 74zM373 702h284q161 0 248.5 69t87.5 230q0 150 -72.5 226t-203.5 76h-344v-601z" />
<glyph unicode="Q" horiz-adv-x="1458" d="M131 717q0 184 44 326t125 231.5t190.5 134.5t244.5 45q273 0 431.5 -186t158.5 -551q0 -540 -330 -682q55 -104 122.5 -157.5t139.5 -53.5h103q12 -24 12 -57q0 -45 -36.5 -73t-102.5 -28q-230 0 -375 324q-65 -10 -123 -10q-136 0 -244.5 42.5t-190 129.5t-125.5 230.5 t-44 334.5zM287 715q0 -158 33 -274.5t94 -186t141.5 -102.5t181.5 -33q432 0 432 596q0 294 -116.5 445t-317.5 151q-208 0 -328 -151.5t-120 -444.5z" />
<glyph unicode="R" horiz-adv-x="1372" d="M213 74v1345q24 15 80 15h448q88 0 160 -21.5t130 -67t90 -123.5t32 -184q0 -161 -95.5 -265t-238.5 -136q34 -45 75 -117.5t74 -133.5t69.5 -119.5t76.5 -92t80 -33.5h57q15 -19 15 -53q0 -88 -123 -88q-60 0 -113 43.5t-97 117t-83 152t-88 168t-94 144.5h-295v-607 q-21 -18 -80 -18q-38 0 -59 15.5t-21 58.5zM373 752h311q138 0 227.5 72t89.5 212q0 271 -290 271h-338v-555z" />
<glyph unicode="S" horiz-adv-x="1245" d="M119 197q0 50 28 82q76 -66 204 -104t267 -38q183 0 268 63.5t85 168.5q0 101 -75 162.5t-273 117.5q-263 72 -366 163t-103 263q0 170 115.5 274.5t342.5 104.5q295 0 424 -125q33 -33 33 -80q0 -44 -45 -75q-56 47 -159 79.5t-253 32.5q-154 0 -228.5 -58.5 t-74.5 -154.5t79.5 -156t285.5 -120q241 -64 346 -156t106 -266v-6q0 -179 -124 -283q-126 -106 -377 -106q-258 0 -414 96q-92 59 -92 121z" />
<glyph unicode="T" horiz-adv-x="1224" d="M33 1360q0 31 20 52.5t64 21.5h1057q18 -22 18 -66q0 -39 -17.5 -62.5t-50.5 -23.5h-434v-1266q-21 -16 -88 -16t-67 74v1208h-484q-18 36 -18 78z" />
<glyph unicode="U" horiz-adv-x="1435" d="M199 1417q27 17 82 17q77 0 77 -64v-827q0 -212 84 -315t275 -103q199 0 283.5 101.5t84.5 314.5v876q27 17 80 17q80 0 80 -64v-850q0 -540 -528 -540q-265 0 -390.5 132t-125.5 408z" />
<glyph unicode="V" horiz-adv-x="1325" d="M49 1417q34 17 92 17q61 0 84 -56l459 -1161q133 220 278 604.5t173 593.5q36 19 84 19q24 0 40.5 -11.5t16.5 -29.5q0 -33 -14 -107q-35 -190 -196 -585t-335 -689q-35 -12 -69 -12q-54 0 -80 66z" />
<glyph unicode="W" horiz-adv-x="2048" d="M37 1417q34 17 92 17q61 0 84 -56l438 -1159q75 127 174 349.5t174 430.5l-163 418q31 17 92 17q62 0 82 -56l458 -1161q125 207 249.5 589.5t152.5 608.5q40 19 84 19q24 0 40.5 -11.5t16.5 -29.5q0 -31 -12 -107q-39 -216 -178 -605t-303 -669q-34 -12 -70 -12 q-57 0 -80 66l-291 737q-190 -466 -379 -789q-34 -12 -69 -12q-53 0 -80 64z" />
<glyph unicode="X" horiz-adv-x="1370" d="M86 37l489 702l-456 654q23 41 96 41q43 0 73.5 -19.5t59.5 -60.5l342 -484l348 504q40 60 113 60q64 0 86 -33l-457 -658l504 -710q-41 -33 -106 -33q-34 0 -69.5 17.5t-57.5 48.5l-383 544l-392 -557q-33 -53 -110 -53q-54 0 -80 37z" />
<glyph unicode="Y" horiz-adv-x="1210" d="M74 1409q41 25 90 25q33 0 50.5 -12t27.5 -42q126 -413 385 -792q126 189 241 443t140 392q22 11 75 11q23 0 38.5 -16.5t15.5 -39.5q-3 -120 -152.5 -419t-284.5 -482v-459q-25 -18 -88 -18q-69 0 -69 59v412q-153 219 -276 462.5t-193 475.5z" />
<glyph unicode="Z" horiz-adv-x="1308" d="M66 57q0 46 28 82l856 1147h-813q-18 32 -18 70q0 34 17 56t54 22h973q13 -13 13 -56q0 -45 -31 -84l-856 -1153h940q14 -33 14 -67q0 -74 -78 -74h-1087q-12 27 -12 57z" />
<glyph unicode="[" horiz-adv-x="628" d="M119 -150v1584q40 24 108 24h324q18 -22 18 -67q0 -86 -57 -86h-240v-1379h279q18 -27 18 -67t-15.5 -63t-45.5 -23h-369q-20 30 -20 77z" />
<glyph unicode="\" horiz-adv-x="610" d="M72 1395q-6 33 17.5 48t60.5 15q44 0 73 -16l260 -1477q14 -76 -71 -76q-58 0 -78 17z" />
<glyph unicode="]" horiz-adv-x="628" d="M119 -162q0 86 57 86h240v1379h-279q-18 27 -18 67t15.5 63t45.5 23h369q20 -30 20 -78v-1583q-40 -24 -108 -24h-324q-18 23 -18 67z" />
<glyph unicode="^" horiz-adv-x="989" d="M150 1188q25 13 90.5 72.5t129 108t101.5 48.5q37 0 100.5 -47.5t131.5 -107t98 -74.5q-10 -47 -49 -53q-16 -7 -39 0q-26 7 -64 31.5t-93 66t-81 59.5q-26 -17 -81.5 -59t-93.5 -66.5t-64 -31.5q-20 -7 -37 0q-39 6 -49 53z" />
<glyph unicode="_" horiz-adv-x="1245" d="M41 -242q0 33 18 54.5t56 21.5h1075q14 -17 14 -70q0 -34 -14.5 -57.5t-46.5 -23.5h-1086q-16 40 -16 75z" />
<glyph unicode="`" horiz-adv-x="1105" d="M291 1343q4 70 80 70q28 0 75 -30.5t89.5 -68.5t88.5 -78t68 -52q-13 -58 -69 -58q-30 0 -89.5 41t-131.5 98t-111 78z" />
<glyph unicode="a" d="M66 285q0 123 70.5 196t207.5 80l346 21v88q0 194 -213 194q-88 0 -174.5 -21.5t-128.5 -49.5q-29 25 -29 65q0 46 55.5 81.5t131 52t151.5 16.5q72 0 132 -16t108.5 -49.5t76 -92.5t27.5 -139v-527q0 -71 52 -71h57q12 -16 12 -54q0 -59 -131 -59q-58 0 -92.5 39 t-34.5 102v9q-173 -170 -354 -170q-132 0 -201 83t-69 222zM207 283q0 -72 39 -120t112 -48q160 0 332 159v193l-338 -33q-145 -14 -145 -151z" />
<glyph unicode="b" horiz-adv-x="1056" d="M135 156v1257q31 21 78 21q72 0 72 -62v-493q126 129 284 129q169 0 271 -126.5t102 -367.5q0 -268 -119 -401t-317 -133q-190 0 -320 92q-51 40 -51 84zM285 197q91 -74 227 -74q133 0 208 95.5t75 281.5q0 173 -71 261.5t-187 88.5q-150 0 -252 -121v-532z" />
<glyph unicode="c" horiz-adv-x="966" d="M115 492q0 111 25.5 200.5t68 147t100.5 96.5t119 55.5t127 16.5q73 0 127.5 -11t80.5 -23.5t62 -35.5q40 -23 43 -70q0 -41 -39 -80q-77 38 -126.5 51t-143.5 13q-61 0 -112 -19.5t-93 -60.5t-66 -113t-24 -170q0 -171 85.5 -268.5t225.5 -97.5q87 0 162 24.5t117 55.5 q27 -24 27 -68q0 -57 -62 -94q-103 -61 -252 -61q-207 0 -329.5 138t-122.5 374z" />
<glyph unicode="d" horiz-adv-x="1153" d="M115 489q0 107 24 195t64 147.5t94 100t112.5 58.5t120.5 18q162 0 261 -99v465q0 28 16.5 44t46.5 16q55 0 84 -21v-1223q0 -69 63 -69h66q12 -24 12 -53q0 -30 -30 -49t-88 -19q-55 0 -96.5 24t-61.5 72q-129 -116 -293 -116q-81 0 -150 28.5t-125 87.5t-88 159.5 t-32 233.5zM266 496q0 -186 73.5 -279.5t192.5 -93.5q155 0 259 94v528q-48 55 -101.5 79t-140.5 24q-51 0 -99 -19.5t-90.5 -59.5t-68 -110.5t-25.5 -162.5z" />
<glyph unicode="e" horiz-adv-x="1026" d="M109 489q0 125 37 226t100 164t142.5 96t166.5 33q179 0 274 -118.5t95 -307.5q0 -64 -15 -105h-649q3 -170 84.5 -262t214.5 -92q99 0 188.5 29.5t131.5 62.5q34 -20 34 -68q0 -47 -34 -71q-129 -96 -332 -96q-198 0 -318 139.5t-120 369.5zM268 590h516 q0 129 -58 203.5t-175 74.5q-104 0 -182.5 -71.5t-100.5 -206.5z" />
<glyph unicode="f" horiz-adv-x="708" d="M90 911q0 76 76 76h59v189q0 145 64.5 207.5t187.5 62.5q66 0 109 -6t63.5 -18.5t27.5 -26t7 -33.5q0 -46 -18 -68h-148q-69 0 -102 -30t-33 -109v-168h248q14 -21 14 -55q0 -32 -16.5 -55t-53.5 -23h-192v-803q0 -51 -88 -51q-49 0 -70 18v836h-121q-14 24 -14 57z" />
<glyph unicode="g" horiz-adv-x="1034" d="M86 -313q0 22 13.5 45.5t35.5 38.5q123 -152 348 -152q161 0 252.5 56t91.5 151q0 100 -122 100h-306q-142 0 -205 50t-63 147q0 103 78 217q-96 93 -96 287q0 189 99.5 285t264.5 96q132 0 215 -60q20 39 74 39h166q14 -18 14 -55q0 -31 -15.5 -49.5t-58.5 -18.5h-98 q57 -91 57 -237q0 -196 -97 -286.5t-265 -90.5q-93 0 -172 31q-27 -66 -27 -111q0 -56 34.5 -83.5t121.5 -27.5h313q112 0 170 -57.5t58 -155.5q0 -165 -128.5 -263.5t-351.5 -98.5q-171 0 -286 65t-115 138zM268 623q0 -132 52.5 -190t150.5 -58q203 0 203 248 q0 129 -51 191.5t-144 62.5q-98 0 -154.5 -64t-56.5 -190z" />
<glyph unicode="h" horiz-adv-x="1093" d="M131 76v1339q30 19 82 19q33 0 52.5 -16t19.5 -48v-559q69 92 161.5 144.5t194.5 52.5q134 0 205.5 -82t71.5 -244v-516q0 -51 43 -51h61q10 -17 10 -45q0 -32 -37 -51t-106 -19q-127 0 -127 152v493q0 105 -41.5 155t-126.5 50t-169.5 -52.5t-139.5 -140.5v-641 q-22 -16 -80 -16q-33 0 -53.5 15.5t-20.5 60.5z" />
<glyph unicode="i" horiz-adv-x="595" d="M102 903q0 42 35.5 63t95.5 21q73 0 109.5 -34.5t36.5 -125.5v-647q0 -53 47 -53h59q13 -20 13 -51q0 -76 -138 -76q-66 0 -100.5 32.5t-34.5 106.5v645q0 58 -51 58h-59q-13 23 -13 61zM182 1268q0 102 101 102q100 0 100 -102q0 -99 -100 -99q-101 0 -101 99z" />
<glyph unicode="j" horiz-adv-x="581" d="M-37 -264q0 32 10 61h150q60 0 93.5 35t33.5 107v845q0 58 -47 58h-80q-10 27 -10 63q0 82 139 82q78 0 111.5 -35.5t33.5 -122.5v-921q0 -135 -64.5 -196.5t-174.5 -61.5q-195 0 -195 86zM207 1268q0 102 100 102q101 0 101 -102q0 -99 -101 -99q-100 0 -100 99z" />
<glyph unicode="k" horiz-adv-x="929" d="M135 76v1337q28 21 74 21q34 0 59 -16t25 -48v-803q139 66 227 182t94 222q26 16 68 16q76 0 76 -65q0 -101 -104 -226t-226 -172q37 -21 77.5 -69t75.5 -98t72 -98t79.5 -78.5t86.5 -30.5h72q12 -20 12 -58q0 -40 -30.5 -66t-86.5 -26q-52 0 -101.5 27.5t-87.5 70 t-78.5 96.5t-73 104.5t-73.5 97.5t-79 71v-447q-27 -20 -86 -20q-32 0 -52 15.5t-20 60.5z" />
<glyph unicode="l" horiz-adv-x="612" d="M147 252v1161q30 23 76 23q78 -3 78 -70v-1077q0 -90 30 -123t107 -33h140q6 -18 6 -47q0 -36 -49 -61t-148 -25q-126 0 -183 60t-57 192z" />
<glyph unicode="m" horiz-adv-x="1814" d="M78 909q0 78 147 78q73 0 114.5 -39.5t41.5 -120.5v-34q73 104 155 159.5t189 55.5q101 0 166 -54.5t88 -162.5q160 217 362 217q131 0 208 -86t77 -252v-500q0 -55 39 -54h78q10 -17 10 -44q0 -33 -39 -52.5t-115 -19.5q-67 0 -100 33.5t-33 109.5v490q0 105 -44 159 t-126 54q-168 0 -307 -191v-485q0 -29 8.5 -42t28.5 -12h72q8 -20 8 -46q0 -34 -41 -52t-111 -18q-65 0 -96 33.5t-31 109.5v494q0 209 -159 209q-158 0 -287 -193v-635q-27 -18 -88 -18q-76 0 -76 80v704q0 58 -51 58h-74q-14 35 -14 67z" />
<glyph unicode="n" horiz-adv-x="1212" d="M78 909q0 78 145 78q74 0 116 -41t42 -119v-30q159 211 360 211q132 0 207.5 -85.5t75.5 -252.5v-500q0 -55 39 -55h80q8 -20 8 -43q0 -33 -38 -52.5t-114 -19.5q-68 0 -100.5 33.5t-32.5 109.5v490q0 104 -46.5 160.5t-127.5 56.5q-171 0 -311 -203v-629 q-27 -18 -88 -18q-76 0 -76 80v704q0 58 -51 58h-74q-14 35 -14 67z" />
<glyph unicode="o" horiz-adv-x="1128" d="M115 492q0 255 124.5 385.5t331.5 130.5q206 0 323.5 -129.5t117.5 -386.5q0 -137 -33 -237t-94 -159.5t-141.5 -87.5t-182.5 -28q-101 0 -181 29t-140 89t-92.5 160t-32.5 234zM276 489q0 -366 285 -366q139 0 214 85.5t75 280.5q0 186 -73.5 279.5t-205.5 93.5 q-135 0 -215 -95t-80 -278z" />
<glyph unicode="p" horiz-adv-x="1150" d="M61 909q0 78 146 78q70 0 108 -38.5t41 -110.5q64 78 146 124t170 46q59 0 109.5 -14t98 -49t81 -90.5t54 -143t21.5 -201.5q0 -131 -32.5 -234t-88.5 -166.5t-126.5 -96.5t-149.5 -33q-168 0 -283 120v-483q-27 -16 -82 -16q-75 0 -75 80v1103q0 58 -49 58h-74 q-15 38 -15 67zM356 266q110 -139 254 -139q122 0 197.5 93t75.5 274q0 85 -15 149.5t-38.5 102t-57.5 61t-68 31.5t-75 8q-153 0 -273 -152v-428z" />
<glyph unicode="q" horiz-adv-x="1142" d="M115 494q0 250 115.5 382t291.5 132q177 0 289 -119q19 47 60.5 72.5t97.5 25.5q112 0 112 -74q0 -38 -10 -65h-72q-53 0 -53 -64v-1153q-32 -16 -80 -16q-67 0 -67 63v410q-124 -108 -295 -108q-173 0 -281 131t-108 383zM264 494q0 -178 77 -274.5t194 -96.5 q158 0 264 96v510q-88 121 -273 121q-50 0 -95 -21t-83 -62t-61 -111.5t-23 -161.5z" />
<glyph unicode="r" horiz-adv-x="872" d="M61 909q0 33 39 55.5t103 22.5q78 0 117.5 -38.5t39.5 -131.5v-10q68 88 153 144.5t167 56.5q85 0 130.5 -43t45.5 -129q0 -113 -90 -113q-34 0 -59 25q0 90 -91 90q-65 0 -133 -48.5t-123 -130.5v-641q-21 -18 -86 -18q-34 0 -53.5 15.5t-19.5 58.5v704q0 64 -51 64h-76 q-13 37 -13 67z" />
<glyph unicode="s" horiz-adv-x="933" d="M96 137q0 57 33 86q48 -37 146.5 -69.5t183.5 -32.5q121 0 176 39.5t55 103.5q0 68 -52 104t-179 60q-188 33 -264 99.5t-76 201.5q0 124 89 201.5t253 77.5q156 0 247 -49t91 -107q0 -63 -37 -82q-36 33 -120 56.5t-185 23.5t-149 -36t-48 -93q0 -63 54.5 -96.5 t181.5 -57.5q180 -31 259 -101t79 -200q0 -137 -92.5 -211.5t-272.5 -74.5q-158 0 -265.5 49t-107.5 108z" />
<glyph unicode="t" horiz-adv-x="751" d="M78 911q0 38 14.5 57t52.5 19h70v268q30 17 80 17q32 0 51 -17t19 -51v-217h313q14 -14 14 -53q0 -80 -78 -80h-249v-563q0 -88 29.5 -121t94.5 -33h197q10 -23 10 -45q0 -29 -19 -48t-75.5 -31.5t-152.5 -12.5q-111 0 -172.5 57t-61.5 197v600h-121q-16 22 -16 57z" />
<glyph unicode="u" horiz-adv-x="1212" d="M61 909q3 78 158 78q80 0 116 -33t36 -110v-500q0 -207 157 -207q191 0 318 217v615q34 18 88 18q76 0 76 -61v-736q0 -32 12 -44.5t35 -12.5h76q6 -36 6 -51q0 -38 -40 -60t-114 -22q-65 0 -102 35.5t-37 126.5v18q-153 -200 -365 -200q-274 0 -274 329v479q0 56 -47 56 h-90q-9 40 -9 65z" />
<glyph unicode="v" horiz-adv-x="1046" d="M25 924q0 27 29.5 45t80.5 18q63 0 94.5 -21t46.5 -61l267 -702q103 145 179.5 322.5t76.5 275.5q0 61 -64 61h-59q-10 23 -10 62q0 29 32.5 46t92.5 17q81 0 119 -35.5t38 -117.5q0 -128 -97 -349t-222 -403q-31 -44 -55 -63t-58 -19q-36 0 -57 12l-307 805 q-15 45 -56 45h-59q-12 32 -12 62z" />
<glyph unicode="w" horiz-adv-x="1599" d="M25 918q0 69 137 69q55 0 84 -20.5t45 -63.5l217 -682q92 139 163.5 321t71.5 273q0 47 -36 47h-60q-10 23 -10 53q0 32 39.5 52t103.5 20q40 0 67 -21t38 -55l233 -694q98 132 164 306t66 284q0 26 -14 40.5t-36 14.5h-69q-10 23 -10 56q0 31 38 50t99 19q75 0 109 -38 t34 -115q0 -138 -84.5 -358.5t-189.5 -377.5q-24 -35 -37.5 -52t-35.5 -31.5t-46 -14.5q-35 0 -55 14l-224 643q-36 -142 -100 -293.5t-135 -269.5q-33 -53 -57.5 -73.5t-57.5 -20.5q-40 0 -59 16l-264 809q-9 37 -45 37h-74q-10 27 -10 56z" />
<glyph unicode="x" horiz-adv-x="1083" d="M82 907q0 37 41 58.5t102 21.5q55 0 90 -21.5t64 -68.5l172 -272l215 299q39 63 96 63q51 1 76 -25q23 -24 23 -56v-5l-336 -391l204 -320q40 -65 93 -65h75q9 -16 9 -51q0 -33 -36 -53.5t-102 -20.5q-103 0 -155 82l-193 299l-241 -324q-45 -57 -103 -57q-37 0 -62 26.5 t-28 61.5l360 410l-213 333q-22 31 -57 31h-86q-8 28 -8 45z" />
<glyph unicode="y" horiz-adv-x="1105" d="M25 918q0 32 34 50.5t97 18.5q60 0 91.5 -25.5t51.5 -82.5l254 -672q14 -44 47 -51q103 203 177.5 388.5t74.5 262.5q0 55 -49 55h-74q-10 20 -10 56q0 31 36 50t89 19q164 0 164 -143q0 -138 -150 -473t-272 -529q-81 -129 -171 -178t-208 -49q-141 0 -141 80 q0 33 12 57h151q66 0 121 32t113 124l65 115q-32 6 -57 31.5t-39 64.5l-270 702q-14 41 -51 41h-76q-10 20 -10 56z" />
<glyph unicode="z" horiz-adv-x="1021" d="M86 59q0 39 23 68l585 727h-561q-16 22 -16 57q0 24 3.5 38.5t19 26t44.5 11.5h703q10 -30 10 -53q0 -37 -27 -72l-579 -725h633q12 -20 12 -65q0 -72 -80 -72h-754q-16 28 -16 59z" />
<glyph unicode="{" horiz-adv-x="655" d="M68 612q0 46 14 64q45 -2 78 29.5t33 80.5v439q0 65 19 112.5t52.5 72.5t71 36.5t82.5 11.5q174 0 174 -90q0 -33 -14 -55h-142q-48 0 -75 -30.5t-27 -88.5v-416q0 -84 -29.5 -122t-62.5 -42v-8q31 -2 61.5 -44.5t30.5 -127.5v-411q0 -111 100 -111h146q12 -18 12 -51 q0 -45 -52 -67.5t-145 -22.5q-84 0 -143 52t-59 159v446q0 95 -80 107q-45 9 -45 77z" />
<glyph unicode="|" horiz-adv-x="544" d="M195 -160v1602q26 16 86 16q73 0 73 -55v-1616q-32 -16 -92 -16q-67 0 -67 69z" />
<glyph unicode="}" horiz-adv-x="655" d="M68 -139q0 33 14 55h141q48 0 75.5 30.5t27.5 88.5v416q0 84 29.5 121.5t62.5 41.5v9q-31 2 -61.5 44.5t-30.5 127.5v411q0 111 -101 111h-145q-12 18 -12 51q0 90 196 90q84 0 143.5 -52t59.5 -159v-446q0 -95 80 -107q45 -9 45 -78q0 -46 -14 -63q-45 2 -78 -30 t-33 -81v-438q0 -65 -19 -112.5t-52.5 -72.5t-71 -36.5t-82.5 -11.5q-174 0 -174 90z" />
<glyph unicode="~" horiz-adv-x="1054" d="M119 1237q0 36 43.5 72.5t109.5 36.5q59 0 169.5 -32t158.5 -32q86 0 129 49q14 -7 25.5 -26.5t11.5 -42.5q0 -39 -37.5 -67t-103.5 -28q-56 0 -183 30t-172 30q-38 0 -71.5 -17.5t-38.5 -35.5q-41 13 -41 63z" />
<glyph unicode="&#xa1;" horiz-adv-x="354" d="M-86 895q0 92 94 92t94 -92q0 -96 -94 -96t-94 96zM-70 -383v1047q22 22 80 22q80 0 80 -86v-1030q-26 -16 -76 -16q-35 0 -59.5 15t-24.5 48z" />
<glyph unicode="&#xa2;" horiz-adv-x="1030" d="M123 492q0 103 23.5 187.5t63.5 141.5t94.5 98t113.5 61t125 26l2 161q26 15 55 15q62 -3 62 -56l-3 -125q55 -3 98.5 -13.5t65 -20.5t54.5 -29q40 -23 43 -70q2 -15 -9.5 -38.5t-29.5 -41.5q-65 31 -110 44t-116 16l-4 -723q81 6 151.5 29t102.5 49q29 -25 29 -68 q0 -58 -64 -94q-93 -50 -221 -57l-2 -156q-19 -16 -63 -16q-26 0 -40 12t-14 43l2 117q-190 22 -299.5 156.5t-109.5 351.5zM262 489q0 -152 73.5 -245.5t199.5 -112.5l4 717q-124 -11 -200.5 -99t-76.5 -260z" />
<glyph unicode="&#xa3;" horiz-adv-x="1196" d="M27 74q0 73 53 78q59 3 94.5 100t46.5 330h-135q-16 40 -16 67q0 42 17 63t69 21h71q2 27 2 84q0 101 14.5 189t48.5 166.5t85 134t128.5 88t174.5 32.5q183 0 285 -38.5t102 -96.5q0 -62 -43 -84q-116 72 -336 72q-74 0 -129.5 -26.5t-88.5 -68.5t-53 -105t-27 -125.5 t-7 -139.5v-82h520q17 -17 17 -59q0 -38 -23.5 -65t-83.5 -27h-438q-12 -324 -90 -430h850q18 -27 18 -66q0 -40 -16.5 -63t-49.5 -23h-1044q-16 40 -16 74z" />
<glyph unicode="&#xa4;" horiz-adv-x="1081" d="M80 887q4 50 32 72.5t62 19.5l160 -172q88 63 198 63q100 0 179 -51l86 105q39 63 96 63q50 0 75 -25.5t23 -60.5l-164 -184q78 -97 78 -217q0 -112 -65 -199l112 -108q52 -44 49 -105q-3 -36 -31.5 -59t-64.5 -25l-172 186q-88 -63 -201 -63q-88 0 -161 45l-92 -115 q-45 -57 -101 -57q-38 0 -62.5 26t-29.5 62l162 178q-86 102 -86 234q0 111 63 196l-90 88q-26 20 -41 48.5t-14 54.5zM283 500q0 -103 74 -177.5t175 -74.5q103 0 177.5 74.5t74.5 177.5q0 101 -74.5 175.5t-177.5 74.5q-101 0 -175 -74.5t-74 -175.5z" />
<glyph unicode="&#xa5;" horiz-adv-x="1208" d="M82 1409q41 25 82 25q33 0 51 -12t27 -42q139 -448 381 -798q124 184 240 442t141 399q22 11 69 11q23 0 38 -16t15 -40q-3 -98 -101.5 -317.5t-219.5 -415.5l235 2q17 -14 17 -51q0 -31 -28 -54.5t-89 -23.5h-215l-29 -41v-78h344q17 -14 17 -51q0 -78 -107 -78h-254 v-252q-25 -18 -88 -18q-69 0 -69 59v211h-332q-1 3 -6 11t-7 12.5t-4 14t-2 20.5q0 36 17 53.5t67 17.5h267v72l-35 47h-297q-2 4 -6 12.5t-6.5 13.5t-4.5 14.5t-2 21.5q0 34 17 51t65 16l156 -2q-225 370 -344 764z" />
<glyph unicode="&#xa6;" horiz-adv-x="544" d="M195 -154v676q24 17 73 17q36 0 61 -15.5t25 -48.5v-684q-20 -20 -90 -20q-32 0 -50.5 15t-18.5 60zM195 768v674q22 16 73 16q36 0 61 -15t25 -48v-684q-21 -21 -90 -21q-31 0 -50 16.5t-19 61.5z" />
<glyph unicode="&#xa7;" horiz-adv-x="1212" d="M125 729q-1 84 36 146t105 124q-76 70 -76 189q0 127 108.5 210t328.5 83q171 0 272.5 -55t101.5 -121q0 -64 -57 -88q-33 45 -120 77.5t-212 32.5q-274 0 -274 -143q0 -66 72 -109t229 -78q101 -21 175 -47.5t136 -65.5t95 -94.5t34 -127.5q0 -83 -32 -151.5t-91 -139.5 q70 -63 70 -146q1 -147 -117 -226t-317 -79q-174 0 -290 59.5t-116 112.5q0 38 8 53.5t31 32.5q52 -49 149 -83t218 -34q140 0 214 41t73 117q-1 56 -77 94.5t-241 75.5q-108 25 -178.5 49t-133.5 62.5t-93 95t-31 133.5zM264 733q1 -38 19.5 -68.5t47 -53t77.5 -42.5 t97.5 -34.5t121.5 -32.5q150 -37 221 -68q42 42 65.5 97t22.5 108q-1 83 -92 138.5t-281 99.5q-136 32 -194 63q-105 -88 -105 -207z" />
<glyph unicode="&#xa8;" horiz-adv-x="976" d="M156 1260q0 94 94 94t94 -94q0 -93 -94 -93t-94 93zM586 1260q0 94 92 94q94 0 94 -94q0 -93 -94 -93q-92 0 -92 93z" />
<glyph unicode="&#xa9;" horiz-adv-x="1626" d="M76 717q0 338 199.5 537.5t537.5 199.5q337 0 537 -199.5t200 -537.5q0 -337 -200 -537t-537 -200q-338 0 -537.5 200t-199.5 537zM211 717q0 -276 163 -439t439 -163q277 0 440.5 163.5t163.5 438.5q0 279 -163.5 441.5t-440.5 162.5t-439.5 -162.5t-162.5 -441.5z M459 721q0 109 30.5 191.5t82 129t111.5 69t126 22.5q60 0 104.5 -9t65.5 -19t49 -28q33 -17 33 -55q1 -11 -10.5 -32t-24.5 -34q-60 31 -98.5 41.5t-114.5 10.5q-102 0 -167.5 -69t-65.5 -218q0 -136 67.5 -214.5t179.5 -78.5q66 0 124.5 19t90.5 42q10 -7 18.5 -22 t8.5 -31q0 -50 -47 -74q-82 -51 -203 -51q-165 0 -262.5 110.5t-97.5 299.5z" />
<glyph unicode="&#xaa;" horiz-adv-x="555" d="M33 872q0 59 42 95.5t120 40.5l180 12v20q0 95 -111 95q-88 0 -162 -33q-20 12 -20 51q0 35 61.5 55.5t126.5 20.5q34 0 63 -6t60 -21.5t49.5 -49.5t18.5 -83v-244q0 -37 33 -37q5 0 20 5q10 -10 10 -31q0 -25 -15 -35t-46 -10q-88 0 -88 74q-90 -76 -191 -76 q-73 0 -112 42.5t-39 114.5zM127 870q0 -31 19.5 -50t56.5 -19q83 0 172 61v88l-174 -18q-74 -6 -74 -62z" />
<glyph unicode="&#xab;" horiz-adv-x="1013" d="M82 502q0 41 24 71l312 349q16 8 37 8q27 0 46 -21.5t19 -46.5q0 -30 -22 -55l-273 -309l287 -332q6 -24 6 -35q0 -25 -21.5 -42t-45.5 -17q-37 0 -60 30l-293 330q-16 29 -16 70zM492 502q0 41 24 71l311 349q16 8 37 8q27 0 46.5 -22t19.5 -46q0 -29 -23 -55l-272 -309 l287 -332q6 -24 6 -35q0 -25 -22 -42t-46 -17q-36 0 -59 30l-293 330q-16 29 -16 70z" />
<glyph unicode="&#xac;" horiz-adv-x="1110" d="M111 700q0 32 16 52t49 20h770q17 -27 17 -74v-415q-21 -21 -91 -21q-31 0 -50 16.5t-19 61.5v281h-676q-16 40 -16 79z" />
<glyph unicode="&#xad;" horiz-adv-x="874" d="M111 543q0 78 82 78h552q17 -20 17 -70q0 -82 -86 -82h-547q-18 36 -18 74z" />
<glyph unicode="&#xae;" horiz-adv-x="1193" d="M76 915q0 239 141 381t379 142t380 -142t142 -381q0 -238 -142 -379t-380 -141t-379 141t-141 379zM176 918q0 -194 113.5 -309t306.5 -115q194 0 308 115t114 309q0 195 -113.5 307t-308.5 112q-194 0 -307 -112t-113 -307zM406 688v486q13 8 51 8h172q72 0 121 -38 t49 -118q0 -58 -33.5 -96.5t-83.5 -55.5q13 -17 38 -59t45 -64t42 -22h27q8 -8 8 -33q0 -55 -68 -55q-33 0 -59.5 23.5t-42 54t-39 75t-43.5 70.5h-84v-213q-10 -10 -51 -10q-49 0 -49 47zM506 940h96q46 0 74.5 22.5t28.5 61.5q0 38 -25.5 58t-65.5 20h-108v-162z" />
<glyph unicode="&#xaf;" horiz-adv-x="929" d="M119 1243q0 37 17.5 53.5t74.5 16.5h561q16 -16 16 -49q0 -74 -108 -74h-545q-16 32 -16 53z" />
<glyph unicode="&#xb0;" horiz-adv-x="677" d="M66 1161q0 113 79.5 194t192.5 81q112 0 193 -81t81 -194t-80.5 -192.5t-193.5 -79.5q-114 0 -193 79t-79 193zM170 1161q0 -71 50 -120.5t120 -49.5t120 49.5t50 120.5t-50 120.5t-120 49.5t-120 -49.5t-50 -120.5z" />
<glyph unicode="&#xb1;" horiz-adv-x="1073" d="M111 53q0 29 16 47.5t49 18.5h770q17 -24 17 -68q0 -71 -74 -71h-762q-16 36 -16 73zM111 614q0 34 14.5 56t46.5 22h289v334q19 16 78 16q73 0 73 -75v-275h334q17 -21 17 -74q0 -77 -72 -77h-279v-334q-31 -17 -73 -17q-40 0 -59 18.5t-19 65.5v267h-334q-16 32 -16 73 z" />
<glyph unicode="&#xb2;" horiz-adv-x="702" d="M45 645q0 48 35 76q166 116 230 170q190 161 190 280q0 72 -49 110t-134 38q-70 0 -134 -28.5t-89 -67.5q-43 21 -43 67q0 48 75.5 95t195.5 47q145 0 222 -65.5t77 -178.5q0 -77 -42.5 -155.5t-111 -143.5t-132.5 -112t-130 -85v-8l444 6q10 -20 10 -55q0 -51 -43 -51 h-561q-10 23 -10 61z" />
<glyph unicode="&#xb3;" horiz-adv-x="692" d="M43 737q0 53 47 68q54 -123 223 -123q97 0 146 39.5t49 103.5q0 63 -43.5 97t-120.5 34h-43q-15 0 -23 13.5t-8 34.5q0 20 9 47q97 0 150.5 36.5t53.5 98.5q0 59 -45 94t-129 35q-70 0 -127 -24t-82 -62q-21 10 -31 23.5t-10 39.5q0 49 68 94.5t190 45.5q139 0 212 -64 t73 -164q0 -67 -39 -121t-100 -69v-2q68 -10 115 -61.5t47 -135.5q0 -103 -76.5 -171.5t-229.5 -68.5q-75 0 -132 16.5t-86.5 42t-43.5 52t-14 51.5z" />
<glyph unicode="&#xb4;" horiz-adv-x="1062" d="M293 1186q22 12 68 52t88.5 78t90 68.5t76.5 30.5q78 0 78 -69q-39 -21 -110 -78t-130 -98.5t-89 -41.5q-59 0 -72 58z" />
<glyph unicode="&#xb5;" horiz-adv-x="1234" d="M59 909q3 78 160 78q44 0 74 -14t46 -33.5t24.5 -56.5t10 -66.5t1.5 -79.5v-334q0 -132 38.5 -199t131.5 -67q106 0 197.5 57t146.5 158v617q35 18 88 18q39 0 56.5 -15t17.5 -46q0 -123 1 -368t1 -368q0 -32 11 -44.5t36 -12.5h80q6 -18 6 -51q0 -50 -84 -66 q-43 -8 -73 2.5t-54 44.5q-63 63 -78 134q-156 -206 -367 -215q-112 -3 -165 47v-398q-22 -16 -80 -16q-72 0 -72 131v1042q0 56 -51 56h-94q-9 40 -9 65z" />
<glyph unicode="&#xb6;" horiz-adv-x="1398" d="M106 963q0 197 137 334t339 137h700q16 -24 16 -66q0 -86 -65 -86h-129v-1573q-22 -18 -70 -18q-84 0 -84 78v1513h-215l-2 -1321q0 -104 -56 -151.5t-138 -47.5q-35 0 -58.5 25t-23.5 61q59 12 92 42t33 90v514q-196 0 -336 137.5t-140 331.5z" />
<glyph unicode="&#xb7;" horiz-adv-x="350" d="M82 537q0 96 92 96q94 0 94 -96q0 -93 -94 -93q-92 0 -92 93z" />
<glyph unicode="&#xb8;" horiz-adv-x="1136" d="M393 -311q0 35 39 55q14 -22 46 -37.5t69 -15.5q41 0 65.5 20.5t24.5 59.5q0 42 -39 62t-92 22q-12 12 -12 41l2 137l100 -2l-8 -105q143 -19 143 -164q0 -76 -48 -119.5t-130 -43.5q-76 0 -118 27.5t-42 62.5z" />
<glyph unicode="&#xb9;" horiz-adv-x="651" d="M70 1262q0 28 12 45q76 6 138 38t83 80q22 11 59 11q58 0 58 -45v-701h182q14 -14 14 -45q0 -61 -47 -61h-467q-14 24 -14 49q0 29 13.5 43t54.5 14h147v586q-41 -33 -92 -51.5t-92 -18.5q-49 0 -49 56z" />
<glyph unicode="&#xba;" horiz-adv-x="600" d="M59 973q0 129 67 194.5t177 65.5t174 -65t64 -195q0 -134 -65.5 -197t-176.5 -63q-112 0 -176 63t-64 197zM164 971q0 -170 135 -170q137 0 137 170q0 86 -35.5 129t-97.5 43q-63 0 -101 -43.5t-38 -128.5z" />
<glyph unicode="&#xbb;" horiz-adv-x="1013" d="M82 139q0 31 22 56l273 309l-287 332q-6 24 -6 34q0 25 22 42.5t46 17.5q35 0 59 -31l293 -330q16 -29 16 -69q0 -42 -24 -72l-312 -348q-16 -8 -37 -8q-27 0 -46 21.5t-19 45.5zM494 139q0 31 22 56l272 309l-286 332q-6 24 -6 34q0 25 21.5 42.5t45.5 17.5q36 0 60 -31 l292 -330q17 -31 17 -69q0 -41 -25 -72l-311 -348q-16 -8 -37 -8q-27 0 -46 21.5t-19 45.5z" />
<glyph unicode="&#xbc;" horiz-adv-x="1740" d="M70 1262q0 28 12 45q76 6 138 38t83 80q22 11 59 11q58 0 58 -45v-701h182q14 -14 14 -45q0 -61 -47 -61h-467q-14 24 -14 49q0 29 13.5 43t54.5 14h147v586q-41 -33 -92 -51.5t-92 -18.5q-49 0 -49 56zM571 80l502 1343q25 11 64 11q36 0 51.5 -17t5.5 -47l-514 -1362 q-28 -12 -64 -12q-78 0 -45 84zM1024 211q0 24 10 51l189 576q23 10 65 10q24 0 34.5 -13t4.5 -34l-172 -533h293v314q28 16 59 16q54 0 54 -43v-287h122q13 -13 13 -49q0 -47 -39 -47h-96l2 -162q-20 -10 -64 -10q-49 0 -49 43l-2 129h-414q-10 12 -10 39z" />
<glyph unicode="&#xbd;" horiz-adv-x="1808" d="M70 1262q0 28 12 45q76 6 138 38t83 80q22 11 59 11q58 0 58 -45v-701h182q14 -14 14 -45q0 -61 -47 -61h-467q-14 24 -14 49q0 29 13.5 43t54.5 14h147v586q-41 -33 -92 -51.5t-92 -18.5q-49 0 -49 56zM571 80l502 1343q25 11 64 11q36 0 51.5 -17t5.5 -47l-514 -1362 q-28 -12 -64 -12q-78 0 -45 84zM1149 61q0 48 35 76q169 118 236 176q183 158 184 275q0 72 -49 109.5t-134 37.5q-70 0 -134 -28.5t-89 -67.5q-43 21 -43 68q0 48 75 94.5t195 46.5q145 0 222 -65.5t77 -178.5q0 -62 -29.5 -126.5t-73 -116.5t-102 -103t-109 -85.5 t-101.5 -63.5v-9l444 6q10 -20 10 -55q0 -51 -43 -51h-561q-10 23 -10 61z" />
<glyph unicode="&#xbe;" horiz-adv-x="1697" d="M43 737q0 53 47 68q54 -123 223 -123q97 0 146 39.5t49 103.5q0 63 -43.5 97t-120.5 34h-43q-15 0 -23 13.5t-8 34.5q0 20 9 47q97 0 150.5 36.5t53.5 98.5q0 59 -45 94t-129 35q-70 0 -127 -24t-82 -62q-21 10 -31 23.5t-10 39.5q0 49 68 94.5t190 45.5q139 0 212 -64 t73 -164q0 -67 -39 -121t-100 -69v-2q68 -10 115 -61.5t47 -135.5q0 -103 -76.5 -171.5t-229.5 -68.5q-75 0 -132 16.5t-86.5 42t-43.5 52t-14 51.5zM528 80l502 1343q25 11 64 11q36 0 51.5 -17t5.5 -47l-514 -1362q-28 -12 -64 -12q-78 0 -45 84zM983 211q0 24 10 51 l189 576q23 10 65 10q24 0 34.5 -13t4.5 -34l-172 -533h293v314q28 16 59 16q54 0 54 -43v-287h122q13 -13 13 -49q0 -47 -39 -47h-96l2 -162q-20 -10 -64 -10q-49 0 -49 43l-2 129h-414q-10 12 -10 39z" />
<glyph unicode="&#xbf;" d="M68 -12q0 128 55 221.5t145.5 142.5t210.5 62l-12 270q24 21 78 21q60 0 63 -64l8 -266q0 -45 -16 -64q-70 -2 -134.5 -19t-120 -50.5t-89 -90.5t-33.5 -131q0 -147 81.5 -217.5t221.5 -70.5q119 0 210 47.5t122 116.5q66 -24 66 -93q0 -34 -25 -72.5t-72 -74t-128 -59 t-181 -23.5q-207 0 -328.5 111t-121.5 303zM432 895q0 45 24.5 68.5t69.5 23.5q95 0 95 -92q0 -96 -95 -96q-94 0 -94 96z" />
<glyph unicode="&#xc0;" horiz-adv-x="1310" d="M37 23l528 1384q18 10 25.5 14t26.5 8.5t42 4.5q68 0 91 -62l524 -1335q-17 -37 -78 -37q-71 0 -90 63l-115 285h-674l-112 -297q-10 -28 -31 -39.5t-59 -11.5q-55 0 -78 23zM369 483h569l-289 731zM436 1790q4 70 80 70q36 0 99.5 -48t130.5 -108t92 -74 q-12 -57 -70 -57q-30 0 -89.5 41t-131.5 98t-111 78z" />
<glyph unicode="&#xc1;" horiz-adv-x="1310" d="M37 23l528 1384q18 10 25.5 14t26.5 8.5t42 4.5q68 0 91 -62l524 -1335q-17 -37 -78 -37q-71 0 -90 63l-115 285h-674l-112 -297q-10 -28 -31 -39.5t-59 -11.5q-55 0 -78 23zM369 483h569l-289 731zM463 1632q25 14 91.5 74t130.5 108t101 48q78 0 78 -70 q-39 -21 -110.5 -78t-130 -98t-88.5 -41q-60 0 -72 57z" />
<glyph unicode="&#xc2;" horiz-adv-x="1310" d="M37 23l528 1384q18 10 25.5 14t26.5 8.5t42 4.5q68 0 91 -62l524 -1335q-17 -37 -78 -37q-71 0 -90 63l-115 285h-674l-112 -297q-10 -28 -31 -39.5t-59 -11.5q-55 0 -78 23zM330 1634q25 13 90.5 73t129 108.5t101.5 48.5q37 0 100.5 -47.5t131.5 -107.5t98 -75 q-10 -47 -49 -53q-16 -7 -39 0q-26 7 -64.5 32t-92.5 66.5t-81 59.5q-26 -18 -81 -59.5t-93.5 -66.5t-64.5 -32q-20 -7 -37 0q-39 6 -49 53zM369 483h569l-289 731z" />
<glyph unicode="&#xc3;" horiz-adv-x="1310" d="M37 23l528 1384q18 10 25.5 14t26.5 8.5t42 4.5q68 0 91 -62l524 -1335q-17 -37 -78 -37q-71 0 -90 63l-115 285h-674l-112 -297q-10 -28 -31 -39.5t-59 -11.5q-55 0 -78 23zM332 1683q0 36 43.5 72.5t109.5 36.5q59 0 169.5 -31.5t158.5 -31.5q86 0 129 49q13 -7 25 -27 t12 -43q0 -39 -37.5 -66.5t-103.5 -27.5q-56 0 -183 29.5t-172 29.5q-38 0 -71.5 -17.5t-38.5 -35.5q-41 13 -41 63zM369 483h569l-289 731z" />
<glyph unicode="&#xc4;" horiz-adv-x="1310" d="M37 23l528 1384q18 10 25.5 14t26.5 8.5t42 4.5q68 0 91 -62l524 -1335q-17 -37 -78 -37q-71 0 -90 63l-115 285h-674l-112 -297q-10 -28 -31 -39.5t-59 -11.5q-55 0 -78 23zM346 1706q0 94 94 94q45 0 70 -24t25 -70q0 -92 -95 -92q-94 0 -94 92zM369 483h569l-289 731z M776 1706q0 94 92 94q95 0 95 -94q0 -92 -95 -92q-92 0 -92 92z" />
<glyph unicode="&#xc5;" horiz-adv-x="1310" d="M37 23l528 1384q18 10 25.5 14t26.5 8.5t42 4.5q68 0 91 -62l524 -1335q-17 -37 -78 -37q-71 0 -90 63l-115 285h-674l-112 -297q-10 -28 -31 -39.5t-59 -11.5q-55 0 -78 23zM369 483h569l-289 731zM475 1743q0 180 180 180q89 0 135 -46.5t46 -133.5q0 -88 -46 -134 t-135 -46q-180 0 -180 180zM559 1743q0 -46 24.5 -71t71.5 -25q46 0 71.5 25t25.5 71q0 45 -26 70.5t-71 25.5q-96 0 -96 -96z" />
<glyph unicode="&#xc6;" horiz-adv-x="2002" d="M37 23l557 1384q40 27 166 27h1118q18 -18 18 -66q0 -39 -17 -62.5t-48 -23.5h-758v-471h684q19 -24 19 -72q0 -38 -16.5 -59t-47.5 -21h-639v-507h805q18 -18 18 -66q0 -39 -17 -62.5t-48 -23.5h-846q-33 0 -52.5 15.5t-19.5 60.5v272h-583l-119 -297q-10 -28 -31 -39.5 t-59 -11.5q-61 0 -84 23zM383 485h530v797h-211z" />
<glyph unicode="&#xc7;" horiz-adv-x="1312" d="M131 717q0 185 43.5 326.5t123 231t187.5 134.5t242 45q168 0 271 -45t169 -125q45 -39 45 -88q0 -28 -17 -47t-42 -27q-71 90 -172 135.5t-248 45.5q-205 0 -324.5 -148t-119.5 -440q0 -588 454 -588q277 0 422 174q26 2 48 -14.5t22 -50.5q0 -56 -53 -95 q-161 -161 -445 -161q-136 0 -245 42.5t-191 129.5t-126 230.5t-44 334.5zM592 -311q0 35 39 55q14 -22 46 -37.5t68 -15.5q41 0 66 20.5t25 59.5q0 42 -39 62t-92 22q-13 13 -13 41l2 137l101 -2l-9 -105q144 -19 144 -164q0 -76 -48 -119.5t-130 -43.5q-76 0 -118 27.5 t-42 62.5z" />
<glyph unicode="&#xc8;" horiz-adv-x="1302" d="M213 76v1341q27 17 76 17h889q18 -18 18 -66q0 -40 -16.5 -63t-49.5 -23h-757v-471h684q18 -18 18 -72q0 -80 -63 -80h-639v-507h805q18 -18 18 -66q0 -40 -16.5 -63t-49.5 -23h-845q-32 0 -52 15.5t-20 60.5zM483 1790q4 70 80 70q36 0 99.5 -48t130.5 -108t92 -74 q-12 -57 -70 -57q-30 0 -89.5 41t-131.5 98t-111 78z" />
<glyph unicode="&#xc9;" horiz-adv-x="1302" d="M213 76v1341q27 17 76 17h889q18 -18 18 -66q0 -40 -16.5 -63t-49.5 -23h-757v-471h684q18 -18 18 -72q0 -80 -63 -80h-639v-507h805q18 -18 18 -66q0 -40 -16.5 -63t-49.5 -23h-845q-32 0 -52 15.5t-20 60.5zM483 1632q25 14 92 74t131 108t101 48q78 0 78 -70 q-39 -21 -110.5 -78t-130.5 -98t-89 -41q-60 0 -72 57z" />
<glyph unicode="&#xca;" horiz-adv-x="1302" d="M213 76v1341q27 17 76 17h889q18 -18 18 -66q0 -40 -16.5 -63t-49.5 -23h-757v-471h684q18 -18 18 -72q0 -80 -63 -80h-639v-507h805q18 -18 18 -66q0 -40 -16.5 -63t-49.5 -23h-845q-32 0 -52 15.5t-20 60.5zM373 1634q25 13 90.5 73t129 108.5t101.5 48.5 q37 0 100.5 -47.5t131.5 -107.5t98 -75q-10 -47 -49 -53q-16 -7 -39 0q-26 7 -64.5 32t-92.5 66.5t-81 59.5q-26 -18 -81 -59.5t-93.5 -66.5t-64.5 -32q-20 -7 -37 0q-39 6 -49 53z" />
<glyph unicode="&#xcb;" horiz-adv-x="1302" d="M213 76v1341q27 17 76 17h889q18 -18 18 -66q0 -40 -16.5 -63t-49.5 -23h-757v-471h684q18 -18 18 -72q0 -80 -63 -80h-639v-507h805q18 -18 18 -66q0 -40 -16.5 -63t-49.5 -23h-845q-32 0 -52 15.5t-20 60.5zM408 1706q0 94 94 94t94 -94q0 -92 -94 -92t-94 92z M838 1706q0 94 92 94q94 0 94 -94q0 -92 -94 -92q-92 0 -92 92z" />
<glyph unicode="&#xcc;" horiz-adv-x="585" d="M92 1790q4 70 80 70q36 0 99.5 -48t130.5 -108t92 -74q-12 -57 -70 -57q-30 0 -89.5 41t-131.5 98t-111 78zM213 76v1341q31 17 86 17q74 0 74 -64v-1350q-33 -20 -86 -20q-74 0 -74 76z" />
<glyph unicode="&#xcd;" horiz-adv-x="585" d="M92 1632q25 14 92 74t131 108t101 48q78 0 78 -70q-39 -21 -110.5 -78t-130.5 -98t-89 -41q-60 0 -72 57zM213 76v1341q31 17 86 17q74 0 74 -64v-1350q-33 -20 -86 -20q-74 0 -74 76z" />
<glyph unicode="&#xce;" horiz-adv-x="585" d="M-33 1634q25 13 91 73t129.5 108.5t101.5 48.5q37 0 100.5 -47.5t131 -107.5t97.5 -75q-10 -47 -49 -53q-16 -7 -39 0q-26 7 -64 32t-92 66.5t-81 59.5q-26 -17 -81.5 -59t-94 -67t-64.5 -32q-20 -7 -37 0q-39 6 -49 53zM213 76v1341q31 17 86 17q74 0 74 -64v-1350 q-33 -20 -86 -20q-74 0 -74 76z" />
<glyph unicode="&#xcf;" horiz-adv-x="585" d="M-14 1706q0 94 94 94t94 -94q0 -92 -94 -92t-94 92zM213 76v1341q31 17 86 17q74 0 74 -64v-1350q-33 -20 -86 -20q-74 0 -74 76zM416 1706q0 94 92 94q94 0 94 -94q0 -92 -94 -92q-92 0 -92 92z" />
<glyph unicode="&#xd0;" horiz-adv-x="1425" d="M33 700q0 80 82 80h98v637q27 17 80 17h278q367 0 545 -178.5t178 -555.5q0 -153 -30 -271.5t-85.5 -199t-138.5 -132t-184.5 -74.5t-228.5 -23h-328q-49 0 -67.5 34t-18.5 105v490h-162q-18 36 -18 71zM373 143h248q259 0 386.5 128.5t127.5 424.5q0 301 -135 444.5 t-418 143.5h-209v-504h336q16 -22 16 -71q0 -80 -86 -80h-266v-486z" />
<glyph unicode="&#xd1;" horiz-adv-x="1503" d="M213 74v1343q34 17 84 17q47 0 74 -39l768 -1108l-4 1126q28 21 75 21q35 0 59.5 -15.5t24.5 -48.5v-1356q-24 -14 -82 -14q-45 0 -75 41l-772 1087l8 -1110q-22 -18 -90 -18q-20 0 -33.5 4t-25 21.5t-11.5 48.5zM428 1683q0 36 44 72.5t110 36.5q59 0 169 -31.5 t158 -31.5q86 0 129 49q13 -7 25 -27t12 -43q0 -39 -37.5 -66.5t-103.5 -27.5q-56 0 -182.5 29.5t-171.5 29.5q-38 0 -72 -17.5t-39 -35.5q-41 13 -41 63z" />
<glyph unicode="&#xd2;" horiz-adv-x="1458" d="M131 717q0 184 44 326t125 231.5t190.5 134.5t244.5 45q273 0 431.5 -186t158.5 -551q0 -194 -42.5 -337.5t-122 -230t-185.5 -128t-240 -41.5q-136 0 -244.5 42.5t-190 129.5t-125.5 230.5t-44 334.5zM287 715q0 -158 33 -274.5t94 -186t141.5 -102.5t181.5 -33 q432 0 432 596q0 294 -116.5 445t-317.5 151q-208 0 -328 -151.5t-120 -444.5zM528 1790q4 70 80 70q36 0 99.5 -48t130.5 -108t92 -74q-12 -57 -70 -57q-30 0 -89.5 41t-131.5 98t-111 78z" />
<glyph unicode="&#xd3;" horiz-adv-x="1458" d="M131 717q0 184 44 326t125 231.5t190.5 134.5t244.5 45q273 0 431.5 -186t158.5 -551q0 -194 -42.5 -337.5t-122 -230t-185.5 -128t-240 -41.5q-136 0 -244.5 42.5t-190 129.5t-125.5 230.5t-44 334.5zM287 715q0 -158 33 -274.5t94 -186t141.5 -102.5t181.5 -33 q432 0 432 596q0 294 -116.5 445t-317.5 151q-208 0 -328 -151.5t-120 -444.5zM526 1632q25 14 92 74t131 108t101 48q78 0 78 -70q-39 -21 -110.5 -78t-130.5 -98t-89 -41q-60 0 -72 57z" />
<glyph unicode="&#xd4;" horiz-adv-x="1458" d="M131 717q0 184 44 326t125 231.5t190.5 134.5t244.5 45q273 0 431.5 -186t158.5 -551q0 -194 -42.5 -337.5t-122 -230t-185.5 -128t-240 -41.5q-136 0 -244.5 42.5t-190 129.5t-125.5 230.5t-44 334.5zM287 715q0 -158 33 -274.5t94 -186t141.5 -102.5t181.5 -33 q432 0 432 596q0 294 -116.5 445t-317.5 151q-208 0 -328 -151.5t-120 -444.5zM403 1634q25 13 91 73t129.5 108.5t101.5 48.5q37 0 100.5 -47.5t131.5 -107.5t98 -75q-10 -47 -49 -53q-16 -7 -39 0q-26 7 -64.5 32t-92.5 66.5t-81 59.5q-26 -17 -81.5 -59t-94 -67 t-64.5 -32q-20 -7 -36 0q-40 6 -50 53z" />
<glyph unicode="&#xd5;" horiz-adv-x="1458" d="M131 717q0 184 44 326t125 231.5t190.5 134.5t244.5 45q273 0 431.5 -186t158.5 -551q0 -194 -42.5 -337.5t-122 -230t-185.5 -128t-240 -41.5q-136 0 -244.5 42.5t-190 129.5t-125.5 230.5t-44 334.5zM287 715q0 -158 33 -274.5t94 -186t141.5 -102.5t181.5 -33 q432 0 432 596q0 294 -116.5 445t-317.5 151q-208 0 -328 -151.5t-120 -444.5zM406 1683q0 36 43.5 72.5t109.5 36.5q59 0 169.5 -31.5t158.5 -31.5q86 0 129 49q13 -7 25 -27t12 -43q0 -39 -38 -66.5t-104 -27.5q-56 0 -182.5 29.5t-171.5 29.5q-38 0 -72 -17.5t-39 -35.5 q-40 13 -40 63z" />
<glyph unicode="&#xd6;" horiz-adv-x="1458" d="M131 717q0 184 44 326t125 231.5t190.5 134.5t244.5 45q273 0 431.5 -186t158.5 -551q0 -194 -42.5 -337.5t-122 -230t-185.5 -128t-240 -41.5q-136 0 -244.5 42.5t-190 129.5t-125.5 230.5t-44 334.5zM287 715q0 -158 33 -274.5t94 -186t141.5 -102.5t181.5 -33 q432 0 432 596q0 294 -116.5 445t-317.5 151q-208 0 -328 -151.5t-120 -444.5zM420 1706q0 94 94 94t94 -94q0 -92 -94 -92t-94 92zM850 1706q0 94 92 94q94 0 94 -94q0 -92 -94 -92q-92 0 -92 92z" />
<glyph unicode="&#xd7;" horiz-adv-x="964" d="M141 780q0 25 31 56q65 65 141 -11l170 -172l236 236q22 0 55 -33q64 -64 -12 -139l-170 -170l233 -236q-2 -4 -4.5 -11t-4 -11.5t-5 -10.5t-8.5 -12.5t-12 -13.5q-19 -20 -35.5 -28t-39.5 -1t-50 33l-183 182l-235 -235q-42 17 -60 35q-20 20 -27.5 36.5t-0.5 39.5 t35 51l180 180z" />
<glyph unicode="&#xd8;" horiz-adv-x="1458" d="M131 717q0 184 44 326t125 231.5t190.5 134.5t244.5 45q116 0 217 -37l92 236q20 10 58 10q24 0 39.5 -12.5t17.5 -30.5q0 -14 -6 -29l-92 -233q128 -81 196 -243t68 -398q0 -194 -42.5 -337.5t-122 -230t-185.5 -128t-240 -41.5q-112 0 -203 26l-108 -280q-16 -7 -49 -7 q-24 0 -44 12t-20 31q0 17 8 33l103 266q-291 158 -291 656zM287 715q0 -379 200 -502l406 1069q-79 29 -158 29q-208 0 -328 -151.5t-120 -444.5zM592 137q64 -18 145 -18q432 0 432 596q0 344 -178 483z" />
<glyph unicode="&#xd9;" horiz-adv-x="1435" d="M199 1417q27 17 82 17q77 0 77 -64v-827q0 -212 84 -315t275 -103q199 0 283.5 101.5t84.5 314.5v876q27 17 80 17q80 0 80 -64v-850q0 -540 -528 -540q-265 0 -390.5 132t-125.5 408zM516 1790q4 70 80 70q36 0 99.5 -48t130.5 -108t92 -74q-12 -57 -70 -57 q-30 0 -89.5 41t-131.5 98t-111 78z" />
<glyph unicode="&#xda;" horiz-adv-x="1435" d="M199 1417q27 17 82 17q77 0 77 -64v-827q0 -212 84 -315t275 -103q199 0 283.5 101.5t84.5 314.5v876q27 17 80 17q80 0 80 -64v-850q0 -540 -528 -540q-265 0 -390.5 132t-125.5 408zM516 1632q25 14 92 74t131 108t101 48q78 0 78 -70q-39 -21 -110.5 -78t-130.5 -98 t-89 -41q-60 0 -72 57z" />
<glyph unicode="&#xdb;" horiz-adv-x="1435" d="M199 1417q27 17 82 17q77 0 77 -64v-827q0 -212 84 -315t275 -103q199 0 283.5 101.5t84.5 314.5v876q27 17 80 17q80 0 80 -64v-850q0 -540 -528 -540q-265 0 -390.5 132t-125.5 408zM391 1634q25 13 91 73t129.5 108.5t101.5 48.5q37 0 100.5 -47.5t131 -107.5 t97.5 -75q-10 -47 -49 -53q-16 -7 -39 0q-26 7 -64 32t-92 66.5t-81 59.5q-26 -17 -81.5 -59t-94 -67t-64.5 -32q-20 -7 -37 0q-39 6 -49 53z" />
<glyph unicode="&#xdc;" horiz-adv-x="1435" d="M199 1417q27 17 82 17q77 0 77 -64v-827q0 -212 84 -315t275 -103q199 0 283.5 101.5t84.5 314.5v876q27 17 80 17q80 0 80 -64v-850q0 -540 -528 -540q-265 0 -390.5 132t-125.5 408zM410 1706q0 94 94 94t94 -94q0 -92 -94 -92t-94 92zM840 1706q0 94 92 94 q94 0 94 -94q0 -92 -94 -92q-92 0 -92 92z" />
<glyph unicode="&#xdd;" horiz-adv-x="1210" d="M74 1409q41 25 90 25q33 0 50.5 -12t27.5 -42q126 -413 385 -792q126 189 241 443t140 392q22 11 75 11q23 0 38.5 -16.5t15.5 -39.5q-3 -120 -152.5 -419t-284.5 -482v-459q-25 -18 -88 -18q-69 0 -69 59v412q-153 219 -276 462.5t-193 475.5zM403 1632q25 14 92 74 t131 108t101 48q78 0 78 -70q-39 -21 -110.5 -78t-130.5 -98t-89 -41q-60 0 -72 57z" />
<glyph unicode="&#xde;" horiz-adv-x="1214" d="M193 74v1345q30 15 94 15q29 0 47 -13t18 -37v-208h369q86 0 158 -25.5t127.5 -76t86.5 -132.5t31 -188q0 -101 -26 -179.5t-68.5 -127.5t-102.5 -81t-123 -44.5t-134 -12.5h-318v-293q-26 -16 -88 -16q-71 0 -71 74zM352 444h285q78 0 137 15t105 48.5t70 92.5t24 143 q0 150 -73 225.5t-204 75.5h-344v-600z" />
<glyph unicode="&#xdf;" horiz-adv-x="1261" d="M131 18v959q0 119 36 209.5t98.5 143.5t138 78.5t163.5 25.5q79 0 146 -19t120 -57t83 -101.5t30 -146.5q0 -158 -22 -231q-36 4 -82 4q-100 0 -153.5 -38.5t-53.5 -105.5q0 -58 55 -97t174 -67q145 -34 216.5 -104t72.5 -201q0 -132 -86.5 -211t-247.5 -79 q-138 0 -239 55t-101 112q0 49 31 80q46 -39 131 -71.5t178 -32.5q96 0 145.5 42t49.5 101q0 69 -45.5 109.5t-155.5 64.5q-155 37 -236 109.5t-81 191.5t76 192.5t223 82.5q6 27 6 90q0 89 -65.5 134.5t-168.5 45.5q-56 0 -102.5 -15.5t-88 -51.5t-64.5 -105t-23 -166v-907 q0 -18 -21 -29.5t-51 -11.5q-59 0 -86 18z" />
<glyph unicode="&#xe0;" d="M66 285q0 123 70.5 196t207.5 80l346 21v88q0 194 -213 194q-88 0 -174.5 -21.5t-128.5 -49.5q-29 25 -29 65q0 46 55.5 81.5t131 52t151.5 16.5q72 0 132 -16t108.5 -49.5t76 -92.5t27.5 -139v-527q0 -71 52 -71h57q12 -16 12 -54q0 -59 -131 -59q-58 0 -92.5 39 t-34.5 102v9q-173 -170 -354 -170q-132 0 -201 83t-69 222zM207 283q0 -72 39 -120t112 -48q160 0 332 159v193l-338 -33q-145 -14 -145 -151zM229 1343q4 70 80 70q36 0 99.5 -47.5t130.5 -107.5t92 -74q-13 -58 -70 -58q-30 0 -89.5 41t-131.5 98t-111 78z" />
<glyph unicode="&#xe1;" d="M66 285q0 123 70.5 196t207.5 80l346 21v88q0 194 -213 194q-88 0 -174.5 -21.5t-128.5 -49.5q-29 25 -29 65q0 46 55.5 81.5t131 52t151.5 16.5q72 0 132 -16t108.5 -49.5t76 -92.5t27.5 -139v-527q0 -71 52 -71h57q12 -16 12 -54q0 -59 -131 -59q-58 0 -92.5 39 t-34.5 102v9q-173 -170 -354 -170q-132 0 -201 83t-69 222zM207 283q0 -72 39 -120t112 -48q160 0 332 159v193l-338 -33q-145 -14 -145 -151zM338 1186q25 14 92 74t131 107.5t101 47.5q77 0 77 -69q-39 -21 -110 -78t-130 -98.5t-89 -41.5q-59 0 -72 58z" />
<glyph unicode="&#xe2;" d="M66 285q0 123 70.5 196t207.5 80l346 21v88q0 194 -213 194q-88 0 -174.5 -21.5t-128.5 -49.5q-29 25 -29 65q0 46 55.5 81.5t131 52t151.5 16.5q72 0 132 -16t108.5 -49.5t76 -92.5t27.5 -139v-527q0 -71 52 -71h57q12 -16 12 -54q0 -59 -131 -59q-58 0 -92.5 39 t-34.5 102v9q-173 -170 -354 -170q-132 0 -201 83t-69 222zM154 1188q25 13 90.5 72.5t129 108t101.5 48.5q37 0 100.5 -47.5t131.5 -107t98 -74.5q-10 -47 -49 -53q-16 -7 -39 0q-26 7 -64 31.5t-93 66t-81 59.5q-26 -17 -81.5 -59t-93.5 -66.5t-64 -31.5q-20 -7 -37 0 q-39 6 -49 53zM207 283q0 -72 39 -120t112 -48q160 0 332 159v193l-338 -33q-145 -14 -145 -151z" />
<glyph unicode="&#xe3;" d="M66 285q0 123 70.5 196t207.5 80l346 21v88q0 194 -213 194q-88 0 -174.5 -21.5t-128.5 -49.5q-29 25 -29 65q0 46 55.5 81.5t131 52t151.5 16.5q72 0 132 -16t108.5 -49.5t76 -92.5t27.5 -139v-527q0 -71 52 -71h57q12 -16 12 -54q0 -59 -131 -59q-58 0 -92.5 39 t-34.5 102v9q-173 -170 -354 -170q-132 0 -201 83t-69 222zM164 1237q0 36 43.5 72.5t109.5 36.5q59 0 169.5 -32t158.5 -32q86 0 129 49q14 -7 25.5 -26.5t11.5 -42.5q0 -39 -37.5 -67t-103.5 -28q-56 0 -183 30t-172 30q-38 0 -71.5 -17.5t-38.5 -35.5q-41 13 -41 63z M207 283q0 -72 39 -120t112 -48q160 0 332 159v193l-338 -33q-145 -14 -145 -151z" />
<glyph unicode="&#xe4;" d="M66 285q0 123 70.5 196t207.5 80l346 21v88q0 194 -213 194q-88 0 -174.5 -21.5t-128.5 -49.5q-29 25 -29 65q0 46 55.5 81.5t131 52t151.5 16.5q72 0 132 -16t108.5 -49.5t76 -92.5t27.5 -139v-527q0 -71 52 -71h57q12 -16 12 -54q0 -59 -131 -59q-58 0 -92.5 39 t-34.5 102v9q-173 -170 -354 -170q-132 0 -201 83t-69 222zM174 1260q0 94 94 94t94 -94q0 -93 -94 -93t-94 93zM207 283q0 -72 39 -120t112 -48q160 0 332 159v193l-338 -33q-145 -14 -145 -151zM604 1260q0 94 92 94q95 0 95 -94q0 -93 -95 -93q-92 0 -92 93z" />
<glyph unicode="&#xe5;" d="M66 285q0 123 70.5 196t207.5 80l346 21v88q0 194 -213 194q-88 0 -174.5 -21.5t-128.5 -49.5q-29 25 -29 65q0 46 55.5 81.5t131 52t151.5 16.5q72 0 132 -16t108.5 -49.5t76 -92.5t27.5 -139v-527q0 -71 52 -71h57q12 -16 12 -54q0 -59 -131 -59q-58 0 -92.5 39 t-34.5 102v9q-173 -170 -354 -170q-132 0 -201 83t-69 222zM207 283q0 -72 39 -120t112 -48q160 0 332 159v193l-338 -33q-145 -14 -145 -151zM297 1296q0 181 180 181q88 0 134 -47t46 -134q0 -88 -45.5 -134t-134.5 -46q-180 0 -180 180zM381 1296q0 -46 24.5 -71 t71.5 -25q46 0 71 25t25 71q0 45 -25.5 71t-70.5 26q-96 0 -96 -97z" />
<glyph unicode="&#xe6;" horiz-adv-x="1607" d="M66 285q0 111 57.5 180.5t171.5 87.5q91 12 393 31q-2 117 -23.5 177t-64 81.5t-123.5 21.5q-88 0 -174.5 -21.5t-128.5 -49.5q-29 25 -29 65q0 46 55.5 81.5t131 52t151.5 16.5q53 0 100.5 -9t91.5 -29t75.5 -56.5t44.5 -86.5q59 89 148.5 135t191.5 46 q180 0 275 -118.5t95 -307.5q0 -67 -14 -105h-647q12 -301 237 -348q47 -6 97 -6q91 3 167 31.5t115 60.5q35 -23 35 -68q0 -61 -97.5 -114t-269.5 -53q-123 0 -218.5 56.5t-149.5 160.5q-90 -95 -204.5 -156t-219.5 -61q-132 0 -201 83t-69 222zM207 283q0 -71 39 -119.5 t112 -48.5q87 0 179 49.5t176 136.5q-18 65 -21 139v27l-340 -33q-145 -14 -145 -151zM848 590h516q0 128 -57.5 203t-173.5 75q-104 0 -182.5 -71.5t-102.5 -206.5z" />
<glyph unicode="&#xe7;" horiz-adv-x="968" d="M125 492q0 111 25.5 200.5t68 147t100.5 96.5t119 55.5t127 16.5q73 0 128 -11t81.5 -23.5t61.5 -35.5q40 -23 43 -70q0 -41 -39 -80q-77 38 -127 51t-144 13q-61 0 -112 -19.5t-93 -60.5t-66 -113t-24 -170q0 -171 86 -268.5t226 -97.5q87 0 161.5 24.5t116.5 55.5 q27 -24 27 -68q0 -57 -62 -94q-103 -61 -251 -61q-207 0 -330 138t-123 374zM406 -311q0 36 38 55q14 -22 46 -37.5t69 -15.5q41 0 65.5 20.5t24.5 59.5q0 42 -39 62t-92 22q-12 12 -12 41l2 137l100 -2l-8 -105q143 -19 143 -164q0 -76 -48 -119.5t-130 -43.5 q-76 0 -117.5 27.5t-41.5 62.5z" />
<glyph unicode="&#xe8;" horiz-adv-x="1032" d="M115 489q0 125 37 226t100 164t142.5 96t166.5 33q179 0 274 -118.5t95 -307.5q0 -64 -15 -105h-649q3 -170 84.5 -262t214.5 -92q99 0 188.5 29.5t131.5 62.5q35 -21 35 -68t-35 -71q-129 -96 -332 -96q-198 0 -318 139.5t-120 369.5zM274 590h517q0 128 -58.5 203 t-175.5 75q-104 0 -182.5 -71.5t-100.5 -206.5zM311 1343q4 70 80 70q36 0 99.5 -47.5t130.5 -107.5t92 -74q-13 -58 -70 -58q-30 0 -89.5 41t-131.5 98t-111 78z" />
<glyph unicode="&#xe9;" horiz-adv-x="1032" d="M115 489q0 125 37 226t100 164t142.5 96t166.5 33q179 0 274 -118.5t95 -307.5q0 -64 -15 -105h-649q3 -170 84.5 -262t214.5 -92q99 0 188.5 29.5t131.5 62.5q35 -21 35 -68t-35 -71q-129 -96 -332 -96q-198 0 -318 139.5t-120 369.5zM274 590h517q0 128 -58.5 203 t-175.5 75q-104 0 -182.5 -71.5t-100.5 -206.5zM420 1186q22 12 68 52t88.5 78t90 68.5t76.5 30.5q78 0 78 -69q-39 -21 -110 -78t-130 -98.5t-89 -41.5q-59 0 -72 58z" />
<glyph unicode="&#xea;" horiz-adv-x="1032" d="M115 489q0 125 37 226t100 164t142.5 96t166.5 33q179 0 274 -118.5t95 -307.5q0 -64 -15 -105h-649q3 -170 84.5 -262t214.5 -92q99 0 188.5 29.5t131.5 62.5q35 -21 35 -68t-35 -71q-129 -96 -332 -96q-198 0 -318 139.5t-120 369.5zM238 1188q25 13 90.5 72.5t129 108 t101.5 48.5q37 0 100.5 -47.5t131.5 -107t98 -74.5q-10 -47 -49 -53q-16 -7 -39 0q-26 7 -64 31.5t-93 66t-81 59.5q-26 -17 -81.5 -59t-93.5 -66.5t-64 -31.5q-20 -7 -37 0q-39 6 -49 53zM274 590h517q0 128 -58.5 203t-175.5 75q-104 0 -182.5 -71.5t-100.5 -206.5z" />
<glyph unicode="&#xeb;" horiz-adv-x="1032" d="M115 489q0 125 37 226t100 164t142.5 96t166.5 33q179 0 274 -118.5t95 -307.5q0 -64 -15 -105h-649q3 -170 84.5 -262t214.5 -92q99 0 188.5 29.5t131.5 62.5q35 -21 35 -68t-35 -71q-129 -96 -332 -96q-198 0 -318 139.5t-120 369.5zM258 1260q0 94 94 94t94 -94 q0 -93 -94 -93t-94 93zM274 590h517q0 128 -58.5 203t-175.5 75q-104 0 -182.5 -71.5t-100.5 -206.5zM688 1260q0 94 92 94q94 0 94 -94q0 -93 -94 -93q-92 0 -92 93z" />
<glyph unicode="&#xec;" horiz-adv-x="598" d="M8 1343q4 70 80 70q36 0 99.5 -47.5t130.5 -107.5t92 -74q-13 -58 -70 -58q-30 0 -89.5 41t-131.5 98t-111 78zM102 903q0 42 35.5 63t95.5 21q74 0 111 -34.5t37 -125.5v-647q0 -53 47 -53h61q11 -22 11 -51q0 -76 -138 -76q-137 0 -137 139v645q0 58 -51 58h-59 q-13 23 -13 61z" />
<glyph unicode="&#xed;" horiz-adv-x="598" d="M102 903q0 42 35.5 63t95.5 21q74 0 111 -34.5t37 -125.5v-647q0 -53 47 -53h61q11 -22 11 -51q0 -76 -138 -76q-137 0 -137 139v645q0 58 -51 58h-59q-13 23 -13 61zM117 1186q22 12 68 52t88.5 78t90 68.5t76.5 30.5q78 0 78 -69q-39 -21 -110.5 -78t-130.5 -98.5 t-89 -41.5q-58 0 -71 58z" />
<glyph unicode="&#xee;" horiz-adv-x="598" d="M-68 1188q25 13 91 73t129.5 108t101.5 48q37 0 100.5 -47.5t131.5 -107t98 -74.5q-10 -47 -49 -53q-16 -7 -39 0q-26 7 -64 31.5t-93 66t-81 59.5q-25 -17 -81 -59t-94.5 -66.5t-64.5 -31.5q-20 -7 -36 0q-40 6 -50 53zM102 903q0 42 35.5 63t95.5 21q74 0 111 -34.5 t37 -125.5v-647q0 -53 47 -53h61q11 -22 11 -51q0 -76 -138 -76q-137 0 -137 139v645q0 58 -51 58h-59q-13 23 -13 61z" />
<glyph unicode="&#xef;" horiz-adv-x="598" d="M-47 1260q0 94 94 94t94 -94q0 -93 -94 -93t-94 93zM102 903q0 42 35.5 63t95.5 21q74 0 111 -34.5t37 -125.5v-647q0 -53 47 -53h61q11 -22 11 -51q0 -76 -138 -76q-137 0 -137 139v645q0 58 -51 58h-59q-13 23 -13 61zM383 1260q0 94 92 94q94 0 94 -94q0 -93 -94 -93 q-92 0 -92 93z" />
<glyph unicode="&#xf0;" horiz-adv-x="1126" d="M106 508q0 129 33 226.5t91 154.5t130.5 84.5t159.5 27.5q148 0 260 -71q-45 119 -110 219l-211 -59q-20 20 -27 47q-2 18 -1.5 33t19 29t58.5 26l90 24q-47 59 -113 117q16 43 47 66q71 50 113 8q64 -64 121 -146l182 52q20 -9 29 -43q15 -68 -76 -91l-67 -18 q174 -304 174 -629q0 -158 -31.5 -271t-92 -178t-140 -94.5t-183.5 -29.5q-103 0 -184.5 28.5t-143 89t-94.5 161t-33 237.5zM264 506q0 -371 297 -371q71 0 121.5 20.5t89 69t57.5 133t19 207.5q0 86 -21 193q-114 108 -284 108q-125 0 -202 -89.5t-77 -270.5z" />
<glyph unicode="&#xf1;" horiz-adv-x="1212" d="M78 909q0 78 145 78q74 0 116 -41t42 -119v-30q159 211 360 211q132 0 207.5 -85.5t75.5 -252.5v-500q0 -55 39 -55h80q8 -20 8 -43q0 -33 -38 -52.5t-114 -19.5q-68 0 -100.5 33.5t-32.5 109.5v490q0 104 -46.5 160.5t-127.5 56.5q-171 0 -311 -203v-629 q-27 -18 -88 -18q-76 0 -76 80v704q0 58 -51 58h-74q-14 35 -14 67zM283 1235q0 36 43.5 72t109.5 36q59 0 169.5 -31.5t158.5 -31.5q86 0 129 49q14 -7 25.5 -26.5t11.5 -42.5q0 -39 -38 -67t-104 -28q-56 0 -182.5 30t-171.5 30q-38 0 -71.5 -18t-38.5 -36q-41 13 -41 64z " />
<glyph unicode="&#xf2;" horiz-adv-x="1128" d="M115 492q0 255 124.5 385.5t331.5 130.5q206 0 323.5 -129.5t117.5 -386.5q0 -137 -33 -237t-94 -159.5t-141.5 -87.5t-182.5 -28q-101 0 -181 29t-140 89t-92.5 160t-32.5 234zM276 489q0 -366 285 -366q139 0 214 85.5t75 280.5q0 186 -73.5 279.5t-205.5 93.5 q-135 0 -215 -95t-80 -278zM324 1341q4 70 79 70q36 0 99.5 -47.5t130.5 -107.5t92 -74q-13 -58 -70 -58q-30 0 -89 41t-131 98t-111 78z" />
<glyph unicode="&#xf3;" horiz-adv-x="1128" d="M115 492q0 255 124.5 385.5t331.5 130.5q206 0 323.5 -129.5t117.5 -386.5q0 -137 -33 -237t-94 -159.5t-141.5 -87.5t-182.5 -28q-101 0 -181 29t-140 89t-92.5 160t-32.5 234zM276 489q0 -366 285 -366q139 0 214 85.5t75 280.5q0 186 -73.5 279.5t-205.5 93.5 q-135 0 -215 -95t-80 -278zM432 1184q25 14 92 74t131 107.5t101 47.5q78 0 78 -70q-39 -21 -110.5 -78t-130.5 -98t-89 -41q-59 0 -72 58z" />
<glyph unicode="&#xf4;" horiz-adv-x="1128" d="M115 492q0 255 124.5 385.5t331.5 130.5q206 0 323.5 -129.5t117.5 -386.5q0 -137 -33 -237t-94 -159.5t-141.5 -87.5t-182.5 -28q-101 0 -181 29t-140 89t-92.5 160t-32.5 234zM248 1186q25 13 90.5 72.5t129 108t101.5 48.5q37 0 100.5 -47.5t131.5 -107t98 -74.5 q-10 -47 -49 -53q-16 -7 -39 0q-26 7 -64 31.5t-93 66t-81 59.5q-26 -17 -81.5 -59t-93.5 -66.5t-64 -31.5q-20 -7 -37 0q-39 6 -49 53zM276 489q0 -366 285 -366q139 0 214 85.5t75 280.5q0 186 -73.5 279.5t-205.5 93.5q-135 0 -215 -95t-80 -278z" />
<glyph unicode="&#xf5;" horiz-adv-x="1128" d="M115 492q0 255 124.5 385.5t331.5 130.5q206 0 323.5 -129.5t117.5 -386.5q0 -137 -33 -237t-94 -159.5t-141.5 -87.5t-182.5 -28q-101 0 -181 29t-140 89t-92.5 160t-32.5 234zM258 1235q0 36 44 72t110 36q59 0 169 -31.5t158 -31.5q86 0 129 49q14 -7 25.5 -26.5 t11.5 -42.5q0 -39 -37.5 -67t-103.5 -28q-56 0 -182.5 30t-171.5 30q-38 0 -72 -18t-39 -36q-41 13 -41 64zM276 489q0 -366 285 -366q139 0 214 85.5t75 280.5q0 186 -73.5 279.5t-205.5 93.5q-135 0 -215 -95t-80 -278z" />
<glyph unicode="&#xf6;" horiz-adv-x="1128" d="M115 492q0 255 124.5 385.5t331.5 130.5q206 0 323.5 -129.5t117.5 -386.5q0 -137 -33 -237t-94 -159.5t-141.5 -87.5t-182.5 -28q-101 0 -181 29t-140 89t-92.5 160t-32.5 234zM268 1257q0 95 94 95q45 0 70 -24t25 -71q0 -92 -95 -92q-94 0 -94 92zM276 489 q0 -366 285 -366q139 0 214 85.5t75 280.5q0 186 -73.5 279.5t-205.5 93.5q-135 0 -215 -95t-80 -278zM698 1257q0 95 93 95q94 0 94 -95q0 -92 -94 -92q-93 0 -93 92z" />
<glyph unicode="&#xf7;" horiz-adv-x="1073" d="M111 522q0 32 16 52t49 20h770q17 -27 17 -74q0 -78 -74 -78h-762q-16 40 -16 80zM444 125q0 96 93 96q94 0 94 -96q0 -92 -94 -92q-93 0 -93 92zM444 899q0 96 93 96q94 0 94 -96q0 -92 -94 -92q-93 0 -93 92z" />
<glyph unicode="&#xf8;" horiz-adv-x="1128" d="M115 492q0 255 124.5 385.5t331.5 130.5q47 0 107 -11l82 260q31 9 49 9q38 0 41 -29q0 -18 -6 -33l-74 -235q242 -104 242 -477q0 -137 -33 -237t-94 -159.5t-141.5 -87.5t-182.5 -28q-49 0 -104 10l-62 -203q-24 -12 -55 -12t-37 22q-2 11 6 43l56 174 q-250 99 -250 478zM276 489q0 -251 140 -323l215 690q-30 6 -60 6q-135 0 -215 -95t-80 -278zM504 125q18 -2 57 -2q139 0 214 85.5t75 280.5q0 239 -133 320z" />
<glyph unicode="&#xf9;" horiz-adv-x="1212" d="M61 909q3 78 158 78q80 0 116 -33t36 -110v-500q0 -207 157 -207q191 0 318 217v615q34 18 88 18q76 0 76 -61v-736q0 -32 12 -44.5t35 -12.5h76q6 -36 6 -51q0 -38 -40 -60t-114 -22q-65 0 -102 35.5t-37 126.5v18q-153 -200 -365 -200q-274 0 -274 329v479q0 56 -47 56 h-90q-9 40 -9 65zM334 1341q4 70 80 70q28 0 75 -30.5t89.5 -68.5t88.5 -78t68 -52q-13 -58 -69 -58q-30 0 -89.5 41t-131.5 98t-111 78z" />
<glyph unicode="&#xfa;" horiz-adv-x="1212" d="M61 909q3 78 158 78q80 0 116 -33t36 -110v-500q0 -207 157 -207q191 0 318 217v615q34 18 88 18q76 0 76 -61v-736q0 -32 12 -44.5t35 -12.5h76q6 -36 6 -51q0 -38 -40 -60t-114 -22q-65 0 -102 35.5t-37 126.5v18q-153 -200 -365 -200q-274 0 -274 329v479q0 56 -47 56 h-90q-9 40 -9 65zM442 1184q25 14 92 74t131 107.5t101 47.5q78 0 78 -70q-39 -21 -110.5 -78t-130.5 -98t-89 -41q-59 0 -72 58z" />
<glyph unicode="&#xfb;" horiz-adv-x="1212" d="M61 909q3 78 158 78q80 0 116 -33t36 -110v-500q0 -207 157 -207q191 0 318 217v615q34 18 88 18q76 0 76 -61v-736q0 -32 12 -44.5t35 -12.5h76q6 -36 6 -51q0 -38 -40 -60t-114 -22q-65 0 -102 35.5t-37 126.5v18q-153 -200 -365 -200q-274 0 -274 329v479q0 56 -47 56 h-90q-9 40 -9 65zM260 1186q25 13 91 73t129.5 108t101.5 48q37 0 100.5 -47.5t131 -107t97.5 -74.5q-10 -47 -49 -53q-16 -7 -39 0q-26 7 -64 32t-92 66t-81 59q-25 -17 -81 -59t-94.5 -66.5t-64.5 -31.5q-20 -7 -37 0q-39 6 -49 53z" />
<glyph unicode="&#xfc;" horiz-adv-x="1212" d="M61 909q3 78 158 78q80 0 116 -33t36 -110v-500q0 -207 157 -207q191 0 318 217v615q34 18 88 18q76 0 76 -61v-736q0 -32 12 -44.5t35 -12.5h76q6 -36 6 -51q0 -38 -40 -60t-114 -22q-65 0 -102 35.5t-37 126.5v18q-153 -200 -365 -200q-274 0 -274 329v479q0 56 -47 56 h-90q-9 40 -9 65zM281 1257q0 95 94 95q45 0 69.5 -24t24.5 -71q0 -92 -94 -92t-94 92zM711 1257q0 95 92 95q94 0 94 -95q0 -92 -94 -92q-92 0 -92 92z" />
<glyph unicode="&#xfd;" horiz-adv-x="1105" d="M25 918q0 32 34 50.5t97 18.5q60 0 91.5 -25.5t51.5 -82.5l254 -672q14 -44 47 -51q103 203 177.5 388.5t74.5 262.5q0 55 -49 55h-74q-10 20 -10 56q0 31 36 50t89 19q164 0 164 -143q0 -138 -150 -473t-272 -529q-81 -129 -171 -178t-208 -49q-141 0 -141 80 q0 33 12 57h151q66 0 121 32t113 124l65 115q-32 6 -57 31.5t-39 64.5l-270 702q-14 41 -51 41h-76q-10 20 -10 56zM395 1186q25 14 92 74t131 107.5t101 47.5q78 0 78 -69q-39 -21 -110.5 -78t-130.5 -98.5t-89 -41.5q-59 0 -72 58z" />
<glyph unicode="&#xfe;" horiz-adv-x="1150" d="M199 -319v1738q43 15 86 15q71 0 71 -56v-540q64 78 146 124t170 46q59 0 109.5 -14t98 -49t81 -90.5t54 -143t21.5 -201.5q0 -131 -32.5 -234t-88.5 -166.5t-126.5 -96.5t-149.5 -33q-168 0 -283 120v-483q-27 -16 -82 -16q-75 0 -75 80zM356 266q110 -139 254 -139 q122 0 197.5 93t75.5 274q0 85 -15 149.5t-38.5 102t-57.5 61t-68 31.5t-75 8q-153 0 -273 -152v-428z" />
<glyph unicode="&#xff;" horiz-adv-x="1105" d="M25 918q0 32 34 50.5t97 18.5q60 0 91.5 -25.5t51.5 -82.5l254 -672q14 -44 47 -51q103 203 177.5 388.5t74.5 262.5q0 55 -49 55h-74q-10 20 -10 56q0 31 36 50t89 19q164 0 164 -143q0 -138 -150 -473t-272 -529q-81 -129 -171 -178t-208 -49q-141 0 -141 80 q0 33 12 57h151q66 0 121 32t113 124l65 115q-32 6 -57 31.5t-39 64.5l-270 702q-14 41 -51 41h-76q-10 20 -10 56zM231 1260q0 94 95 94q94 0 94 -94q0 -93 -94 -93q-95 0 -95 93zM662 1260q0 94 92 94q94 0 94 -94q0 -93 -94 -93q-92 0 -92 93z" />
<glyph unicode="&#x152;" horiz-adv-x="2109" d="M131 717q0 359 163.5 548t459.5 189q143 0 280 -31q22 11 68 11h885q16 -20 16 -66q0 -40 -16.5 -63t-49.5 -23h-757v-471h684q18 -18 18 -72q0 -80 -63 -80h-639v-507h807q16 -20 16 -66q0 -40 -16.5 -63t-49.5 -23h-841q-33 0 -45 8q-129 -28 -297 -28 q-143 0 -255.5 42.5t-195.5 129.5t-127.5 230t-44.5 335zM287 715q0 -310 123 -453t344 -143q145 0 266 33v1116q-113 43 -266 43q-221 0 -344 -150.5t-123 -445.5z" />
<glyph unicode="&#x153;" horiz-adv-x="1769" d="M115 492q0 255 124.5 385.5t331.5 130.5q130 0 225 -57t146 -169q57 111 155 168.5t212 57.5q179 0 273.5 -118.5t94.5 -307.5q0 -67 -14 -105h-647q6 -170 84 -262t213 -92q99 0 188 29.5t131 62.5q35 -21 35 -68q0 -61 -97.5 -114t-269.5 -53q-120 0 -213.5 56.5 t-146.5 158.5q-101 -215 -379 -215q-101 0 -181 29t-140 89t-92.5 160t-32.5 234zM276 489q0 -366 285 -366q135 0 210 82t79 270q0 194 -71.5 290.5t-207.5 96.5q-135 0 -215 -95t-80 -278zM1020 590h518q0 129 -56 202.5t-173 73.5q-104 0 -184.5 -70.5t-104.5 -205.5z " />
<glyph unicode="&#x178;" horiz-adv-x="1210" d="M74 1409q41 25 90 25q33 0 50.5 -12t27.5 -42q126 -413 385 -792q126 189 241 443t140 392q22 11 75 11q23 0 38.5 -16.5t15.5 -39.5q-3 -120 -152.5 -419t-284.5 -482v-459q-25 -18 -88 -18q-69 0 -69 59v412q-153 219 -276 462.5t-193 475.5zM297 1706q0 94 94 94 t94 -94q0 -92 -94 -92t-94 92zM727 1706q0 94 92 94q94 0 94 -94q0 -92 -94 -92q-92 0 -92 92z" />
<glyph unicode="&#x2c6;" horiz-adv-x="989" d="M150 1188q25 13 90.5 72.5t129 108t101.5 48.5q37 0 100.5 -47.5t131.5 -107t98 -74.5q-10 -47 -49 -53q-16 -7 -39 0q-26 7 -64 31.5t-93 66t-81 59.5q-26 -17 -81.5 -59t-93.5 -66.5t-64 -31.5q-20 -7 -37 0q-39 6 -49 53z" />
<glyph unicode="&#x2dc;" horiz-adv-x="1054" d="M119 1237q0 36 43.5 72.5t109.5 36.5q59 0 169.5 -32t158.5 -32q86 0 129 49q14 -7 25.5 -26.5t11.5 -42.5q0 -39 -37.5 -67t-103.5 -28q-56 0 -183 30t-172 30q-38 0 -71.5 -17.5t-38.5 -35.5q-41 13 -41 63z" />
<glyph unicode="&#x2000;" horiz-adv-x="961" />
<glyph unicode="&#x2001;" horiz-adv-x="1923" />
<glyph unicode="&#x2002;" horiz-adv-x="961" />
<glyph unicode="&#x2003;" horiz-adv-x="1923" />
<glyph unicode="&#x2004;" horiz-adv-x="641" />
<glyph unicode="&#x2005;" horiz-adv-x="480" />
<glyph unicode="&#x2006;" horiz-adv-x="320" />
<glyph unicode="&#x2007;" horiz-adv-x="320" />
<glyph unicode="&#x2008;" horiz-adv-x="240" />
<glyph unicode="&#x2009;" horiz-adv-x="384" />
<glyph unicode="&#x200a;" horiz-adv-x="106" />
<glyph unicode="&#x2010;" horiz-adv-x="874" d="M111 543q0 78 82 78h552q17 -20 17 -70q0 -82 -86 -82h-547q-18 36 -18 74z" />
<glyph unicode="&#x2011;" horiz-adv-x="874" d="M111 543q0 78 82 78h552q17 -20 17 -70q0 -82 -86 -82h-547q-18 36 -18 74z" />
<glyph unicode="&#x2012;" horiz-adv-x="874" d="M111 543q0 78 82 78h552q17 -20 17 -70q0 -82 -86 -82h-547q-18 36 -18 74z" />
<glyph unicode="&#x2013;" horiz-adv-x="1073" d="M111 549q0 32 16 52t49 20h770q17 -27 17 -74q0 -78 -74 -78h-762q-16 40 -16 80z" />
<glyph unicode="&#x2014;" horiz-adv-x="1384" d="M111 545q0 33 17.5 54.5t55.5 21.5h1076q14 -18 14 -70q0 -34 -15 -58t-47 -24h-1085q-16 40 -16 76z" />
<glyph unicode="&#x2018;" horiz-adv-x="358" d="M82 1192q0 111 30.5 176.5t73.5 65.5q46 0 54 -35q-27 -25 -42.5 -75t-15.5 -85q45 0 69.5 -23.5t24.5 -68.5q0 -96 -94 -96q-50 0 -75 31.5t-25 109.5z" />
<glyph unicode="&#x2019;" horiz-adv-x="358" d="M82 1337q0 97 94 97q50 0 75 -32t25 -110q0 -111 -30.5 -176t-73.5 -65q-45 0 -53 34q26 25 41.5 74.5t15.5 85.5q-45 0 -69.5 23.5t-24.5 68.5z" />
<glyph unicode="&#x201a;" horiz-adv-x="358" d="M82 92q0 96 94 96q50 0 75 -31.5t25 -109.5q0 -111 -30.5 -176.5t-73.5 -65.5q-45 0 -53 35q26 25 41.5 74.5t15.5 85.5q-45 0 -69.5 23.5t-24.5 68.5z" />
<glyph unicode="&#x201c;" horiz-adv-x="610" d="M82 1194q0 111 30.5 176.5t73.5 65.5q46 0 54 -35q-27 -25 -42.5 -75t-15.5 -85q45 0 69.5 -23.5t24.5 -68.5q0 -96 -94 -96q-50 0 -75 31.5t-25 109.5zM334 1194q0 111 30.5 176.5t73.5 65.5q46 0 54 -35q-27 -25 -42.5 -75t-15.5 -85q45 0 69.5 -23.5t24.5 -68.5 q0 -96 -94 -96q-50 0 -75 31.5t-25 109.5z" />
<glyph unicode="&#x201d;" horiz-adv-x="610" d="M82 1339q0 97 94 97q50 0 75 -32t25 -110q0 -111 -30.5 -176t-73.5 -65q-45 0 -53 34q26 25 41.5 74.5t15.5 85.5q-45 0 -69.5 23.5t-24.5 68.5zM334 1339q0 97 94 97q50 0 75 -32t25 -110q0 -111 -30.5 -176t-73.5 -65q-45 0 -53 34q26 25 41.5 74.5t15.5 85.5 q-45 0 -69.5 23.5t-24.5 68.5z" />
<glyph unicode="&#x201e;" horiz-adv-x="610" d="M82 92q0 96 94 96q50 0 75 -31.5t25 -109.5q0 -111 -30.5 -176.5t-73.5 -65.5q-45 0 -53 35q26 25 41.5 74.5t15.5 85.5q-45 0 -69.5 23.5t-24.5 68.5zM334 92q0 96 94 96q50 0 75 -31.5t25 -109.5q0 -111 -30.5 -176.5t-73.5 -65.5q-45 0 -53 35q26 25 41.5 74.5 t15.5 85.5q-45 0 -69.5 23.5t-24.5 68.5z" />
<glyph unicode="&#x2022;" horiz-adv-x="534" d="M115 545q0 170 164 170q165 0 165 -170q0 -162 -165 -162q-164 0 -164 162z" />
<glyph unicode="&#x2026;" horiz-adv-x="1052" d="M82 92q0 96 92 96q94 0 94 -96q0 -92 -94 -92q-92 0 -92 92zM432 92q0 96 94 96q95 0 95 -96q0 -92 -95 -92q-94 0 -94 92zM784 92q0 96 93 96q94 0 94 -96q0 -92 -94 -92q-93 0 -93 92z" />
<glyph unicode="&#x202f;" horiz-adv-x="384" />
<glyph unicode="&#x2039;" horiz-adv-x="602" d="M82 502q0 41 24 71l312 349q16 8 37 8q27 0 46 -21.5t19 -46.5q0 -30 -22 -55l-273 -309l287 -332q6 -24 6 -35q0 -25 -21.5 -42t-45.5 -17q-37 0 -60 30l-293 330q-16 29 -16 70z" />
<glyph unicode="&#x203a;" horiz-adv-x="602" d="M82 139q0 31 22 56l273 309l-287 332q-6 24 -6 34q0 25 22 42.5t46 17.5q35 0 59 -31l293 -330q16 -29 16 -69q0 -42 -24 -72l-312 -348q-16 -8 -37 -8q-27 0 -46 21.5t-19 45.5z" />
<glyph unicode="&#x205f;" horiz-adv-x="480" />
<glyph unicode="&#x20ac;" horiz-adv-x="1396" d="M49 850q0 39 16.5 56.5t73.5 17.5h103q43 261 196 392.5t391 131.5q156 0 270.5 -35.5t155.5 -95.5q16 -22 18.5 -46t-7.5 -36q-24 -42 -66 -49q-124 110 -371 110q-168 0 -277.5 -93.5t-145.5 -278.5h575q14 -14 14 -54q0 -75 -104 -75h-508q-2 -29 -2 -84q0 -49 2 -72 h530q15 -12 15 -51q0 -78 -107 -78h-418q66 -369 426 -369q128 0 235.5 50t145.5 120q27 8 60 -4q23 -7 33 -20q30 -34 -3 -90q-21 -35 -58.5 -68t-94 -65.5t-139.5 -52t-179 -19.5q-117 0 -213 29t-173 90t-128.5 162t-72.5 237h-179q-12 24 -12 45q-3 18 0 39q5 23 24 34 t64 11h86v76q0 53 2 80h-164q-14 28 -14 55z" />
<glyph unicode="&#x2122;" horiz-adv-x="1488" d="M6 1374q-3 15 0 29q3 22 22.5 28.5t61.5 6.5h520q13 -26 13 -47q0 -26 -11 -43t-30 -17h-211v-618q-16 -8 -66 -8q-27 0 -37 22t-10 64v540h-242q-10 20 -10 43zM670 713l47 596q2 28 5.5 47t11.5 39.5t25 31.5t42 11q33 0 55 -11l215 -532l152 432q35 111 96 111 q35 0 70 -15l90 -704q-20 -14 -62 -14q-27 0 -41.5 8t-17.5 32l-49 488l-162 -432q-11 -39 -29 -50.5t-49 -11.5q-54 0 -74 62l-178 430l-33 -486q-3 -40 -57 -40q-41 0 -57 8z" />
<glyph unicode="&#x25fc;" horiz-adv-x="983" d="M0 0v983h983v-983h-983z" />
</font>
</defs>
</svg>
